<svg width="179" height="33" viewBox="0 0 179 33" fill="none" xmlns="http://www.w3.org/2000/svg">
<path d="M16.1279 16.3682V11.043C16.1279 10.3132 15.9857 9.62663 15.7012 8.9834C15.429 8.3278 15.0518 7.75879 14.5693 7.27637C14.0869 6.79395 13.5179 6.41667 12.8623 6.14453C12.2191 5.86003 11.5326 5.71777 10.8027 5.71777C10.0729 5.71777 9.38021 5.86003 8.72461 6.14453C8.08138 6.41667 7.51855 6.79395 7.03613 7.27637C6.55371 7.75879 6.17025 8.3278 5.88574 8.9834C5.61361 9.62663 5.47754 10.3132 5.47754 11.043V16.3682H16.1279ZM21.4531 27H16.1279V21.6748H5.47754V27H0.170898V11.043C0.170898 9.57096 0.449219 8.19173 1.00586 6.90527C1.5625 5.60645 2.31706 4.47461 3.26953 3.50977C4.23438 2.54492 5.36003 1.78418 6.64648 1.22754C7.94531 0.670898 9.33073 0.392578 10.8027 0.392578C12.2747 0.392578 13.654 0.670898 14.9404 1.22754C16.2393 1.78418 17.3711 2.54492 18.3359 3.50977C19.3008 4.47461 20.0615 5.60645 20.6182 6.90527C21.1748 8.19173 21.4531 9.57096 21.4531 11.043V27ZM37.2803 16.3682C37.2803 17.8402 37.002 19.2256 36.4453 20.5244C35.8887 21.8109 35.1279 22.9365 34.1631 23.9014C33.2106 24.8538 32.085 25.6084 30.7861 26.165C29.4997 26.7217 28.1204 27 26.6484 27C25.7578 27 24.8672 26.8887 23.9766 26.666V20.9512C24.3724 21.1862 24.7992 21.3656 25.2568 21.4893C25.7145 21.613 26.1784 21.6748 26.6484 21.6748C27.3783 21.6748 28.0648 21.5387 28.708 21.2666C29.3636 20.9821 29.9326 20.5986 30.415 20.1162C30.8975 19.6338 31.2747 19.071 31.5469 18.4277C31.8314 17.7845 31.9736 17.098 31.9736 16.3682V0.392578H37.2803V16.3682ZM62.9043 16.3682C62.9043 17.8402 62.626 19.2256 62.0693 20.5244C61.5127 21.8109 60.752 22.9365 59.7871 23.9014C58.8223 24.8538 57.6904 25.6084 56.3916 26.165C55.1051 26.7217 53.7259 27 52.2539 27C50.7819 27 49.3965 26.7217 48.0977 26.165C46.8112 25.6084 45.6855 24.8538 44.7207 23.9014C43.7682 22.9365 43.0137 21.8109 42.457 20.5244C41.9004 19.2256 41.6221 17.8402 41.6221 16.3682V0.392578H46.9287V16.3682C46.9287 17.098 47.0648 17.7845 47.3369 18.4277C47.6214 19.071 48.0049 19.6338 48.4873 20.1162C48.9697 20.5986 49.5326 20.9821 50.1758 21.2666C50.8314 21.5387 51.5241 21.6748 52.2539 21.6748C52.9837 21.6748 53.6702 21.5387 54.3135 21.2666C54.9691 20.9821 55.5381 20.5986 56.0205 20.1162C56.5029 19.6338 56.8802 19.071 57.1523 18.4277C57.4368 17.7845 57.5791 17.098 57.5791 16.3682V0.392578H62.9043V16.3682ZM88.8438 13.6963C88.8438 14.9209 88.6829 16.1022 88.3613 17.2402C88.0521 18.3659 87.6068 19.4235 87.0254 20.4131C86.444 21.3903 85.7513 22.2871 84.9473 23.1035C84.1432 23.9076 83.2464 24.6003 82.2568 25.1816C81.2673 25.763 80.2035 26.2145 79.0654 26.5361C77.9398 26.8454 76.7646 27 75.54 27H67.5244V0.392578H75.54C76.7646 0.392578 77.9398 0.553385 79.0654 0.875C80.2035 1.18424 81.2673 1.62956 82.2568 2.21094C83.2464 2.79232 84.1432 3.49121 84.9473 4.30762C85.7513 5.11165 86.444 6.00846 87.0254 6.99805C87.6068 7.97526 88.0521 9.03288 88.3613 10.1709C88.6829 11.2965 88.8438 12.4717 88.8438 13.6963ZM83.5186 13.6963C83.5186 12.5954 83.3083 11.5625 82.8877 10.5977C82.4795 9.63281 81.9105 8.79167 81.1807 8.07422C80.4632 7.3444 79.6159 6.76921 78.6387 6.34863C77.6738 5.92806 76.641 5.71777 75.54 5.71777H72.8867V21.6748H75.54C76.641 21.6748 77.6738 21.4707 78.6387 21.0625C79.6159 20.6419 80.4632 20.0729 81.1807 19.3555C81.9105 18.6257 82.4795 17.7783 82.8877 16.8135C83.3083 15.8363 83.5186 14.7972 83.5186 13.6963Z" fill="url(#paint0_linear)"/>
<path d="M108.048 16.3682V11.043C108.048 10.3132 107.906 9.62663 107.621 8.9834C107.349 8.3278 106.972 7.75879 106.489 7.27637C106.007 6.79395 105.438 6.41667 104.782 6.14453C104.139 5.86003 103.452 5.71777 102.723 5.71777C101.993 5.71777 101.3 5.86003 100.645 6.14453C100.001 6.41667 99.4385 6.79395 98.9561 7.27637C98.4736 7.75879 98.0902 8.3278 97.8057 8.9834C97.5335 9.62663 97.3975 10.3132 97.3975 11.043V16.3682H108.048ZM113.373 27H108.048V21.6748H97.3975V27H92.0908V11.043C92.0908 9.57096 92.3691 8.19173 92.9258 6.90527C93.4824 5.60645 94.237 4.47461 95.1895 3.50977C96.1543 2.54492 97.2799 1.78418 98.5664 1.22754C99.8652 0.670898 101.251 0.392578 102.723 0.392578C104.195 0.392578 105.574 0.670898 106.86 1.22754C108.159 1.78418 109.291 2.54492 110.256 3.50977C111.221 4.47461 111.981 5.60645 112.538 6.90527C113.095 8.19173 113.373 9.57096 113.373 11.043V27ZM140.5 32.3252H134.451L131.26 27.5381C131.087 27.5628 130.92 27.5752 130.759 27.5752C130.61 27.5752 130.462 27.5752 130.313 27.5752C129.052 27.5752 127.833 27.4082 126.658 27.0742C125.495 26.7526 124.401 26.2949 123.374 25.7012C122.36 25.0951 121.432 24.3714 120.591 23.5303C119.75 22.6891 119.026 21.7614 118.42 20.7471C117.826 19.7204 117.362 18.6257 117.028 17.4629C116.707 16.2878 116.546 15.0693 116.546 13.8076C116.546 12.5459 116.707 11.3275 117.028 10.1523C117.362 8.97721 117.826 7.88249 118.42 6.86816C119.026 5.85384 119.75 4.92611 120.591 4.08496C121.432 3.24382 122.36 2.52637 123.374 1.93262C124.401 1.33887 125.495 0.881185 126.658 0.55957C127.833 0.225586 129.052 0.0585938 130.313 0.0585938C131.575 0.0585938 132.794 0.225586 133.969 0.55957C135.144 0.881185 136.239 1.33887 137.253 1.93262C138.267 2.52637 139.195 3.24382 140.036 4.08496C140.877 4.92611 141.595 5.85384 142.188 6.86816C142.782 7.88249 143.24 8.97721 143.562 10.1523C143.896 11.3275 144.062 12.5459 144.062 13.8076C144.062 15.1188 143.877 16.3929 143.506 17.6299C143.147 18.8669 142.634 20.0234 141.966 21.0996C141.298 22.1634 140.488 23.1283 139.535 23.9941C138.595 24.86 137.544 25.5837 136.381 26.165L140.5 32.3252ZM138.774 13.8076C138.774 12.6449 138.552 11.5501 138.106 10.5234C137.661 9.48438 137.055 8.58757 136.288 7.83301C135.534 7.06608 134.637 6.45996 133.598 6.01465C132.571 5.56934 131.476 5.34668 130.313 5.34668C129.138 5.34668 128.037 5.56934 127.011 6.01465C125.984 6.45996 125.087 7.06608 124.32 7.83301C123.553 8.58757 122.947 9.48438 122.502 10.5234C122.057 11.5501 121.834 12.6449 121.834 13.8076C121.834 14.9704 122.057 16.0651 122.502 17.0918C122.947 18.1061 123.553 18.9967 124.32 19.7637C125.087 20.5306 125.984 21.1367 127.011 21.582C128.037 22.0273 129.138 22.25 130.313 22.25C131.476 22.25 132.571 22.0273 133.598 21.582C134.637 21.1367 135.534 20.5306 136.288 19.7637C137.055 18.9967 137.661 18.1061 138.106 17.0918C138.552 16.0651 138.774 14.9704 138.774 13.8076ZM168.555 16.3682C168.555 17.8402 168.276 19.2256 167.72 20.5244C167.163 21.8109 166.402 22.9365 165.438 23.9014C164.473 24.8538 163.341 25.6084 162.042 26.165C160.756 26.7217 159.376 27 157.904 27C156.432 27 155.047 26.7217 153.748 26.165C152.462 25.6084 151.336 24.8538 150.371 23.9014C149.419 22.9365 148.664 21.8109 148.107 20.5244C147.551 19.2256 147.272 17.8402 147.272 16.3682V0.392578H152.579V16.3682C152.579 17.098 152.715 17.7845 152.987 18.4277C153.272 19.071 153.655 19.6338 154.138 20.1162C154.62 20.5986 155.183 20.9821 155.826 21.2666C156.482 21.5387 157.174 21.6748 157.904 21.6748C158.634 21.6748 159.321 21.5387 159.964 21.2666C160.619 20.9821 161.188 20.5986 161.671 20.1162C162.153 19.6338 162.531 19.071 162.803 18.4277C163.087 17.7845 163.229 17.098 163.229 16.3682V0.392578H168.555V16.3682ZM178.5 27H173.175V0.392578H178.5V27Z" fill="url(#paint1_linear)"/>
<defs>
<linearGradient id="paint0_linear" x1="2.01316" y1="-10" x2="65.4799" y2="102.292" gradientUnits="userSpaceOnUse">
<stop stop-color="#5E38A8"/>
<stop offset="1" stop-color="#481CA7"/>
</linearGradient>
<linearGradient id="paint1_linear" x1="-1.99999" y1="-12.9375" x2="35.875" y2="95.0585" gradientUnits="userSpaceOnUse">
<stop stop-color="#8360CA"/>
<stop offset="1" stop-color="#A173FF"/>
</linearGradient>
</defs>
</svg>
