<svg width="565" height="558" viewBox="0 0 565 558" fill="none" xmlns="http://www.w3.org/2000/svg">
<path d="M2.70433 558H564V0.224595H558.008L440.655 460.539L2.70433 558Z" fill="#D8CDEE"/>
<path fill-rule="evenodd" clip-rule="evenodd" d="M359.353 519.551C334.877 508.211 305.793 494.736 300.229 479.695C285.776 440.628 229.205 424.144 165.609 436.935C212.06 494.643 282.563 539.88 354.198 557.5C420.476 551.679 394.382 535.78 359.353 519.551Z" fill="#D8CDEE"/>
<path d="M2.70433 558L198.972 557.5C274.611 557.5 324.631 557.5 354.198 557.5C282.563 539.88 212.06 494.643 165.609 436.935C153.777 439.314 141.703 442.707 129.611 447.156C52.5233 475.521 -14.4369 511.665 2.70433 558Z" fill="#D8CDEE"/>
<path fill-rule="evenodd" clip-rule="evenodd" d="M165.609 436.935C212.06 494.643 282.563 539.88 354.198 557.5C420.476 551.679 394.382 535.78 359.353 519.551C334.877 508.211 305.793 494.736 300.229 479.695C285.776 440.628 229.205 424.144 165.609 436.935Z" fill="#D8CDEE"/>
<path d="M457.19 558C493.559 553.563 518.479 559.235 535.036 556.793C553.497 554.072 561.564 541.264 563.514 493.116C565.03 455.695 562.852 396.927 558.99 304.953C558.99 141.614 558.494 56.3989 558.99 0C412.638 0 110.054 122.42 110.054 285.759C110.054 343.2 131.472 394.526 165.609 436.935C229.205 424.144 285.776 440.628 300.229 479.695C305.793 494.736 334.877 508.211 359.353 519.551C394.382 535.78 420.476 551.679 354.198 557.5C379.33 557.5 432.339 558 457.19 558Z" fill="#D8CDEE"/>
<path d="M535.036 556.793H564L563.514 493.116C561.564 541.264 553.497 554.072 535.036 556.793Z" fill="#D8CDEE"/>
<path d="M545 10C545 4.47715 549.477 0 555 0H565V558H545V10Z" fill="#D8CDEE"/>
<path d="M455.33 531.811C445.621 531.762 435.857 531.228 426.147 530.694C399.057 529.19 371.966 527.686 344.822 526.181C340.584 525.938 335.165 524.871 335.004 521.716C334.843 518.902 339.189 517.252 342.837 516.572C355.926 514.049 369.605 514 383.124 514C402.973 514 422.875 514.146 442.724 514.388C455.116 514.534 467.884 514.825 479.31 518.368C485.533 520.309 494.599 527.88 484.406 530.986C481.616 531.859 475.984 531.18 472.98 531.325C467.186 531.665 461.231 531.859 455.33 531.811Z" fill="url(#paint0_linear)"/>
<path opacity="0.22" d="M455.33 531.993C445.621 531.944 435.857 531.404 426.147 530.865C399.057 529.345 371.966 527.825 344.822 526.306C340.584 526.061 335.165 524.982 335.004 521.795C334.843 518.952 339.189 517.285 342.837 516.598C355.926 514.049 369.605 514 383.124 514C402.973 514 422.875 514.147 442.724 514.392C455.116 514.539 467.884 514.833 479.31 518.412C485.533 520.373 494.599 528.022 484.406 531.159C481.616 532.042 475.984 531.355 472.98 531.502C467.186 531.846 461.231 532.042 455.33 531.993Z" fill="url(#paint1_linear)"/>
<path d="M293.165 132.522C295.011 132.231 296.886 131.925 298.76 132.017C299.127 132.032 299.521 132.078 299.789 132.338C300.043 132.583 300.128 132.966 300.212 133.333C302.129 142.275 304.032 151.216 305.948 160.157C305.977 160.31 306.019 160.463 305.991 160.616C305.934 160.969 305.61 161.168 305.328 161.321C300.536 163.847 295.011 163.954 289.698 164C289.233 164 288.74 164 288.373 163.709C287.964 163.403 287.809 162.852 287.668 162.331C285.498 153.895 284.99 145.046 283.172 136.503C283.045 135.905 282.905 135.262 283.088 134.665C283.482 133.379 286.245 133.624 287.26 133.471C289.219 133.165 291.192 132.843 293.165 132.522Z" fill="#545454"/>
<path d="M292.988 133.53C294.613 133.244 296.265 132.958 297.904 133.005C298.226 133.021 298.576 133.053 298.804 133.291C299.019 133.514 299.1 133.848 299.167 134.181C300.765 142.223 302.364 150.265 303.962 158.323C303.989 158.45 304.016 158.593 303.989 158.736C303.935 159.054 303.653 159.245 303.398 159.388C299.167 161.724 294.304 161.883 289.63 161.994C289.227 162.01 288.797 162.01 288.461 161.756C288.112 161.486 287.964 160.977 287.857 160.516C286.03 152.919 285.654 144.957 284.136 137.265C284.029 136.724 283.921 136.152 284.082 135.612C284.445 134.436 286.863 134.642 287.749 134.483C289.509 134.15 291.255 133.832 292.988 133.53Z" fill="#F7F7F7"/>
<path d="M296.049 162.772C296.08 162.824 296.13 162.865 296.17 162.896C296.281 162.968 296.402 163.009 296.532 162.998C296.663 162.988 296.784 162.937 296.864 162.844C297.116 162.546 297.015 162.032 296.583 162.001C296.261 161.98 295.858 162.453 296.049 162.772Z" fill="#F7F7F7"/>
<path d="M377.899 90.0813C381.781 91.6828 385.518 92.702 388.236 92.7505C391.439 92.799 394.399 91.1976 397.214 89.6932C402.989 86.5387 409.056 83.0445 412.016 77.1724C413.714 73.7267 414.151 69.7958 414.491 65.9619C415.316 56.3044 415.704 46.6468 415.607 36.9408C415.559 31.9907 415.316 26.7009 412.55 22.5759C407.939 15.5875 398.379 14.3742 389.983 13.8889C381.733 13.4036 372.997 13.0154 365.669 16.8978C358.05 20.9744 359.797 26.9921 359.215 34.4657C358.487 43.8321 358.05 53.247 357.953 62.6133C357.905 67.9516 358.099 73.5811 360.865 78.143C363.534 82.4621 370.911 87.2181 377.899 90.0813Z" fill="#EADDD0"/>
<path d="M425.846 391.066C424.487 354.571 427.156 317.397 426.865 280.66C427.69 267.945 426.283 254.987 422.74 243C422.497 242.272 422.303 241.496 421.867 240.913C420.508 239.166 418.227 240.088 416.431 241.01C399.3 250.037 379.014 247.95 363.339 235.284C360.233 241.253 359.36 248.63 358.632 255.715C357.419 267.168 356.108 278.621 355.768 290.172V290.22C355.72 292.695 355.671 295.17 355.72 297.645C355.962 312.01 358.146 326.132 359.893 340.303C361.01 349.524 362.029 358.842 362.126 368.16C362.223 375.827 361.398 382.816 362.757 390.289C366.105 408.731 366.154 428.822 367.561 447.701C369.114 467.889 370.619 488.078 371.88 508.315C371.929 509.14 371.977 509.916 372.026 510.741C372.851 511.033 385.081 514.575 385.081 510.547C386.003 471.286 386.925 432.025 387.847 392.764C388.235 376.264 387.216 320.454 390.468 304.682C391.826 304.876 393.185 305.022 394.544 305.216C402.066 357.143 411.093 448.137 418.615 500.065C419.294 504.627 420.071 509.577 422.449 512.537C424.827 515.497 429.243 514.624 429.971 510.111C427.593 470.413 427.302 430.764 425.846 391.066Z" fill="#4D4D4D"/>
<path d="M390.419 510.403C390.274 509.966 390.177 509.481 390.031 509.044C388.527 503.123 387.75 497.008 387.75 490.893C387.75 488.127 387.896 485.312 387.265 482.595C383.722 482.643 373.773 482.012 370.231 482.061C369.94 482.061 369.6 482.061 369.357 482.255C369.115 482.449 369.018 482.838 368.969 483.129C367.416 491.573 372.657 500.842 370.765 509.238C369.988 512.586 366.882 513.8 364.019 515.498C361.544 517.003 356.642 520.642 353.682 520.642C351.983 521.322 350.188 522.001 348.926 523.36C347.664 524.719 347.179 526.951 348.344 528.407C349.363 529.669 351.207 529.766 352.809 529.815C365.135 529.912 377.51 528.844 389.643 526.612C390.371 526.466 391.147 526.32 391.681 525.787C392.118 525.35 392.312 524.768 392.458 524.234C393.865 518.847 391.827 515.062 390.419 510.403Z" fill="#BE9F3E"/>
<path d="M435.456 513.558C435.068 512.247 434.194 511.131 433.758 509.869C433.272 508.559 433.515 506.909 433.515 505.502C433.515 499.096 433.515 492.738 433.515 486.332C433.515 484.391 433.321 482.11 431.671 481.14C430.555 480.46 429.099 480.654 427.837 480.897C424.1 481.528 420.315 482.207 416.578 482.838C415.607 483.032 414.491 483.226 413.957 484.051C413.423 484.876 413.569 485.944 413.763 486.915C414.879 493.078 415.316 499.338 415.122 505.55C415.073 507.346 414.928 509.141 415.122 510.937C410.803 514.625 406.047 517.828 400.903 520.303C399.398 521.031 397.845 521.759 396.778 523.021C395.71 524.331 395.419 526.37 396.583 527.583C397.602 528.65 399.253 528.651 400.66 528.553C411.725 527.874 422.79 526.127 433.515 523.361C434.146 523.215 434.825 523.021 435.262 522.487C435.602 522.099 435.747 521.565 435.844 521.031C436.378 518.605 436.233 515.984 435.456 513.558Z" fill="#BE9F3E"/>
<path d="M377.85 103.379C379.452 102.845 381.053 102.214 382.606 101.632C390.517 98.5747 398.427 95.5173 406.289 92.5084C407.454 92.0717 408.715 91.5864 409.929 91.829C410.899 92.0231 411.676 92.6055 412.452 93.2364C427.254 105.126 431.282 124.49 435.359 142.106C449.772 204.371 454.383 268.673 448.996 332.248C413.714 338.314 378.093 342.293 342.278 344.138C344.268 344.041 348.295 300.509 348.781 296.238C351.45 271.1 352.857 245.767 352.566 220.483C352.275 195.101 353.585 169.769 355.381 144.436C356.109 134.196 356.934 123.956 357.856 113.716C358.196 109.688 369.794 105.563 372.706 104.932C374.502 104.447 376.2 103.913 377.85 103.379Z" fill="#FCEE9F"/>
<path d="M307.384 165.886C306.851 163.897 306.268 161.907 305.249 160.063C303.939 157.685 301.852 155.792 299.522 154.433C298.066 153.56 296.319 152.88 294.669 153.317C293.213 153.754 292.146 155.064 291.66 156.472C291.175 157.927 291.272 159.48 291.515 160.985C292.583 167.245 298.843 177.388 306.365 175.738C307.676 175.447 309.131 174.67 309.277 173.312C309.325 172.826 309.18 172.341 309.083 171.856C308.501 169.914 307.918 167.925 307.384 165.886Z" fill="#EADDD0"/>
<path d="M381.345 193.548C377.705 202.235 372.658 211.795 363.486 214.076C357.516 215.532 351.256 213.397 345.578 210.922C334.27 205.972 323.545 199.711 313.742 192.238C307.53 187.482 301.027 180.542 302.92 172.971C303.211 171.807 303.745 170.642 304.764 169.962C307.142 168.409 310.102 170.593 312.189 172.486C322.38 181.804 335.241 188.258 348.829 190.879C350.528 191.219 352.323 191.461 353.973 191.073C358.39 190.054 360.574 185.152 361.981 180.833C367.708 163.751 372.609 146.425 376.686 128.906C377.462 125.509 378.238 122.063 380.228 119.2C383.286 114.783 389.255 112.551 394.496 113.861C411.53 118.181 401.388 138.418 397.99 148.949C393.04 163.993 387.508 178.892 381.345 193.548Z" fill="#E0C74E"/>
<path d="M469.67 137.884C466.952 134.827 462.536 132.885 461.565 128.857C460.837 125.703 462.681 122.5 464.865 120.122C467.097 117.744 469.767 115.706 471.368 112.891C474.62 107.067 471.514 98.6716 465.205 96.3907C462.633 95.4686 459.818 95.4687 457.294 94.401C454.771 93.3819 452.539 90.6156 453.558 88.0435C454.577 85.3744 458.702 83.7729 457.78 81.1037C457.489 80.3272 456.858 79.7449 456.178 79.2596C453.994 77.6095 451.568 76.2992 448.996 75.3286C447.006 74.5521 444.871 73.9698 443.172 72.708C438.756 69.3594 438.659 62.7108 435.31 58.2945C434.631 57.3725 433.806 56.5959 432.932 55.9165C432.981 55.4312 432.981 54.9459 432.981 54.4606C433.078 50.6267 433.126 46.6958 431.719 43.1046C430.894 40.9692 429.535 39.0765 428.419 37.0868C428.371 37.0382 428.37 36.9412 428.322 36.8927C432.204 37.8633 436.523 37.3295 439.678 34.8544C443.318 31.9911 444.725 26.4102 442.299 22.4792C441.328 20.9262 439.921 19.7615 438.804 18.3056C435.31 13.6467 434.728 8.84226 428.031 8.25989C424.148 7.92018 419.538 8.55104 417.403 12.0937C411.433 4.08626 401.145 -0.232954 391.148 0.00969667C380.617 0.252348 370.571 5.05687 362.612 11.9482C360.137 14.132 357.759 16.5585 356.303 19.5189C354.847 22.4792 354.41 25.7793 354.119 29.0308C353.828 32.2338 353.294 37.0383 354.847 39.9986L354.556 41.6486C353.1 43.6384 354.993 46.4046 356.982 47.8605C369.746 57.518 389.158 54.5577 401.436 64.8461C406.629 69.1653 409.88 75.4257 411.822 81.9287C412.744 85.0347 413.423 88.2862 413.083 91.5377C412.307 98.8172 406.871 104.495 402.746 110.562C397.748 117.89 394.399 126.382 393.186 135.166C392.555 139.583 392.652 144.678 395.807 147.833C398.767 150.842 403.765 151.424 405.998 155.015C408.813 159.529 405.367 165.352 405.513 170.69C405.658 175.738 409.541 180.445 414.491 181.513C418.519 182.386 422.644 181.076 426.72 180.591C430.797 180.154 435.65 180.979 437.591 184.619C438.95 187.191 438.465 190.394 439.63 193.063C441.328 196.945 446.181 198.595 450.355 197.916C454.528 197.236 458.168 194.81 461.662 192.383C463.555 191.073 465.593 189.52 465.836 187.239C465.981 185.638 465.205 184.085 464.283 182.775C461.419 178.552 457.149 174.088 458.653 169.235C459.624 166.032 462.827 164.09 465.399 161.955C468.893 159.043 471.659 155.161 472.63 150.745C473.601 146.183 472.679 141.233 469.67 137.884Z" fill="#5E625E"/>
<defs>
<linearGradient id="paint0_linear" x1="489.01" y1="522.161" x2="335.075" y2="524.143" gradientUnits="userSpaceOnUse">
<stop stop-color="white"/>
<stop offset="1"/>
</linearGradient>
<linearGradient id="paint1_linear" x1="489.01" y1="522.245" x2="335.074" y2="524.207" gradientUnits="userSpaceOnUse">
<stop/>
<stop offset="1"/>
</linearGradient>
</defs>
</svg>
