<svg width="565" height="559" viewBox="0 0 565 559" fill="none" xmlns="http://www.w3.org/2000/svg">
<path d="M2.70433 558H564V0.224595H558.008L440.655 460.539L2.70433 558Z" fill="#D8CDEE"/>
<path fill-rule="evenodd" clip-rule="evenodd" d="M359.353 519.551C334.877 508.211 305.793 494.736 300.229 479.695C285.776 440.628 229.205 424.144 165.609 436.935C212.06 494.643 282.563 539.88 354.198 557.5C420.476 551.679 394.382 535.78 359.353 519.551Z" fill="#D8CDEE"/>
<path d="M2.70433 558L198.972 557.5C274.611 557.5 324.631 557.5 354.198 557.5C282.563 539.88 212.06 494.643 165.609 436.935C153.777 439.314 141.703 442.707 129.611 447.156C52.5233 475.521 -14.4369 511.665 2.70433 558Z" fill="#D8CDEE"/>
<path fill-rule="evenodd" clip-rule="evenodd" d="M165.609 436.935C212.06 494.643 282.563 539.88 354.198 557.5C420.476 551.679 394.382 535.78 359.353 519.551C334.877 508.211 305.793 494.736 300.229 479.695C285.776 440.628 229.205 424.144 165.609 436.935Z" fill="#D8CDEE"/>
<path d="M457.19 558C493.559 553.563 518.479 559.235 535.036 556.793C553.497 554.072 561.564 541.264 563.514 493.116C565.03 455.695 562.852 396.927 558.99 304.953C558.99 141.614 558.494 56.3989 558.99 0C412.638 0 110.054 122.42 110.054 285.759C110.054 343.2 131.472 394.526 165.609 436.935C229.205 424.144 285.776 440.628 300.229 479.695C305.793 494.736 334.877 508.211 359.353 519.551C394.382 535.78 420.476 551.679 354.198 557.5C379.33 557.5 432.339 558 457.19 558Z" fill="#D8CDEE"/>
<path d="M535.036 556.793H564L563.514 493.116C561.564 541.264 553.497 554.072 535.036 556.793Z" fill="#D8CDEE"/>
<path d="M545 10C545 4.47715 549.477 0 555 0H565V558H545V10Z" fill="#D8CDEE"/>
<g clip-path="url(#clip0)">
<path d="M319.487 525.926C332.664 526.362 345.793 526.12 358.922 525.926C395.626 525.296 432.33 524.665 469.034 524.035C474.736 523.938 482.116 522.774 482.499 518.652C482.883 514.967 477.085 512.591 472.149 511.524C454.564 507.596 436.116 506.821 417.86 506.142C391.026 505.172 364.145 504.348 337.263 503.717C320.493 503.329 303.243 503.038 287.622 507.112C279.093 509.342 266.491 518.798 280.051 523.404C283.789 524.665 291.407 524.083 295.432 524.423C303.483 525.102 311.485 525.683 319.487 525.926Z" fill="url(#paint0_linear)"/>
<path d="M319.487 525.926C332.664 526.362 345.793 526.12 358.922 525.926C395.626 525.296 432.33 524.665 469.034 524.035C474.736 523.938 482.116 522.774 482.499 518.652C482.883 514.967 477.085 512.591 472.149 511.524C454.564 507.596 436.116 506.821 417.86 506.142C391.026 505.172 364.145 504.348 337.263 503.717C320.493 503.329 303.243 503.038 287.622 507.112C279.093 509.342 266.491 518.798 280.051 523.404C283.789 524.665 291.407 524.083 295.432 524.423C303.483 525.102 311.485 525.683 319.487 525.926Z" fill="url(#paint1_linear)"/>
<path d="M283.979 251.033C284.459 252.148 284.171 253.506 283.548 254.524C282.925 255.591 282.063 256.464 281.248 257.385C279.332 259.664 277.99 262.38 276.169 264.659C275.642 265.289 275.019 265.92 274.204 265.92C273.486 265.92 272.863 265.386 272.144 265.435C271.282 265.483 270.658 266.259 270.036 266.841C268.502 268.296 266.202 268.877 264.142 268.247C262.129 267.665 260.452 265.92 259.973 263.834C259.159 260.634 261.075 257.288 263.471 255.058C265.867 252.827 268.838 251.227 271.185 248.899C272.096 248.027 272.863 247.008 273.821 246.232C274.779 245.408 275.977 244.826 277.223 244.826C279.14 244.826 279.667 246.281 280.626 247.59C281.584 248.851 283.309 249.53 283.979 251.033Z" fill="#F9E9DE"/>
<path d="M288.341 232.753C305.255 203.465 316.516 170.83 321.307 137.275C321.834 133.735 322.266 130.098 323.751 126.849C325.237 123.601 328.016 120.74 331.514 120.109C335.731 119.382 339.899 122.194 342.103 125.88C344.259 129.565 344.834 134.026 345.026 138.342C346.176 159.969 340.378 181.692 330.028 200.701C319.678 219.66 304.872 235.953 288.005 249.288C286.328 250.597 284.459 251.955 282.351 251.713C277.655 251.179 276.888 246.427 278.949 243.712C281.919 239.784 285.753 237.262 288.341 232.753Z" fill="#965E59"/>
<path d="M347.327 500.758C350.92 499.692 354.61 498.722 358.252 497.946C360.264 497.509 362.325 497.073 363.954 495.861C365.583 494.649 366.637 492.321 365.775 490.478C369.56 489.993 373.393 489.702 377.227 489.508C378.137 489.46 379.192 489.461 379.91 490.042C380.533 490.527 380.772 491.352 380.964 492.079C382.497 497.607 383.552 503.233 384.079 508.955C384.127 509.391 384.127 509.876 383.839 510.167C383.647 510.361 383.313 510.409 383.025 510.458C369.608 512.591 356.095 513.852 342.487 514.337C338.222 514.483 332.377 514.87 335.06 508.809C337.169 504.106 342.822 502.069 347.327 500.758Z" fill="#3D322B"/>
<path d="M424.04 488.055C421.884 488.297 419.392 488.782 418.529 490.48C417.667 492.225 419.104 494.213 418.577 496.007C418.338 496.88 417.667 497.656 416.9 498.335C414.409 500.469 411.054 501.682 407.7 502.7C404.394 503.718 400.944 504.688 398.117 506.482C395.29 508.277 393.134 511.186 393.469 514.192C408.563 514.483 423.657 513.514 438.559 511.38C439.086 511.283 439.661 511.186 440.044 510.895C440.427 510.556 440.524 510.022 440.572 509.489C440.907 503.815 437.936 498.577 436.738 493.146C436.354 491.4 436.977 487.813 434.917 486.94C432.857 486.018 426.388 487.764 424.04 488.055Z" fill="#3D322B"/>
<path d="M404.682 268.83C405.927 264.223 406.885 259.326 404.777 254.961C402.381 250.015 396.536 246.669 390.786 243.857C383.55 240.366 375.74 237.214 367.259 236.68C357.867 236.099 345.073 239.59 342.485 247.397C338.892 258.356 340.234 271.739 339.036 283.086C336.305 308.156 333.094 333.274 333.334 358.44C333.477 372.551 334.675 386.662 337.646 400.579C340.089 412.071 343.732 423.418 347.373 434.764C350.488 444.511 353.65 454.258 356.765 464.004C356.525 465.265 356.382 466.623 356.43 467.399C356.573 470.89 360.455 473.799 359.544 477.145C359.257 478.163 358.586 478.988 358.107 479.958C357.627 480.879 357.34 482.091 357.867 482.964C358.442 483.934 359.735 484.225 360.406 485.098C361.125 486.067 360.886 487.377 360.502 488.492C360.119 489.607 359.592 490.723 359.736 491.886C364.048 494.602 369.511 494.165 374.59 493.68C377.657 493.389 380.675 493.099 383.742 492.808C384.556 492.711 385.467 492.614 386.09 492.08C387.096 491.207 387.048 489.559 386.569 488.298C386.042 487.037 385.227 485.922 384.892 484.613C384.125 481.461 386.473 477.727 384.605 475.109C384.173 474.478 383.502 473.993 383.119 473.314C382.352 471.957 382.88 470.308 382.975 468.805C383.167 465.847 381.825 463.034 380.484 460.416C380.292 460.028 380.1 459.64 379.717 459.398C379.621 459.349 379.477 459.301 379.334 459.301C375.117 430.255 365.965 401.403 369.175 372.357C373.057 336.716 395.338 303.888 404.682 268.83Z" fill="#662E2A"/>
<path d="M438.129 267.762C438.32 265.677 438.32 263.495 437.649 261.506C436.834 259.13 435.109 257.239 433.193 255.639C426.149 249.917 416.422 248.414 407.51 249.917C401.233 250.984 391.361 253.215 387.049 258.548C383.216 263.301 383.695 271.835 383.072 277.508C380.868 298.165 379.382 318.968 378.568 339.722C378.232 348.402 378.041 357.178 379.191 365.761C380.245 373.568 382.449 381.181 384.605 388.746C388.966 403.875 393.326 419.004 399.459 433.502C403.005 441.843 407.174 449.941 409.809 458.621C410.288 461.191 410.097 463.858 408.899 466.185C408.516 466.961 408.036 467.688 407.797 468.513C407.413 469.87 407.797 471.374 408.708 472.392C409.522 473.313 410.768 473.798 411.534 474.768C412.493 475.932 412.637 477.58 412.445 479.035C412.254 480.538 411.726 481.945 411.438 483.399C411.343 483.836 411.295 484.272 411.486 484.708C411.726 485.242 412.253 485.484 412.732 485.824C414.218 486.939 414.745 489.218 413.882 490.867C416.949 491.982 420.351 491.643 423.561 491.012C426.772 490.382 429.982 489.461 433.241 489.509C434.007 489.509 434.822 489.606 435.588 489.412C436.355 489.218 437.074 488.685 437.266 487.909C437.601 486.6 436.356 485.533 435.781 484.321C435.301 483.351 435.253 482.187 435.253 481.12C435.205 479.132 435.158 477.144 435.11 475.156C435.062 473.944 435.062 472.731 434.631 471.616C434.199 470.501 433.385 469.531 432.762 468.513C431.276 465.846 431.324 462.597 431.132 459.542C430.941 456.584 430.51 453.578 429.791 450.717C429.647 450.232 429.551 449.698 429.216 449.262C429.168 449.165 429.024 449.116 428.976 449.019C428.305 438.594 427.443 428.217 425.238 418.034C423.705 411.148 421.597 404.408 420.303 397.522C418.866 389.812 418.53 381.908 418.578 374.053C418.674 347.529 422.843 321.004 430.941 295.741C433.864 286.528 437.362 277.363 438.129 267.762Z" fill="#662E2A"/>
<path d="M305.351 72.878C308.801 82.7701 313.019 93.1955 322.027 98.9659C328.592 103.185 337.216 104.348 344.883 101.972C352.549 99.6448 359.019 93.8744 361.989 86.7463C363.379 83.3519 364.05 79.7636 364.481 76.1753C366.014 64.3438 365.631 52.3666 363.426 40.7289C362.66 36.6557 359.833 33.5037 358.108 29.77C355.616 24.436 347.614 18.6656 343.398 17.3564C333.575 14.253 325.141 17.0171 316.085 20.2175C304.585 24.2907 300.224 35.104 298.691 45.5779C297.445 53.7243 302.668 65.2165 305.351 72.878Z" fill="#F9E9DE"/>
<path d="M362.372 71.9576C361.845 72.9274 361.892 74.0427 361.749 75.061C361.413 77.8735 359.976 80.492 358.586 83.0135C357.484 85.0016 356.334 86.9897 354.609 88.5414C352.884 90.0931 350.489 91.0629 348.189 90.578C344.547 89.7537 342.774 85.5835 339.228 84.5652C336.785 83.8863 334.197 84.8076 331.801 85.729C328.926 86.8442 325.907 88.105 323.895 90.4325C323.224 91.2084 322.697 92.1297 322.601 93.148C322.362 93.051 322.17 92.9056 321.883 92.8086C318.864 91.6448 316.037 89.8991 313.545 87.814C313.066 87.4261 312.299 86.9897 311.867 87.4261C311.484 87.814 311.724 88.4929 312.011 88.9778C314.167 92.6631 316.372 96.3969 319.199 99.6457C320.445 101.052 321.93 102.458 323.751 102.895C324.087 102.992 324.517 102.992 324.805 102.798C324.997 102.652 325.045 102.41 325.092 102.216C325.332 102.555 325.524 102.943 325.859 103.234C327.728 104.931 330.363 105.804 332.903 105.95C336.209 106.192 339.515 105.416 342.726 104.592C345.745 103.816 348.811 102.943 351.399 101.294C354.992 99.0154 357.484 95.4756 359.449 91.7903C362.851 85.341 364.816 78.2614 365.151 71.1333C364.289 70.4059 362.899 71.0363 362.372 71.9576ZM340.617 94.2633C340.617 95.2331 339.995 95.718 339.276 95.8635C338.701 96.2999 337.886 96.4454 337.12 95.912C336.353 95.3786 335.012 94.8937 333.814 94.8937C333.239 95.1361 332.664 95.3301 332.137 95.621C331.897 95.9605 331.705 96.3484 331.753 96.9303C331.849 98.385 330.124 99.9367 328.686 98.8214C327.44 97.8516 326.961 96.8333 326.865 95.815C326.482 95.0876 326.626 94.2148 327.393 93.7299C330.028 89.4142 340.522 86.9897 340.617 94.2633Z" fill="#EAEEEF"/>
<path d="M354.561 33.0681C353.363 35.5411 351.159 37.4808 350.153 40.0508C348.524 44.0755 350.153 48.6819 352.213 52.5127C352.692 53.434 353.267 54.3554 354.13 54.8403C355.423 55.5677 357.1 55.1798 358.298 54.2585C359.496 53.3371 360.263 52.0279 360.934 50.6702C363.666 45.5302 366.061 39.4689 364.048 33.9895C363.138 31.4195 361.318 29.2857 359.593 27.2006C358.443 25.7944 357.149 24.3882 355.376 23.9033C354.274 26.5218 356.046 30.0132 354.561 33.0681Z" fill="#EAEEEF"/>
<path d="M341.241 110.216C347.374 108.034 352.836 104.204 358.73 101.391C360.982 100.324 363.378 99.3545 365.87 99.3545C369.032 99.3545 371.956 100.858 374.591 102.555C389.158 111.962 408.515 126.024 416.278 141.687C435.876 181.304 446.849 225.285 445.555 269.556C445.507 271.545 445.364 273.678 444.07 275.133C442.968 276.442 441.195 276.927 439.565 277.363C413.403 284.201 367.355 286.043 340.378 284.831C338.126 284.734 335.683 284.54 333.958 283.037C332.185 281.534 331.561 279.012 331.082 276.733C325.38 249.578 332.233 224.557 327.393 197.208C324.039 178.055 320.876 158.755 319.918 139.262C319.63 132.958 317.138 119.866 321.451 114.581C325.62 109.489 335.491 112.253 341.241 110.216Z" fill="#AA6A64"/>
<path d="M275.068 255.397C257.722 254.524 251.732 279.594 253.218 293.656C254.032 301.269 264.287 299.863 262.945 292.25C262.178 287.886 261.364 272.514 266.204 269.556C273.679 261.943 281.009 264.61 287.43 275.909L290.881 285.849C293.468 297.148 291.935 309.707 291.408 321.247C290.401 342.486 289.491 363.774 288.58 385.012C286.855 426.375 286.328 467.592 286.328 508.955C286.328 511.234 289.587 511.234 289.635 508.955C290.593 473.896 292.174 438.837 293.612 403.778C295.049 369.059 299.649 333.855 299.457 299.184C299.362 283.861 293.803 256.319 275.068 255.397Z" fill="#A78E41"/>
<path d="M322.984 158.899C327.345 152.256 331.082 145.225 334.245 137.952C337.407 130.581 339.947 122.531 338.605 114.627C338.366 113.318 338.03 111.96 337.072 111.039C336.017 110.021 334.484 109.827 333.047 109.633C329.213 109.148 324.949 108.76 321.835 111.039C317.762 113.997 317.474 119.913 317.618 125.004C317.953 136.254 318.48 147.455 319.151 158.657C319.295 161.857 321.69 160.839 322.984 158.899Z" fill="#965E59"/>
<path d="M374.399 133.733C385.899 139.261 399.364 140.522 411.679 137.225C412.398 134.267 410.194 131.503 408.181 129.272C402.527 123.017 396.872 116.762 391.218 110.506C387.145 105.997 382.833 101.293 377.178 99.1111C371.428 96.8805 365.151 97.6079 359.449 99.693C356.718 100.711 353.268 102.02 351.064 103.96C348.045 106.579 348.285 106.385 349.866 110.118C354.226 120.301 364.72 129.03 374.399 133.733Z" fill="#965E59"/>
<path d="M296.63 134.702C295.432 133.975 294.186 133.199 292.844 133.005C289.442 132.423 286.759 135.187 284.651 137.709C281.824 141.055 277.703 147.067 279.715 152.256C280.721 154.826 283.118 156.669 285.418 158.269C294.186 164.379 299.649 169.131 309.328 173.543C311.436 174.513 313.64 175.434 315.845 175.337C320.253 175.095 323.032 170.925 325.092 167.143C326.434 164.767 327.775 162.003 326.961 159.287C326.482 157.735 325.332 156.426 324.23 155.214C316.324 146.777 306.405 140.667 296.63 134.702Z" fill="#4D4D4D"/>
<path d="M361.94 181.448C362.659 181.69 363.473 181.933 364.192 181.69C365.629 181.254 366.013 179.363 366.061 177.811C366.444 163.991 361.461 150.608 360.934 136.788C360.694 130.581 361.365 124.423 362.036 118.216C362.563 113.222 363.425 107.645 367.259 104.445C372.769 99.8383 381.729 102.99 385.754 108.954C389.779 114.919 390.259 122.532 390.594 129.757C391.552 152.208 392.175 174.999 387.192 196.868C386.569 199.535 385.802 202.347 383.886 204.287C381.634 206.615 378.136 207.293 374.973 206.857C371.811 206.421 368.84 205.014 365.917 203.608C351.638 196.771 337.407 189.934 323.127 183.097C321.163 182.175 319.102 181.108 318.096 179.169C316.227 175.484 319.294 170.295 322.121 167.968C326.098 164.67 328.207 166.513 332.471 168.792C341.911 173.932 351.782 178.151 361.94 181.448Z" fill="#965E59"/>
<path d="M302.332 167.724C300.703 166.803 299.026 165.833 298.068 164.233C297.349 162.972 297.157 161.469 297.109 160.014C297.061 157.978 297.445 155.553 299.266 154.632C300.655 153.953 302.332 154.487 303.722 155.214C305.111 155.942 306.405 156.911 307.939 157.056C309.424 157.25 310.958 156.669 312.395 157.056C314.264 157.541 315.366 159.433 316.755 160.791C318.097 162.1 319.822 162.972 321.307 164.039C322.841 165.106 324.278 166.561 324.661 168.404C324.997 170.149 324.326 172.04 323.08 173.349C319.918 176.598 316.995 174.901 313.449 173.349C309.616 171.749 305.974 169.712 302.332 167.724Z" fill="#F9E9DE"/>
</g>
<defs>
<linearGradient id="paint0_linear" x1="274.455" y1="511.311" x2="482.393" y2="521.444" gradientUnits="userSpaceOnUse">
<stop stop-color="#4D4D4D"/>
<stop offset="1"/>
</linearGradient>
<linearGradient id="paint1_linear" x1="274.455" y1="511.311" x2="482.393" y2="521.444" gradientUnits="userSpaceOnUse">
<stop/>
<stop offset="1"/>
</linearGradient>
<clipPath id="clip0">
<rect width="230" height="514" fill="white" transform="translate(253 16)"/>
</clipPath>
</defs>
</svg>
