<svg width="45" height="45" viewBox="0 0 45 45" fill="none" xmlns="http://www.w3.org/2000/svg">
<path d="M22.4168 44.1667C10.2202 44.1667 0.333496 34.28 0.333496 22.0833C0.333496 9.88671 10.2202 0 22.4168 0C34.6135 0 44.5002 9.88671 44.5002 22.0833C44.5002 34.28 34.6135 44.1667 22.4168 44.1667ZM22.4168 39.75C27.1023 39.75 31.5959 37.8887 34.9091 34.5756C38.2222 31.2624 40.0835 26.7688 40.0835 22.0833C40.0835 17.3978 38.2222 12.9043 34.9091 9.59111C31.5959 6.27797 27.1023 4.41667 22.4168 4.41667C17.7313 4.41667 13.2378 6.27797 9.92461 9.59111C6.61147 12.9043 4.75016 17.3978 4.75016 22.0833C4.75016 26.7688 6.61147 31.2624 9.92461 34.5756C13.2378 37.8887 17.7313 39.75 22.4168 39.75ZM11.3752 24.2917H15.7918C15.7918 26.0487 16.4898 27.7338 17.7322 28.9763C18.9747 30.2187 20.6598 30.9167 22.4168 30.9167C24.1739 30.9167 25.859 30.2187 27.1014 28.9763C28.3438 27.7338 29.0418 26.0487 29.0418 24.2917H33.4585C33.4585 27.2201 32.2952 30.0286 30.2245 32.0993C28.1538 34.17 25.3453 35.3333 22.4168 35.3333C19.4884 35.3333 16.6799 34.17 14.6092 32.0993C12.5385 30.0286 11.3752 27.2201 11.3752 24.2917ZM13.5835 19.875C12.705 19.875 11.8624 19.526 11.2412 18.9048C10.62 18.2836 10.271 17.441 10.271 16.5625C10.271 15.684 10.62 14.8414 11.2412 14.2202C11.8624 13.599 12.705 13.25 13.5835 13.25C14.462 13.25 15.3046 13.599 15.9258 14.2202C16.547 14.8414 16.896 15.684 16.896 16.5625C16.896 17.441 16.547 18.2836 15.9258 18.9048C15.3046 19.526 14.462 19.875 13.5835 19.875ZM31.2502 19.875C30.3716 19.875 29.5291 19.526 28.9079 18.9048C28.2867 18.2836 27.9377 17.441 27.9377 16.5625C27.9377 15.684 28.2867 14.8414 28.9079 14.2202C29.5291 13.599 30.3716 13.25 31.2502 13.25C32.1287 13.25 32.9712 13.599 33.5925 14.2202C34.2137 14.8414 34.5627 15.684 34.5627 16.5625C34.5627 17.441 34.2137 18.2836 33.5925 18.9048C32.9712 19.526 32.1287 19.875 31.2502 19.875Z" fill="url(#paint0_linear)"/>
<defs>
<linearGradient id="paint0_linear" x1="1.30206" y1="-2.344e-06" x2="53.7418" y2="23.8291" gradientUnits="userSpaceOnUse">
<stop stop-color="#5E38A8"/>
<stop offset="1" stop-color="#481CA7"/>
</linearGradient>
</defs>
</svg>
