<svg width="64" height="64" viewBox="0 0 64 64" fill="none" xmlns="http://www.w3.org/2000/svg">
<path d="M6 36H58C58 8 54 2 32 2C10 2 6 8 6 36Z" fill="#594640"/>
<path d="M55.8 29.9C55.6 31 55.4 32 55.1 32.6C54.5 33.6 53.4 34.2 53.4 34.2C53.4 34.2 53.7 32.1 53.6 29.2C52.4 11.8 51.4 16.6 32 16.6C12.6 16.6 11.6 11.8 10.4 29.1C10.3 32 10.6 34.2 10.6 34.2C10.6 34.2 9.5 33.6 8.9 32.6C8.6 32 8.4 31 8.2 29.9C6.4 29.4 4 29.8 4 35C4 38.2 5.2 40.9 9.3 41.2C10.6 51.4 16.6 56.6 26.5 61.1C29.2 62.3 34.8 62.3 37.5 61.1C47.5 56.6 53.4 51.4 54.7 41.2C58.8 40.9 60 38.3 60 35C60 29.8 57.6 29.4 55.8 29.9Z" fill="#D6A57C"/>
<path d="M41 48.9C41 52.3 36.5 54 32 54C27.5 54 23 52.3 23 48.9C23 48.9 23 48 23.9 48H40.1C41 48 41 48.9 41 48.9Z" fill="#664E27"/>
<path d="M20 28.6C15 28.6 13 30.4 13 32.2C13 34 13 36.6 19.6 36.6C26 36.6 27 35.8 27 33.1C27 31.3 25 28.6 20 28.6Z" fill="#F5F5F5"/>
<path d="M20.5 36.1C22.9853 36.1 25 34.0853 25 31.6C25 29.1147 22.9853 27.1 20.5 27.1C18.0147 27.1 16 29.1147 16 31.6C16 34.0853 18.0147 36.1 20.5 36.1Z" fill="#664E27"/>
<path d="M22 31.6C22 32.4 21.3 33.1 20.5 33.1C19.7 33.1 19 32.4 19 31.6C19 30.8 19.7 30.1 20.5 30.1C21.3 30.1 22 30.8 22 31.6Z" fill="#231F20"/>
<path d="M13 32.1C13 25.1 27 25.1 27 33.1C25 27.1 15 27.1 13 32.1Z" fill="#664E27"/>
<path d="M44 28.6C49 28.6 51 30.4 51 32.2C51 34 51 36.6 44.4 36.6C38 36.6 37 35.8 37 33.1C37 31.3 39 28.6 44 28.6Z" fill="#F5F5F5"/>
<path d="M43.5 36.1C45.9853 36.1 48 34.0853 48 31.6C48 29.1147 45.9853 27.1 43.5 27.1C41.0147 27.1 39 29.1147 39 31.6C39 34.0853 41.0147 36.1 43.5 36.1Z" fill="#664E27"/>
<path d="M42 31.6C42 32.4 42.7 33.1 43.5 33.1C44.3 33.1 45 32.4 45 31.6C45 30.8 44.3 30.1 43.5 30.1C42.7 30.1 42 30.8 42 31.6Z" fill="#231F20"/>
<path d="M51 32.1C51 25.1 37 25.1 37 33.1C39 27.1 49 27.1 51 32.1Z" fill="#664E27"/>
<path d="M32 45C27.8 45 25.7 42 27.8 42H36.2C38.3 42 36.2 45 32 45Z" fill="#B58360"/>
</svg>
