<svg width="61" height="60" viewBox="0 0 61 60" fill="none" xmlns="http://www.w3.org/2000/svg">
<path d="M31 19.2C39.2843 19.2 46 14.9019 46 9.6C46 4.29807 39.2843 0 31 0C22.7157 0 16 4.29807 16 9.6C16 14.9019 22.7157 19.2 31 19.2Z" fill="#627A82"/>
<path d="M31 23.2C39.2843 23.2 46 18.9019 46 13.6C46 8.29807 39.2843 4 31 4C22.7157 4 16 8.29807 16 13.6C16 18.9019 22.7157 23.2 31 23.2Z" fill="#C28FEF"/>
<path d="M56.3 26.8999C40.7 11.2999 21.2 11.1999 5.59998 26.8999L5.69998 44.1999C5.69998 51.6999 13.1 59.9999 31.4 59.9999C48.7 59.9999 56.3 53.1999 56.3 44.1999V26.8999Z" fill="#FED0AC"/>
<path d="M38.2 49.7C38.3 49.9 38.4 50.0999 38.4 50.2999C38.4 51.9999 35 54.0999 30.9 54.0999C26.8 54.0999 23.4 51.9999 23.4 50.2999C23.4 50.0999 23.5 49.8 23.6 49.7C23.6 49.7 26.8 51.2 30.9 51.2C35 51.2 38.2 49.7 38.2 49.7Z" fill="#454749"/>
<path d="M31 7.1001C1.50003 7.1001 -4.79997 30.8001 5.80003 39.1001C5.80003 39.1001 11 30.3001 21.9 26.1001C50.3 15.2001 42.4 7.1001 31 7.1001Z" fill="#748A93"/>
<path d="M31 7.1001C19.6 7.1001 11.7 15.2001 40.1 26.1001C51 30.3001 56.2 39.1001 56.2 39.1001C66.8 30.9001 60.4 7.1001 31 7.1001Z" fill="#8B9FA5"/>
<path d="M41.7999 52.4001C41.1999 52.4001 40.7 52.2001 40.2 52.0001C39.7 51.8001 39.1999 51.5001 38.7999 51.1001C37.9999 50.4001 37.2 49.3001 37.2 48.2001L39.4 50.4001C40.2 51.0001 40.9999 51.6001 41.7999 52.4001Z" fill="#454749"/>
<path d="M20 52.4001C20.8 51.6001 21.7 51.1001 22.4 50.4001C23.2 49.7001 23.9 49.1001 24.6 48.2001C24.6 49.4001 23.9 50.4001 23 51.1001C22.6 51.5001 22.1 51.8001 21.6 52.0001C21.2 52.2001 20.6 52.4001 20 52.4001Z" fill="#454749"/>
<path d="M16.6999 39.0001L16.3999 36.0001C17.1999 35.9001 18.2999 35.7001 19.4999 35.5001C25.3999 34.4001 35.1999 32.5001 45.8999 36.1001L44.8999 38.9001C34.9999 35.5001 25.6999 37.3001 20.0999 38.4001C18.7999 38.7001 17.5999 38.9001 16.6999 39.0001Z" fill="#454749"/>
<path d="M18.7 46.6001C23.6705 46.6001 27.7 42.5707 27.7 37.6001C27.7 32.6295 23.6705 28.6001 18.7 28.6001C13.7294 28.6001 9.69995 32.6295 9.69995 37.6001C9.69995 42.5707 13.7294 46.6001 18.7 46.6001Z" fill="#454749"/>
<path d="M18.7 43.6001C22.0137 43.6001 24.7 40.9138 24.7 37.6001C24.7 34.2864 22.0137 31.6001 18.7 31.6001C15.3862 31.6001 12.7 34.2864 12.7 37.6001C12.7 40.9138 15.3862 43.6001 18.7 43.6001Z" fill="#B4D7EE"/>
<path d="M43.3 46.6001C48.2706 46.6001 52.3 42.5707 52.3 37.6001C52.3 32.6295 48.2706 28.6001 43.3 28.6001C38.3295 28.6001 34.3 32.6295 34.3 37.6001C34.3 42.5707 38.3295 46.6001 43.3 46.6001Z" fill="#454749"/>
<path d="M43.3 43.6001C46.6138 43.6001 49.3 40.9138 49.3 37.6001C49.3 34.2864 46.6138 31.6001 43.3 31.6001C39.9863 31.6001 37.3 34.2864 37.3 37.6001C37.3 40.9138 39.9863 43.6001 43.3 43.6001Z" fill="#B4D7EE"/>
</svg>
