<svg width="20" height="20" viewBox="0 0 20 20" fill="none" xmlns="http://www.w3.org/2000/svg">
<path d="M9.11624 9.11624C8.62808 9.60439 8.62808 10.3958 9.11624 10.884L17.0712 18.8389C17.5593 19.3271 18.3508 19.3271 18.8389 18.8389C19.3271 18.3508 19.3271 17.5593 18.8389 17.0712L11.7679 10.0001L18.8389 2.92905C19.3271 2.4409 19.3271 1.64944 18.8389 1.16129C18.3508 0.673127 17.5593 0.673126 17.0712 1.16129L9.11624 9.11624ZM11.0001 8.75012H10.0001V11.2501H11.0001V8.75012Z" fill="#4E3681"/>
<path d="M10.884 10.884C11.3721 10.3958 11.3721 9.60439 10.884 9.11624L2.92905 1.16129C2.4409 0.673126 1.64944 0.673126 1.16129 1.16129C0.673126 1.64944 0.673126 2.4409 1.16129 2.92905L8.23235 10.0001L1.16129 17.0712C0.673126 17.5593 0.673126 18.3508 1.16129 18.8389C1.64944 19.3271 2.4409 19.3271 2.92905 18.8389L10.884 10.884ZM9.00012 11.2501L10.0001 11.2501V8.75012L9.00012 8.75012V11.2501Z" fill="#4E3681"/>
</svg>
