<svg width="360" height="48" viewBox="0 0 360 48" fill="none" xmlns="http://www.w3.org/2000/svg">
<path fill-rule="evenodd" clip-rule="evenodd" d="M360 21.9999H351C343 21.9999 326 21.9999 309 21.9999C291 21.9999 274 21.9999 257 19.9999C240 17.9999 223 14 206 14C189 14 171 18 154 32C137 47 120 48 103 48C85.9999 48 68.9999 47 50.9999 38C33.9999 29 16.9998 36 8.99982 40L-0.000179357 43L-0.000183105 -2.94745e-05L8.99982 -3.02643e-05C16.9998 -3.09656e-05 33.9998 -3.24545e-05 50.9998 -3.39448e-05C68.9998 -3.55228e-05 85.9998 -3.70143e-05 103 -3.85046e-05C120 -3.99949e-05 137 -4.14846e-05 154 -4.29749e-05C171 -4.44653e-05 189 -4.60444e-05 206 -4.75347e-05C223 -4.9025e-05 240 -5.05147e-05 257 -5.20051e-05C274 -5.34954e-05 291 -5.49868e-05 309 -5.65648e-05C326 -5.80551e-05 343 -5.95441e-05 351 -6.02454e-05L360 -6.10352e-05V21.9999Z" fill="#5E38A8" fill-opacity="0.2"/>
<path fill-rule="evenodd" clip-rule="evenodd" d="M360 36L345 32.9916C330 29.9833 300 23.9665 270 25.9721C240 27.9777 210 38.0056 180 34.9972C150 31.9888 120 15.9443 90 8.92476C60 1.90526 30 3.91083 15 4.91362L1.56197e-06 5.91641L1.03742e-06 -0.10031L15 -0.100312C30 -0.100313 60 -0.100315 90 -0.100318C120 -0.100321 150 -0.100323 180 -0.100326C210 -0.100329 240 -0.100331 270 -0.100334C300 -0.100337 330 -0.100339 345 -0.10034L360 -0.100342V36Z" fill="#5E38A8" fill-opacity="0.2"/>
</svg>
