<svg width="360" height="114" viewBox="0 0 360 114" fill="none" xmlns="http://www.w3.org/2000/svg">
<path fill-rule="evenodd" clip-rule="evenodd" d="M0 88.366L10 76.7142C20 63.8972 40 38.2632 60 27.7766C80 17.2899 100 21.9506 120 34.7676C140 46.4195 160 67.3927 180 72.0535C200 76.7142 220 63.8972 240 63.8972C260 63.8972 280 76.7142 300 72.0535C320 67.3927 340 46.4195 350 35.9328L360 25.4462V114H350C340 114 320 114 300 114C280 114 260 114 240 114C220 114 200 114 180 114C160 114 140 114 120 114C100 114 80 114 60 114C40 114 20 114 10 114H0V88.366Z" fill="#5E38A8" fill-opacity="0.2"/>
<path fill-rule="evenodd" clip-rule="evenodd" d="M0 0L8.73315 1.32558C16.496 3.97674 32.9919 9.27907 49.4879 23.8605C66.9542 37.1163 83.4501 60.9767 99.9461 63.6279C116.442 66.2791 132.938 47.7209 149.434 39.7674C165.93 33.1395 183.396 37.1163 199.892 49.0465C216.388 60.9767 232.884 80.8605 249.38 75.5581C265.876 71.5814 282.372 67.6047 299.838 70.2558C316.334 72.907 352.237 70.9186 360 86.8256V114H340.593C332.83 114 316.334 114 299.838 114C282.372 114 265.876 114 249.38 114C232.884 114 216.388 114 199.892 114C183.396 114 165.93 114 149.434 114C132.938 114 116.442 114 99.9461 114C83.4501 114 66.9542 114 49.4879 114C32.9919 114 16.496 114 8.73315 114H0V0Z" fill="#5E38A8" fill-opacity="0.2"/>
</svg>
