<svg width="45" height="44" viewBox="0 0 45 44" fill="none" xmlns="http://www.w3.org/2000/svg">
<path d="M22.5002 35C31.3002 35 33.5002 26 33.5002 26H11.5002C11.5002 26 13.7002 35 22.5002 35Z" fill="url(#paint0_linear)"/>
<path d="M22.5002 44C34.631 44 44.5002 34.1308 44.5002 22C44.5002 9.8692 34.631 0 22.5002 0C10.3694 0 0.500244 9.8692 0.500244 22C0.500244 34.1308 10.3694 44 22.5002 44ZM22.5002 4.4C32.2044 4.4 40.1002 12.2958 40.1002 22C40.1002 31.7042 32.2044 39.6 22.5002 39.6C12.796 39.6 4.90024 31.7042 4.90024 22C4.90024 12.2958 12.796 4.4 22.5002 4.4Z" fill="url(#paint1_linear)"/>
<path d="M14.9828 23L19.4172 18.505C19.7188 18.2042 19.9574 17.8464 20.1189 17.4527C20.2805 17.0589 20.3618 16.637 20.3582 16.2116C20.3546 15.7861 20.2661 15.3656 20.0978 14.9747C19.9296 14.5837 19.685 14.2301 19.3783 13.9344C18.7875 13.3488 17.9924 13.0141 17.1597 13.0004C16.327 12.9868 15.5212 13.2952 14.9114 13.8611C14.2925 13.3024 13.4803 13.0055 12.6461 13.0329C11.8119 13.0602 11.021 13.4098 10.4402 14.0078C9.17265 15.3026 9.18779 17.3095 10.4813 18.5762L14.9828 23ZM30.1248 23L34.5592 18.505C34.8608 18.2042 35.0993 17.8464 35.2609 17.4527C35.4224 17.0589 35.5038 16.637 35.5001 16.2116C35.4965 15.7861 35.408 15.3656 35.2398 14.9747C35.0715 14.5837 34.8269 14.2301 34.5202 13.9344C33.9294 13.3488 33.1343 13.0141 32.3016 13.0004C31.4689 12.9868 30.6632 13.2952 30.0534 13.8611C29.4346 13.3015 28.6221 13.0038 27.7874 13.0308C26.9527 13.0577 26.1612 13.4073 25.58 14.0056C24.3124 15.3004 24.3276 17.3073 25.6211 18.574L30.1248 23Z" fill="url(#paint2_linear)"/>
<defs>
<linearGradient id="paint0_linear" x1="1.46516" y1="-2.33515e-06" x2="53.707" y2="23.7392" gradientUnits="userSpaceOnUse">
<stop stop-color="#5E38A8"/>
<stop offset="1" stop-color="#481CA7"/>
</linearGradient>
<linearGradient id="paint1_linear" x1="1.46516" y1="-2.33515e-06" x2="53.707" y2="23.7392" gradientUnits="userSpaceOnUse">
<stop stop-color="#5E38A8"/>
<stop offset="1" stop-color="#481CA7"/>
</linearGradient>
<linearGradient id="paint2_linear" x1="1.46516" y1="-2.33515e-06" x2="53.707" y2="23.7392" gradientUnits="userSpaceOnUse">
<stop stop-color="#5E38A8"/>
<stop offset="1" stop-color="#481CA7"/>
</linearGradient>
</defs>
</svg>
