<svg width="720" height="720" viewBox="0 0 720 720" fill="none" xmlns="http://www.w3.org/2000/svg">
<path fill-rule="evenodd" clip-rule="evenodd" d="M0 694.366L20 682.714C40 669.897 80 644.263 120 633.777C160 623.29 200 627.951 240 640.768C280 652.419 320 673.393 360 678.053C400 682.714 440 669.897 480 669.897C520 669.897 560 682.714 600 678.053C640 673.393 680 652.419 700 641.933L720 631.446V720H700C680 720 640 720 600 720C560 720 520 720 480 720C440 720 400 720 360 720C320 720 280 720 240 720C200 720 160 720 120 720C80 720 40 720 20 720H0V694.366Z" fill="#5E38A8" fill-opacity="0.2"/>
<path fill-rule="evenodd" clip-rule="evenodd" d="M0 606L17.4663 607.326C32.9919 609.977 65.9838 615.279 98.9757 629.86C133.908 643.116 166.9 666.977 199.892 669.628C232.884 672.279 265.876 653.721 298.868 645.767C331.86 639.14 366.792 643.116 399.784 655.047C432.776 666.977 465.768 686.86 498.76 681.558C531.752 677.581 564.744 673.605 599.677 676.256C632.668 678.907 704.474 676.919 720 692.826V720H681.186C665.66 720 632.668 720 599.677 720C564.744 720 531.752 720 498.76 720C465.768 720 432.776 720 399.784 720C366.792 720 331.86 720 298.868 720C265.876 720 232.884 720 199.892 720C166.9 720 133.908 720 98.9757 720C65.9838 720 32.9919 720 17.4663 720H0V606Z" fill="#5E38A8" fill-opacity="0.2"/>
<rect x="720" width="720" height="720" transform="rotate(90 720 0)" fill="url(#paint0_linear)" fill-opacity="0.4"/>
<defs>
<linearGradient id="paint0_linear" x1="795.976" y1="330.5" x2="1463.08" y2="397.707" gradientUnits="userSpaceOnUse">
<stop stop-color="#FEFDFF"/>
<stop offset="0.511456" stop-color="#D8CDEE"/>
<stop offset="1" stop-color="#5E38A8"/>
</linearGradient>
</defs>
</svg>
