<svg width="22" height="27" viewBox="0 0 22 27" fill="none" xmlns="http://www.w3.org/2000/svg">
<path opacity="0.7" d="M15.3333 13.8375C15.3333 13.569 15.228 13.3114 15.0404 13.1216C14.8529 12.9317 14.5986 12.825 14.3333 12.825H7.66667C7.40145 12.825 7.1471 12.9317 6.95956 13.1216C6.77202 13.3114 6.66667 13.569 6.66667 13.8375V14.5125C6.66667 15.8625 8.51067 16.875 11 16.875C13.4893 16.875 15.3333 15.8625 15.3333 14.5125V13.8375ZM13.3333 9.10575C13.3333 7.803 12.2893 6.75 11 6.75C9.71067 6.75 8.66667 7.80165 8.66667 9.10575C8.66667 9.73232 8.9125 10.3332 9.35008 10.7763C9.78767 11.2193 10.3812 11.4683 11 11.4683C11.6188 11.4683 12.2123 11.2193 12.6499 10.7763C13.0875 10.3332 13.3333 9.73232 13.3333 9.10575ZM0 3.375C0 2.47989 0.35119 1.62145 0.976311 0.988515C1.60143 0.355579 2.44928 0 3.33333 0H18.6667C19.1044 0 19.5379 0.087297 19.9423 0.256907C20.3467 0.426516 20.7142 0.675117 21.0237 0.988515C21.3332 1.30191 21.5787 1.67397 21.7463 2.08344C21.9138 2.49292 22 2.93179 22 3.375V22.6125C22 22.881 21.8946 23.1386 21.7071 23.3284C21.5196 23.5183 21.2652 23.625 21 23.625H2C2 23.983 2.14048 24.3264 2.39052 24.5796C2.64057 24.8328 2.97971 24.975 3.33333 24.975H21C21.2652 24.975 21.5196 25.0817 21.7071 25.2716C21.8946 25.4614 22 25.719 22 25.9875C22 26.256 21.8946 26.5136 21.7071 26.7034C21.5196 26.8933 21.2652 27 21 27H3.33333C2.44928 27 1.60143 26.6444 0.976311 26.0115C0.35119 25.3786 0 24.5201 0 23.625V3.375ZM2 3.375V21.6H20V3.375C20 3.01696 19.8595 2.67358 19.6095 2.42041C19.3594 2.16723 19.0203 2.025 18.6667 2.025H3.33333C2.97971 2.025 2.64057 2.16723 2.39052 2.42041C2.14048 2.67358 2 3.01696 2 3.375Z" fill="white"/>
</svg>
