<svg width="26" height="26" viewBox="0 0 26 26" fill="none" xmlns="http://www.w3.org/2000/svg">
<path d="M17.875 9.75C17.875 11.0429 17.3614 12.2829 16.4471 13.1971C15.5329 14.1114 14.2929 14.625 13 14.625C11.7071 14.625 10.4671 14.1114 9.55285 13.1971C8.63861 12.2829 8.125 11.0429 8.125 9.75C8.125 8.45707 8.63861 7.21709 9.55285 6.30285C10.4671 5.38861 11.7071 4.875 13 4.875C14.2929 4.875 15.5329 5.38861 16.4471 6.30285C17.3614 7.21709 17.875 8.45707 17.875 9.75Z" fill="url(#paint0_linear)"/>
<path fill-rule="evenodd" clip-rule="evenodd" d="M0 13C0 9.55219 1.36964 6.24558 3.80761 3.80761C6.24558 1.36964 9.55219 0 13 0C16.4478 0 19.7544 1.36964 22.1924 3.80761C24.6304 6.24558 26 9.55219 26 13C26 16.4478 24.6304 19.7544 22.1924 22.1924C19.7544 24.6304 16.4478 26 13 26C9.55219 26 6.24558 24.6304 3.80761 22.1924C1.36964 19.7544 0 16.4478 0 13ZM13 1.625C10.8579 1.62511 8.75935 2.23009 6.9459 3.3703C5.13246 4.5105 3.67783 6.13959 2.74944 8.07006C1.82105 10.0005 1.45663 12.1539 1.69812 14.2824C1.93962 16.4108 2.77721 18.4278 4.1145 20.1012C5.26825 18.2423 7.80813 16.25 13 16.25C18.1919 16.25 20.7301 18.2406 21.8855 20.1012C23.2228 18.4278 24.0604 16.4108 24.3019 14.2824C24.5434 12.1539 24.179 10.0005 23.2506 8.07006C22.3222 6.13959 20.8675 4.5105 19.0541 3.3703C17.2407 2.23009 15.1421 1.62511 13 1.625Z" fill="url(#paint1_linear)"/>
<defs>
<linearGradient id="paint0_linear" x1="0.570176" y1="-1.37986e-06" x2="31.4403" y2="14.0277" gradientUnits="userSpaceOnUse">
<stop stop-color="#5E38A8"/>
<stop offset="1" stop-color="#481CA7"/>
</linearGradient>
<linearGradient id="paint1_linear" x1="0.570176" y1="-1.37986e-06" x2="31.4403" y2="14.0277" gradientUnits="userSpaceOnUse">
<stop stop-color="#5E38A8"/>
<stop offset="1" stop-color="#481CA7"/>
</linearGradient>
</defs>
</svg>
