<svg width="26" height="27" viewBox="0 0 26 27" fill="none" xmlns="http://www.w3.org/2000/svg">
<path d="M13.2898 12.8473L12.9999 13.1405L12.7087 12.8473C12.1676 12.2997 11.4378 11.9927 10.6774 11.9927C9.91703 11.9927 9.18724 12.2997 8.64613 12.8473C8.37757 13.1121 8.16392 13.4298 8.01799 13.7812C7.87205 14.1327 7.79683 14.5108 7.79683 14.8927C7.79683 15.2747 7.87205 15.6528 8.01799 16.0042C8.16392 16.3557 8.37757 16.6733 8.64613 16.9382L12.9999 21.3209L17.3537 16.9382C17.6223 16.6733 17.8359 16.3557 17.9819 16.0042C18.1278 15.6528 18.203 15.2747 18.203 14.8927C18.203 14.5108 18.1278 14.1327 17.9819 13.7812C17.8359 13.4298 17.6223 13.1121 17.3537 12.8473C16.8124 12.2996 16.0824 11.9926 15.3218 11.9926C14.5612 11.9926 13.8312 12.2996 13.2898 12.8473Z" fill="url(#paint0_linear)"/>
<path d="M25.6194 12.3835L13.9191 0.390699C13.7985 0.266846 13.6552 0.168588 13.4975 0.101548C13.3398 0.0345073 13.1707 0 13 0C12.8293 0 12.6602 0.0345073 12.5025 0.101548C12.3448 0.168588 12.2015 0.266846 12.0809 0.390699L0.380631 12.3835C0.198875 12.5698 0.075104 12.8072 0.0249651 13.0657C-0.0251738 13.3241 0.00057065 13.592 0.0989438 13.8354C0.197317 14.0789 0.363902 14.287 0.577639 14.4334C0.791377 14.5798 1.04267 14.658 1.29975 14.6581H2.59978V23.9858C2.59978 25.4556 3.7659 26.6508 5.19983 26.6508H20.8002C22.2341 26.6508 23.4002 25.4556 23.4002 23.9858V14.6581H24.7003C24.9573 14.658 25.2086 14.5798 25.4224 14.4334C25.6361 14.287 25.8027 14.0789 25.9011 13.8354C25.9994 13.592 26.0252 13.3241 25.975 13.0657C25.9249 12.8072 25.8011 12.5698 25.6194 12.3835ZM20.8015 23.9858H5.19983V11.2135L13 3.21832L20.8002 11.2135L20.8015 23.9858Z" fill="url(#paint1_linear)"/>
<defs>
<linearGradient id="paint0_linear" x1="0.570176" y1="-1.4144e-06" x2="31.6973" y2="13.7991" gradientUnits="userSpaceOnUse">
<stop stop-color="#5E38A8"/>
<stop offset="1" stop-color="#481CA7"/>
</linearGradient>
<linearGradient id="paint1_linear" x1="0.570176" y1="-1.4144e-06" x2="31.6973" y2="13.7991" gradientUnits="userSpaceOnUse">
<stop stop-color="#5E38A8"/>
<stop offset="1" stop-color="#481CA7"/>
</linearGradient>
</defs>
</svg>
