<svg width="26" height="23" viewBox="0 0 26 23" fill="none" xmlns="http://www.w3.org/2000/svg">
<path opacity="0.7" fill-rule="evenodd" clip-rule="evenodd" d="M4.34132 3.36266C3.34237 4.61524 2.73684 6.32623 2.73684 8.1134C2.73684 9.14957 2.91747 10.1419 3.23632 11.0864H9.17869L11.4968 7.02532L12.9453 12.0208L14.7174 9.77519H19.1579V11.1235H15.3879L12.3705 14.9459L11.0822 10.5026L9.97921 12.434H0V11.0857H1.80358C1.51654 10.12 1.37003 9.11902 1.36842 8.11273C1.36842 6.03972 2.067 4.03142 3.26505 2.52941C4.46653 1.02336 6.19621 0 8.23242 0C10.6292 0 12.4519 1.32336 13.6842 3.19143C14.9158 1.32403 16.7392 0 19.1367 0C21.1722 0 22.9026 1.02336 24.1041 2.53009C25.3007 4.03142 26 6.04039 26 8.1134C26 12.5507 22.8909 16.2565 19.9502 18.7859C18.1607 20.3126 16.2127 21.649 14.1385 22.7728L14.0352 22.8267L14.0078 22.8416L13.9996 22.8449L13.9976 22.8463C13.9976 22.8463 13.9962 22.847 13.6842 22.247L13.3873 22.8537L13.3832 22.8524L13.3736 22.8476L13.3394 22.8308C13.1379 22.7313 12.9381 22.6285 12.74 22.5227C12.1841 22.2246 11.6379 21.9094 11.102 21.5775C9.7671 20.7524 8.01621 19.5369 6.36863 17.9823C5.49011 17.1531 4.63758 16.2228 3.89179 15.1994C3.83642 15.1277 3.7962 15.0458 3.77351 14.9585C3.75081 14.8712 3.74611 14.7803 3.75967 14.6912C3.77324 14.6021 3.80479 14.5166 3.85247 14.4397C3.90015 14.3628 3.96299 14.2961 4.03727 14.2436C4.11155 14.191 4.19577 14.1537 4.28495 14.1338C4.37413 14.1138 4.46647 14.1117 4.55649 14.1275C4.64652 14.1434 4.73241 14.1768 4.80909 14.2259C4.88577 14.275 4.95169 14.3387 5.00295 14.4133C5.69058 15.3572 6.48495 16.2248 7.31558 17.0088C8.87489 18.4812 10.5451 19.6414 11.8293 20.4355C12.4313 20.8081 13.0471 21.1587 13.6753 21.4865L13.8477 21.3915C15.6987 20.3565 17.4412 19.1436 19.0498 17.7706C21.9248 15.2972 24.6316 11.9358 24.6316 8.11273C24.6316 6.32623 24.0261 4.61456 23.0278 3.36199C22.0316 2.11481 20.6721 1.3483 19.1367 1.3483C17.0136 1.3483 15.3667 2.71009 14.2986 4.85523L13.6842 6.08758L13.0698 4.85523C12.0017 2.71009 10.3548 1.3483 8.23242 1.3483C6.69637 1.3483 5.33684 2.11414 4.34132 3.36266ZM13.6842 22.247L13.3873 22.8537L13.6938 23L13.9969 22.847L13.6842 22.247Z" fill="white"/>
</svg>
