<svg width="12" height="13" viewBox="0 0 12 13" fill="none" xmlns="http://www.w3.org/2000/svg">
<path d="M6 4.07953C4.79455 4.07953 3.81818 5.12272 3.81818 6.41068C3.81818 7.69865 4.79455 8.74184 6 8.74184C7.20545 8.74184 8.18182 7.69865 8.18182 6.41068C8.18182 5.12272 7.20545 4.07953 6 4.07953ZM10.8764 5.82789C10.7528 4.64607 10.2568 3.54426 9.4698 2.70338C8.6828 1.86251 7.65157 1.33255 6.54545 1.20055V0H5.45455V1.20055C4.34843 1.33255 3.3172 1.86251 2.5302 2.70338C1.74319 3.54426 1.24719 4.64607 1.12364 5.82789H0V6.99347H1.12364C1.24719 8.1753 1.74319 9.27711 2.5302 10.118C3.3172 10.9589 4.34843 11.4888 5.45455 11.6208V12.8214H6.54545V11.6208C7.65157 11.4888 8.6828 10.9589 9.4698 10.118C10.2568 9.27711 10.7528 8.1753 10.8764 6.99347H12V5.82789H10.8764ZM6 10.4902C3.88909 10.4902 2.18182 8.66608 2.18182 6.41068C2.18182 4.15529 3.88909 2.33116 6 2.33116C8.11091 2.33116 9.81818 4.15529 9.81818 6.41068C9.81818 8.66608 8.11091 10.4902 6 10.4902Z" fill="#2C2834"/>
</svg>
