<svg width="20" height="20" viewBox="0 0 20 20" fill="none" xmlns="http://www.w3.org/2000/svg">
<path d="M9.11612 9.11612C8.62796 9.60427 8.62796 10.3957 9.11612 10.8839L17.0711 18.8388C17.5592 19.327 18.3507 19.327 18.8388 18.8388C19.327 18.3507 19.327 17.5592 18.8388 17.0711L11.7678 10L18.8388 2.92893C19.327 2.44078 19.327 1.64932 18.8388 1.16117C18.3507 0.673011 17.5592 0.67301 17.0711 1.16117L9.11612 9.11612ZM11 8.75L10 8.75L10 11.25L11 11.25L11 8.75Z" fill="#4E3681"/>
<path d="M10.8839 10.8839C11.372 10.3957 11.372 9.60427 10.8839 9.11612L2.92893 1.16117C2.44078 0.67301 1.64932 0.67301 1.16117 1.16117C0.67301 1.64932 0.67301 2.44078 1.16117 2.92893L8.23223 10L1.16117 17.0711C0.67301 17.5592 0.67301 18.3507 1.16117 18.8388C1.64932 19.327 2.44078 19.327 2.92893 18.8388L10.8839 10.8839ZM9 11.25H10V8.75H9V11.25Z" fill="#4E3681"/>
</svg>
