<svg width="64" height="64" viewBox="0 0 64 64" fill="none" xmlns="http://www.w3.org/2000/svg">
<path d="M32 0C14.4 0 0 14.4 0 32C0 49.6 14.4 64 32 64C49.6 64 64 49.6 64 32C64 14.4 49.6 0 32 0ZM32 7.11111C37.5111 7.11111 42.6667 9.06667 46.9333 12.0889L12.0889 46.9333C9.06667 42.6667 7.11111 37.5111 7.11111 32C7.11111 18.3111 18.3111 7.11111 32 7.11111ZM32 56.8889C26.4889 56.8889 21.3333 54.9333 17.0667 51.9111L51.9111 17.0667C54.9333 21.3333 56.8889 26.4889 56.8889 32C56.8889 45.6889 45.6889 56.8889 32 56.8889Z" fill="#BC1610"/>
</svg>
