<svg width="14" height="14" viewBox="0 0 14 14" fill="none" xmlns="http://www.w3.org/2000/svg">
<path d="M12.7199 5.8575H12.25V5.83329H7.00002V8.16663H10.2967C9.81577 9.52492 8.5234 10.5 7.00002 10.5C5.06715 10.5 3.50002 8.93283 3.50002 6.99996C3.50002 5.06708 5.06715 3.49996 7.00002 3.49996C7.89223 3.49996 8.70394 3.83654 9.32198 4.38633L10.9719 2.73638C9.9301 1.76542 8.53652 1.16663 7.00002 1.16663C3.77856 1.16663 1.16669 3.7785 1.16669 6.99996C1.16669 10.2214 3.77856 12.8333 7.00002 12.8333C10.2215 12.8333 12.8334 10.2214 12.8334 6.99996C12.8334 6.60883 12.7931 6.22704 12.7199 5.8575Z" fill="#FFC107"/>
<path d="M1.83923 4.28483L3.75577 5.69038C4.27436 4.40646 5.53027 3.49996 6.99998 3.49996C7.89219 3.49996 8.7039 3.83654 9.32194 4.38633L10.9719 2.73638C9.93007 1.76542 8.53648 1.16663 6.99998 1.16663C4.7594 1.16663 2.81632 2.43158 1.83923 4.28483Z" fill="#FF3D00"/>
<path d="M7.00001 12.8333C8.50676 12.8333 9.87584 12.2567 10.911 11.319L9.10555 9.79121C8.50021 10.2516 7.76052 10.5006 7.00001 10.5C5.48276 10.5 4.19447 9.5325 3.70913 8.18237L1.80688 9.648C2.7723 11.5371 4.73289 12.8333 7.00001 12.8333Z" fill="#4CAF50"/>
<path d="M12.7199 5.85758H12.25V5.83337H7V8.16671H10.2967C10.0666 8.81316 9.65223 9.37805 9.10467 9.79158L9.10554 9.791L10.911 11.3187C10.7832 11.4348 12.8333 9.91671 12.8333 7.00004C12.8333 6.60892 12.7931 6.22712 12.7199 5.85758Z" fill="#1976D2"/>
</svg>
