<svg width="16" height="16" viewBox="0 0 16 16" fill="none" xmlns="http://www.w3.org/2000/svg">
<path fill-rule="evenodd" clip-rule="evenodd" d="M1.88541 0.510194C2.06038 0.335474 2.27048 0.199938 2.50179 0.112565C2.7331 0.0251932 2.98033 -0.0120195 3.22711 0.00339337C3.47389 0.0188063 3.71457 0.0864929 3.93321 0.201968C4.15185 0.317442 4.34346 0.478068 4.49533 0.673201L6.29027 2.97931C6.61926 3.40233 6.73526 3.95335 6.60526 4.47338L6.05828 6.66348C6.03 6.77691 6.03153 6.89573 6.06272 7.0084C6.0939 7.12107 6.15369 7.22376 6.23628 7.30651L8.6932 9.76362C8.77603 9.84638 8.87889 9.90627 8.99174 9.93746C9.1046 9.96866 9.2236 9.97009 9.33718 9.94163L11.5261 9.3946C11.7827 9.33044 12.0506 9.32545 12.3094 9.38003C12.5682 9.4346 12.8112 9.5473 13.0201 9.70962L15.326 11.5037C16.155 12.1487 16.231 13.3738 15.489 14.1148L14.455 15.1489C13.715 15.8889 12.6091 16.2139 11.5781 15.8509C8.93937 14.9224 6.54354 13.4116 4.56833 11.4307C2.58768 9.45562 1.07705 7.05995 0.148466 4.42137C-0.213522 3.39133 0.111467 2.28428 0.851444 1.54424L1.88541 0.510194ZM12.5001 0.999216C12.6327 0.999216 12.7599 1.0519 12.8536 1.14567C12.9474 1.23944 13.0001 1.36662 13.0001 1.49924V2.99931H14.5C14.6326 2.99931 14.7598 3.05199 14.8536 3.14576C14.9473 3.23953 15 3.36672 15 3.49933C15 3.63195 14.9473 3.75913 14.8536 3.8529C14.7598 3.94667 14.6326 3.99935 14.5 3.99935H13.0001V5.49942C13.0001 5.63204 12.9474 5.75922 12.8536 5.85299C12.7599 5.94676 12.6327 5.99945 12.5001 5.99945C12.3675 5.99945 12.2403 5.94676 12.1465 5.85299C12.0528 5.75922 12.0001 5.63204 12.0001 5.49942V3.99935H10.5001C10.3675 3.99935 10.2404 3.94667 10.1466 3.8529C10.0528 3.75913 10.0002 3.63195 10.0002 3.49933C10.0002 3.36672 10.0528 3.23953 10.1466 3.14576C10.2404 3.05199 10.3675 2.99931 10.5001 2.99931H12.0001V1.49924C12.0001 1.36662 12.0528 1.23944 12.1465 1.14567C12.2403 1.0519 12.3675 0.999216 12.5001 0.999216Z" fill="#5E38A8"/>
</svg>
