<svg width="17" height="17" viewBox="0 0 17 17" fill="none" xmlns="http://www.w3.org/2000/svg">
<g clip-path="url(#clip0)">
<path d="M4.49326 14.5598L4.77117 14.6972C5.92929 15.384 7.22627 15.7045 8.52332 15.7045C12.5997 15.7045 15.9349 12.4079 15.9349 8.37879C15.9349 6.45582 15.1473 4.5786 13.7577 3.20501C12.368 1.83142 10.5151 1.0531 8.52332 1.0531C4.44697 1.0531 1.11172 4.34966 1.15807 8.4246C1.15807 9.79812 1.57497 11.126 2.26978 12.2705L2.45505 12.5453L1.71396 15.2467L4.49326 14.5598Z" fill="#00E676"/>
<path d="M14.5452 2.47242C12.9702 0.869954 10.7931 0 8.56959 0C3.84479 0 0.0463516 3.80019 0.0926367 8.42452C0.0926367 9.88967 0.509535 11.3091 1.20441 12.591L0 16.9407L4.49325 15.796C5.74394 16.4828 7.13356 16.8034 8.52331 16.8034C13.2018 16.8034 17.0003 13.0031 17.0003 8.37883C17.0003 6.13529 16.1201 4.02913 14.5452 2.47242H14.5452ZM8.56959 15.384C7.3189 15.384 6.0682 15.0636 5.00278 14.4226L4.72487 14.2852L2.03821 14.9719L2.73302 12.3622L2.54774 12.0875C0.509535 8.83672 1.48232 4.53276 4.81751 2.51817C8.15269 0.503633 12.4607 1.46515 14.4989 4.76171C16.537 8.05826 15.5642 12.3163 12.2291 14.3309C11.1636 15.0177 9.86664 15.384 8.56959 15.384V15.384ZM12.6459 10.3019L12.1364 10.0729C12.1364 10.0729 11.3953 9.75242 10.9321 9.52348C10.8857 9.52348 10.8394 9.47766 10.7931 9.47766C10.6541 9.47766 10.5614 9.52348 10.4688 9.56929C10.4688 9.56929 10.4225 9.61504 9.774 10.3476C9.72765 10.4392 9.63502 10.485 9.54238 10.485H9.49603C9.44974 10.485 9.35711 10.4392 9.31075 10.3934L9.07913 10.3019C8.56959 10.0729 8.10641 9.79817 7.7358 9.43192C7.64316 9.34035 7.50417 9.24879 7.41154 9.15722C7.08727 8.83672 6.76301 8.4704 6.53145 8.05833L6.4851 7.96676C6.43882 7.92095 6.43882 7.8752 6.39246 7.78364C6.39246 7.69207 6.39246 7.60051 6.43882 7.5547C6.43882 7.5547 6.62409 7.32575 6.76301 7.18844C6.85571 7.09681 6.902 6.9595 6.99464 6.86793C7.08727 6.73056 7.13363 6.54743 7.08727 6.41005C7.04099 6.18111 6.4851 4.9449 6.34618 4.67021C6.25348 4.53283 6.16091 4.48708 6.02192 4.44127H5.51238C5.41968 4.44127 5.32711 4.48708 5.23441 4.48708L5.18805 4.53283C5.09542 4.57864 5.00278 4.67021 4.91014 4.71596C4.81751 4.80759 4.77116 4.89909 4.67852 4.99071C4.35426 5.40278 4.16898 5.90642 4.16898 6.41005C4.16898 6.7763 4.26162 7.14263 4.40061 7.46313L4.44696 7.60051C4.86386 8.4704 5.41968 9.24879 6.16091 9.93555L6.34618 10.1187C6.4851 10.2561 6.62409 10.3476 6.71673 10.4849C7.68951 11.3091 8.80122 11.9043 10.0519 12.2248C10.1909 12.2706 10.3762 12.2706 10.5152 12.3164H10.9783C11.21 12.3164 11.4879 12.2248 11.6732 12.1333C11.8121 12.0417 11.9048 12.0417 11.9974 11.9501L12.0901 11.8585C12.1828 11.767 12.2754 11.7212 12.368 11.6296C12.4607 11.5381 12.5533 11.4465 12.5997 11.3549C12.6923 11.1718 12.7386 10.9428 12.7849 10.7139V10.3934C12.7849 10.3934 12.7386 10.3476 12.6459 10.3019Z" fill="white"/>
</g>
<defs>
<clipPath id="clip0">
<rect width="17" height="17" fill="white"/>
</clipPath>
</defs>
</svg>
