<svg width="26" height="40" viewBox="0 0 26 40" fill="none" xmlns="http://www.w3.org/2000/svg">
<g opacity="0.7">
<path d="M13 26C14.9702 26 16.8597 25.1571 18.2528 23.6569C19.6459 22.1566 20.4286 20.1217 20.4286 18V8C20.4286 5.87827 19.6459 3.84344 18.2528 2.34315C16.8597 0.842855 14.9702 0 13 0C11.0298 0 9.14034 0.842855 7.74722 2.34315C6.35409 3.84344 5.57144 5.87827 5.57144 8V18C5.57144 20.1217 6.35409 22.1566 7.74722 23.6569C9.14034 25.1571 11.0298 26 13 26Z" fill="white"/>
<path d="M26 18C26 17.4696 25.8043 16.9609 25.4561 16.5858C25.1078 16.2107 24.6354 16 24.1429 16C23.6503 16 23.1779 16.2107 22.8297 16.5858C22.4814 16.9609 22.2857 17.4696 22.2857 18C22.2857 20.6522 21.3074 23.1957 19.566 25.0711C17.8246 26.9464 15.4627 28 13 28C10.5373 28 8.17542 26.9464 6.43401 25.0711C4.6926 23.1957 3.71429 20.6522 3.71429 18C3.71429 17.4696 3.51862 16.9609 3.17034 16.5858C2.82206 16.2107 2.34969 16 1.85714 16C1.3646 16 0.892227 16.2107 0.543945 16.5858C0.195663 16.9609 0 17.4696 0 18C0.00366063 21.3637 1.13176 24.6135 3.17791 27.1549C5.22406 29.6964 8.05146 31.3595 11.1429 31.84V36H7.22429C6.78592 36 6.36551 36.1875 6.05554 36.5214C5.74557 36.8552 5.57143 37.3079 5.57143 37.78V38.22C5.57143 38.6921 5.74557 39.1448 6.05554 39.4786C6.36551 39.8125 6.78592 40 7.22429 40H18.7757C19.2141 40 19.6345 39.8125 19.9445 39.4786C20.2544 39.1448 20.4286 38.6921 20.4286 38.22V37.78C20.4286 37.3079 20.2544 36.8552 19.9445 36.5214C19.6345 36.1875 19.2141 36 18.7757 36H14.8571V31.84C17.9485 31.3595 20.7759 29.6964 22.8221 27.1549C24.8682 24.6135 25.9963 21.3637 26 18Z" fill="white"/>
</g>
</svg>
