<svg width="40" height="39" viewBox="0 0 40 39" fill="none" xmlns="http://www.w3.org/2000/svg">
<g opacity="0.7">
<path d="M0 5C0 3.67392 0.526784 2.40215 1.46447 1.46447C2.40215 0.526784 3.67392 0 5 0L35 0C36.3261 0 37.5979 0.526784 38.5355 1.46447C39.4732 2.40215 40 3.67392 40 5V25C40 26.3261 39.4732 27.5979 38.5355 28.5355C37.5979 29.4732 36.3261 30 35 30H11.035C10.372 30.0001 9.73623 30.2636 9.2675 30.7325L2.135 37.865C1.96033 38.0401 1.73763 38.1595 1.49509 38.208C1.25255 38.2565 1.00108 38.2319 0.772498 38.1374C0.543917 38.043 0.348505 37.8828 0.210993 37.6772C0.0734815 37.4716 5.25372e-05 37.2298 0 36.9825L0 5ZM8.75 7.5C8.41848 7.5 8.10054 7.6317 7.86612 7.86612C7.6317 8.10054 7.5 8.41848 7.5 8.75C7.5 9.08152 7.6317 9.39946 7.86612 9.63388C8.10054 9.8683 8.41848 10 8.75 10H31.25C31.5815 10 31.8995 9.8683 32.1339 9.63388C32.3683 9.39946 32.5 9.08152 32.5 8.75C32.5 8.41848 32.3683 8.10054 32.1339 7.86612C31.8995 7.6317 31.5815 7.5 31.25 7.5H8.75ZM8.75 13.75C8.41848 13.75 8.10054 13.8817 7.86612 14.1161C7.6317 14.3505 7.5 14.6685 7.5 15C7.5 15.3315 7.6317 15.6495 7.86612 15.8839C8.10054 16.1183 8.41848 16.25 8.75 16.25H31.25C31.5815 16.25 31.8995 16.1183 32.1339 15.8839C32.3683 15.6495 32.5 15.3315 32.5 15C32.5 14.6685 32.3683 14.3505 32.1339 14.1161C31.8995 13.8817 31.5815 13.75 31.25 13.75H8.75ZM8.75 20C8.41848 20 8.10054 20.1317 7.86612 20.3661C7.6317 20.6005 7.5 20.9185 7.5 21.25C7.5 21.5815 7.6317 21.8995 7.86612 22.1339C8.10054 22.3683 8.41848 22.5 8.75 22.5H21.25C21.5815 22.5 21.8995 22.3683 22.1339 22.1339C22.3683 21.8995 22.5 21.5815 22.5 21.25C22.5 20.9185 22.3683 20.6005 22.1339 20.3661C21.8995 20.1317 21.5815 20 21.25 20H8.75Z" fill="white"/>
</g>
</svg>
