<svg width="18" height="18" viewBox="0 0 18 18" fill="none" xmlns="http://www.w3.org/2000/svg">
<path d="M16.2 3.6H12.6V1.8C12.6 0.81 11.79 0 10.8 0H7.2C6.21 0 5.4 0.81 5.4 1.8V3.6H1.8C0.81 3.6 0 4.41 0 5.4V16.2C0 17.19 0.81 18 1.8 18H16.2C17.19 18 18 17.19 18 16.2V5.4C18 4.41 17.19 3.6 16.2 3.6ZM7.2 1.8H10.8V3.6H7.2V1.8ZM11.7 11.7H9.9V13.5C9.9 13.995 9.495 14.4 9 14.4C8.505 14.4 8.1 13.995 8.1 13.5V11.7H6.3C5.805 11.7 5.4 11.295 5.4 10.8C5.4 10.305 5.805 9.9 6.3 9.9H8.1V8.1C8.1 7.605 8.505 7.2 9 7.2C9.495 7.2 9.9 7.605 9.9 8.1V9.9H11.7C12.195 9.9 12.6 10.305 12.6 10.8C12.6 11.295 12.195 11.7 11.7 11.7Z" fill="#5E38A8"/>
</svg>
