<svg width="26" height="26" viewBox="0 0 26 26" fill="none" xmlns="http://www.w3.org/2000/svg">
<path d="M13.0007 5.2C11.6219 5.20172 10.3001 5.74109 9.32517 6.69981C8.35024 7.65854 7.80175 8.95836 7.8 10.3142H10.444C10.444 8.9271 11.5914 7.8 13.0007 7.8C14.4099 7.8 15.5574 8.9271 15.5574 10.3142C15.5574 11.0916 14.9215 11.6558 13.9498 12.428C13.6324 12.6725 13.3275 12.9324 13.0364 13.2067C11.717 14.5028 11.6787 15.8795 11.6787 16.0329V16.9H14.3226L14.3213 16.0771C14.3226 16.0563 14.3649 15.5753 14.9043 15.0462C15.1026 14.8512 15.3525 14.6562 15.6116 14.4508C16.6414 13.6305 18.2 12.3916 18.2 10.3142C18.1989 8.95837 17.6509 7.65835 16.6761 6.69951C15.7013 5.74068 14.3794 5.20138 13.0007 5.2ZM11.6787 18.2H14.3226V20.8H11.6787V18.2Z" fill="url(#paint0_linear)"/>
<path d="M13 0C5.8318 0 0 5.8318 0 13C0 20.1682 5.8318 26 13 26C20.1682 26 26 20.1682 26 13C26 5.8318 20.1682 0 13 0ZM13 23.4C7.2657 23.4 2.6 18.7343 2.6 13C2.6 7.2657 7.2657 2.6 13 2.6C18.7343 2.6 23.4 7.2657 23.4 13C23.4 18.7343 18.7343 23.4 13 23.4Z" fill="url(#paint1_linear)"/>
<defs>
<linearGradient id="paint0_linear" x1="0.570176" y1="-1.37986e-06" x2="31.4403" y2="14.0277" gradientUnits="userSpaceOnUse">
<stop stop-color="#5E38A8"/>
<stop offset="1" stop-color="#481CA7"/>
</linearGradient>
<linearGradient id="paint1_linear" x1="0.570176" y1="-1.37986e-06" x2="31.4403" y2="14.0277" gradientUnits="userSpaceOnUse">
<stop stop-color="#5E38A8"/>
<stop offset="1" stop-color="#481CA7"/>
</linearGradient>
</defs>
</svg>
