<svg width="25" height="42" viewBox="0 0 25 42" fill="none" xmlns="http://www.w3.org/2000/svg">
<path d="M2.14549 3.54535C1.92853 3.41801 1.73896 3.24892 1.58774 3.04787C1.43653 2.84682 1.32666 2.61779 1.26449 2.37402C1.20233 2.13025 1.1891 1.87658 1.22557 1.62767C1.26204 1.37875 1.34748 1.13953 1.47696 0.923844C1.60644 0.708153 1.77739 0.520266 1.97993 0.371044C2.18247 0.221822 2.41257 0.114226 2.65694 0.054474C2.90132 -0.00527767 3.15511 -0.0159994 3.40365 0.022929C3.65219 0.0618574 3.89055 0.149664 4.10495 0.281272C7.52386 2.33211 10.0443 4.81189 11.6687 8.23841C13.2677 11.6142 13.9124 15.7387 13.9124 20.9495V34.7571L20.8162 27.8533C20.9905 27.6663 21.2007 27.5163 21.4342 27.4123C21.6677 27.3082 21.9197 27.2523 22.1753 27.2478C22.4309 27.2432 22.6848 27.2903 22.9219 27.386C23.1589 27.4817 23.3742 27.6243 23.555 27.805C23.7358 27.9858 23.8783 28.2011 23.974 28.4381C24.0697 28.6752 24.1168 28.9291 24.1123 29.1847C24.1077 29.4403 24.0518 29.6923 23.9478 29.9258C23.8437 30.1594 23.6937 30.3695 23.5067 30.5438L13.354 40.6964C12.9971 41.0529 12.5133 41.2532 12.0088 41.2532C11.5043 41.2532 11.0205 41.0529 10.6636 40.6964L0.510911 30.5438C0.174655 30.1829 -0.00840479 29.7056 0.000296578 29.2125C0.00899795 28.7193 0.208781 28.2488 0.557558 27.9C0.906334 27.5512 1.37687 27.3514 1.87004 27.3427C2.36321 27.334 2.8405 27.5171 3.20136 27.8533L10.1052 34.7571V20.9495C10.1052 16.0077 9.48332 12.5203 8.22693 9.86791C6.99338 7.26376 5.07199 5.30176 2.14549 3.54789V3.54535Z" fill="#BC1610"/>
</svg>
