<svg width="45" height="45" viewBox="0 0 45 45" fill="none" xmlns="http://www.w3.org/2000/svg">
<path d="M22.25 44.1668C10.0534 44.1668 0.166667 34.28 0.166667 22.0834C0.166667 9.88679 10.0534 8.01086e-05 22.25 8.01086e-05C34.4466 8.01086e-05 44.3333 9.88679 44.3333 22.0834C44.3333 34.28 34.4466 44.1668 22.25 44.1668ZM22.25 39.7501C26.9355 39.7501 31.4291 37.8888 34.7422 34.5756C38.0554 31.2625 39.9167 26.7689 39.9167 22.0834C39.9167 17.3979 38.0554 12.9043 34.7422 9.59119C31.4291 6.27805 26.9355 4.41675 22.25 4.41675C17.5645 4.41675 13.0709 6.27805 9.75778 9.59119C6.44464 12.9043 4.58333 17.3979 4.58333 22.0834C4.58333 26.7689 6.44464 31.2625 9.75778 34.5756C13.0709 37.8888 17.5645 39.7501 22.25 39.7501ZM22.25 28.9763C20.4929 28.9763 20.1793 31.047 22.25 28.9763C17.5654 26.1582 24.0071 28.9763 22.25 28.9763C21.0076 27.7339 24.3207 26.9056 22.25 28.9763C20.1793 31.047 25.1784 28.9763 22.25 28.9763C19.3216 28.9763 24.3207 31.047 22.25 28.9763ZM13.4167 19.8751C12.5381 19.8751 11.6956 19.5261 11.0744 18.9049C10.4532 18.2837 10.1042 17.4411 10.1042 16.5626C10.1042 15.6841 10.4532 14.8415 11.0744 14.2203C11.6956 13.5991 12.5381 13.2501 13.4167 13.2501C14.2952 13.2501 15.1377 13.5991 15.759 14.2203C16.3802 14.8415 16.7292 15.6841 16.7292 16.5626C16.7292 17.4411 16.3802 18.2837 15.759 18.9049C15.1377 19.5261 14.2952 19.8751 13.4167 19.8751ZM31.0833 19.8751C30.2048 19.8751 29.3623 19.5261 28.741 18.9049C28.1198 18.2837 27.7708 17.4411 27.7708 16.5626C27.7708 15.6841 28.1198 14.8415 28.741 14.2203C29.3623 13.5991 30.2048 13.2501 31.0833 13.2501C31.9619 13.2501 32.8044 13.5991 33.4256 14.2203C34.0468 14.8415 34.3958 15.6841 34.3958 16.5626C34.3958 17.4411 34.0468 18.2837 33.4256 18.9049C32.8044 19.5261 31.9619 19.8751 31.0833 19.8751Z" fill="#8360CA"/>
<line x1="10.75" y1="29.4167" x2="33.75" y2="29.4167" stroke="#8360CA" stroke-width="4"/>
</svg>
