<svg width="8" height="15" viewBox="0 0 8 15" fill="none" xmlns="http://www.w3.org/2000/svg">
<path d="M1.23 12.36L4.86 7.99997L5.5 7L4.86 5.99997L1.23 1.63997C1.1458 1.53892 1.08236 1.42225 1.04332 1.29665C1.00427 1.17104 0.990389 1.03897 1.00246 0.907996C1.01454 0.777019 1.05234 0.649713 1.11369 0.533366C1.17504 0.417018 1.25874 0.313917 1.36 0.229967C1.53991 0.0808863 1.76635 -0.000488826 2 -3.19958e-05C2.14691 -0.000270402 2.29207 0.0318627 2.42515 0.0940843C2.55824 0.156306 2.67598 0.247086 2.77 0.359969L7.77 6.35997C7.80364 6.40769 7.83372 6.45783 7.86 6.50997C7.93 6.55997 7.93 6.58997 7.93 6.63997C7.97533 6.75463 7.99906 6.87668 8 6.99997C7.99906 7.12326 7.97533 7.24531 7.93 7.35997C7.86 7.40997 7.86 7.43997 7.86 7.48997C7.83372 7.54211 7.80364 7.59224 7.77 7.63997L2.77 13.64C2.60026 13.8442 2.35635 13.9726 2.09192 13.997C1.8275 14.0214 1.56422 13.9397 1.36 13.77C1.15578 13.6002 1.02736 13.3563 1.00298 13.0919C0.9786 12.8275 1.06026 12.5642 1.23 12.36Z" fill="#0C011B"/>
</svg>
