<svg width="79" height="117" viewBox="0 0 79 117" fill="none" xmlns="http://www.w3.org/2000/svg">
<path d="M73.1683 115.973C74.7383 115.873 76.3183 115.763 77.8683 115.503C78.0383 115.473 78.2184 115.433 78.3284 115.303C78.6284 114.943 78.0983 114.483 77.6583 114.343C75.2583 113.583 72.6983 113.663 70.1783 113.723C61.0083 113.963 51.8383 114.013 42.6783 113.883C41.4883 113.863 35.1283 113.493 34.9283 115.123C34.7583 116.543 41.7683 116.283 42.8583 116.323C49.3283 116.583 55.7984 116.633 62.2684 116.463C65.9084 116.363 69.5383 116.203 73.1683 115.973Z" fill="url(#paint0_linear)"/>
<path d="M73.1683 115.973C74.7383 115.873 76.3183 115.763 77.8683 115.503C78.0383 115.473 78.2184 115.433 78.3284 115.303C78.6284 114.943 78.0983 114.483 77.6583 114.343C75.2583 113.583 72.6983 113.663 70.1783 113.723C61.0083 113.963 51.8383 114.013 42.6783 113.883C41.4883 113.863 35.1283 113.493 34.9283 115.123C34.7583 116.543 41.7683 116.283 42.8583 116.323C49.3283 116.583 55.7984 116.633 62.2684 116.463C65.9084 116.363 69.5383 116.203 73.1683 115.973Z" fill="url(#paint1_linear)"/>
<path d="M31.3384 113.923C31.5884 113.863 31.8884 113.763 31.9384 113.513C32.0184 113.173 31.5884 112.953 31.2484 112.883C29.4384 112.503 27.5784 112.613 25.7384 112.623C21.6484 112.643 17.5784 112.173 13.4884 112.023C10.2284 111.903 6.91841 112.003 3.72841 112.723C2.72841 112.953 0.428404 113.203 0.0684044 114.403C-0.251596 115.473 0.608419 115.903 1.45842 115.873C2.65842 115.843 3.78841 115.493 5.00841 115.523C6.70841 115.563 8.3984 115.613 10.0984 115.633C13.4884 115.673 16.8784 115.643 20.2684 115.433C23.9784 115.183 27.6884 114.733 31.3384 113.923Z" fill="url(#paint2_linear)"/>
<path d="M31.3384 113.923C31.5884 113.863 31.8884 113.763 31.9384 113.513C32.0184 113.173 31.5884 112.953 31.2484 112.883C29.4384 112.503 27.5784 112.613 25.7384 112.623C21.6484 112.643 17.5784 112.173 13.4884 112.023C10.2284 111.903 6.91841 112.003 3.72841 112.723C2.72841 112.953 0.428404 113.203 0.0684044 114.403C-0.251596 115.473 0.608419 115.903 1.45842 115.873C2.65842 115.843 3.78841 115.493 5.00841 115.523C6.70841 115.563 8.3984 115.613 10.0984 115.633C13.4884 115.673 16.8784 115.643 20.2684 115.433C23.9784 115.183 27.6884 114.733 31.3384 113.923Z" fill="url(#paint3_linear)"/>
<path d="M59.2183 59.0029C59.2083 58.7929 59.2083 58.5729 59.1283 58.3829C59.0183 58.1129 58.7983 57.9129 58.5483 57.7529C57.6383 57.1629 56.4883 57.1029 55.4083 57.0629C51.2883 56.9229 47.0883 56.8829 43.0583 57.8829C41.8183 58.1929 39.7083 58.5129 39.1183 59.8429C38.3983 61.4729 38.6483 63.973 38.5783 65.723C38.4783 68.273 38.4883 70.823 38.6083 73.363C38.6883 74.993 38.8083 76.6129 38.9383 78.2429C39.4483 84.9529 39.7883 91.4929 40.8583 98.1929C41.1983 100.343 41.3483 102.513 41.3983 104.693C41.4183 105.513 41.8383 110.843 41.1883 111.213C41.1483 111.233 41.1083 111.253 41.0783 111.283C40.8783 111.483 40.7283 111.703 40.6483 111.943C40.5783 112.163 40.5583 112.403 40.3983 112.593C40.2183 112.813 39.8883 112.943 39.5583 113.053C38.7183 113.343 37.8083 113.533 36.8783 113.633C36.6683 113.653 36.4583 113.673 36.2783 113.733C35.7483 113.913 35.6283 114.393 35.5583 114.793C35.5383 114.913 35.5383 115.053 35.6783 115.123C35.7583 115.163 35.8583 115.163 35.9483 115.153C38.6083 115.123 39.7383 115.103 42.3983 115.073C43.0483 115.063 43.7183 115.033 44.3383 114.923C44.4183 114.903 44.5083 114.883 44.5683 114.843C44.6383 114.793 44.6683 114.733 44.6883 114.663C45.0283 113.743 45.0583 112.753 44.9683 111.803C44.9483 111.603 44.9183 111.433 44.7483 111.313C46.1683 99.7229 47.0683 88.1029 48.4083 76.5029C48.4883 76.4829 48.5783 76.4529 48.6583 76.4329C49.8583 76.1129 51.0583 75.803 52.2483 75.483C52.9483 75.303 53.6783 75.1029 54.2283 74.6229C54.6583 74.2429 54.9383 73.733 55.2183 73.233C56.5983 70.683 57.9883 68.0929 58.6683 65.2829C59.1683 63.2429 59.2783 61.1129 59.2183 59.0029Z" fill="#736357"/>
<path d="M58.7384 111.433C58.5984 104.943 58.4084 98.4429 58.1584 91.9629C57.9984 87.7329 57.3484 83.813 57.7184 79.603C58.1484 74.723 58.2784 69.813 58.1184 64.923C58.0884 64.023 58.0484 63.1129 57.7184 62.2829C57.3084 61.2429 56.2884 60.563 55.6784 59.723C55.3084 59.223 55.1184 58.7129 54.6284 58.2729C52.5484 56.4429 49.1584 56.8929 46.6984 57.4529C46.5284 57.4929 46.3684 57.5229 46.2084 57.5629C46.1584 57.6029 46.0984 57.6529 46.0484 57.6929C45.9884 58.0329 45.9384 58.383 45.9084 58.723C45.8984 58.823 45.8984 58.9629 45.9084 59.0929C45.9484 59.6229 45.9184 59.3929 45.9084 59.0929C45.8984 58.9829 45.8884 58.853 45.8784 58.673C45.8984 58.893 45.8884 59.1129 45.8984 59.3229C45.9884 61.2729 46.3984 63.1829 46.5884 65.1229C46.7484 66.7729 46.7184 68.4629 46.6584 70.1429C46.9884 70.0629 47.3784 69.9929 47.6084 70.0329C48.0584 70.1129 55.1484 107.243 55.3084 111.853C55.2784 111.883 55.2384 111.903 55.2184 111.933C55.0584 112.153 54.9584 112.393 54.9284 112.623C54.8984 112.843 54.9184 113.063 54.7984 113.273C54.6684 113.503 54.3784 113.693 54.0884 113.843C53.3484 114.253 52.5284 114.583 51.6684 114.823C51.4784 114.873 51.2784 114.923 51.1184 115.023C50.6584 115.283 50.6084 115.743 50.6184 116.133C50.6184 116.243 50.6384 116.383 50.7884 116.423C50.8684 116.443 50.9584 116.423 51.0484 116.413C53.5384 115.953 54.5984 115.753 57.0884 115.283C57.6984 115.173 58.3184 115.033 58.8884 114.823C58.9684 114.793 59.0484 114.763 59.0984 114.713C59.1584 114.663 59.1684 114.593 59.1784 114.523C59.3484 113.603 59.2184 112.663 58.9784 111.793C58.9184 111.653 58.8584 111.513 58.7384 111.433Z" fill="#736357"/>
<path d="M25.2885 38.5929C25.0485 38.5729 24.8685 38.3929 24.7285 38.2229C21.7985 34.7329 21.3885 30.1729 21.2985 25.8829C21.2585 23.8229 21.2685 21.7629 21.5785 19.7229C23.0285 19.9829 24.0784 21.1129 24.5284 22.3129C24.9784 23.5129 24.9485 24.8029 24.9785 26.0629C25.0685 29.9329 25.7685 33.7729 25.9185 37.6429C25.9385 38.0629 25.7685 38.6329 25.2885 38.5929Z" fill="#E4D2BC"/>
<path d="M32.9884 26.2229C32.8884 26.1929 32.7884 26.1629 32.6784 26.1429C31.4384 23.2129 31.0784 19.9929 30.7384 16.8229C30.7084 16.5129 30.6684 16.2029 30.7184 15.8929C30.7484 15.6929 30.8184 15.4829 30.7784 15.2829C30.7284 15.0829 30.4984 14.9029 30.3284 15.0129C30.6184 14.5929 30.6584 14.0029 30.4184 13.5529C30.0984 12.9329 29.3084 12.4929 28.9484 13.2429C28.6284 13.9129 28.6184 14.6929 28.6184 15.4229C28.6384 19.4229 28.7484 23.4129 28.9584 27.4129C28.9884 28.0829 29.0584 28.8229 29.5384 29.2829C29.8884 29.6229 30.3884 29.7529 30.8684 29.8629C34.8484 30.7829 38.8884 31.4629 42.9584 31.8929C43.9384 31.9929 45.1584 31.9629 45.5884 31.0829C45.9284 30.4129 45.5684 29.5629 44.9684 29.1029C44.3784 28.6429 43.6184 28.4729 42.8784 28.3229C39.8384 27.6929 36.7984 27.0629 33.7484 26.4329C33.4884 26.3829 33.2384 26.2929 32.9884 26.2229Z" fill="#E3DACD"/>
<path d="M37.8382 25.1829C37.6082 27.6829 37.3882 30.1829 37.1582 32.6929C40.7282 32.7429 44.3082 31.973 47.5482 30.463C48.0982 27.813 48.6382 25.1629 49.1882 22.5129C45.2982 22.7429 41.4382 23.6529 37.8382 25.1829Z" fill="#ACB18F"/>
<path d="M8.97827 42.0429C11.4783 42.2529 13.8183 40.5329 16.3283 40.6429C17.5883 40.7029 19.1783 41.1029 19.8783 40.0529C20.1883 39.5829 20.1783 38.9829 20.1683 38.4229C19.9583 32.2229 19.7483 26.0329 19.5283 19.8329C15.6783 20.9029 11.5083 20.7729 7.72827 19.4729C7.74827 26.4729 7.76828 33.4729 7.79828 40.4729C7.79828 40.9429 7.82827 41.4829 8.19827 41.7829C8.40827 41.9729 8.69827 42.0229 8.97827 42.0429Z" fill="#EFF3F0"/>
<path d="M20.0684 113.223C19.0684 111.733 18.2084 110.113 17.7684 108.363C17.5884 107.633 17.4784 106.893 17.4584 106.143C17.4484 105.923 17.4584 105.683 17.5984 105.523C17.7284 105.383 17.9284 105.343 18.1184 105.313C19.2984 105.133 20.6584 105.003 21.5284 105.843C21.8684 106.173 22.0784 106.613 22.2584 107.063C23.1984 109.343 23.5784 111.863 23.3384 114.323C22.9584 114.903 22.1084 114.983 21.4984 114.683C20.8784 114.383 20.4484 113.793 20.0684 113.223Z" fill="#80633D"/>
<path d="M6.81838 112.373C7.81838 110.883 8.6784 109.263 9.1184 107.513C9.2984 106.783 9.40839 106.043 9.42839 105.293C9.43839 105.073 9.42838 104.833 9.28838 104.673C9.15838 104.533 8.95839 104.493 8.76839 104.463C7.58839 104.283 6.22839 104.153 5.35839 104.993C5.01839 105.323 4.80841 105.763 4.62841 106.213C3.68841 108.493 3.30839 111.013 3.54839 113.473C3.92839 114.053 4.77838 114.133 5.38838 113.833C5.99838 113.533 6.42838 112.943 6.81838 112.373Z" fill="#80633D"/>
<path d="M4.00832 47.1429C5.24832 38.0129 6.86832 28.7429 5.84832 19.8129C6.67832 19.2129 7.72834 18.9129 8.74834 18.9829C8.91834 25.3529 9.08833 31.7329 9.26833 38.1029C11.1083 38.1029 12.9483 38.1129 14.7883 38.1129C14.8083 38.1829 14.8283 38.2529 14.8583 38.3229C16.0283 38.3229 17.1983 38.3129 18.3683 38.3129C18.5383 31.9429 18.7083 25.5629 18.8883 19.1929C19.9083 19.1329 20.9583 19.4329 21.7883 20.0229C20.7483 29.1129 23.1483 38.1929 24.0683 47.2929C24.8283 54.7929 25.6883 58.0529 25.4383 65.5829C25.0283 77.8929 23.5083 94.5029 23.0983 106.813C23.0883 107.123 6.44833 106.623 4.54833 106.603C4.87833 106.603 3.06834 84.6928 2.96834 83.0629C2.45834 74.5429 1.78834 65.6329 2.27834 57.1129C2.46834 53.7129 3.53832 50.6229 4.00832 47.1429Z" fill="#AA6A64"/>
<path d="M8.27829 9.42284C8.30829 8.69284 8.37828 7.9728 8.55828 7.2628C9.16828 4.8028 11.7683 1.22282 14.7283 2.28282C15.4183 2.53282 15.9983 2.99283 16.5583 3.47283C17.1283 3.96283 17.6783 4.48279 18.1483 5.06279C19.0283 6.17279 19.6483 7.60281 19.7483 9.02281C19.8383 10.3428 19.4583 11.7428 19.0883 13.0028C18.5983 14.6728 17.8683 16.4228 16.3783 17.3228C14.3983 18.5228 11.6483 17.7028 10.1383 15.9428C8.63827 14.1828 8.19829 11.7328 8.27829 9.42284Z" fill="#E4D2BC"/>
<path d="M10.8884 21.943C10.9384 21.783 11.0784 21.673 11.2184 21.573C11.2184 21.573 11.2184 21.573 11.2284 21.573C8.16836 18.713 7.17838 13.903 6.77838 11.123C6.55838 9.56297 6.57836 7.95298 7.03836 6.44298C7.50836 4.94298 8.44837 3.55297 9.79837 2.74297C10.4284 2.36297 11.1384 2.11298 11.8384 1.87298C12.3784 1.69298 13.0584 1.55301 13.5084 1.84301C14.1084 1.37301 14.9884 1.34298 15.7084 1.62298C16.4784 1.92298 17.0884 2.51303 17.6584 3.11303C18.5484 4.06303 19.3684 5.08301 20.0184 6.22301C21.0184 7.98301 21.5584 9.98298 21.6984 12.003C21.7484 12.723 21.7484 13.443 21.5784 14.143C21.3384 15.143 20.7684 16.023 20.2084 16.883C20.1084 17.043 19.9984 17.203 19.8284 17.293C19.6684 17.383 19.4284 17.373 19.3184 17.223C19.2184 17.093 19.2584 16.903 19.2884 16.743C20.0184 13.263 18.8684 9.64301 17.1584 6.53301C16.4284 5.20301 15.5484 3.88302 14.2584 3.10302C14.1384 3.03302 13.9984 2.96297 13.8684 2.99297C13.7784 3.34297 13.5784 3.71299 13.3784 4.01299C12.2984 5.63299 11.2184 7.24303 10.1384 8.86303C9.51836 9.79303 8.86837 10.793 8.82837 11.913C8.77837 13.163 9.49836 14.293 10.0384 15.423C10.5184 16.423 12.4784 19.363 11.9184 21.223C12.0684 21.163 12.2284 21.103 12.3784 21.063C13.5084 22.503 14.0084 24.423 13.7284 26.243C13.6184 25.493 12.8084 25.103 12.2184 24.623C11.4884 24.043 11.0084 23.163 10.8984 22.233C10.8684 22.123 10.8584 22.033 10.8884 21.943Z" fill="#998675"/>
<path d="M33.9083 27.3429C33.5383 26.8829 32.8383 26.9328 32.2483 27.0128C29.8683 27.3528 27.4782 27.5828 25.0882 27.6928C23.8582 27.7528 19.8883 26.9928 20.0583 28.8928C20.2683 31.3328 20.7383 33.7529 21.4483 36.1029C21.6883 36.4429 22.1783 36.4429 22.5883 36.4129C26.5483 36.1129 30.5482 35.8428 34.5282 35.9428C34.9182 35.9528 35.3783 35.8829 35.5583 35.5429C35.6783 35.3229 35.6383 35.0529 35.5983 34.8029C35.2583 32.6129 34.9183 30.4328 34.5783 28.2428C34.2883 27.9428 34.1683 27.6729 33.9083 27.3429Z" fill="#666767"/>
<path d="M29.8885 30.0928C30.0385 30.4328 29.9084 30.6829 29.7884 30.9129C28.4684 33.3429 27.1584 35.7628 25.8384 38.1928C25.2784 39.2228 24.5684 40.3328 22.9584 40.2128C22.5484 40.1828 22.0484 40.0428 21.6484 39.7028C21.6884 37.8828 22.6384 36.6028 23.8884 35.5928C24.1884 35.3428 24.5085 35.1128 24.7685 34.8328C24.9985 34.5828 25.1884 34.2928 25.3684 34.0028C25.8484 33.2328 26.2885 32.4428 26.6985 31.6228C26.7685 31.4728 26.8484 31.3228 26.8484 31.1428C26.8484 30.8928 26.7284 30.6028 26.6784 30.3328C26.6284 30.0628 26.6584 29.8028 26.9084 29.7428C26.9384 29.7328 26.9785 29.7328 27.0185 29.7528C27.1085 29.8028 27.1384 29.9029 27.1484 29.9829C27.1584 30.0629 27.2585 30.1829 27.3285 30.1729C27.5085 30.0329 27.3984 29.7028 27.4084 29.4428C27.4784 28.5928 29.3985 28.9528 29.8885 30.0928Z" fill="#E4D2BC"/>
<path d="M6.10842 19.4229C4.82842 21.2029 4.47841 23.4828 4.22841 25.6628C3.79841 29.3728 3.54842 33.1128 3.45842 36.8428C3.41842 38.8128 3.42841 40.8228 4.00841 42.7028C4.19841 43.3328 4.64842 44.0528 5.29842 43.9528C5.94842 43.8528 6.15842 43.0229 6.20842 42.3629C6.62842 37.3329 7.04842 32.3128 7.45842 27.2828C7.68842 24.5628 7.82842 21.5429 6.10842 19.4229Z" fill="#E4D2BC"/>
<path d="M54.8183 20.2628C57.9683 21.0628 59.7683 26.2628 59.8983 28.9728C60.1883 35.2628 60.1883 41.5628 60.5383 47.8428C60.7383 51.5528 60.9983 55.2628 61.2883 58.9628C61.5883 62.8328 61.8283 63.5928 58.1183 63.9328C51.5083 64.5428 44.8183 64.5428 38.2083 63.9428C37.4583 63.8728 37.4683 52.1828 37.4383 51.1928C37.2783 45.0228 38.0683 38.7628 40.0083 32.8428C41.1283 29.4228 42.9683 26.1428 45.7283 23.7228C47.8083 21.8928 50.6183 20.7028 53.3383 20.2028C53.8583 20.1228 54.3483 20.1428 54.8183 20.2628Z" fill="#ACB18F"/>
<path d="M50.0785 17.853C50.5585 16.973 50.8085 15.8629 50.7385 14.5729C50.6085 12.1829 50.1884 9.75293 48.9584 7.70293C47.5384 5.34293 44.3985 3.20292 41.5185 4.19292C38.1485 5.35292 38.9085 9.78295 39.4985 12.723C39.9685 15.053 41.0985 17.353 43.0285 18.733C45.9185 20.813 48.8085 20.153 50.0785 17.853Z" fill="#E3DACD"/>
<path d="M48.3384 11.4329C48.8584 12.9729 49.6684 14.4229 50.7184 15.6729C50.9284 15.9729 51.3285 15.5029 51.3785 15.1429C51.7885 12.3329 51.5784 7.3229 50.9084 4.56289C50.2384 1.80289 48.9385 1.28293 46.2585 0.352934C44.3085 -0.327066 42.0285 -0.0070684 40.3285 1.16293C38.6285 2.34293 37.5285 4.34292 37.4185 6.40292C37.4085 6.60292 37.4185 6.81292 37.5385 6.96292C37.7385 7.20292 38.1084 7.15291 38.4084 7.08291C40.1284 6.66291 41.8485 6.01294 43.6085 6.17294C45.3685 6.34294 47.1985 7.68291 47.1285 9.45291C47.7985 9.24291 48.5085 9.0429 49.1785 9.2529C49.8385 9.4629 50.3384 10.3029 49.9584 10.8829C49.5084 11.2829 48.9184 11.4729 48.3384 11.4329Z" fill="#8C6239"/>
<path d="M45.9982 42.0729C47.0782 39.7629 47.7082 37.2629 48.2982 34.7829C49.2482 30.7729 50.0982 26.7429 50.8482 22.6929C50.9782 22.0129 51.0982 21.3029 50.9082 20.6429C50.7182 19.9829 50.1182 19.3829 49.4282 19.4329C45.8282 26.4329 43.5282 34.0929 42.6782 41.9129C42.6182 42.4829 42.5782 43.1229 42.9582 43.5629C43.3982 44.0729 44.2482 44.0529 44.8082 43.6828C45.3682 43.3029 45.7082 42.6829 45.9982 42.0729Z" fill="#E3DACD"/>
<path d="M45.4681 40.5928C46.9881 39.4728 48.6081 38.5028 50.3181 37.7128C50.4181 37.6628 50.5382 37.6228 50.6382 37.6628C50.7382 37.7028 50.7882 37.8028 50.8282 37.9028C51.1582 38.6528 51.4181 39.4428 51.5881 40.2428C51.7081 40.8028 51.7581 41.4728 51.3481 41.8828C51.1281 42.1028 50.8082 42.1928 50.5182 42.3028C49.0882 42.8428 47.9481 43.9928 46.4981 44.4828C45.4181 44.8428 44.2481 44.8028 43.1081 44.7528C42.9981 44.7528 42.8781 44.7328 42.8181 44.6528C42.7781 44.5928 42.7682 44.5228 42.7682 44.4528C42.7282 43.9028 42.6981 43.3128 42.9381 42.8228C43.0681 42.5628 43.2582 42.3528 43.4482 42.1428C44.3682 41.1328 44.3781 41.4028 45.4681 40.5928Z" fill="#E3DACD"/>
<path opacity="0.26" d="M6.60832 39.6929C6.60832 38.7029 5.56833 38.7029 5.55833 39.6929C5.41833 61.6629 5.56832 83.6729 6.35832 105.623C6.40832 106.883 7.74832 106.893 7.70832 105.623C7.03832 83.6429 6.54832 61.6929 6.60832 39.6929Z" fill="#E3E4E5"/>
<path opacity="0.26" d="M12.0283 39.3328C12.0283 38.3428 10.9882 38.3428 10.9782 39.3328C10.8382 61.3028 10.9883 83.3128 11.7783 105.263C11.8283 106.523 13.1583 106.533 13.1283 105.263C12.4583 83.2828 11.9583 61.3328 12.0283 39.3328Z" fill="#E3E4E5"/>
<path opacity="0.26" d="M16.3483 39.3328C16.3483 38.3428 15.3083 38.3428 15.2983 39.3328C15.1583 61.3028 15.3083 83.3128 16.0983 105.263C16.1483 106.523 17.4883 106.533 17.4483 105.263C16.7783 83.2828 16.2783 61.3328 16.3483 39.3328Z" fill="#E3E4E5"/>
<path opacity="0.26" d="M21.2783 40.1929C21.2783 39.2029 20.2382 39.2029 20.2282 40.1929C20.0882 62.1629 20.2383 84.1729 21.0283 106.123C21.0783 107.383 22.4083 107.393 22.3783 106.123C21.6983 84.1429 21.2083 62.1929 21.2783 40.1929Z" fill="#E3E4E5"/>
<path d="M16.6084 30.783C16.1684 30.733 15.5984 30.893 15.2584 31.193C14.8384 31.563 14.6784 32.153 14.5384 32.713C14.4784 32.503 14.2585 32.3529 14.0585 32.3729C13.8485 32.3929 13.6884 32.593 13.6984 32.803C13.7084 33.063 13.9485 33.283 13.9385 33.543C13.9285 33.743 13.7685 33.883 13.6285 34.013C11.3085 35.993 8.75843 37.703 6.53843 39.803C5.89843 40.403 5.67843 41.063 5.22843 41.793C4.88843 42.343 4.30843 43.0629 4.81843 43.7429C5.24843 44.3229 6.10845 44.1829 6.74845 43.9329C11.7085 41.9329 14.5684 36.793 17.0784 31.973C17.4884 31.193 17.1384 30.843 16.6084 30.783Z" fill="#E4D2BC"/>
<defs>
<linearGradient id="paint0_linear" x1="34.9245" y1="115.117" x2="78.4142" y2="115.117" gradientUnits="userSpaceOnUse">
<stop stop-color="#4D4D4D"/>
<stop offset="1"/>
</linearGradient>
<linearGradient id="paint1_linear" x1="34.9245" y1="115.117" x2="78.4142" y2="115.117" gradientUnits="userSpaceOnUse">
<stop/>
<stop offset="1"/>
</linearGradient>
<linearGradient id="paint2_linear" x1="-0.0171947" y1="113.92" x2="31.9459" y2="113.92" gradientUnits="userSpaceOnUse">
<stop stop-color="#4D4D4D"/>
<stop offset="1"/>
</linearGradient>
<linearGradient id="paint3_linear" x1="-0.0171947" y1="113.92" x2="31.9459" y2="113.92" gradientUnits="userSpaceOnUse">
<stop/>
<stop offset="1"/>
</linearGradient>
</defs>
</svg>
