<svg width="92" height="110" viewBox="0 0 92 110" fill="none" xmlns="http://www.w3.org/2000/svg">
<path d="M8.15786 109.322C10.3479 109.392 12.5379 109.372 14.7279 109.342C20.8379 109.262 26.9478 109.192 33.0578 109.112C34.0078 109.102 35.2379 108.922 35.2979 108.272C35.3579 107.692 34.3878 107.322 33.5678 107.142C30.6378 106.512 27.5578 106.382 24.5178 106.262C20.0478 106.092 15.5679 105.952 11.0979 105.832C8.30786 105.762 5.43785 105.702 2.83785 106.342C1.41785 106.692 -0.662141 108.172 1.59786 108.902C2.22786 109.102 3.48787 109.022 4.16787 109.072C5.49787 109.182 6.81786 109.272 8.15786 109.322Z" fill="url(#paint0_linear)"/>
<path opacity="0.22" d="M8.15786 109.322C10.3479 109.392 12.5379 109.372 14.7279 109.342C20.8379 109.262 26.9478 109.192 33.0578 109.112C34.0078 109.102 35.2379 108.922 35.2979 108.272C35.3579 107.692 34.3878 107.322 33.5678 107.142C30.6378 106.512 27.5578 106.382 24.5178 106.262C20.0478 106.092 15.5679 105.952 11.0979 105.832C8.30786 105.762 5.43785 105.702 2.83785 106.342C1.41785 106.692 -0.662141 108.172 1.59786 108.902C2.22786 109.102 3.48787 109.022 4.16787 109.072C5.49787 109.182 6.81786 109.272 8.15786 109.322Z" fill="url(#paint1_linear)"/>
<path d="M20.458 30.8118C19.218 28.3218 18.218 25.7318 17.218 23.1418C16.848 22.1718 16.588 20.9219 17.348 20.2119C17.808 19.7819 18.528 19.7118 19.128 19.9118C19.728 20.1118 20.2281 20.5319 20.6681 20.9819C21.3181 21.6519 21.8581 22.4119 22.3681 23.1819C24.6781 26.6919 25.048 31.3318 25.348 35.5218C25.568 38.6518 25.068 41.9718 26.408 44.8118C25.908 45.0018 25.398 45.1918 24.898 45.3818C24.778 45.4218 24.648 45.4718 24.528 45.4118C24.408 45.3518 24.368 45.2118 24.328 45.0818C23.718 42.7618 23.2781 40.4219 22.4881 38.1219C21.6781 35.7719 21.548 33.0618 20.458 30.8118Z" fill="#EDEDED"/>
<path d="M30.6779 47.6319C30.9179 47.6719 31.1679 47.7219 31.3879 47.6219C31.6779 47.5019 31.8179 47.1819 31.9379 46.8819C33.4779 42.8719 33.9179 38.5319 34.1879 34.2419C33.2779 33.8819 32.2779 33.8019 31.3079 33.7319C28.6579 33.5319 25.9979 33.3319 23.3479 33.1319C21.7879 33.0119 20.2079 32.9019 18.6679 33.1919C18.4879 37.5519 18.2979 41.9019 18.1179 46.2619C18.0979 46.5319 29.6479 47.4419 30.6779 47.6319Z" fill="#E2E2E2"/>
<path d="M26.188 40.3718C26.208 40.3718 26.238 40.3618 26.258 40.3418C26.218 40.3418 26.198 40.3518 26.188 40.3718Z" fill="white"/>
<path d="M24.8079 41.3918C25.5379 41.5418 26.2779 41.6718 27.0179 41.7818C27.1279 41.8018 27.2079 41.7318 27.2479 41.6618C27.3279 41.6218 27.388 41.5418 27.358 41.4318C27.048 40.3318 26.738 39.2318 26.428 38.1318C26.368 37.9218 26.0879 37.9418 26.0279 38.1318C25.6879 39.1718 25.2379 40.1518 24.6879 41.1018C24.6179 41.1918 24.6679 41.3618 24.8079 41.3918ZM26.1979 38.8618C26.4279 39.6918 26.6679 40.5118 26.8979 41.3418C26.3179 41.2518 25.748 41.1518 25.178 41.0418C25.578 40.3318 25.9179 39.6118 26.1979 38.8618Z" fill="white"/>
<path d="M19.768 16.4719C19.128 17.2719 18.168 17.7519 17.248 18.1919C16.488 18.5619 15.688 18.9319 14.848 18.8519C13.398 18.7119 12.4581 17.2919 11.7381 16.0219C10.6581 14.1119 9.54804 12.1019 9.52804 9.91195C9.49804 7.92195 10.4381 5.94195 11.9881 4.70195C13.5381 3.46195 15.6781 2.99195 17.6081 3.45195C19.9281 4.01195 22.6281 5.64194 22.0481 8.33194C21.7881 9.55194 21.338 10.7019 21.128 11.9419C20.878 13.4619 20.758 15.2219 19.768 16.4719Z" fill="#EDDCD1"/>
<path d="M22.6279 5.89193C23.2779 7.33193 23.4679 8.94193 23.5579 10.5219C23.5679 10.6619 23.5679 10.8219 23.4879 10.9319C23.3479 11.1219 23.0579 11.1019 22.8279 11.0619C20.3779 10.6219 17.9379 10.1819 15.4879 9.75193C14.6579 9.60193 13.6579 9.51194 13.1179 10.1519C12.8179 10.5019 12.7479 10.9919 12.7179 11.4519C12.6379 12.5419 12.7179 13.6319 12.9479 14.7019C12.2979 13.8719 12.0379 12.8119 11.9479 11.7619C11.8979 11.1619 11.7479 10.3719 11.1479 10.2919C10.5579 10.2219 10.1979 11.0119 10.3579 11.5819C10.5179 12.1619 10.9579 12.6119 11.1779 13.1619C11.3479 13.5919 11.3879 14.0619 11.4379 14.5219C11.5779 15.8219 11.8279 17.1219 12.3979 18.2919C12.9679 19.4619 13.8779 20.5119 15.0679 21.0419C14.0879 20.6519 13.1179 20.2519 12.1379 19.8619C11.1079 19.4519 10.0879 19.0319 9.0679 18.6119C8.3379 18.3119 7.59794 17.9819 7.04794 17.4219C6.66794 17.0419 6.38795 16.5719 6.17795 16.0719C5.09795 13.6119 5.47794 10.7619 6.23794 8.19193C6.83794 6.18193 7.73792 4.13194 9.46792 2.93194C11.4779 1.54194 14.1279 1.62194 16.5579 1.84194C19.0479 2.09194 21.5679 3.54193 22.6279 5.89193Z" fill="#EDDDB2"/>
<path d="M6.80792 80.2418C7.12792 72.9618 6.42796 65.5318 6.46796 58.2118C6.24796 55.6718 6.59797 53.0818 7.47797 50.6918C7.52797 50.5418 7.58794 50.3918 7.69794 50.2818C8.03794 49.9318 8.61794 50.1118 9.07794 50.3018C13.4179 52.0918 18.5479 51.6618 22.4979 49.1218C23.2779 50.3118 23.5079 51.7818 23.7079 53.1918C24.0279 55.4818 24.3679 57.7618 24.4579 60.0618V60.0718C24.4779 60.5618 24.488 61.0618 24.478 61.5518C24.428 64.4218 23.8779 67.2418 23.4579 70.0718C23.1779 71.9118 22.938 73.7718 22.918 75.6418C22.898 77.1718 23.118 78.5618 22.778 80.0618C21.948 83.7518 21.948 87.7618 21.598 91.5218C21.228 95.5518 21.158 95.4218 20.858 99.4618C20.848 99.6218 20.8379 99.7818 20.8179 99.9418C20.6179 99.9918 17.5179 100.712 17.5179 99.9118C17.2579 92.0818 16.688 88.4018 16.428 80.5718C16.318 77.2718 16.5379 66.1318 15.6979 62.9918C15.3579 63.0218 15.008 63.0618 14.668 63.1018C12.798 73.4718 10.898 87.4718 9.02795 97.8418C8.86795 98.7518 8.66793 99.7418 8.06793 100.332C7.46793 100.922 6.34797 100.762 6.16797 99.8518C6.71797 91.9318 6.46792 88.1718 6.80792 80.2418Z" fill="#736357"/>
<path d="M15.178 26.4119C15.188 26.4119 15.208 26.4219 15.218 26.4219C15.198 26.4219 15.188 26.4119 15.178 26.4119Z" fill="white"/>
<path d="M15.0979 26.3918C15.1079 26.3918 15.1079 26.4019 15.1179 26.4019C15.1079 26.3919 15.0979 26.3918 15.0979 26.3918Z" fill="white"/>
<path d="M15.1279 26.4019C15.1179 26.4019 15.1179 26.3918 15.1179 26.3918C15.1379 26.4018 15.1579 26.4018 15.1779 26.4118C15.1579 26.4118 15.1479 26.4119 15.1279 26.4019Z" fill="#1D4360"/>
<path d="M5.79794 49.8719C7.47794 46.8619 8.33791 43.3419 7.88791 39.9119C7.54791 37.3319 6.4979 34.7119 7.1879 32.2019C7.5479 30.9019 8.34794 29.7719 9.04794 28.6219C10.6479 25.9819 11.7479 23.0419 12.2879 20.0019C12.3179 19.8419 12.3479 19.6819 12.4579 19.5719C12.6879 19.3419 13.0779 19.4719 13.3779 19.5819C14.4479 19.9919 15.6479 20.0419 16.7479 19.7519C17.3779 19.5819 17.5279 19.3419 17.9179 19.8719C18.2479 20.3219 18.4079 21.0819 18.6079 21.6019C19.5079 23.9419 20.2979 26.3519 20.4879 28.8619C20.5879 30.1219 20.5379 31.4019 20.9079 32.6119C21.2079 33.6019 21.7779 34.4719 22.2479 35.4019C23.9279 38.7719 24.1379 42.6719 25.3879 46.2319C25.5879 46.8119 25.8279 47.3819 25.8879 47.9919C25.9479 48.6019 25.8179 49.2619 25.3779 49.6919C25.0679 50.0019 24.6379 50.1519 24.2279 50.2919C23.6279 50.5019 23.0179 50.7219 22.4179 50.9319C21.5779 51.2319 20.738 51.5219 19.868 51.6919C18.808 51.9019 17.7179 51.9119 16.6279 51.9219C14.6279 51.9419 12.6379 51.9719 10.6379 51.9919C9.49791 52.0019 8.36794 52.0219 7.22794 51.9319C6.46794 51.8719 5.51792 51.5719 5.45792 50.8119C5.44792 50.4919 5.62794 50.1719 5.79794 49.8719Z" fill="#F2F2F2"/>
<path d="M18.3778 99.642C18.1478 99.632 17.9079 99.602 17.7079 99.722C17.4879 99.852 17.3778 100.112 17.3178 100.362C16.9278 101.912 17.5279 103.512 17.6979 105.102C17.7979 106.042 17.7479 107.002 17.8979 107.942C18.2179 107.912 18.5379 107.882 18.8579 107.852C18.7879 107.292 18.7779 106.732 18.8379 106.172C18.8579 105.992 18.8879 105.812 18.9879 105.662C19.0879 105.512 19.2879 105.422 19.4579 105.482C19.6079 105.542 19.6779 105.702 19.7379 105.852C19.8679 106.202 19.9778 106.562 20.0578 106.922C20.0978 107.122 20.1379 107.342 20.2779 107.492C20.4879 107.732 20.8578 107.752 21.1878 107.742C22.3778 107.722 23.5678 107.702 24.7478 107.682C25.2578 107.672 25.8279 107.632 26.1479 107.242C26.5379 106.762 26.2979 106.002 25.8579 105.582C25.4079 105.152 24.8079 104.932 24.2879 104.602C23.7179 104.242 23.2379 103.742 22.8979 103.152C22.3179 102.152 22.2979 100.642 21.5279 99.772C21.2079 99.412 20.8479 99.472 20.4079 99.542C19.7379 99.632 19.0678 99.682 18.3778 99.642Z" fill="#3D322B"/>
<path d="M5.98787 98.4218C5.87787 98.4118 5.76787 98.4218 5.67787 98.4818C5.61787 98.5218 5.57787 98.5918 5.54787 98.6618C5.11787 99.5418 5.13784 100.562 4.95784 101.522C4.70784 102.882 4.07782 104.132 3.55782 105.412C3.40782 105.782 3.26785 106.172 3.27785 106.572C3.29785 107.352 3.92785 108.022 4.65785 108.302C5.38785 108.582 6.20786 108.532 6.97786 108.392C7.13786 108.362 7.29782 108.332 7.43782 108.262C7.58782 108.192 7.70783 108.072 7.81783 107.952C8.75783 106.932 8.80787 105.412 8.85787 104.022C8.88787 103.222 8.93782 102.432 8.99782 101.642C9.04782 100.972 9.29787 100.122 9.17787 99.4618C9.07787 98.9018 8.65786 98.8618 8.16786 98.8018C7.43786 98.6818 6.72787 98.4618 5.98787 98.4218Z" fill="#3D322B"/>
<path d="M11.438 45.6219C11.568 50.5819 11.998 55.6219 14.598 60.3019C13.658 59.4319 11.528 59.5119 10.018 59.9719C8.50797 60.4319 7.16797 61.1719 5.51797 61.3619C4.09797 61.5219 2.56795 61.2219 1.55795 60.5719C-0.392054 59.3319 -0.122054 57.3219 0.307946 55.5919C2.44795 46.9119 4.878 38.2419 6.178 29.5019C6.438 27.7819 6.678 26.0019 7.988 24.4819C8.758 23.5919 9.88796 22.8019 10.198 21.8019C10.358 21.2919 10.288 20.7619 10.548 20.2719C10.808 19.7819 12.958 19.2419 13.758 19.3719C15.028 20.7919 12.848 22.5019 12.628 24.1019C12.388 25.8319 12.188 27.5519 12.018 29.2819C11.668 32.8019 11.468 36.3319 11.398 39.8619C11.388 41.7819 11.388 43.7019 11.438 45.6219Z" fill="#ACB18F"/>
<path d="M19.5479 50.8319C19.2279 53.6619 18.7079 56.5719 19.9079 59.3119C20.0379 59.6019 20.1879 59.9019 20.4979 60.1319C21.2979 60.7219 22.7479 60.6619 23.9879 60.6319C26.8879 60.5519 26.6879 59.8119 29.2979 60.6119C28.6479 56.8519 27.9979 53.0919 27.3479 49.3319C26.5979 44.9719 25.8379 40.5919 23.7479 36.4119C20.8279 30.5719 20.3779 25.8719 18.0579 19.9319C17.9079 19.5419 15.8479 19.6719 15.2579 19.4919C14.6879 20.0119 15.7279 21.4919 15.9579 22.1319C16.3279 23.1419 16.6779 24.1519 16.9979 25.1719C17.6379 27.2019 18.1779 29.2519 18.6079 31.3119C19.4779 35.4519 19.9179 39.6319 19.9379 43.8119C19.9379 46.1419 19.8079 48.4919 19.5479 50.8319Z" fill="#ACB18F"/>
<path d="M15.5878 43.5118C15.8978 43.5418 16.2478 43.5618 16.4178 43.8218C16.5078 43.9618 16.5278 44.1518 16.6678 44.2518C16.7578 44.3218 16.8779 44.3218 16.9879 44.3418C17.4479 44.4318 17.8278 44.8618 17.8478 45.3318C17.8678 45.8018 17.5478 46.2718 17.0978 46.4118C16.5878 46.5718 16.0378 46.3318 15.5678 46.0718C14.6878 45.6018 13.8578 45.0618 13.0678 44.4518C12.9778 44.3818 12.8878 44.3118 12.8478 44.2118C12.6278 43.7218 12.9778 42.9918 13.4778 42.9518C14.0678 42.9118 14.9378 43.4618 15.5878 43.5118Z" fill="#EDDCD1"/>
<path d="M12.2879 41.8419C10.4379 40.3219 9.1179 38.2319 8.2479 36.0119C7.9879 35.3419 7.75794 34.6519 7.66794 33.9419C7.54794 33.0719 7.62791 32.2019 7.69791 31.3319C7.79791 30.1519 7.89795 28.9519 8.29795 27.8419C8.55795 27.1019 8.9479 26.4019 9.2479 25.6719C9.6979 24.5619 9.92793 23.3819 10.1579 22.2119C10.2279 21.8719 10.2879 21.5219 10.2179 21.1919C10.1479 20.8519 9.90791 20.5319 9.56791 20.4719C9.19791 20.4119 8.85792 20.6719 8.57792 20.9319C6.09792 23.2619 4.7679 26.5919 4.1879 29.9419C3.7779 32.3119 3.7279 34.8319 4.6879 37.0319C5.0879 37.9419 5.6479 38.7719 6.2479 39.5619C8.0079 41.8619 10.2479 43.9319 13.0079 44.7919C13.1079 44.8219 13.2179 44.8519 13.2979 44.8019C13.3779 44.7619 13.4079 44.6719 13.4479 44.5919C13.6279 44.1619 14.088 43.5219 13.868 43.0419C13.668 42.5919 12.6579 42.1519 12.2879 41.8419Z" fill="#EDEDED"/>
<path d="M69.2781 109.992C71.0881 109.982 72.9081 109.872 74.7181 109.762C79.7681 109.452 84.818 109.142 89.878 108.832C90.668 108.782 91.678 108.562 91.708 107.912C91.738 107.332 90.928 106.992 90.248 106.852C87.808 106.332 85.2581 106.322 82.7381 106.322C79.0381 106.322 75.328 106.352 71.628 106.402C69.318 106.432 66.938 106.492 64.808 107.222C63.648 107.622 61.9581 109.182 63.8581 109.822C64.3781 110.002 65.4281 109.862 65.9881 109.892C67.0681 109.962 68.1781 110.002 69.2781 109.992Z" fill="url(#paint2_linear)"/>
<path opacity="0.22" d="M69.2781 109.992C71.0881 109.982 72.9081 109.872 74.7181 109.762C79.7681 109.452 84.818 109.142 89.878 108.832C90.668 108.782 91.678 108.562 91.708 107.912C91.738 107.332 90.928 106.992 90.248 106.852C87.808 106.332 85.2581 106.322 82.7381 106.322C79.0381 106.322 75.328 106.352 71.628 106.402C69.318 106.432 66.938 106.492 64.808 107.222C63.648 107.622 61.9581 109.182 63.8581 109.822C64.3781 110.002 65.4281 109.862 65.9881 109.892C67.0681 109.962 68.1781 110.002 69.2781 109.992Z" fill="url(#paint3_linear)"/>
<path d="M60.4581 20.962C60.3981 20.592 60.1181 20.302 59.8381 20.042C59.6981 19.912 59.5481 19.772 59.3981 19.652C58.6081 19.032 57.5781 18.7219 56.5681 18.8119C56.2781 18.8419 55.9781 18.902 55.7681 19.092C55.5981 19.252 55.4981 19.472 55.4581 19.702C55.4481 19.752 55.4381 19.812 55.4581 19.862C55.4981 20.052 55.7281 20.122 55.9181 20.152C56.1181 20.182 56.3281 20.222 56.4881 20.342C56.6481 20.462 56.7481 20.702 56.6481 20.872C56.5981 20.952 56.5181 21.012 56.4981 21.102C56.4681 21.252 56.6181 21.382 56.7681 21.432C57.3181 21.612 57.9181 21.322 58.4781 21.442C58.6481 21.482 58.8181 21.552 58.9881 21.602C59.1581 21.642 59.3481 21.662 59.5081 21.572C59.6681 21.552 59.8381 21.522 59.9981 21.482C60.1581 21.442 60.3381 21.382 60.4181 21.242C60.4681 21.162 60.4781 21.062 60.4581 20.962Z" fill="#EADDD0"/>
<path d="M51.3681 14.542C52.6781 14.352 54.008 14.152 55.338 14.212C55.598 14.222 55.878 14.252 56.068 14.422C56.248 14.582 56.3081 14.832 56.3681 15.072C57.7281 20.912 59.078 26.752 60.438 32.592C60.458 32.692 60.488 32.792 60.468 32.892C60.428 33.122 60.198 33.252 59.998 33.352C56.598 35.002 52.678 35.072 48.908 35.102C48.578 35.102 48.228 35.102 47.968 34.912C47.678 34.712 47.568 34.352 47.468 34.012C45.928 28.502 45.568 22.722 44.278 17.142C44.188 16.752 44.088 16.332 44.218 15.942C44.498 15.102 46.4581 15.262 47.1781 15.162C48.5681 14.962 49.9681 14.752 51.3681 14.542Z" fill="#545454"/>
<path d="M51.438 15.292C52.648 15.112 53.878 14.932 55.098 14.962C55.338 14.972 55.598 14.992 55.768 15.142C55.928 15.282 55.988 15.492 56.038 15.702C57.228 20.762 58.4181 25.822 59.6081 30.892C59.6281 30.972 59.648 31.062 59.628 31.152C59.588 31.352 59.378 31.472 59.188 31.562C56.038 33.032 52.418 33.132 48.938 33.202C48.638 33.212 48.318 33.212 48.068 33.052C47.808 32.882 47.6981 32.562 47.6181 32.272C46.2581 27.492 45.978 22.482 44.848 17.642C44.768 17.302 44.688 16.942 44.808 16.602C45.078 15.862 46.878 15.992 47.538 15.892C48.848 15.682 50.148 15.482 51.438 15.292Z" fill="#F7F7F7"/>
<path d="M53.6781 34.0121C53.7081 34.0621 53.7581 34.1021 53.7981 34.1321C53.9081 34.2021 54.028 34.2421 54.158 34.2321C54.288 34.2221 54.4081 34.1721 54.4881 34.0821C54.7381 33.7921 54.638 33.2921 54.208 33.2621C53.888 33.2421 53.4881 33.7021 53.6781 34.0121Z" fill="#F7F7F7"/>
<path d="M67.288 28.6721C66.278 27.4221 65.588 25.9421 64.558 24.7121C63.168 23.0521 61.688 21.8621 60.768 19.9021C60.338 20.5721 58.898 21.2421 58.468 21.9121C60.138 24.1821 61.808 26.0921 62.508 29.2121C62.838 30.6521 64.398 32.8021 65.148 34.0821C65.548 34.7621 66.088 35.3521 66.658 35.9021C67.888 37.0921 69.348 38.1321 71.028 38.4321C73.578 38.8821 76.068 37.2021 76.018 34.4721C75.968 32.0221 72.648 32.2521 70.968 31.4921C69.538 30.8521 68.258 29.8821 67.288 28.6721Z" fill="#E0C74E"/>
<path d="M71.9579 18.562C72.7579 18.892 73.5279 19.102 74.0879 19.112C74.7479 19.122 75.3579 18.792 75.9378 18.482C77.1278 17.832 78.3779 17.112 78.9879 15.902C79.3379 15.192 79.4278 14.382 79.4978 13.592C79.6678 11.602 79.7479 9.61197 79.7279 7.61197C79.7179 6.59197 79.6679 5.50198 79.0979 4.65198C78.1479 3.21198 76.1779 2.96197 74.4479 2.86197C72.7479 2.76197 70.9478 2.68198 69.4378 3.48198C67.8678 4.32198 68.2279 5.56197 68.1079 7.10197C67.9579 9.03197 67.8679 10.972 67.8479 12.902C67.8379 14.002 67.8779 15.162 68.4479 16.102C68.9979 16.992 70.5179 17.972 71.9579 18.562Z" fill="#EADDD0"/>
<path d="M81.8379 80.5819C81.5579 73.0619 82.108 65.4019 82.048 57.8319C82.218 55.2119 81.9279 52.5419 81.1979 50.0719C81.1479 49.9219 81.1079 49.7619 81.0179 49.6419C80.7379 49.2819 80.2679 49.4719 79.8979 49.6619C76.3679 51.5219 72.1879 51.0919 68.9579 48.4819C68.3179 49.7119 68.138 51.2319 67.988 52.6919C67.738 55.0519 67.4679 57.4119 67.3979 59.7919V59.8019C67.3879 60.3119 67.3779 60.8219 67.3879 61.3319C67.4379 64.2919 67.8879 67.2019 68.2479 70.1219C68.4779 72.0219 68.6879 73.9419 68.7079 75.8619C68.7279 77.4419 68.5579 78.8819 68.8379 80.4219C69.5279 84.2219 69.5379 88.3619 69.8279 92.2519C70.1479 96.4119 70.4579 100.572 70.7179 104.742C70.7279 104.912 70.7379 105.072 70.7479 105.242C70.9179 105.302 73.4379 106.032 73.4379 105.202C73.6279 97.1119 73.8179 89.0219 74.0079 80.9319C74.0879 77.5319 73.878 66.0319 74.548 62.7819C74.828 62.8219 75.1079 62.8519 75.3879 62.8919C76.9379 73.5919 78.798 92.3419 80.348 103.042C80.488 103.982 80.6479 105.002 81.1379 105.612C81.6279 106.222 82.5379 106.042 82.6879 105.112C82.1979 96.9319 82.1379 88.7619 81.8379 80.5819Z" fill="#4D4D4D"/>
<path d="M74.538 105.172C74.508 105.082 74.488 104.982 74.458 104.892C74.148 103.672 73.988 102.412 73.988 101.152C73.988 100.582 74.018 100.002 73.888 99.4421C73.158 99.4521 71.108 99.3221 70.378 99.3321C70.318 99.3321 70.248 99.3321 70.198 99.3721C70.148 99.4121 70.128 99.4921 70.118 99.5521C69.798 101.292 70.878 103.202 70.488 104.932C70.328 105.622 69.688 105.872 69.098 106.222C68.588 106.532 67.578 107.282 66.968 107.282C66.618 107.422 66.248 107.562 65.988 107.842C65.728 108.122 65.628 108.582 65.868 108.882C66.078 109.142 66.458 109.162 66.788 109.172C69.328 109.192 71.878 108.972 74.378 108.512C74.528 108.482 74.688 108.452 74.798 108.342C74.888 108.252 74.928 108.132 74.958 108.022C75.248 106.912 74.828 106.132 74.538 105.172Z" fill="#BE9F3E"/>
<path d="M83.8181 105.822C83.7381 105.552 83.5581 105.322 83.4681 105.062C83.3681 104.792 83.4181 104.452 83.4181 104.162C83.4181 102.842 83.4181 101.532 83.4181 100.212C83.4181 99.8119 83.3781 99.342 83.0381 99.142C82.8081 99.002 82.5081 99.0419 82.2481 99.0919C81.4781 99.2219 80.6981 99.3619 79.9281 99.4919C79.7281 99.5319 79.4981 99.5719 79.3881 99.7419C79.2781 99.9119 79.3081 100.132 79.3481 100.332C79.5781 101.602 79.6681 102.892 79.6281 104.172C79.6181 104.542 79.5881 104.912 79.6281 105.282C78.7381 106.042 77.7581 106.702 76.6981 107.212C76.3881 107.362 76.0681 107.512 75.8481 107.772C75.6281 108.042 75.5681 108.462 75.8081 108.712C76.0181 108.932 76.3581 108.932 76.6481 108.912C78.9281 108.772 81.2081 108.412 83.4181 107.842C83.5481 107.812 83.6881 107.772 83.7781 107.662C83.8481 107.582 83.8781 107.472 83.8981 107.362C84.0081 106.862 83.9781 106.322 83.8181 105.822Z" fill="#BE9F3E"/>
<path d="M71.9481 21.3021C72.2781 21.1921 72.6082 21.0621 72.9282 20.9421C74.5582 20.3121 76.1881 19.6821 77.8081 19.0621C78.0481 18.9721 78.3081 18.8721 78.5581 18.9221C78.7581 18.9621 78.9181 19.0821 79.0781 19.2121C82.1281 21.6621 82.9582 25.6521 83.7982 29.2821C86.7682 42.1121 87.7182 55.3621 86.6082 68.4621C79.3382 69.7121 71.9982 70.5321 64.6182 70.9121C65.0282 70.8921 65.8581 61.9221 65.9581 61.0421C66.5081 55.8621 66.7982 50.6421 66.7382 45.4321C66.6782 40.2021 66.9481 34.9821 67.3181 29.7621C67.4681 27.6521 67.6381 25.5421 67.8281 23.4321C67.8981 22.6021 70.2881 21.7521 70.8881 21.6221C71.2581 21.5221 71.6081 21.4121 71.9481 21.3021Z" fill="#FCEE9F"/>
<path d="M55.578 27.7719C54.868 26.8619 54.2481 25.8919 53.6181 24.9119C53.3881 24.5419 53.178 24.0619 53.428 23.7019C53.578 23.4919 53.868 23.4019 54.128 23.4319C54.388 23.4619 54.628 23.5919 54.848 23.7419C55.168 23.9619 55.448 24.2219 55.728 24.5019C56.958 25.7419 57.498 27.6019 57.968 29.2819C58.318 30.5419 58.388 31.9319 59.168 32.9819C58.978 33.1019 58.788 33.2219 58.598 33.3419C58.558 33.3719 58.498 33.4019 58.448 33.3819C58.398 33.3719 58.368 33.3119 58.338 33.2619C57.898 32.3619 57.528 31.4519 57.008 30.5819C56.488 29.6919 56.208 28.6019 55.578 27.7719Z" fill="#EDEDED"/>
<path d="M61.1378 33.7819C61.2378 33.7819 61.3479 33.7819 61.4279 33.7219C61.5379 33.6519 61.5678 33.5019 61.5878 33.3719C61.8778 31.6119 61.6978 29.8019 61.4578 28.0319C61.0578 27.9619 60.6479 28.0119 60.2379 28.0619C59.1379 28.2019 58.0378 28.3419 56.9378 28.4819C56.2878 28.5619 55.6378 28.6519 55.0378 28.8919C55.3278 30.6819 55.6178 32.4719 55.8978 34.2619C55.9178 34.3819 60.7078 33.7919 61.1378 33.7819Z" fill="#E2E2E2"/>
<path d="M54.0978 21.982C53.8978 22.362 53.5478 22.632 53.2078 22.892C52.9278 23.102 52.6378 23.322 52.2878 23.362C51.6878 23.422 51.1878 22.922 50.7878 22.462C50.1878 21.772 49.5677 21.042 49.3777 20.152C49.1977 19.342 49.4177 18.462 49.9477 17.822C50.4777 17.192 51.3077 16.812 52.1377 16.842C53.1277 16.882 54.3678 17.312 54.3578 18.462C54.3578 18.982 54.2678 19.492 54.2878 20.012C54.3078 20.662 54.4078 21.392 54.0978 21.982Z" fill="#EDDCD1"/>
<path d="M54.3879 17.442C54.7779 17.972 54.9779 18.612 55.1479 19.252C55.1679 19.312 55.1779 19.372 55.1579 19.422C55.1179 19.512 54.9979 19.532 54.8979 19.532C53.8679 19.552 52.8279 19.582 51.7979 19.602C51.4479 19.612 51.0379 19.652 50.8679 19.962C50.7779 20.132 50.7878 20.332 50.8078 20.522C50.8678 20.972 50.9879 21.412 51.1679 21.832C50.8379 21.552 50.6379 21.132 50.5179 20.712C50.4479 20.472 50.3178 20.162 50.0678 20.182C49.8178 20.202 49.7379 20.552 49.8579 20.772C49.9679 20.992 50.1879 21.142 50.3279 21.352C50.4379 21.512 50.4879 21.702 50.5479 21.882C50.7079 22.402 50.9178 22.912 51.2478 23.342C51.5778 23.772 52.0378 24.122 52.5678 24.242C52.1378 24.162 51.7079 24.082 51.2779 24.002C50.8279 23.922 50.3679 23.832 49.9179 23.742C49.5979 23.682 49.2678 23.612 48.9978 23.422C48.8078 23.302 48.6579 23.132 48.5279 22.942C47.8879 22.032 47.7979 20.832 47.8979 19.722C47.9779 18.852 48.1679 17.942 48.7779 17.312C49.4779 16.582 50.5679 16.392 51.5779 16.282C52.6179 16.182 53.7579 16.562 54.3879 17.442Z" fill="#EDDDB2"/>
<path d="M51.1778 36.762C51.6078 35.392 51.6677 33.8919 51.1977 32.5319C50.8477 31.5119 50.1978 30.532 50.2778 29.452C50.3178 28.892 50.5478 28.3619 50.7378 27.832C51.1678 26.622 51.3778 25.332 51.3478 24.052C51.3478 23.982 51.3477 23.9119 51.3777 23.8619C51.4477 23.7519 51.6177 23.772 51.7577 23.792C52.2277 23.872 52.7177 23.7919 53.1477 23.5819C53.3877 23.4619 53.4277 23.3519 53.6377 23.5319C53.8077 23.6919 53.9377 23.982 54.0577 24.182C54.6177 25.062 55.1378 25.982 55.4278 26.982C55.5678 27.482 55.6578 28.0119 55.9078 28.4719C56.1178 28.8519 56.4177 29.162 56.6877 29.492C57.6577 30.722 58.0578 32.3019 58.8678 33.6419C58.9978 33.8619 59.1378 34.072 59.2178 34.322C59.2978 34.562 59.2977 34.8419 59.1477 35.0619C59.0477 35.2119 58.8878 35.312 58.7278 35.402C58.4978 35.542 58.2678 35.6719 58.0478 35.8119C57.7278 36.0019 57.4177 36.1919 57.0777 36.332C56.6577 36.502 56.2178 36.602 55.7778 36.692C54.9678 36.872 54.1578 37.0419 53.3478 37.2219C52.8878 37.3219 52.4277 37.422 51.9577 37.482C51.6377 37.522 51.2277 37.4819 51.1477 37.1719C51.0877 37.0419 51.1378 36.902 51.1778 36.762Z" fill="#F2F2F2"/>
<path d="M53.1278 34.5619C53.5878 36.5719 54.1878 38.5919 55.6379 40.2819C55.1779 40.0019 54.3178 40.2119 53.7478 40.5319C53.1678 40.8419 52.6879 41.2619 52.0279 41.4719C51.4579 41.6519 50.8179 41.6619 50.3479 41.4819C49.4479 41.1419 49.3979 40.2919 49.4279 39.5619C49.5779 35.8419 49.8479 32.1119 49.6479 28.4419C49.6079 27.7219 49.5579 26.9719 49.9679 26.2419C50.2079 25.8119 50.5979 25.4019 50.6479 24.9719C50.6679 24.7519 50.5979 24.5419 50.6679 24.3219C50.7379 24.1019 51.5679 23.7019 51.8979 23.6819C52.5379 24.1519 51.7879 25.0319 51.8279 25.7019C51.8779 26.4219 51.9378 27.1419 52.0078 27.8619C52.1578 29.3219 52.3679 30.7819 52.6379 32.2219C52.7879 33.0019 52.9478 33.7819 53.1278 34.5619Z" fill="#ACB18F"/>
<path d="M56.868 36.012C56.968 37.192 57.008 38.422 57.718 39.442C57.798 39.552 57.878 39.662 58.028 39.722C58.408 39.902 58.988 39.752 59.488 39.632C60.658 39.362 60.518 39.072 61.648 39.182C61.068 37.702 60.498 36.222 59.918 34.742C59.248 33.032 58.578 31.302 57.378 29.772C55.708 27.632 55.1279 25.752 53.6879 23.522C53.5979 23.372 52.768 23.602 52.508 23.572C52.318 23.832 52.868 24.352 53.018 24.592C53.258 24.972 53.478 25.362 53.698 25.742C54.128 26.522 54.518 27.3119 54.868 28.1119C55.568 29.7319 56.098 31.392 56.448 33.092C56.638 34.062 56.778 35.032 56.868 36.012Z" fill="#ACB18F"/>
<path d="M54.6477 33.3519C54.7777 33.3319 54.9177 33.3219 55.0077 33.4119C55.0577 33.4619 55.0777 33.5419 55.1477 33.5719C55.1877 33.5919 55.2378 33.5819 55.2878 33.5819C55.4878 33.5819 55.6677 33.7219 55.7177 33.9119C55.7677 34.1019 55.6677 34.3219 55.4977 34.4119C55.2977 34.5219 55.0578 34.4619 54.8478 34.4019C54.4478 34.2819 54.0677 34.1319 53.6977 33.9519C53.6577 33.9319 53.6177 33.9119 53.5877 33.8719C53.4577 33.6919 53.5378 33.3619 53.7378 33.3019C53.9778 33.2319 54.3777 33.3919 54.6477 33.3519Z" fill="#EDDCD1"/>
<path d="M53.1579 32.9519C52.2779 32.4819 51.5679 31.7419 51.0279 30.9119C50.8679 30.6619 50.7179 30.4019 50.6179 30.1219C50.4979 29.7819 50.4579 29.4119 50.4079 29.0519C50.3479 28.5619 50.2979 28.0619 50.3579 27.5819C50.4079 27.2619 50.5079 26.9419 50.5679 26.6219C50.6579 26.1319 50.6579 25.6319 50.6479 25.1319C50.6479 24.9919 50.6479 24.8419 50.5879 24.7119C50.5279 24.5819 50.4079 24.4719 50.2579 24.4719C50.0979 24.4819 49.9879 24.6119 49.8979 24.7419C49.0779 25.9019 48.8179 27.3619 48.8579 28.7819C48.8879 29.7819 49.0779 30.8119 49.6479 31.6319C49.8879 31.9719 50.1879 32.2619 50.4979 32.5319C51.4079 33.3219 52.4879 33.9819 53.6879 34.1019C53.7279 34.1019 53.7779 34.1119 53.8079 34.0819C53.8379 34.0619 53.8479 34.0219 53.8479 33.9819C53.8879 33.7919 54.0179 33.4919 53.8879 33.3119C53.7879 33.1419 53.3379 33.0419 53.1579 32.9519Z" fill="#EDEDED"/>
<path d="M57.428 34.182C57.318 33.772 57.198 33.362 56.988 32.982C56.718 32.492 56.288 32.102 55.808 31.822C55.508 31.642 55.148 31.502 54.808 31.592C54.508 31.682 54.288 31.952 54.188 32.242C54.088 32.542 54.108 32.862 54.158 33.172C54.378 34.462 55.668 36.552 57.218 36.212C57.488 36.152 57.788 35.992 57.818 35.712C57.828 35.612 57.798 35.512 57.778 35.412C57.658 35.012 57.538 34.602 57.428 34.182Z" fill="#EADDD0"/>
<path d="M72.668 39.882C71.918 41.672 70.878 43.642 68.988 44.112C67.758 44.412 66.468 43.972 65.298 43.462C62.968 42.442 60.758 41.152 58.738 39.612C57.458 38.632 56.118 37.202 56.508 35.642C56.568 35.402 56.678 35.162 56.888 35.022C57.378 34.702 57.988 35.152 58.418 35.542C60.518 37.462 63.168 38.792 65.968 39.332C66.318 39.402 66.688 39.452 67.028 39.372C67.938 39.162 68.388 38.152 68.678 37.262C69.858 33.742 70.868 30.172 71.708 26.562C71.868 25.862 72.028 25.152 72.438 24.562C73.068 23.652 74.298 23.192 75.378 23.462C78.888 24.352 76.798 28.522 76.098 30.692C75.078 33.792 73.938 36.862 72.668 39.882Z" fill="#E0C74E"/>
<path d="M90.8682 28.412C90.3082 27.782 89.3981 27.382 89.1981 26.552C89.0481 25.902 89.4281 25.242 89.8781 24.752C90.3381 24.262 90.8882 23.842 91.2182 23.262C91.8882 22.062 91.2481 20.332 89.9481 19.862C89.4181 19.672 88.8381 19.672 88.3181 19.452C87.7981 19.242 87.3382 18.672 87.5482 18.142C87.7582 17.592 88.6082 17.262 88.4182 16.712C88.3582 16.552 88.2282 16.432 88.0882 16.332C87.6382 15.992 87.1382 15.722 86.6082 15.522C86.1982 15.362 85.7582 15.242 85.4082 14.982C84.4982 14.292 84.4782 12.922 83.7882 12.012C83.6482 11.822 83.4782 11.662 83.2982 11.522C83.3082 11.422 83.3081 11.322 83.3081 11.222C83.3281 10.432 83.3382 9.622 83.0482 8.882C82.8782 8.442 82.5982 8.052 82.3682 7.642C82.3582 7.632 82.3582 7.612 82.3482 7.602C83.1482 7.802 84.0381 7.69201 84.6881 7.18201C85.4381 6.59201 85.7282 5.442 85.2282 4.632C85.0282 4.312 84.7381 4.072 84.5081 3.772C83.7881 2.812 83.6682 1.82201 82.2882 1.70201C81.4882 1.63201 80.5382 1.762 80.0982 2.492C78.8682 0.842004 76.7481 -0.0480019 74.6881 0.00199807C72.5181 0.0519981 70.4481 1.042 68.8081 2.462C68.2981 2.912 67.8081 3.412 67.5081 4.022C67.2081 4.632 67.1181 5.31201 67.0581 5.98201C66.9981 6.64201 66.8882 7.632 67.2082 8.242L67.1482 8.582C66.8482 8.992 67.2382 9.562 67.6482 9.862C70.2782 11.852 74.2781 11.242 76.8081 13.362C77.8781 14.252 78.5481 15.542 78.9481 16.882C79.1381 17.522 79.2782 18.192 79.2082 18.862C79.0482 20.362 77.9281 21.532 77.0781 22.782C76.0481 24.292 75.3582 26.042 75.1082 27.852C74.9782 28.762 74.9982 29.812 75.6482 30.462C76.2582 31.082 77.2881 31.202 77.7481 31.942C78.3281 32.872 77.6182 34.072 77.6482 35.172C77.6782 36.212 78.4781 37.182 79.4981 37.402C80.3281 37.582 81.1781 37.312 82.0181 37.212C82.8581 37.122 83.8581 37.292 84.2581 38.042C84.5381 38.572 84.4382 39.232 84.6782 39.782C85.0282 40.582 86.0281 40.922 86.8881 40.782C87.7481 40.642 88.4982 40.142 89.2182 39.642C89.6082 39.372 90.0281 39.052 90.0781 38.582C90.1081 38.252 89.9481 37.932 89.7581 37.662C89.1681 36.792 88.2882 35.872 88.5982 34.872C88.7982 34.212 89.4582 33.812 89.9882 33.372C90.7082 32.772 91.2782 31.972 91.4782 31.062C91.6782 30.122 91.4882 29.102 90.8682 28.412Z" fill="#5E625E"/>
<defs>
<linearGradient id="paint0_linear" x1="0.642235" y1="107.042" x2="35.2736" y2="108.696" gradientUnits="userSpaceOnUse">
<stop stop-color="white"/>
<stop offset="1"/>
</linearGradient>
<linearGradient id="paint1_linear" x1="0.642235" y1="107.042" x2="35.2736" y2="108.696" gradientUnits="userSpaceOnUse">
<stop/>
<stop offset="1"/>
</linearGradient>
<linearGradient id="paint2_linear" x1="62.9998" y1="108.004" x2="91.6958" y2="108.338" gradientUnits="userSpaceOnUse">
<stop stop-color="white"/>
<stop offset="1"/>
</linearGradient>
<linearGradient id="paint3_linear" x1="62.9998" y1="108.004" x2="91.6958" y2="108.338" gradientUnits="userSpaceOnUse">
<stop/>
<stop offset="1"/>
</linearGradient>
</defs>
</svg>
