<svg width="48" height="106" viewBox="0 0 48 106" fill="none" xmlns="http://www.w3.org/2000/svg">
<path d="M13.8755 105.16C16.6255 105.25 19.3655 105.2 22.1055 105.16C29.7655 105.03 37.4254 104.9 45.0854 104.77C46.2754 104.75 47.8155 104.51 47.8955 103.66C47.9755 102.9 46.7655 102.41 45.7355 102.19C42.0655 101.38 38.2155 101.22 34.4055 101.08C28.8055 100.88 23.1954 100.71 17.5854 100.58C14.0854 100.5 10.4855 100.44 7.22546 101.28C5.44546 101.74 2.81551 103.69 5.64551 104.64C6.42551 104.9 8.01547 104.78 8.85547 104.85C10.5355 104.99 12.2055 105.11 13.8755 105.16Z" fill="url(#paint0_linear)"/>
<path d="M13.8755 105.16C16.6255 105.25 19.3655 105.2 22.1055 105.16C29.7655 105.03 37.4254 104.9 45.0854 104.77C46.2754 104.75 47.8155 104.51 47.8955 103.66C47.9755 102.9 46.7655 102.41 45.7355 102.19C42.0655 101.38 38.2155 101.22 34.4055 101.08C28.8055 100.88 23.1954 100.71 17.5854 100.58C14.0854 100.5 10.4855 100.44 7.22546 101.28C5.44546 101.74 2.81551 103.69 5.64551 104.64C6.42551 104.9 8.01547 104.78 8.85547 104.85C10.5355 104.99 12.2055 105.11 13.8755 105.16Z" fill="url(#paint1_linear)"/>
<path d="M6.46529 48.4697C6.56529 48.6997 6.50532 48.9797 6.37532 49.1897C6.24532 49.4097 6.06534 49.5897 5.89534 49.7797C5.49534 50.2497 5.21528 50.8097 4.83528 51.2797C4.72528 51.4097 4.59525 51.5397 4.42525 51.5397C4.27525 51.5397 4.14532 51.4297 3.99532 51.4397C3.81532 51.4497 3.68525 51.6097 3.55525 51.7297C3.23525 52.0297 2.75527 52.1497 2.32527 52.0197C1.90527 51.8997 1.55528 51.5397 1.45528 51.1097C1.28528 50.4497 1.68526 49.7597 2.18526 49.2997C2.68526 48.8397 3.30524 48.5097 3.79524 48.0297C3.98524 47.8497 4.14529 47.6397 4.34529 47.4797C4.54529 47.3097 4.79525 47.1897 5.05525 47.1897C5.45525 47.1897 5.56534 47.4897 5.76534 47.7597C5.96534 48.0197 6.32529 48.1597 6.46529 48.4697Z" fill="#F9E9DE"/>
<path d="M7.37544 44.6998C10.9054 38.6598 13.2554 31.9298 14.2554 25.0098C14.3654 24.2798 14.4555 23.5298 14.7655 22.8598C15.0755 22.1898 15.6555 21.5998 16.3855 21.4698C17.2655 21.3198 18.1354 21.8998 18.5954 22.6598C19.0454 23.4198 19.1654 24.3398 19.2054 25.2298C19.4454 29.6898 18.2354 34.1698 16.0754 38.0898C13.9154 41.9998 10.8254 45.3598 7.30538 48.1098C6.95538 48.3798 6.56544 48.6598 6.12544 48.6098C5.14544 48.4998 4.98536 47.5198 5.41536 46.9598C6.03536 46.1498 6.83544 45.6298 7.37544 44.6998Z" fill="#965E59"/>
<path d="M19.6856 99.9697C20.4356 99.7497 21.2056 99.5497 21.9656 99.3897C22.3856 99.2997 22.8157 99.2097 23.1557 98.9597C23.4957 98.7097 23.7156 98.2297 23.5356 97.8497C24.3256 97.7497 25.1256 97.6897 25.9256 97.6497C26.1156 97.6397 26.3357 97.6398 26.4857 97.7598C26.6157 97.8598 26.6656 98.0298 26.7056 98.1798C27.0256 99.3198 27.2456 100.48 27.3556 101.66C27.3656 101.75 27.3656 101.85 27.3056 101.91C27.2656 101.95 27.1957 101.96 27.1357 101.97C24.3357 102.41 21.5156 102.67 18.6756 102.77C17.7856 102.8 16.5657 102.88 17.1257 101.63C17.5657 100.66 18.7456 100.24 19.6856 99.9697Z" fill="#3D322B"/>
<path d="M35.6953 97.3498C35.2453 97.3998 34.7253 97.4998 34.5453 97.8498C34.3653 98.2098 34.6653 98.6198 34.5553 98.9898C34.5053 99.1698 34.3653 99.3298 34.2053 99.4698C33.6853 99.9098 32.9853 100.16 32.2853 100.37C31.5953 100.58 30.8753 100.78 30.2853 101.15C29.6953 101.52 29.2453 102.12 29.3153 102.74C32.4653 102.8 35.6153 102.6 38.7253 102.16C38.8353 102.14 38.9553 102.12 39.0353 102.06C39.1153 101.99 39.1354 101.88 39.1454 101.77C39.2154 100.6 38.5953 99.5197 38.3453 98.3997C38.2653 98.0397 38.3953 97.2998 37.9653 97.1198C37.5353 96.9298 36.1853 97.2898 35.6953 97.3498Z" fill="#3D322B"/>
<path d="M31.6553 52.1399C31.9153 51.1899 32.1152 50.1799 31.6752 49.2799C31.1752 48.2599 29.9553 47.5699 28.7553 46.9899C27.2453 46.2699 25.6153 45.6199 23.8453 45.5099C21.8853 45.3899 19.2152 46.1099 18.6752 47.7199C17.9252 49.9799 18.2053 52.7399 17.9553 55.0799C17.3853 60.2499 16.7153 65.4299 16.7653 70.6199C16.7953 73.5299 17.0452 76.4399 17.6652 79.3099C18.1752 81.6799 18.9353 84.0199 19.6953 86.3599C20.3453 88.3699 21.0053 90.3799 21.6553 92.3899C21.6053 92.6499 21.5753 92.9299 21.5853 93.0899C21.6153 93.8099 22.4253 94.4099 22.2353 95.0999C22.1753 95.3099 22.0353 95.4799 21.9353 95.6799C21.8353 95.8699 21.7753 96.1199 21.8853 96.2999C22.0053 96.4999 22.2752 96.5599 22.4152 96.7399C22.5652 96.9399 22.5153 97.2099 22.4353 97.4399C22.3553 97.6699 22.2453 97.8999 22.2753 98.1399C23.1753 98.6999 24.3153 98.6099 25.3753 98.5099C26.0153 98.4499 26.6452 98.3899 27.2852 98.3299C27.4552 98.3099 27.6453 98.2899 27.7753 98.1799C27.9853 97.9999 27.9753 97.6599 27.8753 97.3999C27.7653 97.1399 27.5953 96.9099 27.5253 96.6399C27.3653 95.9899 27.8553 95.2199 27.4653 94.6799C27.3753 94.5499 27.2353 94.4499 27.1553 94.3099C26.9953 94.0299 27.1053 93.6899 27.1253 93.3799C27.1653 92.7699 26.8853 92.1899 26.6053 91.6499C26.5653 91.5699 26.5253 91.4899 26.4453 91.4399C26.4253 91.4299 26.3953 91.4199 26.3653 91.4199C25.4853 85.4299 23.5753 79.4799 24.2453 73.4899C25.0553 66.1399 29.7053 59.3699 31.6553 52.1399Z" fill="#662E2A"/>
<path d="M38.6355 51.9198C38.6755 51.4898 38.6754 51.0398 38.5354 50.6298C38.3654 50.1398 38.0054 49.7498 37.6054 49.4198C36.1354 48.2398 34.1055 47.9298 32.2455 48.2398C30.9355 48.4598 28.8754 48.9198 27.9754 50.0198C27.1754 50.9998 27.2755 52.7598 27.1455 53.9298C26.6855 58.1898 26.3754 62.4798 26.2054 66.7598C26.1354 68.5498 26.0954 70.3598 26.3354 72.1298C26.5554 73.7398 27.0154 75.3098 27.4654 76.8698C28.3754 79.9898 29.2854 83.1098 30.5654 86.0998C31.3054 87.8198 32.1754 89.4898 32.7254 91.2798C32.8254 91.8098 32.7854 92.3598 32.5354 92.8398C32.4554 92.9998 32.3554 93.1498 32.3054 93.3198C32.2254 93.5998 32.3055 93.9098 32.4955 94.1198C32.6655 94.3098 32.9254 94.4098 33.0854 94.6098C33.2854 94.8498 33.3155 95.1898 33.2755 95.4898C33.2355 95.7998 33.1254 96.0898 33.0654 96.3898C33.0454 96.4798 33.0354 96.5698 33.0754 96.6598C33.1254 96.7698 33.2354 96.8198 33.3354 96.8898C33.6454 97.1198 33.7554 97.5898 33.5754 97.9298C34.2154 98.1598 34.9254 98.0898 35.5954 97.9598C36.2654 97.8298 36.9354 97.6398 37.6154 97.6498C37.7754 97.6498 37.9454 97.6698 38.1054 97.6298C38.2654 97.5898 38.4154 97.4798 38.4554 97.3198C38.5254 97.0498 38.2655 96.8298 38.1455 96.5798C38.0455 96.3798 38.0354 96.1398 38.0354 95.9198C38.0254 95.5098 38.0155 95.0998 38.0055 94.6898C37.9955 94.4398 37.9955 94.1898 37.9055 93.9598C37.8155 93.7298 37.6455 93.5298 37.5155 93.3198C37.2055 92.7698 37.2154 92.0998 37.1754 91.4698C37.1354 90.8598 37.0455 90.2398 36.8955 89.6498C36.8655 89.5498 36.8455 89.4398 36.7755 89.3498C36.7655 89.3298 36.7354 89.3198 36.7254 89.2998C36.5854 87.1498 36.4054 85.0098 35.9454 82.9098C35.6254 81.4898 35.1854 80.0998 34.9154 78.6798C34.6154 77.0898 34.5454 75.4598 34.5554 73.8398C34.5754 68.3698 35.4455 62.8998 37.1355 57.6898C37.7455 55.7898 38.4755 53.8998 38.6355 51.9198Z" fill="#662E2A"/>
<path d="M10.9255 11.7297C11.6455 13.7697 12.5256 15.9197 14.4056 17.1097C15.7756 17.9797 17.5755 18.2197 19.1755 17.7297C20.7755 17.2497 22.1256 16.0597 22.7456 14.5897C23.0356 13.8897 23.1756 13.1497 23.2656 12.4097C23.5856 9.96973 23.5055 7.49973 23.0455 5.09973C22.8855 4.25973 22.2955 3.60972 21.9355 2.83972C21.4155 1.73972 19.7456 0.549723 18.8656 0.279723C16.8156 -0.360277 15.0555 0.209749 13.1655 0.869749C10.7655 1.70975 9.85552 3.93973 9.53552 6.09973C9.27552 7.77973 10.3655 10.1497 10.9255 11.7297Z" fill="#F9E9DE"/>
<path d="M22.8254 11.5398C22.7154 11.7398 22.7254 11.9698 22.6954 12.1798C22.6254 12.7598 22.3254 13.2998 22.0354 13.8198C21.8054 14.2298 21.5654 14.6398 21.2054 14.9598C20.8454 15.2798 20.3455 15.4798 19.8655 15.3798C19.1055 15.2098 18.7355 14.3498 17.9955 14.1398C17.4855 13.9998 16.9454 14.1898 16.4454 14.3798C15.8454 14.6098 15.2154 14.8698 14.7954 15.3498C14.6554 15.5098 14.5455 15.6998 14.5255 15.9098C14.4755 15.8898 14.4355 15.8598 14.3755 15.8398C13.7455 15.5998 13.1555 15.2398 12.6355 14.8098C12.5355 14.7298 12.3754 14.6398 12.2854 14.7298C12.2054 14.8098 12.2554 14.9498 12.3154 15.0498C12.7654 15.8098 13.2254 16.5798 13.8154 17.2498C14.0754 17.5398 14.3855 17.8298 14.7655 17.9198C14.8355 17.9398 14.9254 17.9398 14.9854 17.8998C15.0254 17.8698 15.0354 17.8198 15.0454 17.7798C15.0954 17.8498 15.1354 17.9298 15.2054 17.9898C15.5954 18.3398 16.1454 18.5198 16.6754 18.5498C17.3654 18.5998 18.0554 18.4398 18.7254 18.2698C19.3554 18.1098 19.9954 17.9298 20.5354 17.5898C21.2854 17.1198 21.8054 16.3898 22.2154 15.6298C22.9254 14.2998 23.3355 12.8398 23.4055 11.3698C23.2255 11.2198 22.9354 11.3498 22.8254 11.5398ZM18.2854 16.1398C18.2854 16.3398 18.1555 16.4398 18.0055 16.4698C17.8855 16.5598 17.7154 16.5898 17.5554 16.4798C17.3954 16.3698 17.1155 16.2698 16.8655 16.2698C16.7455 16.3198 16.6255 16.3598 16.5155 16.4198C16.4655 16.4898 16.4254 16.5698 16.4354 16.6898C16.4554 16.9898 16.0954 17.3098 15.7954 17.0798C15.5354 16.8798 15.4354 16.6698 15.4154 16.4598C15.3354 16.3098 15.3655 16.1298 15.5255 16.0298C16.0755 15.1398 18.2654 14.6398 18.2854 16.1398Z" fill="#EAEEEF"/>
<path d="M21.1953 3.51965C20.9453 4.02965 20.4854 4.42966 20.2754 4.95966C19.9354 5.78966 20.2753 6.73963 20.7053 7.52963C20.8053 7.71963 20.9253 7.90964 21.1053 8.00964C21.3753 8.15964 21.7253 8.07965 21.9753 7.88965C22.2253 7.69965 22.3854 7.42966 22.5254 7.14966C23.0954 6.08966 23.5953 4.83966 23.1753 3.70966C22.9853 3.17966 22.6054 2.73963 22.2454 2.30963C22.0054 2.01963 21.7354 1.72964 21.3654 1.62964C21.1354 2.16964 21.5053 2.88965 21.1953 3.51965Z" fill="#EAEEEF"/>
<path d="M18.4154 19.4297C19.6954 18.9797 20.8354 18.1897 22.0654 17.6097C22.5354 17.3897 23.0354 17.1897 23.5554 17.1897C24.2154 17.1897 24.8255 17.4997 25.3755 17.8497C28.4155 19.7897 32.4554 22.6897 34.0754 25.9197C38.1654 34.0897 40.4554 43.1597 40.1854 52.2897C40.1754 52.6997 40.1455 53.1397 39.8755 53.4397C39.6455 53.7097 39.2754 53.8097 38.9354 53.8997C33.4754 55.3097 23.8654 55.6897 18.2354 55.4397C17.7654 55.4197 17.2555 55.3797 16.8955 55.0697C16.5255 54.7597 16.3954 54.2397 16.2954 53.7697C15.1054 48.1697 16.5355 43.0097 15.5255 37.3697C14.8255 33.4197 14.1654 29.4397 13.9654 25.4197C13.9054 24.1197 13.3854 21.4197 14.2854 20.3297C15.1554 19.2797 17.2154 19.8497 18.4154 19.4297Z" fill="#AA6A64"/>
<path d="M4.60549 49.3698C0.985494 49.1898 -0.264565 54.3598 0.0454351 57.2598C0.215435 58.8298 2.35546 58.5398 2.07546 56.9698C1.91546 56.0698 1.74552 52.8998 2.75552 52.2898C4.31552 50.7198 5.84545 51.2698 7.18545 53.5998L7.90554 55.6498C8.44554 57.9798 8.12553 60.5698 8.01553 62.9498C7.80553 67.3298 7.61544 71.7198 7.42544 76.0998C7.06544 84.6298 6.95547 93.1298 6.95547 101.66C6.95547 102.13 7.63553 102.13 7.64553 101.66C7.84553 94.4298 8.17549 87.1998 8.47549 79.9698C8.77549 72.8098 9.73546 65.5498 9.69546 58.3998C9.67546 55.2398 8.51549 49.5598 4.60549 49.3698Z" fill="#A78E41"/>
<path d="M14.6054 29.4696C15.5154 28.0996 16.2954 26.6497 16.9554 25.1497C17.6154 23.6297 18.1455 21.9696 17.8655 20.3396C17.8155 20.0696 17.7454 19.7896 17.5454 19.5996C17.3254 19.3896 17.0054 19.3496 16.7054 19.3096C15.9054 19.2096 15.0155 19.1296 14.3655 19.5996C13.5155 20.2096 13.4555 21.4296 13.4855 22.4796C13.5555 24.7996 13.6654 27.1096 13.8054 29.4196C13.8354 30.0796 14.3354 29.8696 14.6054 29.4696Z" fill="#965E59"/>
<path d="M25.3355 24.2797C27.7355 25.4197 30.5456 25.6797 33.1156 24.9997C33.2656 24.3897 32.8056 23.8197 32.3856 23.3597C31.2056 22.0697 30.0255 20.7797 28.8455 19.4897C27.9955 18.5597 27.0955 17.5897 25.9155 17.1397C24.7155 16.6797 23.4055 16.8297 22.2155 17.2597C21.6455 17.4697 20.9255 17.7397 20.4655 18.1397C19.8355 18.6797 19.8855 18.6397 20.2155 19.4097C21.1255 21.5097 23.3155 23.3097 25.3355 24.2797Z" fill="#965E59"/>
<path d="M9.10538 24.4797C8.85538 24.3297 8.59535 24.1697 8.31535 24.1297C7.60535 24.0097 7.04538 24.5797 6.60538 25.0997C6.01538 25.7897 5.15535 27.0297 5.57535 28.0997C5.78535 28.6297 6.28542 29.0097 6.76542 29.3397C8.59542 30.5997 9.73541 31.5797 11.7554 32.4897C12.1954 32.6897 12.6554 32.8797 13.1154 32.8597C14.0354 32.8097 14.6153 31.9497 15.0453 31.1697C15.3253 30.6797 15.6053 30.1097 15.4353 29.5497C15.3353 29.2297 15.0954 28.9597 14.8654 28.7097C13.2154 26.9697 11.1454 25.7097 9.10538 24.4797Z" fill="#4D4D4D"/>
<path d="M22.7353 34.1196C22.8853 34.1696 23.0553 34.2196 23.2053 34.1696C23.5053 34.0796 23.5853 33.6896 23.5953 33.3696C23.6753 30.5196 22.6353 27.7596 22.5253 24.9096C22.4753 23.6296 22.6153 22.3596 22.7553 21.0796C22.8653 20.0496 23.0453 18.8996 23.8453 18.2396C24.9953 17.2896 26.8653 17.9396 27.7053 19.1696C28.5453 20.3996 28.6453 21.9696 28.7153 23.4596C28.9153 28.0896 29.0453 32.7896 28.0053 37.2996C27.8753 37.8496 27.7153 38.4296 27.3153 38.8296C26.8453 39.3096 26.1153 39.4496 25.4553 39.3596C24.7953 39.2696 24.1753 38.9796 23.5653 38.6896C20.5853 37.2796 17.6153 35.8696 14.6353 34.4596C14.2253 34.2696 13.7953 34.0496 13.5853 33.6496C13.1953 32.8896 13.8352 31.8196 14.4252 31.3396C15.2552 30.6596 15.6953 31.0396 16.5853 31.5096C18.5553 32.5696 20.6153 33.4396 22.7353 34.1196Z" fill="#965E59"/>
<path d="M10.2954 31.2896C9.95536 31.0996 9.60546 30.8996 9.40546 30.5696C9.25546 30.3096 9.21539 29.9996 9.20539 29.6996C9.19539 29.2796 9.27546 28.7796 9.65546 28.5896C9.94546 28.4496 10.2954 28.5597 10.5854 28.7097C10.8754 28.8597 11.1454 29.0596 11.4654 29.0896C11.7754 29.1296 12.0955 29.0096 12.3955 29.0896C12.7855 29.1896 13.0154 29.5797 13.3054 29.8597C13.5854 30.1297 13.9454 30.3096 14.2554 30.5296C14.5754 30.7496 14.8754 31.0497 14.9554 31.4297C15.0254 31.7897 14.8854 32.1796 14.6254 32.4496C13.9654 33.1196 13.3554 32.7696 12.6154 32.4496C11.8154 32.1196 11.0554 31.6996 10.2954 31.2896Z" fill="#F9E9DE"/>
<defs>
<linearGradient id="paint0_linear" x1="4.47762" y1="102.146" x2="47.8708" y2="104.286" gradientUnits="userSpaceOnUse">
<stop stop-color="#4D4D4D"/>
<stop offset="1"/>
</linearGradient>
<linearGradient id="paint1_linear" x1="4.47762" y1="102.146" x2="47.8708" y2="104.286" gradientUnits="userSpaceOnUse">
<stop/>
<stop offset="1"/>
</linearGradient>
</defs>
</svg>
