<svg width="101" height="117" viewBox="0 0 101 117" fill="none" xmlns="http://www.w3.org/2000/svg">
<path d="M11.0908 111.581C10.0608 111.701 8.98082 111.401 8.09082 110.761C9.44082 106.871 9.84082 105.721 11.1908 101.831C11.6208 100.601 12.0508 99.3614 12.2808 98.0614C12.5708 96.4614 12.5508 94.7914 12.5408 93.1514C12.4808 86.7614 12.6808 65.6314 12.6208 59.2414C12.6108 58.7014 12.6108 58.1514 12.7908 57.6614C13.3108 56.2614 17.0108 56.5114 18.3608 56.5714C18.6608 56.5814 20.8508 56.8614 21.0708 57.0914C21.3308 57.3514 23.5308 57.1914 23.5508 57.5814C23.8208 62.6214 20.6308 72.7114 20.2008 78.0214C20.0608 79.7814 18.5908 90.9814 18.3408 92.7214C17.9008 95.7914 16.8108 98.9514 15.4708 101.631C13.4108 105.751 13.1008 106.721 11.0908 111.581Z" fill="#F0E5D4"/>
<path d="M23.3608 33.3615C24.5708 33.9615 25.4408 35.0715 26.2608 36.1415C28.2508 38.7415 30.2308 41.3415 32.2208 43.9415C32.7908 44.6815 33.4008 45.4615 34.2608 45.8015C35.3108 46.2215 36.4908 45.9315 37.5708 45.6315C39.7308 45.0415 39.3108 44.8915 41.4708 44.3015C41.6308 44.2615 41.8208 44.2215 41.9508 44.3215C42.0408 44.3815 42.0708 44.4915 42.1108 44.5915C42.3308 45.2315 42.7908 46.6815 42.3908 47.2215C42.1008 47.6115 41.5908 47.7515 41.1108 47.8715C37.4308 48.7615 36.3108 49.2215 32.5308 49.5015C31.9708 49.5415 31.6208 49.2115 30.6208 48.6615C30.1908 48.4315 29.8108 48.1315 29.4608 47.7915C27.3608 45.7215 25.4508 43.4515 23.7408 41.0515C22.9008 39.8715 22.1108 38.6515 21.3608 37.4015C20.8208 36.4915 19.8808 35.1515 20.1308 34.0115C20.4508 32.6415 22.4108 32.9015 23.3608 33.3615Z" fill="#6D8497"/>
<path d="M20.8407 24.7913C20.7307 23.0413 19.9707 21.4013 19.1907 19.8313C18.5707 18.5613 17.8907 17.2613 16.7607 16.4013C16.5407 16.2313 16.2907 16.0713 16.0107 16.0513C15.7707 16.0313 15.5307 16.1013 15.3107 16.1813C13.1507 16.8813 10.9507 17.6013 9.06072 18.8513C8.92072 18.9413 8.78072 19.0513 8.72072 19.2013C8.67072 19.3413 8.70072 19.4913 8.72072 19.6413C9.60072 24.0213 11.4907 29.8113 15.8807 30.9013C18.0107 29.8713 17.6307 30.6613 19.8407 29.8213C19.2507 28.6613 20.9207 26.0913 20.8407 24.7913Z" fill="#E8DBCE"/>
<path d="M29.6108 115.451C29.3908 115.221 29.0808 115.101 28.7908 114.991C27.7808 114.581 26.8208 114.041 25.9508 113.391C24.8108 113.201 23.6608 113.151 22.5108 113.241C22.0708 113.931 21.9308 114.811 22.1408 115.601C22.1708 115.701 22.2008 115.801 22.2708 115.871C22.3608 115.961 22.4908 115.991 22.6208 116.011C24.7108 116.391 26.8308 116.571 28.9508 116.551C29.2308 116.551 29.5408 116.521 29.7208 116.311C29.9108 116.071 29.8208 115.681 29.6108 115.451Z" fill="#333333"/>
<path d="M13.3606 115.101C13.2506 114.811 13.0106 114.601 12.7806 114.381C12.0106 113.651 11.3306 112.811 10.7606 111.911C9.79065 111.331 8.76064 110.871 7.68064 110.551C7.03064 111.021 6.59064 111.771 6.50064 112.571C6.49064 112.671 6.48064 112.771 6.52064 112.861C6.57064 112.971 6.68064 113.051 6.79064 113.111C8.55064 114.201 10.4206 115.121 12.3506 115.861C12.6006 115.961 12.9006 116.051 13.1306 115.921C13.4206 115.771 13.4806 115.391 13.3606 115.101Z" fill="#333333"/>
<path d="M29.4207 68.6914C29.4307 68.1714 29.4207 67.6514 29.4007 67.1414V67.1314C29.3207 64.7214 28.9907 62.3314 28.6907 59.9314C28.5007 58.4514 28.2907 56.9114 27.5407 55.6614C25.7707 56.9014 23.7507 57.6514 21.6807 57.9114C21.6707 57.9514 21.6607 57.9914 21.6407 58.0414C21.5207 58.3414 21.4507 58.6614 21.4007 58.9914C21.7907 63.2014 20.9507 67.9914 20.9507 71.6214C20.9507 73.9014 20.7607 76.1514 20.4907 78.3814C20.5507 78.3714 20.6007 78.3714 20.6607 78.3614C21.4607 81.6514 21.5707 85.1614 21.6707 88.6114C21.9107 96.8214 22.1507 105.031 22.3907 113.251C22.3907 114.091 25.3607 113.341 25.5607 113.291C25.5707 113.121 25.5807 112.951 25.6007 112.781C25.9007 108.551 25.9007 104.231 26.2707 100.001C26.6107 96.0614 26.7407 91.7914 27.5507 87.9314C27.8807 86.3614 27.9007 85.0614 27.9207 83.4614C27.9407 81.5014 28.1807 79.5614 28.4507 77.6314C28.8307 74.6514 29.3607 71.6914 29.4207 68.6914Z" fill="#F0E5D4"/>
<path d="M31.1907 85.5314C31.2007 82.9414 30.8707 80.3314 30.6907 77.7514C30.5107 75.1614 31.1207 68.6414 30.6507 66.0914C29.5307 59.9714 28.2107 60.4314 28.8707 57.4714C30.7407 49.0914 25.1607 37.7314 19.8307 32.2314C18.2907 32.6914 16.6607 32.7714 15.0207 32.7814C14.9807 32.8914 14.9507 33.0114 14.9207 33.1414C13.4207 40.9614 12.8407 55.3914 12.6407 58.3114C12.2507 64.0414 10.2607 67.5814 9.49066 72.9514C9.25066 74.6314 8.91066 76.3914 8.63066 78.1414C8.07066 79.9814 7.29066 81.9714 7.10066 83.9914C6.97066 84.2514 6.87066 84.5514 6.81066 84.8614C6.16066 85.8714 6.27066 87.5414 7.37066 88.1514C7.61066 88.2814 7.85066 88.3214 8.09066 88.3014C8.13066 88.3214 8.16066 88.3414 8.20066 88.3614C12.1007 90.0514 16.3307 91.1614 20.4607 90.9614C20.7207 90.9514 20.9507 90.8914 21.1607 90.8014C22.3607 90.8914 23.5507 90.9414 24.7707 90.9814C26.2907 91.0214 28.3307 91.4514 29.7007 90.5014C30.5107 89.9314 30.7807 88.7214 30.6507 87.6114C30.9807 87.0614 31.1807 86.3714 31.1907 85.5314Z" fill="#6D8497"/>
<path d="M19.9607 44.4915C17.6607 45.7815 11.6907 49.1315 8.95065 48.8315C11.6607 46.1415 14.1907 43.0415 15.4907 41.3515C16.9907 39.4015 16.5307 36.2915 16.0807 34.0615C15.7907 32.6115 14.1706 32.6615 13.4106 33.5515C12.9406 33.6015 12.5106 33.8815 12.2506 34.4615C9.65065 40.4215 4.69065 45.5715 3.51065 52.1115C3.35065 53.0015 3.74065 54.2015 4.79065 54.3715C11.2107 55.4015 15.6507 48.6815 20.9307 46.2715C23.0607 45.2915 20.7907 44.0215 19.9607 44.4915Z" fill="#738797"/>
<path d="M22.0808 40.8113C21.9708 40.3213 21.7208 39.8913 21.2008 39.6313C20.9308 39.4913 20.5209 39.7013 20.5009 40.0213C20.4609 40.7813 20.4309 41.5413 20.3909 42.2913C20.3209 42.2513 20.2509 42.2113 20.1809 42.1713C19.7809 41.9313 19.3709 42.4513 19.5009 42.8213C19.7209 43.4613 20.1408 43.8313 20.5308 44.3613C20.7208 44.6213 20.9608 44.6413 21.1508 44.5413C21.3608 44.7213 21.6908 44.7713 21.9208 44.4913C22.0308 44.3513 22.0608 44.2113 22.0308 44.0813C22.3908 42.9613 22.6508 41.8013 22.0808 40.8113Z" fill="#E8DBCE"/>
<path d="M27.8907 7.55132C27.2107 7.83132 26.5407 8.10132 25.8407 8.30132C25.5507 8.38132 25.6807 8.79132 25.9607 8.74132C26.6807 8.62132 27.4007 8.51132 28.1107 8.33132C28.6307 8.20132 28.3707 7.35132 27.8907 7.55132Z" fill="#666666"/>
<path d="M22.5207 4.12144C22.3607 3.78144 21.7907 3.95144 21.8207 4.32144C21.8507 4.63144 21.9807 4.93144 22.0807 5.23144C22.1907 5.54144 22.2807 5.92144 22.4807 6.19144C22.5807 6.32144 22.8507 6.35144 22.8807 6.13144C22.9207 5.81144 22.8307 5.48144 22.7707 5.17144C22.7107 4.81144 22.6707 4.44144 22.5207 4.12144Z" fill="#666666"/>
<path d="M25.4107 4.46132C25.1607 4.77132 24.9907 5.13132 24.8107 5.48132C24.6507 5.79132 24.4707 6.10132 24.4407 6.46132C24.4207 6.63132 24.6407 6.73132 24.7707 6.65132C25.0307 6.48132 25.1907 6.22132 25.3707 5.97132C25.6007 5.63132 25.8707 5.30132 26.0307 4.92132C26.1807 4.54132 25.7107 4.10132 25.4107 4.46132Z" fill="#666666"/>
<path d="M60.3109 113.901C60.3209 113.771 60.3409 113.631 60.4109 113.521C60.5909 113.191 61.2209 113.341 61.5509 113.321C61.9709 113.281 62.3809 113.211 62.8009 113.131C63.0609 113.081 65.2209 112.541 65.2909 112.701C65.1809 112.461 65.4109 112.201 65.4809 111.891C66.2209 111.651 67.0809 111.961 67.9809 111.861C67.9609 112.301 68.2909 112.681 68.4809 113.051C68.5709 113.221 68.6809 113.411 68.6409 113.601C68.5909 113.831 68.2709 114.151 68.1409 114.341C68.0909 114.411 68.0409 114.491 67.9709 114.541C67.8809 114.611 67.7709 114.641 67.6709 114.671C67.2709 114.771 66.8409 114.791 66.4209 114.751C66.1909 114.731 65.7209 114.501 66.0709 114.211C64.2609 114.181 62.4909 115.221 60.7209 114.561C60.5609 114.501 60.4109 114.381 60.3509 114.221C60.3009 114.101 60.3009 114.001 60.3109 113.901Z" fill="#662E2A"/>
<path d="M58.1008 72.7415C58.1008 72.4515 60.6508 72.5914 60.7708 72.8614C62.8108 72.9114 64.8508 72.9715 66.8808 73.0215C67.3408 73.0315 67.8408 73.0614 68.2008 73.3514C68.6908 73.7514 71.3308 74.5315 71.3108 75.1615C71.0308 87.6015 68.1308 99.9815 67.8408 112.421C67.0008 112.421 66.1708 112.421 65.3308 112.421C65.3108 108.441 63.1108 104.561 62.3508 100.651C60.5908 91.6015 57.9708 81.9715 58.1008 72.7415Z" fill="#333333"/>
<path d="M74.2407 71.4114C74.4507 71.1714 74.8007 71.1114 75.1207 71.0614C76.5707 70.8514 78.3807 70.7914 79.1307 72.0414C79.3907 72.4814 79.0807 73.7414 79.5307 73.5014C92.6407 66.5114 81.1307 85.5514 81.9307 91.5814C82.1407 93.1314 82.3507 94.7014 82.8707 96.1814C83.3007 97.3814 83.9307 98.5014 84.5607 99.6114C86.5507 103.121 88.5407 106.631 90.5307 110.131C89.6507 110.841 88.5307 111.251 87.3907 111.261C86.3407 109.321 84.8707 108.901 78.3607 102.791C76.1907 100.751 73.9007 95.9914 73.0007 93.1514C72.4907 91.5414 72.0107 79.5714 71.8707 77.8914C71.4807 73.1114 71.3607 76.2814 70.9807 71.5014C70.9507 71.1414 74.0007 71.6914 74.2407 71.4114Z" fill="#333333"/>
<path d="M95.6507 4.14139C95.4407 3.29139 95.0007 2.42139 95.2707 1.59139C95.3907 1.61139 95.5007 1.63139 95.6207 1.65139C95.6907 1.82139 95.7707 1.98139 95.8407 2.15139C95.8407 1.71139 95.9107 1.26139 96.0407 0.841394C96.1707 0.431394 96.4807 -0.0286066 96.9207 0.00139345C97.3507 0.0313934 97.5907 0.501393 97.7107 0.911393C98.2407 2.81139 97.9907 4.82139 97.7407 6.78139C97.0407 6.82139 96.3307 6.75139 95.6507 6.58139C95.8507 5.78139 95.8507 4.94139 95.6507 4.14139Z" fill="#E8DBCE"/>
<path d="M82.7407 37.4015C79.6107 38.9315 75.4207 30.0315 79.3807 28.2115C82.9707 26.5615 88.9807 26.3715 92.1907 23.8215C93.7307 22.6015 94.6807 20.8515 94.8507 18.7415C95.1907 14.5515 95.4307 10.3515 95.5607 6.16151C96.4607 6.12151 97.3607 6.0815 98.2507 6.0415C98.7507 11.2415 99.2507 16.4515 99.7507 21.6515C99.8507 22.6515 99.9407 23.6915 99.6607 24.6815C99.3907 25.6315 98.8007 26.4215 98.1807 27.1515C94.1307 31.9315 87.7207 34.9615 82.7407 37.4015Z" fill="#E8DBCE"/>
<path d="M83.5109 114.731C83.5509 114.331 84.2309 114.201 84.5409 114.031C84.9409 113.811 85.3209 113.561 85.6909 113.301C85.9209 113.141 87.8209 111.661 87.9609 111.781C87.7509 111.591 87.7109 111.371 87.3709 111.121C88.0009 110.561 89.2809 109.991 90.1209 109.501C90.3009 109.941 90.9109 110.451 91.2509 110.731C91.4109 110.861 91.6109 111.001 91.6509 111.201C91.7009 111.451 91.5309 111.901 91.4809 112.151C91.4609 112.241 91.4509 112.341 91.4009 112.421C91.3509 112.531 91.2509 112.601 91.1609 112.681C90.8009 112.951 90.3909 113.161 89.9709 113.301C89.7409 113.381 89.1709 113.361 89.3809 112.921C87.5909 113.681 86.2909 115.471 84.2509 115.601C84.0609 115.611 83.8609 115.561 83.7309 115.421C83.6609 115.341 83.6109 115.241 83.5809 115.131C83.5309 115.011 83.4909 114.871 83.5109 114.731Z" fill="#662E2A"/>
<path d="M45.3707 7.05139C45.4507 6.99139 45.5607 6.98139 45.6507 7.00139C45.6007 6.66139 45.9307 6.34139 46.2807 6.32139C46.6307 6.30139 46.9507 6.51138 47.1607 6.79138C47.3707 7.07138 47.4707 7.40139 47.5807 7.73139C47.7107 8.15139 47.8507 8.57138 47.9807 8.99138C48.1207 8.87138 48.2207 8.70138 48.2407 8.51138C48.3607 8.44138 48.5307 8.51139 48.6107 8.62139C48.6907 8.73139 48.7207 8.88138 48.7407 9.02138C48.8707 9.87138 49.0007 10.7214 49.1307 11.5814C48.8107 11.7314 48.5107 11.9114 48.1807 12.0014C47.8507 12.1014 47.4607 12.1014 47.1707 11.9214C46.7607 11.6714 46.6407 11.1514 46.5107 10.6914C46.3607 10.1514 46.1507 9.62138 45.9007 9.11138C45.5707 8.47138 45.1507 7.75139 45.3707 7.05139Z" fill="#E8DBCE"/>
<path d="M49.1806 11.3513C50.0806 15.0013 51.0706 18.6313 52.1506 22.2413C52.6906 24.0513 53.8306 25.4113 55.3806 26.2013C58.6106 27.8413 62.0706 28.1813 65.4506 28.9713C69.1806 29.8413 68.4306 33.6513 65.4306 34.2213C60.6206 35.1413 55.2406 33.6513 50.8706 30.2113C50.2106 29.6913 49.5606 29.1013 49.1506 28.3213C48.7306 27.5113 48.6106 26.5813 48.5106 25.6913C47.9606 21.0413 47.4106 16.3913 46.8706 11.7413C47.6206 11.6113 48.4006 11.4813 49.1806 11.3513Z" fill="#E8DBCE"/>
<path d="M56.8608 34.8513C58.3208 36.0513 59.8208 37.2513 61.3708 38.3613C59.4308 50.2813 57.9108 62.4113 57.5308 74.5013C57.4708 76.5713 59.2608 78.0513 61.1908 78.1613C64.7608 78.3613 68.3208 78.2913 71.8808 77.9013C73.7008 77.7013 75.5308 77.4513 77.3308 77.1213C77.9608 77.0013 78.5408 76.8813 79.0708 76.7213C79.1308 76.7213 79.1908 76.7213 79.2508 76.7113C82.2008 76.5413 84.9408 76.1513 87.8308 75.5913C90.3108 75.1013 90.0808 72.0013 88.3808 70.9313C88.3608 70.2713 88.2008 69.6013 87.8808 68.9513C88.1908 62.0713 88.3308 55.2013 87.3408 48.3813C87.3108 47.5713 87.2508 46.7713 87.1608 45.9713C86.9108 43.6713 86.4208 41.4113 85.8008 39.1913C86.5708 38.3913 87.3908 37.6613 88.1608 36.8613C89.0308 35.9613 90.0208 35.3513 90.9708 34.5513C91.1808 34.3713 91.3508 34.1713 91.4608 33.9713C91.4608 33.9713 98.3808 27.5413 100.141 25.0313C101.901 22.5113 98.5608 5.59131 98.5608 5.59131L95.0808 5.81131L94.6308 8.46131C94.6308 8.46131 93.8408 16.8113 92.8708 20.8013C91.9008 24.8013 85.1408 25.8213 85.1408 25.8213C84.7108 25.8913 84.2808 25.9713 83.8308 26.0413C82.9708 26.1813 82.0908 26.2513 81.2208 26.2913C80.9608 26.3013 80.6908 26.3013 80.4308 26.3113C76.4008 27.5613 72.1508 27.8713 68.0508 26.9813C67.9208 27.1213 67.8008 27.2613 67.6908 27.4113C67.4108 27.3213 67.1008 27.2813 66.7408 27.3213C65.5508 27.4413 64.3308 27.4313 63.1108 27.3713C62.4508 27.2213 61.8008 27.0713 61.1408 26.9113C60.3708 26.7313 59.2808 26.7613 58.5908 26.4113C58.5908 26.4113 54.4908 25.4813 53.2008 22.4413C51.9108 19.3913 49.6308 11.3713 49.6308 11.3713L46.2908 11.8413L48.1108 26.8913C48.1508 26.8713 47.1308 28.4713 56.8608 34.8513Z" fill="#C0CCCB"/>
<path d="M61.8207 38.6514C61.3607 39.2114 60.8307 39.7414 60.5107 40.3914C60.2807 40.8614 60.1507 41.3814 60.0407 41.8914C59.4507 44.5914 59.1007 47.3414 58.7407 50.0914C58.1007 55.0514 57.4607 60.0114 56.8307 64.9714C56.3607 68.5914 55.9007 72.3014 56.7207 75.8514C56.7907 76.1414 56.8707 76.4514 57.1107 76.6414C57.3807 76.8614 57.7507 76.8514 58.1007 76.8314C63.4007 76.5714 68.7107 76.3014 74.0107 76.0414C77.3707 75.8714 80.7607 75.7014 84.0107 74.8714C85.5707 74.4714 87.2307 73.7914 87.9307 72.3514C88.2907 71.6114 88.3307 70.7614 88.3707 69.9314C88.5007 67.1814 88.6207 64.4414 88.7507 61.6914C88.9407 57.5314 89.1307 53.3414 88.5607 49.2214C88.1607 46.3714 87.4107 43.5914 86.6507 40.8214C86.5307 40.3714 86.4007 39.9014 86.1107 39.5214C85.8507 39.1814 85.4707 38.9414 85.1107 38.6914C81.4907 36.2414 78.7507 32.5214 77.4807 28.3314C77.3807 28.0014 77.2807 27.6514 77.0707 27.3714C76.3807 26.4814 74.9907 26.7814 73.9307 27.1614C73.9307 28.7114 72.7007 30.1614 71.1807 30.4214C69.5307 30.7014 68.1907 29.6514 67.5207 28.2414C66.7207 26.5514 65.7007 27.0114 65.3107 28.8014C64.5407 32.3714 64.2707 35.6814 61.8207 38.6514Z" fill="#998675"/>
<path d="M17.8207 34.0814C17.6607 34.0814 17.5407 34.1414 17.4607 34.2414C17.4707 34.0614 17.3507 33.8714 17.1207 33.8714C17.1107 33.8714 17.1107 33.8714 17.1007 33.8714C17.1707 33.6014 17.0207 33.2714 16.6607 33.2714C16.6207 33.2714 16.6007 33.2814 16.5607 33.2914C16.6407 33.0814 16.5207 32.8014 16.2107 32.7614C16.2007 32.7614 16.1907 32.7614 16.1907 32.7614C16.1907 32.7614 16.1907 32.7614 16.1807 32.7614C16.2307 32.4814 16.0807 32.1614 15.7207 32.1614C15.0807 32.1614 15.0807 33.1514 15.7207 33.1514C15.7607 33.1514 15.7807 33.1414 15.8107 33.1314C15.8007 33.3514 15.9307 33.5814 16.1907 33.5414C16.2007 33.5414 16.2107 33.5414 16.2107 33.5414C16.2207 33.5414 16.2307 33.5314 16.2507 33.5314C16.1207 33.8114 16.2607 34.2214 16.6607 34.2214C16.7107 34.2214 16.7407 34.2114 16.7807 34.2014C16.7707 34.3914 16.8807 34.5814 17.1207 34.5814C17.2207 34.5814 17.3007 34.5414 17.3607 34.4814C17.3107 34.7614 17.4607 35.0714 17.8207 35.0714C18.4607 35.0814 18.4607 34.0814 17.8207 34.0814Z" fill="#F0F0F0"/>
<path d="M20.2308 33.9114C19.9508 33.9114 19.8208 34.1214 19.8108 34.3314C19.7608 34.3214 19.7208 34.3014 19.6708 34.3014C19.4408 34.3014 19.3008 34.4114 19.2108 34.5614C19.1308 34.4314 19.0008 34.3414 18.8008 34.3414C18.1308 34.3414 18.1308 35.3814 18.8008 35.3814C19.0008 35.3814 19.1308 35.2914 19.2108 35.1614C19.3008 35.3114 19.4408 35.4214 19.6708 35.4214C20.0708 35.4214 20.2408 35.0714 20.2008 34.7714C20.2108 34.7714 20.2208 34.7814 20.2308 34.7814C20.8008 34.7814 20.8008 33.9114 20.2308 33.9114Z" fill="#F0F0F0"/>
<path d="M20.2307 33.8714C20.6207 33.8714 20.6207 33.2714 20.2307 33.2714C19.8407 33.2614 19.8407 33.8714 20.2307 33.8714Z" fill="#F0F0F0"/>
<path d="M19.9008 32.3614C19.5308 32.5514 19.6008 33.2314 20.1108 33.2314C20.6808 33.2314 20.7008 32.3714 20.1508 32.3214C20.5208 32.1314 20.4508 31.4514 19.9408 31.4514C19.3708 31.4514 19.3508 32.3114 19.9008 32.3614Z" fill="#F0F0F0"/>
<path d="M44.0008 43.8113C44.1308 43.7613 44.3008 43.7213 44.4008 43.8113C44.4408 43.8513 44.4708 43.9113 44.5108 43.9513C44.6608 44.1113 44.9308 44.0413 45.1408 43.9813C45.4908 43.8713 45.8508 43.8113 46.2108 43.8113C46.3508 43.8113 46.5008 43.8113 46.6308 43.8813C46.8908 44.0013 47.0108 44.3113 47.0908 44.5913C47.2008 44.9613 47.2908 45.3913 47.0908 45.7213C46.9208 45.9913 46.5908 46.1213 46.2908 46.2213C45.1908 46.5613 44.0408 46.7113 42.8908 46.8513C42.7408 46.8713 42.5808 46.8813 42.4708 46.8013C42.4008 46.7513 42.3608 46.6713 42.3208 46.5913C42.1108 46.1413 41.7008 45.2413 42.1408 44.8513C42.6508 44.3813 43.3508 44.0513 44.0008 43.8113Z" fill="#E8DBCE"/>
<path d="M63.7607 27.4513C61.4307 31.1413 56.2007 33.6513 52.0907 34.6713C50.0507 35.1813 47.9007 35.1713 45.9407 35.9813C44.3107 36.6513 42.9807 37.7013 41.8507 39.0413C41.7407 39.1713 41.9207 39.3513 42.0307 39.2213C43.8707 37.1713 46.1307 36.0513 48.8307 35.6513C51.0407 35.3213 53.1307 34.9913 55.2207 34.1513C58.5207 32.8113 62.3107 30.8513 64.1807 27.6913C64.3307 27.4313 63.9307 27.1913 63.7607 27.4513Z" fill="#F4F4F4"/>
<path d="M42.0408 38.7514C37.5308 41.4214 32.2608 34.4814 29.7208 31.5614C27.2608 28.7314 24.5808 25.9814 20.8708 24.9514C20.5708 24.8714 20.4408 25.3314 20.7408 25.4214C25.8508 26.9614 28.7208 31.5414 32.2508 35.1714C34.4608 37.4414 38.8608 41.3314 42.1708 38.9714C42.3008 38.8814 42.1808 38.6714 42.0408 38.7514Z" fill="#F4F4F4"/>
<path d="M26.0008 28.4214C25.5008 27.8414 24.7708 27.5214 24.4608 26.8014C24.1308 26.0314 23.9308 24.9814 23.7608 24.1714C23.2808 21.8514 22.5808 19.6714 21.6708 17.4814C21.6308 17.4014 21.6008 17.3214 21.5608 17.2414C22.0408 16.1614 21.8408 14.8314 20.6108 13.9714C20.2908 13.7514 19.8308 13.5614 19.2508 13.4114C18.8108 13.1414 18.1708 13.0114 17.5708 13.0614C17.5108 13.0714 17.4508 13.0814 17.3908 13.0814C12.8908 12.5914 5.90077 13.6214 6.23077 17.2214C6.09077 17.3814 6.00077 17.5514 5.96077 17.7414C5.87077 18.3014 6.02077 18.6514 6.32077 18.8614C6.12077 19.2514 6.00077 19.6714 5.96077 20.1014C5.74077 20.3714 5.56077 20.6814 5.42077 21.0714C4.89077 22.6014 5.17077 24.2714 5.64077 25.7714C6.07077 27.1514 6.83077 28.4214 6.85077 29.8914C6.88077 31.5214 5.76077 31.7414 4.37077 32.0914C1.61077 32.7814 0.0507677 34.3814 0.000767719 37.3514C-0.0192323 38.7214 0.350768 40.2014 1.20077 41.2914C2.03077 42.3514 3.43077 43.6614 4.67077 44.1914C5.21077 44.4214 5.79077 44.4114 6.30077 44.2514C8.65077 44.6514 11.0908 44.2014 12.6508 42.2014C12.8508 41.9414 13.0208 41.6614 13.1608 41.3714C13.7708 40.8314 14.2308 40.0814 14.4208 39.0914C14.8308 36.9314 13.3008 35.1814 11.3508 34.9514C11.1008 34.6214 10.7908 34.3514 10.4308 34.1414C11.6308 33.2614 12.7108 32.4314 13.1908 30.9314C14.1708 27.8214 12.3708 24.3614 9.94077 22.4814C9.67077 22.2714 9.75077 22.0914 9.47077 22.0414C9.45077 21.9714 9.43077 21.8914 9.41077 21.8214C10.5908 21.5814 10.3008 19.9914 9.69077 19.0214C10.0008 18.6414 10.3808 18.3814 10.8108 18.1814C11.2908 18.2014 11.7708 18.2714 12.0908 18.3114C12.9708 18.4414 13.8108 18.5414 14.7108 18.6114C15.8508 18.7014 17.0508 19.0114 18.2208 19.0314C18.2508 19.0714 18.2808 19.1014 18.3008 19.1414C18.3608 19.2214 18.4308 19.2814 18.5008 19.3214C19.0708 20.5914 19.5008 21.8914 19.8808 23.2414C20.1508 24.2014 20.2408 25.1514 20.3808 26.1014C19.9108 26.3314 19.5508 26.7914 19.5008 27.5414C19.3908 29.2414 19.6708 31.0914 20.5508 32.5714C20.7708 32.9414 21.1508 33.2814 21.3208 33.6714C21.3608 33.7714 21.4208 33.7914 21.4708 33.7914C21.4108 33.8314 21.3208 33.9014 21.1708 34.0414C20.5908 34.5714 20.1208 34.9614 19.9608 35.7814C19.2908 39.3814 23.8808 40.2714 25.8708 37.9514C27.8408 35.6914 27.9508 30.7014 26.0008 28.4214Z" fill="#EDEAE8"/>
<path d="M19.5607 21.3014C18.6007 21.0014 17.3107 21.3713 16.8007 22.2713C16.7907 22.2913 16.7907 22.3014 16.7807 22.3214C16.3307 22.4414 15.8707 22.5913 15.4107 22.6713C14.9107 22.0413 13.9807 21.8014 13.2707 22.1614C12.1907 22.4214 11.2607 23.2313 11.1007 24.4013C10.9007 25.8413 12.9307 26.2313 14.0007 25.9613C15.2307 25.6514 16.2007 24.2313 15.6207 22.9913C15.6107 22.9813 15.6007 22.9713 15.6007 22.9513C16.0407 22.8013 16.5107 22.7013 16.9607 22.5813C17.3707 24.0213 20.1507 24.8013 20.7007 23.1713C20.9807 22.3413 20.3307 21.5414 19.5607 21.3014ZM13.5607 25.6813C12.4307 25.8013 11.0107 25.2113 11.6107 23.8813C11.8507 23.3513 12.2807 22.9313 12.8007 22.6713C12.8407 22.7713 12.9707 22.8413 13.0807 22.7413C13.9007 22.0413 15.3207 22.5113 15.4007 23.6513C15.4807 24.7213 14.5807 25.5713 13.5607 25.6813ZM20.3507 22.9913C19.9907 24.3613 17.0007 23.6113 17.2307 22.2913V22.2813C17.6807 21.8913 18.1607 21.6014 18.8007 21.5714C19.5907 21.5514 20.5907 22.0713 20.3507 22.9913Z" fill="#414141"/>
<path d="M74.3407 16.4613C75.1907 17.8413 75.3807 19.5213 75.5207 21.1413C75.7007 23.1513 75.8407 25.2113 75.2307 27.1413C74.7807 28.5613 74.9507 28.1513 72.0807 29.8713C69.3607 29.8613 72.0707 29.6413 69.3607 29.8613C59.4407 27.9213 63.5007 21.6713 64.3707 16.6113C64.4007 16.4413 64.4307 16.2713 64.5507 16.1413C64.6807 16.0013 64.8707 15.9513 65.0607 15.9113C67.6107 15.3513 70.2607 15.4913 72.8607 15.6313C73.1407 15.6413 73.4207 15.6613 73.6707 15.7813C73.9607 15.9213 74.1707 16.1913 74.3407 16.4613Z" fill="#E8DBCE"/>
<path d="M62.7507 13.1014C63.2507 12.7514 63.6507 12.9714 64.0507 13.2414C64.1107 13.2314 64.1707 13.2114 64.2407 13.2114C64.4907 13.2014 64.7107 13.2814 64.9007 13.4014C65.7807 13.0714 66.7407 12.8814 67.6907 12.8514C68.0607 12.4814 68.4307 12.1414 68.9607 12.0614C69.4707 11.9814 69.9707 12.2414 70.4207 12.6114C70.9607 11.6414 71.8707 11.0814 73.0207 11.9214C73.2807 12.1114 73.4507 12.3014 73.5607 12.4914C73.7007 12.5714 73.8307 12.6614 73.9707 12.7514C74.2407 12.7214 74.5107 12.7514 74.7907 12.8614C75.5707 13.1514 75.9707 13.8914 75.8207 14.6814C75.9307 14.9314 75.9907 15.1914 75.9907 15.4414C76.0807 15.6414 76.1607 15.8514 76.2407 16.0614C76.3107 16.1214 76.3707 16.1814 76.4307 16.2414C76.6207 16.2814 76.7907 16.3614 76.9607 16.4714C77.5407 16.7114 77.8007 17.4214 77.7507 18.1014C77.7707 18.3914 77.7407 18.6714 77.6207 18.8614C77.5607 18.9514 77.5007 19.0214 77.4307 19.0814C77.2507 19.3614 76.9807 19.5714 76.6407 19.6314C76.6107 19.8314 76.5707 20.0314 76.5207 20.2214C76.7307 21.4314 76.5407 22.6114 75.9307 23.8014C75.9207 23.8314 75.9107 23.8614 75.8907 23.8914C75.8907 23.8914 75.8907 23.8914 75.8807 23.8914C75.8607 23.9414 75.8407 23.9814 75.8107 24.0314C75.5007 24.5914 74.5407 24.0714 74.8107 23.4814C75.2007 22.6414 75.5807 20.4414 74.0907 20.9014C73.2207 21.1714 73.1707 21.8414 72.7907 22.6914C72.5307 23.2714 71.6407 23.0814 71.7007 22.4314C71.7707 21.5614 71.8807 20.7114 72.1607 19.8814C72.2307 19.6914 72.2907 19.5114 72.3507 19.3414C72.2907 19.3314 72.2407 19.3114 72.1807 19.2814C71.5207 18.8914 71.1507 18.2014 70.8907 17.4514C70.8707 17.4414 70.8607 17.4314 70.8407 17.4214C70.8107 17.5014 70.7807 17.5714 70.7507 17.6514C70.6007 18.0014 70.1007 18.1214 69.8507 17.7914C69.5807 17.4314 69.3807 17.1114 69.2307 16.7614C68.7707 17.0814 68.2107 17.1314 67.9007 16.6814C67.3307 16.8614 66.7807 16.7714 66.0807 16.6114C65.7407 16.5314 65.3207 16.4414 64.8807 16.3214C64.7707 16.3614 64.6507 16.4014 64.5407 16.4314C64.0607 16.5814 63.5507 16.2014 63.4807 15.7814C63.0707 15.5514 62.7307 15.2614 62.5407 14.8814C62.2707 14.3714 62.1807 13.5014 62.7507 13.1014Z" fill="#EBEBEB"/>
<path d="M45.6907 50.3813C45.6807 50.2813 45.5107 50.3013 45.5207 50.4013C45.8107 53.1113 46.1407 56.0013 45.3607 58.6613C44.5607 61.3913 42.0007 61.1113 40.3507 59.4513C39.1007 58.1913 38.5007 56.4513 38.3707 54.7113C37.9707 49.1813 41.7007 44.4213 42.1807 39.0913C42.2007 38.9113 41.9107 38.9113 41.9007 39.0913C41.7907 41.3613 40.6807 43.9113 39.9007 46.0213C39.2307 47.8513 38.5007 49.6713 38.1207 51.5913C37.5407 54.5213 37.8307 57.9013 40.1907 60.0113C41.5707 61.2313 44.0907 62.2313 45.2207 60.2213C46.8307 57.3713 46.1307 53.4313 45.6907 50.3813Z" fill="#F4F4F4"/>
<path d="M45.9809 50.6415C45.9709 50.6115 45.9609 50.5715 45.9509 50.5415C45.9309 50.4315 45.9109 50.3215 45.8809 50.2215C45.8709 50.1615 45.8609 50.0915 45.8709 50.0315C45.8909 49.9115 45.7909 49.8215 45.6809 49.8515C45.6609 49.8315 45.6509 49.8115 45.6309 49.8015C45.2409 49.4915 45.0209 50.0015 45.1109 50.3315C45.1109 50.3315 45.1209 50.3315 45.1209 50.3415C45.1109 50.5115 45.1109 50.6815 45.1309 50.8515C45.1509 51.0515 45.1409 51.3715 45.2909 51.5215C45.5709 51.7915 45.9609 51.5315 45.9909 51.2015C46.0009 51.0915 46.0009 50.9515 45.9909 50.7915C45.9909 50.7415 46.0009 50.6915 45.9809 50.6415Z" fill="#F4F4F4"/>
<path d="M43.9808 42.4413C43.9008 41.9113 43.8208 41.3313 44.0208 40.8713C44.2508 40.3413 44.7808 40.1613 45.2608 40.0813C45.8108 39.9813 46.3708 39.9413 46.9308 39.9613C47.1708 39.9713 47.7308 39.9713 47.9308 40.1413C48.2208 40.3913 48.2008 40.8713 48.2408 41.3013C48.4408 43.9113 48.7008 46.0813 48.7608 48.4713C48.7708 48.8013 48.7608 49.1813 48.5708 49.4013C48.4508 49.5413 48.2808 49.5913 48.1208 49.6213C47.2408 49.8113 44.5808 50.4513 44.4308 48.7413C44.2508 46.6313 44.2908 44.5513 43.9808 42.4413Z" fill="#3D3D3D"/>
<path d="M44.2107 41.9113C44.2107 41.7113 44.2207 41.4913 44.3107 41.3313C44.4207 41.1513 44.6207 41.0913 44.8007 41.0613C45.5507 40.9113 46.3207 40.8513 47.0807 40.7913C47.2007 40.7813 47.5107 40.7613 47.6207 40.8313C47.6907 40.8713 47.8307 40.9413 47.8807 41.0213C48.0607 41.3013 47.9807 41.6613 48.0507 42.0113C48.1107 42.3213 48.0707 42.6413 48.1107 42.9513C48.1507 43.2913 48.1607 43.6313 48.1907 43.9813C48.2207 44.4913 48.2707 44.9913 48.3307 45.5013C48.3707 45.8613 48.4007 46.2313 48.4607 46.5913C48.4907 46.7613 48.4907 46.9413 48.4407 47.1013C48.3707 47.3213 48.2107 47.4113 48.0307 47.4613C47.6707 47.5513 47.3007 47.5713 46.9407 47.6013C46.4007 47.6313 45.8507 47.6713 45.3107 47.7013C45.1207 47.7113 44.7207 47.8013 44.6107 47.5113C44.5507 47.3513 44.5807 47.0913 44.5707 46.9213C44.5607 46.6913 44.5407 46.4513 44.5207 46.2213C44.4507 45.3013 44.3407 44.3813 44.2807 43.4613C44.2307 42.9313 44.2107 42.4213 44.2107 41.9113Z" fill="white"/>
<path d="M46.5407 40.4112C46.4807 40.4012 46.4107 40.4112 46.3507 40.4112C46.2007 40.4212 46.0607 40.4412 45.9107 40.4512C45.8307 40.4612 45.7207 40.4812 45.7107 40.5212C45.7007 40.5412 45.7307 40.5712 45.7607 40.5812C45.8907 40.6412 46.6207 40.6212 46.6507 40.4812C46.6507 40.4512 46.6007 40.4212 46.5407 40.4112Z" fill="#5E625E"/>
<path d="M45.6307 40.4911C45.6107 40.4611 45.5707 40.4611 45.5407 40.4711C45.5107 40.4911 45.4907 40.5311 45.4907 40.5611C45.4907 40.5911 45.4907 40.6111 45.5007 40.6311C45.5307 40.6711 45.5907 40.6811 45.6207 40.6411C45.6507 40.6011 45.6607 40.5411 45.6407 40.5011L45.6307 40.4911Z" fill="#5E625E"/>
<path d="M46.3807 48.3613C46.3107 48.4313 46.2807 48.5313 46.2607 48.6313C46.2507 48.6813 46.2507 48.7313 46.2607 48.7813C46.2807 48.9013 46.3607 49.0013 46.4707 49.0613C46.5707 49.1113 46.6907 49.1213 46.7907 49.0913C46.8207 49.0813 46.8507 49.0713 46.8707 49.0613C46.9007 49.0413 46.9207 49.0113 46.9307 48.9713C46.9907 48.8413 47.0007 48.6913 46.9507 48.5613C46.8707 48.3213 46.5607 48.1713 46.3807 48.3613Z" fill="#EBEFEB"/>
<path d="M47.2908 44.0714C47.2408 43.7814 47.2208 43.4114 47.1008 43.1514C47.0308 43.0014 46.9308 42.9914 46.7808 43.0114C46.4508 43.0414 46.1208 43.1214 45.8108 43.2014C45.7208 43.2214 45.6908 43.3114 45.7008 43.4014C45.7308 43.5914 45.7508 43.7914 45.7708 43.9814C45.7708 44.0414 45.7608 44.1914 45.7608 44.3314C45.7308 44.3214 45.7008 44.3214 45.6808 44.3314C45.4808 44.3214 45.2808 44.5214 45.4108 44.7614C45.5008 44.9314 45.6608 44.9414 45.7808 44.8814C46.1308 44.8614 46.1308 44.2814 46.0808 43.8414C46.3508 43.8014 46.6208 43.7914 46.8808 43.7614C46.8908 43.7614 46.9008 43.7614 46.9008 43.7514C46.9108 43.8014 46.9108 43.8514 46.9208 43.8914C46.9308 43.9714 46.9508 44.0414 46.9608 44.1214C46.9608 44.1314 46.9608 44.1414 46.9708 44.1614C46.8308 44.1514 46.6808 44.2414 46.6608 44.4314C46.6308 44.7714 47.1008 44.9214 47.2808 44.6414C47.3708 44.4614 47.3208 44.2514 47.2908 44.0714ZM46.0508 43.6214C46.0408 43.5714 46.0408 43.5114 46.0308 43.4714C46.1408 43.4514 46.2408 43.4214 46.3508 43.4014C46.4308 43.3914 46.5008 43.3714 46.5808 43.3614C46.6908 43.3514 46.7608 43.3114 46.8308 43.4014C46.5508 43.4514 46.3008 43.5414 46.0508 43.6214Z" fill="#D9924E"/>
<path d="M46.2907 46.3812C46.2507 46.3712 46.2107 46.4112 46.2007 46.4512C46.1907 46.4612 46.1807 46.4712 46.1807 46.4812C46.1807 46.6612 46.2007 46.8412 46.2507 47.0212C46.2607 47.0712 46.3307 47.0712 46.3607 47.0412C46.4307 46.9712 46.5107 46.9112 46.5907 46.8512C46.6607 46.8112 46.7207 46.7712 46.7707 46.7012C46.8007 46.6612 46.7907 46.6112 46.7407 46.5912C46.6107 46.4912 46.4607 46.4312 46.2907 46.3812Z" fill="#828282"/>
<path d="M45.4906 46.5113C45.4806 46.7013 45.4806 46.8913 45.5106 47.0813C45.5306 47.1813 45.6806 47.1513 45.6506 47.0513C45.6006 46.8813 45.5706 46.7013 45.5606 46.5213C45.5606 46.4713 45.4906 46.4713 45.4906 46.5113Z" fill="#828282"/>
<path d="M45.2107 46.5312C45.2307 46.7612 45.2907 46.9712 45.3507 47.1912C45.3607 47.2312 45.4207 47.2112 45.4207 47.1712C45.3707 46.9612 45.3707 46.7312 45.3607 46.5112C45.3607 46.4212 45.2107 46.4412 45.2107 46.5312Z" fill="#828282"/>
<path d="M47.7908 46.4912C47.7808 46.4012 47.7708 46.3012 47.6608 46.3112C47.5908 46.3112 47.5208 46.3312 47.4508 46.3412C47.4108 46.3512 47.3508 46.3512 47.3108 46.3712C47.2208 46.4312 47.2708 46.5712 47.2908 46.6512C47.2908 46.6512 47.2908 46.6512 47.2908 46.6612C47.2908 46.7212 47.3008 46.7712 47.3108 46.8312C47.3408 46.9512 47.3808 46.9712 47.5008 46.9512C47.5908 46.9412 47.7408 46.9312 47.7908 46.8412C47.8508 46.7512 47.8008 46.5812 47.7908 46.4912Z" fill="#828282"/>
<path d="M27.7706 58.0515C27.9306 58.0315 28.1006 58.0215 28.2606 58.0715C28.9006 58.2715 28.9207 59.2815 28.8207 60.0315C23.9407 61.3915 18.8806 60.6215 13.9606 59.8515C12.9606 59.6915 11.1207 58.5815 12.7407 57.5415C13.9607 56.7515 15.9607 57.6515 17.2407 57.8315C20.7206 58.3215 24.2606 58.3915 27.7706 58.0515Z" fill="#8EACC4"/>
</svg>
