<svg width="162" height="162" viewBox="0 0 162 162" fill="none" xmlns="http://www.w3.org/2000/svg">
<circle cx="81" cy="81" r="81" fill="#E0DDFF"/>
<path d="M69.8755 142.16C72.6255 142.25 75.3655 142.2 78.1055 142.16C85.7655 142.03 93.4254 141.9 101.085 141.77C102.275 141.75 103.816 141.51 103.896 140.66C103.976 139.9 102.765 139.41 101.735 139.19C98.0655 138.38 94.2155 138.22 90.4055 138.08C84.8055 137.88 79.1954 137.71 73.5854 137.58C70.0854 137.5 66.4855 137.44 63.2255 138.28C61.4455 138.74 58.8155 140.69 61.6455 141.64C62.4255 141.9 64.0155 141.78 64.8555 141.85C66.5355 141.99 68.2055 142.11 69.8755 142.16Z" fill="url(#paint0_linear)"/>
<path d="M62.4653 85.4697C62.5653 85.6997 62.5053 85.9797 62.3753 86.1897C62.2453 86.4097 62.0653 86.5897 61.8953 86.7797C61.4953 87.2497 61.2153 87.8097 60.8353 88.2797C60.7253 88.4097 60.5952 88.5397 60.4252 88.5397C60.2752 88.5397 60.1453 88.4297 59.9953 88.4397C59.8153 88.4497 59.6853 88.6097 59.5553 88.7297C59.2353 89.0297 58.7553 89.1497 58.3253 89.0197C57.9053 88.8997 57.5553 88.5397 57.4553 88.1097C57.2853 87.4497 57.6853 86.7597 58.1853 86.2997C58.6853 85.8397 59.3052 85.5097 59.7952 85.0297C59.9852 84.8497 60.1453 84.6397 60.3453 84.4797C60.5453 84.3097 60.7953 84.1897 61.0553 84.1897C61.4553 84.1897 61.5653 84.4897 61.7653 84.7597C61.9653 85.0197 62.3253 85.1597 62.4653 85.4697Z" fill="#F9E9DE"/>
<path d="M63.3754 81.6998C66.9054 75.6598 69.2554 68.9298 70.2554 62.0098C70.3654 61.2798 70.4555 60.5298 70.7655 59.8598C71.0755 59.1898 71.6555 58.5998 72.3855 58.4698C73.2655 58.3198 74.1354 58.8998 74.5954 59.6598C75.0454 60.4198 75.1654 61.3398 75.2054 62.2298C75.4454 66.6898 74.2354 71.1698 72.0754 75.0898C69.9154 78.9998 66.8254 82.3598 63.3054 85.1098C62.9554 85.3798 62.5654 85.6598 62.1254 85.6098C61.1454 85.4998 60.9854 84.5198 61.4154 83.9598C62.0354 83.1498 62.8354 82.6298 63.3754 81.6998Z" fill="#965E59"/>
<path d="M75.6856 136.97C76.4356 136.75 77.2056 136.55 77.9656 136.39C78.3856 136.3 78.8157 136.21 79.1557 135.96C79.4957 135.71 79.7156 135.23 79.5356 134.85C80.3256 134.75 81.1256 134.69 81.9256 134.65C82.1156 134.64 82.3357 134.64 82.4857 134.76C82.6157 134.86 82.6656 135.03 82.7056 135.18C83.0256 136.32 83.2456 137.48 83.3556 138.66C83.3656 138.75 83.3656 138.85 83.3056 138.91C83.2656 138.95 83.1957 138.96 83.1357 138.97C80.3357 139.41 77.5156 139.67 74.6756 139.77C73.7856 139.8 72.5657 139.88 73.1257 138.63C73.5657 137.66 74.7456 137.24 75.6856 136.97Z" fill="#3D322B"/>
<path d="M91.6953 134.35C91.2453 134.4 90.7253 134.5 90.5453 134.85C90.3653 135.21 90.6653 135.62 90.5553 135.99C90.5053 136.17 90.3653 136.33 90.2053 136.47C89.6853 136.91 88.9853 137.16 88.2853 137.37C87.5953 137.58 86.8753 137.78 86.2853 138.15C85.6953 138.52 85.2453 139.12 85.3153 139.74C88.4653 139.8 91.6153 139.6 94.7253 139.16C94.8353 139.14 94.9553 139.12 95.0353 139.06C95.1153 138.99 95.1354 138.88 95.1454 138.77C95.2154 137.6 94.5953 136.52 94.3453 135.4C94.2653 135.04 94.3953 134.3 93.9653 134.12C93.5353 133.93 92.1853 134.29 91.6953 134.35Z" fill="#3D322B"/>
<path d="M87.6553 89.1399C87.9153 88.1899 88.1152 87.1799 87.6752 86.2799C87.1752 85.2599 85.9553 84.5699 84.7553 83.9899C83.2453 83.2699 81.6153 82.6199 79.8453 82.5099C77.8853 82.3899 75.2152 83.1099 74.6752 84.7199C73.9252 86.9799 74.2053 89.7399 73.9553 92.0799C73.3853 97.2499 72.7153 102.43 72.7653 107.62C72.7953 110.53 73.0452 113.44 73.6652 116.31C74.1752 118.68 74.9353 121.02 75.6953 123.36C76.3453 125.37 77.0053 127.38 77.6553 129.39C77.6053 129.65 77.5753 129.93 77.5853 130.09C77.6153 130.81 78.4253 131.41 78.2353 132.1C78.1753 132.31 78.0353 132.48 77.9353 132.68C77.8353 132.87 77.7753 133.12 77.8853 133.3C78.0053 133.5 78.2752 133.56 78.4152 133.74C78.5652 133.94 78.5153 134.21 78.4353 134.44C78.3553 134.67 78.2453 134.9 78.2753 135.14C79.1753 135.7 80.3153 135.61 81.3753 135.51C82.0153 135.45 82.6452 135.39 83.2852 135.33C83.4552 135.31 83.6453 135.29 83.7753 135.18C83.9853 135 83.9753 134.66 83.8753 134.4C83.7653 134.14 83.5953 133.91 83.5253 133.64C83.3653 132.99 83.8553 132.22 83.4653 131.68C83.3753 131.55 83.2353 131.45 83.1553 131.31C82.9953 131.03 83.1053 130.69 83.1253 130.38C83.1653 129.77 82.8853 129.19 82.6053 128.65C82.5653 128.57 82.5253 128.49 82.4453 128.44C82.4253 128.43 82.3953 128.42 82.3653 128.42C81.4853 122.43 79.5753 116.48 80.2453 110.49C81.0553 103.14 85.7053 96.3699 87.6553 89.1399Z" fill="#662E2A"/>
<path d="M94.6355 88.9198C94.6755 88.4898 94.6754 88.0398 94.5354 87.6298C94.3654 87.1398 94.0054 86.7498 93.6054 86.4198C92.1354 85.2398 90.1055 84.9298 88.2455 85.2398C86.9355 85.4598 84.8754 85.9198 83.9754 87.0198C83.1754 87.9998 83.2755 89.7598 83.1455 90.9298C82.6855 95.1898 82.3754 99.4798 82.2054 103.76C82.1354 105.55 82.0954 107.36 82.3354 109.13C82.5554 110.74 83.0154 112.31 83.4654 113.87C84.3754 116.99 85.2854 120.11 86.5654 123.1C87.3054 124.82 88.1754 126.49 88.7254 128.28C88.8254 128.81 88.7854 129.36 88.5354 129.84C88.4554 130 88.3554 130.15 88.3054 130.32C88.2254 130.6 88.3055 130.91 88.4955 131.12C88.6655 131.31 88.9254 131.41 89.0854 131.61C89.2854 131.85 89.3155 132.19 89.2755 132.49C89.2355 132.8 89.1254 133.09 89.0654 133.39C89.0454 133.48 89.0354 133.57 89.0754 133.66C89.1254 133.77 89.2354 133.82 89.3354 133.89C89.6454 134.12 89.7554 134.59 89.5754 134.93C90.2154 135.16 90.9254 135.09 91.5954 134.96C92.2654 134.83 92.9354 134.64 93.6154 134.65C93.7754 134.65 93.9454 134.67 94.1054 134.63C94.2654 134.59 94.4154 134.48 94.4554 134.32C94.5254 134.05 94.2655 133.83 94.1455 133.58C94.0455 133.38 94.0354 133.14 94.0354 132.92C94.0254 132.51 94.0155 132.1 94.0055 131.69C93.9955 131.44 93.9955 131.19 93.9055 130.96C93.8155 130.73 93.6455 130.53 93.5155 130.32C93.2055 129.77 93.2154 129.1 93.1754 128.47C93.1354 127.86 93.0455 127.24 92.8955 126.65C92.8655 126.55 92.8455 126.44 92.7755 126.35C92.7655 126.33 92.7354 126.32 92.7254 126.3C92.5854 124.15 92.4054 122.01 91.9454 119.91C91.6254 118.49 91.1854 117.1 90.9154 115.68C90.6154 114.09 90.5454 112.46 90.5554 110.84C90.5754 105.37 91.4455 99.8998 93.1355 94.6898C93.7455 92.7898 94.4755 90.8998 94.6355 88.9198Z" fill="#662E2A"/>
<path d="M66.9255 48.7297C67.6455 50.7697 68.5256 52.9197 70.4056 54.1097C71.7756 54.9797 73.5755 55.2197 75.1755 54.7297C76.7755 54.2497 78.1256 53.0597 78.7456 51.5897C79.0356 50.8897 79.1756 50.1497 79.2656 49.4097C79.5856 46.9697 79.5055 44.4997 79.0455 42.0997C78.8855 41.2597 78.2955 40.6097 77.9355 39.8397C77.4155 38.7397 75.7456 37.5497 74.8656 37.2797C72.8156 36.6397 71.0555 37.2097 69.1655 37.8697C66.7655 38.7097 65.8555 40.9397 65.5355 43.0997C65.2755 44.7797 66.3655 47.1497 66.9255 48.7297Z" fill="#F9E9DE"/>
<path d="M78.8254 48.5398C78.7154 48.7398 78.7254 48.9698 78.6954 49.1798C78.6254 49.7598 78.3254 50.2998 78.0354 50.8198C77.8054 51.2298 77.5654 51.6398 77.2054 51.9598C76.8454 52.2798 76.3455 52.4798 75.8655 52.3798C75.1055 52.2098 74.7355 51.3498 73.9955 51.1398C73.4855 50.9998 72.9454 51.1898 72.4454 51.3798C71.8454 51.6098 71.2154 51.8698 70.7954 52.3498C70.6554 52.5098 70.5455 52.6998 70.5255 52.9098C70.4755 52.8898 70.4355 52.8598 70.3755 52.8398C69.7455 52.5998 69.1555 52.2398 68.6355 51.8098C68.5355 51.7298 68.3754 51.6398 68.2854 51.7298C68.2054 51.8098 68.2554 51.9498 68.3154 52.0498C68.7654 52.8098 69.2254 53.5798 69.8154 54.2498C70.0754 54.5398 70.3855 54.8298 70.7655 54.9198C70.8355 54.9398 70.9254 54.9398 70.9854 54.8998C71.0254 54.8698 71.0354 54.8198 71.0454 54.7798C71.0954 54.8498 71.1354 54.9298 71.2054 54.9898C71.5954 55.3398 72.1454 55.5198 72.6754 55.5498C73.3654 55.5998 74.0554 55.4398 74.7254 55.2698C75.3554 55.1098 75.9954 54.9298 76.5354 54.5898C77.2854 54.1198 77.8054 53.3898 78.2154 52.6298C78.9254 51.2998 79.3355 49.8398 79.4055 48.3698C79.2255 48.2198 78.9354 48.3498 78.8254 48.5398ZM74.2854 53.1398C74.2854 53.3398 74.1555 53.4398 74.0055 53.4698C73.8855 53.5598 73.7154 53.5898 73.5554 53.4798C73.3954 53.3698 73.1155 53.2698 72.8655 53.2698C72.7455 53.3198 72.6255 53.3598 72.5155 53.4198C72.4655 53.4898 72.4254 53.5698 72.4354 53.6898C72.4554 53.9898 72.0954 54.3098 71.7954 54.0798C71.5354 53.8798 71.4354 53.6698 71.4154 53.4598C71.3354 53.3098 71.3655 53.1298 71.5255 53.0298C72.0755 52.1398 74.2654 51.6398 74.2854 53.1398Z" fill="#EAEEEF"/>
<path d="M77.1953 40.5197C76.9453 41.0297 76.4854 41.4297 76.2754 41.9597C75.9354 42.7897 76.2753 43.7396 76.7053 44.5296C76.8053 44.7196 76.9253 44.9096 77.1053 45.0096C77.3753 45.1596 77.7253 45.0796 77.9753 44.8896C78.2253 44.6996 78.3854 44.4297 78.5254 44.1497C79.0954 43.0897 79.5953 41.8397 79.1753 40.7097C78.9853 40.1797 78.6054 39.7396 78.2454 39.3096C78.0054 39.0196 77.7354 38.7296 77.3654 38.6296C77.1354 39.1696 77.5053 39.8897 77.1953 40.5197Z" fill="#EAEEEF"/>
<path d="M74.4154 56.4297C75.6954 55.9797 76.8354 55.1897 78.0654 54.6097C78.5354 54.3897 79.0354 54.1897 79.5554 54.1897C80.2154 54.1897 80.8255 54.4997 81.3755 54.8497C84.4155 56.7897 88.4554 59.6897 90.0754 62.9197C94.1654 71.0897 96.4554 80.1597 96.1854 89.2897C96.1754 89.6997 96.1455 90.1397 95.8755 90.4397C95.6455 90.7097 95.2754 90.8097 94.9354 90.8997C89.4754 92.3097 79.8654 92.6897 74.2354 92.4397C73.7654 92.4197 73.2555 92.3797 72.8955 92.0697C72.5255 91.7597 72.3954 91.2397 72.2954 90.7697C71.1054 85.1697 72.5355 80.0097 71.5255 74.3697C70.8255 70.4197 70.1654 66.4397 69.9654 62.4197C69.9054 61.1197 69.3854 58.4197 70.2854 57.3297C71.1554 56.2797 73.2154 56.8497 74.4154 56.4297Z" fill="#AA6A64"/>
<path d="M60.6055 86.3698C56.9855 86.1898 55.7354 91.3598 56.0454 94.2598C56.2154 95.8298 58.3555 95.5398 58.0755 93.9698C57.9155 93.0698 57.7455 89.8998 58.7555 89.2898C60.3155 87.7198 61.8454 88.2698 63.1854 90.5998L63.9055 92.6498C64.4455 94.9798 64.1255 97.5698 64.0155 99.9498C63.8055 104.33 63.6154 108.72 63.4254 113.1C63.0654 121.63 62.9555 130.13 62.9555 138.66C62.9555 139.13 63.6355 139.13 63.6455 138.66C63.8455 131.43 64.1755 124.2 64.4755 116.97C64.7755 109.81 65.7355 102.55 65.6955 95.3998C65.6755 92.2398 64.5155 86.5598 60.6055 86.3698Z" fill="#A78E41"/>
<path d="M70.6054 66.4696C71.5154 65.0996 72.2954 63.6497 72.9554 62.1497C73.6154 60.6297 74.1455 58.9696 73.8655 57.3396C73.8155 57.0696 73.7454 56.7896 73.5454 56.5996C73.3254 56.3896 73.0054 56.3496 72.7054 56.3096C71.9054 56.2096 71.0155 56.1296 70.3655 56.5996C69.5155 57.2096 69.4555 58.4296 69.4855 59.4796C69.5555 61.7996 69.6654 64.1096 69.8054 66.4196C69.8354 67.0796 70.3354 66.8696 70.6054 66.4696Z" fill="#965E59"/>
<path d="M81.3355 61.2797C83.7355 62.4197 86.5456 62.6797 89.1156 61.9997C89.2656 61.3897 88.8056 60.8197 88.3856 60.3597C87.2056 59.0697 86.0255 57.7797 84.8455 56.4897C83.9955 55.5597 83.0955 54.5897 81.9155 54.1397C80.7155 53.6797 79.4055 53.8297 78.2155 54.2597C77.6455 54.4697 76.9255 54.7397 76.4655 55.1397C75.8355 55.6797 75.8855 55.6397 76.2155 56.4097C77.1255 58.5097 79.3155 60.3097 81.3355 61.2797Z" fill="#965E59"/>
<path d="M65.1054 61.4797C64.8554 61.3297 64.5953 61.1697 64.3153 61.1297C63.6053 61.0097 63.0454 61.5797 62.6054 62.0997C62.0154 62.7897 61.1554 64.0297 61.5754 65.0997C61.7854 65.6297 62.2854 66.0097 62.7654 66.3397C64.5954 67.5997 65.7354 68.5797 67.7554 69.4897C68.1954 69.6897 68.6554 69.8797 69.1154 69.8597C70.0354 69.8097 70.6153 68.9497 71.0453 68.1697C71.3253 67.6797 71.6053 67.1097 71.4353 66.5497C71.3353 66.2297 71.0954 65.9597 70.8654 65.7097C69.2154 63.9697 67.1454 62.7097 65.1054 61.4797Z" fill="#4D4D4D"/>
<path d="M78.7353 71.1196C78.8853 71.1696 79.0553 71.2196 79.2053 71.1696C79.5053 71.0796 79.5853 70.6896 79.5953 70.3696C79.6753 67.5196 78.6353 64.7596 78.5253 61.9096C78.4753 60.6296 78.6153 59.3596 78.7553 58.0796C78.8653 57.0496 79.0453 55.8996 79.8453 55.2396C80.9953 54.2896 82.8653 54.9396 83.7053 56.1696C84.5453 57.3996 84.6453 58.9696 84.7153 60.4596C84.9153 65.0896 85.0453 69.7896 84.0053 74.2996C83.8753 74.8496 83.7153 75.4296 83.3153 75.8296C82.8453 76.3096 82.1153 76.4496 81.4553 76.3596C80.7953 76.2696 80.1753 75.9796 79.5653 75.6896C76.5853 74.2796 73.6153 72.8696 70.6353 71.4596C70.2253 71.2696 69.7953 71.0496 69.5853 70.6496C69.1953 69.8896 69.8352 68.8196 70.4252 68.3396C71.2552 67.6596 71.6953 68.0396 72.5853 68.5096C74.5553 69.5696 76.6153 70.4396 78.7353 71.1196Z" fill="#965E59"/>
<path d="M66.2954 68.2896C65.9554 68.0996 65.6055 67.8996 65.4055 67.5696C65.2555 67.3096 65.2154 66.9996 65.2054 66.6996C65.1954 66.2796 65.2755 65.7796 65.6555 65.5896C65.9455 65.4496 66.2954 65.5597 66.5854 65.7097C66.8754 65.8597 67.1454 66.0596 67.4654 66.0896C67.7754 66.1296 68.0955 66.0096 68.3955 66.0896C68.7855 66.1896 69.0154 66.5797 69.3054 66.8597C69.5854 67.1297 69.9454 67.3096 70.2554 67.5296C70.5754 67.7496 70.8754 68.0497 70.9554 68.4297C71.0254 68.7897 70.8854 69.1796 70.6254 69.4496C69.9654 70.1196 69.3554 69.7696 68.6154 69.4496C67.8154 69.1196 67.0554 68.6996 66.2954 68.2896Z" fill="#F9E9DE"/>
<defs>
<linearGradient id="paint0_linear" x1="60.4776" y1="139.146" x2="103.871" y2="141.286" gradientUnits="userSpaceOnUse">
<stop/>
<stop offset="1"/>
</linearGradient>
</defs>
</svg>
