<svg width="162" height="162" viewBox="0 0 162 162" fill="none" xmlns="http://www.w3.org/2000/svg">
<path d="M42.1579 140.322C44.3479 140.392 46.5379 140.372 48.7279 140.342C54.8379 140.262 60.9478 140.192 67.0578 140.112C68.0078 140.102 69.2379 139.922 69.2979 139.272C69.3579 138.692 68.3878 138.322 67.5678 138.142C64.6378 137.512 61.5578 137.382 58.5178 137.262C54.0478 137.092 49.5679 136.952 45.0979 136.832C42.3079 136.762 39.4378 136.702 36.8378 137.342C35.4178 137.692 33.3379 139.172 35.5979 139.902C36.2279 140.102 37.4879 140.022 38.1679 140.072C39.4979 140.182 40.8179 140.272 42.1579 140.322Z" fill="url(#paint0_linear)"/>
<circle cx="81" cy="81" r="81" fill="#E0DDFF"/>
<path opacity="0.22" d="M42.1579 140.322C44.3479 140.392 46.5379 140.372 48.7279 140.342C54.8379 140.262 60.9478 140.192 67.0578 140.112C68.0078 140.102 69.2379 139.922 69.2979 139.272C69.3579 138.692 68.3878 138.322 67.5678 138.142C64.6378 137.512 61.5578 137.382 58.5178 137.262C54.0478 137.092 49.5679 136.952 45.0979 136.832C42.3079 136.762 39.4378 136.702 36.8378 137.342C35.4178 137.692 33.3379 139.172 35.5979 139.902C36.2279 140.102 37.4879 140.022 38.1679 140.072C39.4979 140.182 40.8179 140.272 42.1579 140.322Z" fill="url(#paint1_linear)"/>
<path d="M54.458 61.8118C53.218 59.3218 52.218 56.7318 51.218 54.1418C50.848 53.1718 50.588 51.9219 51.348 51.2119C51.808 50.7819 52.528 50.7118 53.128 50.9118C53.728 51.1118 54.2281 51.5319 54.6681 51.9819C55.3181 52.6519 55.8581 53.4119 56.3681 54.1819C58.6781 57.6919 59.048 62.3318 59.348 66.5218C59.568 69.6518 59.068 72.9718 60.408 75.8118C59.908 76.0018 59.398 76.1918 58.898 76.3818C58.778 76.4218 58.648 76.4718 58.528 76.4118C58.408 76.3518 58.368 76.2118 58.328 76.0818C57.718 73.7618 57.2781 71.4219 56.4881 69.1219C55.6781 66.7719 55.548 64.0618 54.458 61.8118Z" fill="#EDEDED"/>
<path d="M64.6779 78.6319C64.9179 78.6719 65.1679 78.7219 65.3879 78.6219C65.6779 78.5019 65.8179 78.1819 65.9379 77.8819C67.4779 73.8719 67.9179 69.5319 68.1879 65.2419C67.2779 64.8819 66.2779 64.8019 65.3079 64.7319C62.6579 64.5319 59.9979 64.3319 57.3479 64.1319C55.7879 64.0119 54.2079 63.9019 52.6679 64.1919C52.4879 68.5519 52.2979 72.9019 52.1179 77.2619C52.0979 77.5319 63.6479 78.4419 64.6779 78.6319Z" fill="#E2E2E2"/>
<path d="M60.188 71.3718C60.208 71.3718 60.238 71.3618 60.258 71.3418C60.218 71.3418 60.198 71.3518 60.188 71.3718Z" fill="white"/>
<path d="M58.8079 72.3918C59.5379 72.5418 60.2779 72.6718 61.0179 72.7818C61.1279 72.8018 61.2079 72.7318 61.2479 72.6618C61.3279 72.6218 61.388 72.5418 61.358 72.4318C61.048 71.3318 60.738 70.2318 60.428 69.1318C60.368 68.9218 60.0879 68.9418 60.0279 69.1318C59.6879 70.1718 59.2379 71.1518 58.6879 72.1018C58.6179 72.1918 58.6679 72.3618 58.8079 72.3918ZM60.1979 69.8618C60.4279 70.6918 60.6679 71.5118 60.8979 72.3418C60.3179 72.2518 59.748 72.1518 59.178 72.0418C59.578 71.3318 59.9179 70.6118 60.1979 69.8618Z" fill="white"/>
<path d="M53.768 47.4719C53.128 48.2719 52.168 48.7519 51.248 49.1919C50.488 49.5619 49.688 49.9319 48.848 49.8519C47.398 49.7119 46.4581 48.2919 45.7381 47.0219C44.6581 45.1119 43.548 43.1019 43.528 40.9119C43.498 38.9219 44.4381 36.942 45.9881 35.702C47.5381 34.462 49.6781 33.992 51.6081 34.452C53.9281 35.012 56.6281 36.6419 56.0481 39.3319C55.7881 40.5519 55.338 41.7019 55.128 42.9419C54.878 44.4619 54.758 46.2219 53.768 47.4719Z" fill="#EDDCD1"/>
<path d="M56.6279 36.8919C57.2779 38.3319 57.4679 39.9419 57.5579 41.5219C57.5679 41.6619 57.5679 41.8219 57.4879 41.9319C57.3479 42.1219 57.0579 42.1019 56.8279 42.0619C54.3779 41.6219 51.9379 41.1819 49.4879 40.7519C48.6579 40.6019 47.6579 40.5119 47.1179 41.1519C46.8179 41.5019 46.7479 41.9919 46.7179 42.4519C46.6379 43.5419 46.7179 44.6319 46.9479 45.7019C46.2979 44.8719 46.0379 43.8119 45.9479 42.7619C45.8979 42.1619 45.7479 41.3719 45.1479 41.2919C44.5579 41.2219 44.1979 42.0119 44.3579 42.5819C44.5179 43.1619 44.9579 43.6119 45.1779 44.1619C45.3479 44.5919 45.3879 45.0619 45.4379 45.5219C45.5779 46.8219 45.8279 48.1219 46.3979 49.2919C46.9679 50.4619 47.8779 51.5119 49.0679 52.0419C48.0879 51.6519 47.1179 51.2519 46.1379 50.8619C45.1079 50.4519 44.0879 50.0319 43.0679 49.6119C42.3379 49.3119 41.5979 48.9819 41.0479 48.4219C40.6679 48.0419 40.3879 47.5719 40.1779 47.0719C39.0979 44.6119 39.4779 41.7619 40.2379 39.1919C40.8379 37.1819 41.7379 35.1319 43.4679 33.9319C45.4779 32.5419 48.1279 32.6219 50.5579 32.8419C53.0479 33.0919 55.5679 34.5419 56.6279 36.8919Z" fill="#EDDDB2"/>
<path d="M40.8079 111.242C41.1279 103.962 40.428 96.5318 40.468 89.2118C40.248 86.6718 40.598 84.0818 41.478 81.6918C41.528 81.5418 41.5879 81.3918 41.6979 81.2818C42.0379 80.9318 42.6179 81.1118 43.0779 81.3018C47.4179 83.0918 52.5479 82.6618 56.4979 80.1218C57.2779 81.3118 57.5079 82.7818 57.7079 84.1918C58.0279 86.4818 58.3679 88.7618 58.4579 91.0618V91.0718C58.4779 91.5618 58.488 92.0618 58.478 92.5518C58.428 95.4218 57.8779 98.2418 57.4579 101.072C57.1779 102.912 56.938 104.772 56.918 106.642C56.898 108.172 57.118 109.562 56.778 111.062C55.948 114.752 55.948 118.762 55.598 122.522C55.228 126.552 55.158 126.422 54.858 130.462C54.848 130.622 54.8379 130.782 54.8179 130.942C54.6179 130.992 51.5179 131.712 51.5179 130.912C51.2579 123.082 50.688 119.402 50.428 111.572C50.318 108.272 50.5379 97.1318 49.6979 93.9918C49.3579 94.0218 49.008 94.0618 48.668 94.1018C46.798 104.472 44.898 118.472 43.028 128.842C42.868 129.752 42.6679 130.742 42.0679 131.332C41.4679 131.922 40.348 131.762 40.168 130.852C40.718 122.932 40.4679 119.172 40.8079 111.242Z" fill="#736357"/>
<path d="M49.178 57.4119C49.188 57.4119 49.208 57.4219 49.218 57.4219C49.198 57.4219 49.188 57.4119 49.178 57.4119Z" fill="white"/>
<path d="M49.0979 57.3918C49.1079 57.3918 49.1079 57.4019 49.1179 57.4019C49.1079 57.3919 49.0979 57.3918 49.0979 57.3918Z" fill="white"/>
<path d="M49.1279 57.4019C49.1179 57.4019 49.1179 57.3918 49.1179 57.3918C49.1379 57.4018 49.1579 57.4018 49.1779 57.4118C49.1579 57.4118 49.1479 57.4119 49.1279 57.4019Z" fill="#1D4360"/>
<path d="M39.7979 80.8719C41.4779 77.8619 42.3379 74.3419 41.8879 70.9119C41.5479 68.3319 40.4979 65.7119 41.1879 63.2019C41.5479 61.9019 42.3479 60.7719 43.0479 59.6219C44.6479 56.9819 45.7479 54.0419 46.2879 51.0019C46.3179 50.8419 46.3479 50.6819 46.4579 50.5719C46.6879 50.3419 47.0779 50.4719 47.3779 50.5819C48.4479 50.9919 49.6479 51.0419 50.7479 50.7519C51.3779 50.5819 51.5279 50.3419 51.9179 50.8719C52.2479 51.3219 52.4079 52.0819 52.6079 52.6019C53.5079 54.9419 54.2979 57.3519 54.4879 59.8619C54.5879 61.1219 54.5379 62.4019 54.9079 63.6119C55.2079 64.6019 55.7779 65.4719 56.2479 66.4019C57.9279 69.7719 58.1379 73.6719 59.3879 77.2319C59.5879 77.8119 59.8279 78.3819 59.8879 78.9919C59.9479 79.6019 59.8179 80.2619 59.3779 80.6919C59.0679 81.0019 58.6379 81.1519 58.2279 81.2919C57.6279 81.5019 57.0179 81.7219 56.4179 81.9319C55.5779 82.2319 54.738 82.5219 53.868 82.6919C52.808 82.9019 51.7179 82.9119 50.6279 82.9219C48.6279 82.9419 46.6379 82.9719 44.6379 82.9919C43.4979 83.0019 42.3679 83.0219 41.2279 82.9319C40.4679 82.8719 39.5179 82.5719 39.4579 81.8119C39.4479 81.4919 39.6279 81.1719 39.7979 80.8719Z" fill="#F2F2F2"/>
<path d="M52.3778 130.642C52.1478 130.632 51.9079 130.602 51.7079 130.722C51.4879 130.852 51.3778 131.112 51.3178 131.362C50.9278 132.912 51.5279 134.512 51.6979 136.102C51.7979 137.042 51.7479 138.002 51.8979 138.942C52.2179 138.912 52.5379 138.882 52.8579 138.852C52.7879 138.292 52.7779 137.732 52.8379 137.172C52.8579 136.992 52.8879 136.812 52.9879 136.662C53.0879 136.512 53.2879 136.422 53.4579 136.482C53.6079 136.542 53.6779 136.702 53.7379 136.852C53.8679 137.202 53.9778 137.562 54.0578 137.922C54.0978 138.122 54.1379 138.342 54.2779 138.492C54.4879 138.732 54.8578 138.752 55.1878 138.742C56.3778 138.722 57.5678 138.702 58.7478 138.682C59.2578 138.672 59.8279 138.632 60.1479 138.242C60.5379 137.762 60.2979 137.002 59.8579 136.582C59.4079 136.152 58.8079 135.932 58.2879 135.602C57.7179 135.242 57.2379 134.742 56.8979 134.152C56.3179 133.152 56.2979 131.642 55.5279 130.772C55.2079 130.412 54.8479 130.472 54.4079 130.542C53.7379 130.632 53.0678 130.682 52.3778 130.642Z" fill="#3D322B"/>
<path d="M39.9879 129.422C39.8779 129.412 39.7679 129.422 39.6779 129.482C39.6179 129.522 39.5779 129.592 39.5479 129.662C39.1179 130.542 39.1378 131.562 38.9578 132.522C38.7078 133.882 38.0778 135.132 37.5578 136.412C37.4078 136.782 37.2678 137.172 37.2778 137.572C37.2978 138.352 37.9279 139.022 38.6579 139.302C39.3879 139.582 40.2079 139.532 40.9779 139.392C41.1379 139.362 41.2978 139.332 41.4378 139.262C41.5878 139.192 41.7078 139.072 41.8178 138.952C42.7578 137.932 42.8079 136.412 42.8579 135.022C42.8879 134.222 42.9378 133.432 42.9978 132.642C43.0478 131.972 43.2979 131.122 43.1779 130.462C43.0779 129.902 42.6579 129.862 42.1679 129.802C41.4379 129.682 40.7279 129.462 39.9879 129.422Z" fill="#3D322B"/>
<path d="M45.438 76.6219C45.568 81.5819 45.998 86.6219 48.598 91.3019C47.658 90.4319 45.528 90.5119 44.018 90.9719C42.508 91.4319 41.168 92.1719 39.518 92.3619C38.098 92.5219 36.5679 92.2219 35.5579 91.5719C33.6079 90.3319 33.8779 88.3219 34.3079 86.5919C36.4479 77.9119 38.878 69.2419 40.178 60.5019C40.438 58.7819 40.678 57.0019 41.988 55.4819C42.758 54.5919 43.888 53.8019 44.198 52.8019C44.358 52.2919 44.288 51.7619 44.548 51.2719C44.808 50.7819 46.958 50.2419 47.758 50.3719C49.028 51.7919 46.848 53.5019 46.628 55.1019C46.388 56.8319 46.188 58.5519 46.018 60.2819C45.668 63.8019 45.468 67.3319 45.398 70.8619C45.388 72.7819 45.388 74.7019 45.438 76.6219Z" fill="#ACB18F"/>
<path d="M53.5479 81.8319C53.2279 84.6619 52.7079 87.5719 53.9079 90.3119C54.0379 90.6019 54.1879 90.9019 54.4979 91.1319C55.2979 91.7219 56.7479 91.6619 57.9879 91.6319C60.8879 91.5519 60.6879 90.8119 63.2979 91.6119C62.6479 87.8519 61.9979 84.0919 61.3479 80.3319C60.5979 75.9719 59.8379 71.5919 57.7479 67.4119C54.8279 61.5719 54.3779 56.8719 52.0579 50.9319C51.9079 50.5419 49.8479 50.6719 49.2579 50.4919C48.6879 51.0119 49.7279 52.4919 49.9579 53.1319C50.3279 54.1419 50.6779 55.1519 50.9979 56.1719C51.6379 58.2019 52.1779 60.2519 52.6079 62.3119C53.4779 66.4519 53.9179 70.6319 53.9379 74.8119C53.9379 77.1419 53.8079 79.4919 53.5479 81.8319Z" fill="#ACB18F"/>
<path d="M49.5878 74.5118C49.8978 74.5418 50.2478 74.5618 50.4178 74.8218C50.5078 74.9618 50.5278 75.1518 50.6678 75.2518C50.7578 75.3218 50.8779 75.3218 50.9879 75.3418C51.4479 75.4318 51.8278 75.8618 51.8478 76.3318C51.8678 76.8018 51.5478 77.2718 51.0978 77.4118C50.5878 77.5718 50.0378 77.3318 49.5678 77.0718C48.6878 76.6018 47.8578 76.0618 47.0678 75.4518C46.9778 75.3818 46.8878 75.3118 46.8478 75.2118C46.6278 74.7218 46.9778 73.9918 47.4778 73.9518C48.0678 73.9118 48.9378 74.4618 49.5878 74.5118Z" fill="#EDDCD1"/>
<path d="M46.2879 72.8419C44.4379 71.3219 43.1179 69.2319 42.2479 67.0119C41.9879 66.3419 41.7579 65.6519 41.6679 64.9419C41.5479 64.0719 41.6279 63.2019 41.6979 62.3319C41.7979 61.1519 41.8979 59.9519 42.2979 58.8419C42.5579 58.1019 42.9479 57.4019 43.2479 56.6719C43.6979 55.5619 43.9279 54.3819 44.1579 53.2119C44.2279 52.8719 44.2879 52.5219 44.2179 52.1919C44.1479 51.8519 43.9079 51.5319 43.5679 51.4719C43.1979 51.4119 42.8579 51.6719 42.5779 51.9319C40.0979 54.2619 38.7679 57.5919 38.1879 60.9419C37.7779 63.3119 37.7279 65.8319 38.6879 68.0319C39.0879 68.9419 39.6479 69.7719 40.2479 70.5619C42.0079 72.8619 44.2479 74.9319 47.0079 75.7919C47.1079 75.8219 47.2179 75.8519 47.2979 75.8019C47.3779 75.7619 47.4079 75.6719 47.4479 75.5919C47.6279 75.1619 48.088 74.5219 47.868 74.0419C47.668 73.5919 46.6579 73.1519 46.2879 72.8419Z" fill="#EDEDED"/>
<path d="M103.278 140.992C105.088 140.982 106.908 140.872 108.718 140.762C113.768 140.452 118.818 140.142 123.878 139.832C124.668 139.782 125.678 139.562 125.708 138.912C125.738 138.332 124.928 137.992 124.248 137.852C121.808 137.332 119.258 137.322 116.738 137.322C113.038 137.322 109.328 137.352 105.628 137.402C103.318 137.432 100.938 137.492 98.8078 138.222C97.6478 138.622 95.9578 140.182 97.8578 140.822C98.3778 141.002 99.4278 140.862 99.9878 140.892C101.068 140.962 102.178 141.002 103.278 140.992Z" fill="url(#paint2_linear)"/>
<path opacity="0.22" d="M103.278 140.992C105.088 140.982 106.908 140.872 108.718 140.762C113.768 140.452 118.818 140.142 123.878 139.832C124.668 139.782 125.678 139.562 125.708 138.912C125.738 138.332 124.928 137.992 124.248 137.852C121.808 137.332 119.258 137.322 116.738 137.322C113.038 137.322 109.328 137.352 105.628 137.402C103.318 137.432 100.938 137.492 98.8078 138.222C97.6478 138.622 95.9578 140.182 97.8578 140.822C98.3778 141.002 99.4278 140.862 99.9878 140.892C101.068 140.962 102.178 141.002 103.278 140.992Z" fill="url(#paint3_linear)"/>
<path d="M94.4578 51.962C94.3978 51.592 94.1178 51.302 93.8378 51.042C93.6978 50.912 93.5478 50.772 93.3978 50.652C92.6078 50.032 91.5778 49.7219 90.5678 49.8119C90.2778 49.8419 89.9778 49.902 89.7678 50.092C89.5978 50.252 89.4978 50.472 89.4578 50.702C89.4478 50.752 89.4378 50.812 89.4578 50.862C89.4978 51.052 89.7279 51.122 89.9179 51.152C90.1179 51.182 90.3279 51.222 90.4879 51.342C90.6479 51.462 90.7478 51.702 90.6478 51.872C90.5978 51.952 90.5178 52.012 90.4978 52.102C90.4678 52.252 90.6178 52.382 90.7678 52.432C91.3178 52.612 91.9179 52.322 92.4779 52.442C92.6479 52.482 92.8179 52.552 92.9879 52.602C93.1579 52.642 93.3478 52.662 93.5078 52.572C93.6678 52.552 93.8378 52.522 93.9978 52.482C94.1578 52.442 94.3379 52.382 94.4179 52.242C94.4679 52.162 94.4778 52.062 94.4578 51.962Z" fill="#EADDD0"/>
<path d="M85.3678 45.542C86.6778 45.352 88.0078 45.152 89.3378 45.212C89.5978 45.222 89.8778 45.252 90.0678 45.422C90.2478 45.582 90.3078 45.832 90.3678 46.072C91.7278 51.912 93.0778 57.752 94.4378 63.592C94.4578 63.692 94.4878 63.792 94.4678 63.892C94.4278 64.122 94.1978 64.252 93.9978 64.352C90.5978 66.002 86.6778 66.072 82.9078 66.102C82.5778 66.102 82.2278 66.102 81.9678 65.912C81.6778 65.712 81.5678 65.352 81.4678 65.012C79.9278 59.502 79.5678 53.722 78.2778 48.142C78.1878 47.752 78.0878 47.332 78.2178 46.942C78.4978 46.102 80.4578 46.262 81.1778 46.162C82.5678 45.962 83.9678 45.752 85.3678 45.542Z" fill="#545454"/>
<path d="M85.4378 46.292C86.6478 46.112 87.8778 45.932 89.0978 45.962C89.3378 45.972 89.5978 45.992 89.7678 46.142C89.9278 46.282 89.9878 46.492 90.0378 46.702C91.2278 51.762 92.4178 56.822 93.6078 61.892C93.6278 61.972 93.6478 62.062 93.6278 62.152C93.5878 62.352 93.3778 62.472 93.1878 62.562C90.0378 64.032 86.4178 64.132 82.9378 64.202C82.6378 64.212 82.3178 64.212 82.0678 64.052C81.8078 63.882 81.6978 63.562 81.6178 63.272C80.2578 58.492 79.9778 53.482 78.8478 48.642C78.7678 48.302 78.6878 47.942 78.8078 47.602C79.0778 46.862 80.8778 46.992 81.5378 46.892C82.8478 46.682 84.1478 46.482 85.4378 46.292Z" fill="#F7F7F7"/>
<path d="M87.6778 65.0121C87.7078 65.0621 87.7578 65.1021 87.7978 65.1321C87.9078 65.2021 88.0278 65.2421 88.1578 65.2321C88.2878 65.2221 88.4078 65.1721 88.4878 65.0821C88.7378 64.7921 88.6378 64.2921 88.2078 64.2621C87.8878 64.2421 87.4878 64.7021 87.6778 65.0121Z" fill="#F7F7F7"/>
<path d="M101.288 59.6721C100.278 58.4221 99.5877 56.9421 98.5577 55.7121C97.1677 54.0521 95.6878 52.8621 94.7678 50.9021C94.3378 51.5721 92.8978 52.2421 92.4678 52.9121C94.1378 55.1821 95.8078 57.0921 96.5078 60.2121C96.8378 61.6521 98.3978 63.8021 99.1478 65.0821C99.5478 65.7621 100.088 66.3521 100.658 66.9021C101.888 68.0921 103.348 69.1321 105.028 69.4321C107.578 69.8821 110.068 68.2021 110.018 65.4721C109.968 63.0221 106.648 63.2521 104.968 62.4921C103.538 61.8521 102.258 60.8821 101.288 59.6721Z" fill="#E0C74E"/>
<path d="M105.958 49.562C106.758 49.892 107.528 50.102 108.088 50.112C108.748 50.122 109.358 49.792 109.938 49.482C111.128 48.832 112.378 48.112 112.988 46.902C113.338 46.192 113.428 45.382 113.498 44.592C113.668 42.602 113.748 40.612 113.728 38.612C113.718 37.592 113.668 36.502 113.098 35.652C112.148 34.212 110.178 33.962 108.448 33.862C106.748 33.762 104.948 33.682 103.438 34.482C101.868 35.322 102.228 36.562 102.108 38.102C101.958 40.032 101.868 41.972 101.848 43.902C101.838 45.002 101.878 46.162 102.448 47.102C102.998 47.992 104.518 48.972 105.958 49.562Z" fill="#EADDD0"/>
<path d="M115.838 111.582C115.558 104.062 116.108 96.4019 116.048 88.8319C116.218 86.2119 115.928 83.5419 115.198 81.0719C115.148 80.9219 115.108 80.7619 115.018 80.6419C114.738 80.2819 114.268 80.4719 113.898 80.6619C110.368 82.5219 106.188 82.0919 102.958 79.4819C102.318 80.7119 102.138 82.2319 101.988 83.6919C101.738 86.0519 101.468 88.4119 101.398 90.7919V90.8019C101.388 91.3119 101.378 91.8219 101.388 92.3319C101.438 95.2919 101.888 98.2019 102.248 101.122C102.478 103.022 102.688 104.942 102.708 106.862C102.728 108.442 102.558 109.882 102.838 111.422C103.528 115.222 103.538 119.362 103.828 123.252C104.148 127.412 104.458 131.572 104.718 135.742C104.728 135.912 104.738 136.072 104.748 136.242C104.918 136.302 107.438 137.032 107.438 136.202C107.628 128.112 107.818 120.022 108.008 111.932C108.088 108.532 107.878 97.0319 108.548 93.7819C108.828 93.8219 109.108 93.8519 109.388 93.8919C110.938 104.592 112.798 123.342 114.348 134.042C114.488 134.982 114.648 136.002 115.138 136.612C115.628 137.222 116.538 137.042 116.688 136.112C116.198 127.932 116.138 119.762 115.838 111.582Z" fill="#4D4D4D"/>
<path d="M108.538 136.172C108.508 136.082 108.488 135.982 108.458 135.892C108.148 134.672 107.988 133.412 107.988 132.152C107.988 131.582 108.018 131.002 107.888 130.442C107.158 130.452 105.108 130.322 104.378 130.332C104.318 130.332 104.248 130.332 104.198 130.372C104.148 130.412 104.128 130.492 104.118 130.552C103.798 132.292 104.878 134.202 104.488 135.932C104.328 136.622 103.688 136.872 103.098 137.222C102.588 137.532 101.578 138.282 100.968 138.282C100.618 138.422 100.248 138.562 99.9878 138.842C99.7278 139.122 99.6278 139.582 99.8678 139.882C100.078 140.142 100.458 140.162 100.788 140.172C103.328 140.192 105.878 139.972 108.378 139.512C108.528 139.482 108.688 139.452 108.798 139.342C108.888 139.252 108.928 139.132 108.958 139.022C109.248 137.912 108.828 137.132 108.538 136.172Z" fill="#BE9F3E"/>
<path d="M117.818 136.822C117.738 136.552 117.558 136.322 117.468 136.062C117.368 135.792 117.418 135.452 117.418 135.162C117.418 133.842 117.418 132.532 117.418 131.212C117.418 130.812 117.378 130.342 117.038 130.142C116.808 130.002 116.508 130.042 116.248 130.092C115.478 130.222 114.698 130.362 113.928 130.492C113.728 130.532 113.498 130.572 113.388 130.742C113.278 130.912 113.308 131.132 113.348 131.332C113.578 132.602 113.668 133.892 113.628 135.172C113.618 135.542 113.588 135.912 113.628 136.282C112.738 137.042 111.758 137.702 110.698 138.212C110.388 138.362 110.068 138.512 109.848 138.772C109.628 139.042 109.568 139.462 109.808 139.712C110.018 139.932 110.358 139.932 110.648 139.912C112.928 139.772 115.208 139.412 117.418 138.842C117.548 138.812 117.688 138.772 117.778 138.662C117.848 138.582 117.878 138.472 117.898 138.362C118.008 137.862 117.978 137.322 117.818 136.822Z" fill="#BE9F3E"/>
<path d="M105.948 52.3021C106.278 52.1921 106.608 52.0621 106.928 51.9421C108.558 51.3121 110.188 50.6821 111.808 50.0621C112.048 49.9721 112.308 49.8721 112.558 49.9221C112.758 49.9621 112.918 50.0821 113.078 50.2121C116.128 52.6621 116.958 56.6521 117.798 60.2821C120.768 73.1121 121.718 86.3621 120.608 99.4621C113.338 100.712 105.998 101.532 98.6177 101.912C99.0277 101.892 99.8576 92.9221 99.9576 92.0421C100.508 86.8621 100.798 81.6421 100.738 76.4321C100.678 71.2021 100.948 65.9821 101.318 60.7621C101.468 58.6521 101.638 56.5421 101.828 54.4321C101.898 53.6021 104.288 52.7521 104.888 52.6221C105.258 52.5221 105.608 52.4121 105.948 52.3021Z" fill="#FCEE9F"/>
<path d="M89.578 58.7719C88.868 57.8619 88.2481 56.8919 87.6181 55.9119C87.3881 55.5419 87.178 55.0619 87.428 54.7019C87.578 54.4919 87.868 54.4019 88.128 54.4319C88.388 54.4619 88.628 54.5919 88.848 54.7419C89.168 54.9619 89.448 55.2219 89.728 55.5019C90.958 56.7419 91.498 58.6019 91.968 60.2819C92.318 61.5419 92.388 62.9319 93.168 63.9819C92.978 64.1019 92.788 64.2219 92.598 64.3419C92.558 64.3719 92.498 64.4019 92.448 64.3819C92.398 64.3719 92.368 64.3119 92.338 64.2619C91.898 63.3619 91.528 62.4519 91.008 61.5819C90.488 60.6919 90.208 59.6019 89.578 58.7719Z" fill="#EDEDED"/>
<path d="M95.1378 64.7819C95.2378 64.7819 95.3479 64.7819 95.4279 64.7219C95.5379 64.6519 95.5678 64.5019 95.5878 64.3719C95.8778 62.6119 95.6978 60.8019 95.4578 59.0319C95.0578 58.9619 94.6479 59.0119 94.2379 59.0619C93.1379 59.2019 92.0378 59.3419 90.9378 59.4819C90.2878 59.5619 89.6378 59.6519 89.0378 59.8919C89.3278 61.6819 89.6178 63.4719 89.8978 65.2619C89.9178 65.3819 94.7078 64.7919 95.1378 64.7819Z" fill="#E2E2E2"/>
<path d="M88.0978 52.982C87.8978 53.362 87.5478 53.632 87.2078 53.892C86.9278 54.102 86.6378 54.322 86.2878 54.362C85.6878 54.422 85.1878 53.922 84.7878 53.462C84.1878 52.772 83.5677 52.042 83.3777 51.152C83.1977 50.342 83.4177 49.462 83.9477 48.822C84.4777 48.192 85.3077 47.812 86.1377 47.842C87.1277 47.882 88.3678 48.312 88.3578 49.462C88.3578 49.982 88.2678 50.492 88.2878 51.012C88.3078 51.662 88.4078 52.392 88.0978 52.982Z" fill="#EDDCD1"/>
<path d="M88.3879 48.442C88.7779 48.972 88.9779 49.612 89.1479 50.252C89.1679 50.312 89.1779 50.372 89.1579 50.422C89.1179 50.512 88.9979 50.532 88.8979 50.532C87.8679 50.552 86.8279 50.582 85.7979 50.602C85.4479 50.612 85.0379 50.652 84.8679 50.962C84.7779 51.132 84.7878 51.332 84.8078 51.522C84.8678 51.972 84.9879 52.412 85.1679 52.832C84.8379 52.552 84.6379 52.132 84.5179 51.712C84.4479 51.472 84.3178 51.162 84.0678 51.182C83.8178 51.202 83.7379 51.552 83.8579 51.772C83.9679 51.992 84.1879 52.142 84.3279 52.352C84.4379 52.512 84.4879 52.702 84.5479 52.882C84.7079 53.402 84.9178 53.912 85.2478 54.342C85.5778 54.772 86.0378 55.122 86.5678 55.242C86.1378 55.162 85.7079 55.082 85.2779 55.002C84.8279 54.922 84.3679 54.832 83.9179 54.742C83.5979 54.682 83.2678 54.612 82.9978 54.422C82.8078 54.302 82.6579 54.132 82.5279 53.942C81.8879 53.032 81.7979 51.832 81.8979 50.722C81.9779 49.852 82.1679 48.942 82.7779 48.312C83.4779 47.582 84.5679 47.392 85.5779 47.282C86.6179 47.182 87.7579 47.562 88.3879 48.442Z" fill="#EDDDB2"/>
<path d="M85.1778 67.762C85.6078 66.392 85.6677 64.8919 85.1977 63.5319C84.8477 62.5119 84.1978 61.532 84.2778 60.452C84.3178 59.892 84.5478 59.3619 84.7378 58.832C85.1678 57.622 85.3778 56.332 85.3478 55.052C85.3478 54.982 85.3477 54.9119 85.3777 54.8619C85.4477 54.7519 85.6177 54.772 85.7577 54.792C86.2277 54.872 86.7177 54.7919 87.1477 54.5819C87.3877 54.4619 87.4277 54.3519 87.6377 54.5319C87.8077 54.6919 87.9377 54.982 88.0577 55.182C88.6177 56.062 89.1378 56.982 89.4278 57.982C89.5678 58.482 89.6578 59.0119 89.9078 59.4719C90.1178 59.8519 90.4177 60.162 90.6877 60.492C91.6577 61.722 92.0578 63.3019 92.8678 64.6419C92.9978 64.8619 93.1378 65.072 93.2178 65.322C93.2978 65.562 93.2977 65.8419 93.1477 66.0619C93.0477 66.2119 92.8878 66.312 92.7278 66.402C92.4978 66.542 92.2678 66.6719 92.0478 66.8119C91.7278 67.0019 91.4177 67.1919 91.0777 67.332C90.6577 67.502 90.2178 67.602 89.7778 67.692C88.9678 67.872 88.1578 68.0419 87.3478 68.2219C86.8878 68.3219 86.4277 68.422 85.9577 68.482C85.6377 68.522 85.2277 68.4819 85.1477 68.1719C85.0877 68.0419 85.1378 67.902 85.1778 67.762Z" fill="#F2F2F2"/>
<path d="M87.1278 65.5619C87.5878 67.5719 88.1878 69.5919 89.6379 71.2819C89.1779 71.0019 88.3178 71.2119 87.7478 71.5319C87.1678 71.8419 86.6879 72.2619 86.0279 72.4719C85.4579 72.6519 84.8179 72.6619 84.3479 72.4819C83.4479 72.1419 83.3979 71.2919 83.4279 70.5619C83.5779 66.8419 83.8479 63.1119 83.6479 59.4419C83.6079 58.7219 83.5579 57.9719 83.9679 57.2419C84.2079 56.8119 84.5979 56.4019 84.6479 55.9719C84.6679 55.7519 84.5979 55.5419 84.6679 55.3219C84.7379 55.1019 85.5679 54.7019 85.8979 54.6819C86.5379 55.1519 85.7879 56.0319 85.8279 56.7019C85.8779 57.4219 85.9378 58.1419 86.0078 58.8619C86.1578 60.3219 86.3679 61.7819 86.6379 63.2219C86.7879 64.0019 86.9478 64.7819 87.1278 65.5619Z" fill="#ACB18F"/>
<path d="M90.868 67.012C90.968 68.192 91.008 69.422 91.718 70.442C91.798 70.552 91.878 70.662 92.028 70.722C92.408 70.902 92.988 70.752 93.488 70.632C94.658 70.362 94.518 70.072 95.648 70.182C95.068 68.702 94.498 67.222 93.918 65.742C93.248 64.032 92.578 62.302 91.378 60.772C89.708 58.632 89.1279 56.752 87.6879 54.522C87.5979 54.372 86.768 54.602 86.508 54.572C86.318 54.832 86.868 55.352 87.018 55.592C87.258 55.972 87.478 56.362 87.698 56.742C88.128 57.522 88.518 58.3119 88.868 59.1119C89.568 60.7319 90.098 62.392 90.448 64.092C90.638 65.062 90.778 66.032 90.868 67.012Z" fill="#ACB18F"/>
<path d="M88.6477 64.3519C88.7777 64.3319 88.9177 64.3219 89.0077 64.4119C89.0577 64.4619 89.0777 64.5419 89.1477 64.5719C89.1877 64.5919 89.2378 64.5819 89.2878 64.5819C89.4878 64.5819 89.6677 64.7219 89.7177 64.9119C89.7677 65.1019 89.6677 65.3219 89.4977 65.4119C89.2977 65.5219 89.0578 65.4619 88.8478 65.4019C88.4478 65.2819 88.0677 65.1319 87.6977 64.9519C87.6577 64.9319 87.6177 64.9119 87.5877 64.8719C87.4577 64.6919 87.5378 64.3619 87.7378 64.3019C87.9778 64.2319 88.3777 64.3919 88.6477 64.3519Z" fill="#EDDCD1"/>
<path d="M87.1579 63.9519C86.2779 63.4819 85.5679 62.7419 85.0279 61.9119C84.8679 61.6619 84.7179 61.4019 84.6179 61.1219C84.4979 60.7819 84.4579 60.4119 84.4079 60.0519C84.3479 59.5619 84.2979 59.0619 84.3579 58.5819C84.4079 58.2619 84.5079 57.9419 84.5679 57.6219C84.6579 57.1319 84.6579 56.6319 84.6479 56.1319C84.6479 55.9919 84.6479 55.8419 84.5879 55.7119C84.5279 55.5819 84.4079 55.4719 84.2579 55.4719C84.0979 55.4819 83.9879 55.6119 83.8979 55.7419C83.0779 56.9019 82.8179 58.3619 82.8579 59.7819C82.8879 60.7819 83.0779 61.8119 83.6479 62.6319C83.8879 62.9719 84.1879 63.2619 84.4979 63.5319C85.4079 64.3219 86.4879 64.9819 87.6879 65.1019C87.7279 65.1019 87.7779 65.1119 87.8079 65.0819C87.8379 65.0619 87.8479 65.0219 87.8479 64.9819C87.8879 64.7919 88.0179 64.4919 87.8879 64.3119C87.7879 64.1419 87.3379 64.0419 87.1579 63.9519Z" fill="#EDEDED"/>
<path d="M91.4278 65.182C91.3178 64.772 91.1978 64.362 90.9878 63.982C90.7178 63.492 90.2877 63.102 89.8077 62.822C89.5077 62.642 89.1477 62.502 88.8077 62.592C88.5077 62.682 88.2878 62.952 88.1878 63.242C88.0878 63.542 88.1078 63.862 88.1578 64.172C88.3778 65.462 89.6678 67.552 91.2178 67.212C91.4878 67.152 91.7878 66.992 91.8178 66.712C91.8278 66.612 91.7978 66.512 91.7778 66.412C91.6578 66.012 91.5378 65.602 91.4278 65.182Z" fill="#EADDD0"/>
<path d="M106.668 70.882C105.918 72.672 104.878 74.642 102.988 75.112C101.758 75.412 100.468 74.972 99.2978 74.462C96.9678 73.442 94.7578 72.152 92.7378 70.612C91.4578 69.632 90.1177 68.202 90.5077 66.642C90.5677 66.402 90.6777 66.162 90.8877 66.022C91.3777 65.702 91.9878 66.152 92.4178 66.542C94.5178 68.462 97.1677 69.792 99.9677 70.332C100.318 70.402 100.688 70.452 101.028 70.372C101.938 70.162 102.388 69.152 102.678 68.262C103.858 64.742 104.868 61.172 105.708 57.562C105.868 56.862 106.028 56.152 106.438 55.562C107.068 54.652 108.298 54.192 109.378 54.462C112.888 55.352 110.798 59.522 110.098 61.692C109.078 64.792 107.938 67.862 106.668 70.882Z" fill="#E0C74E"/>
<path d="M124.868 59.412C124.308 58.782 123.398 58.382 123.198 57.552C123.048 56.902 123.428 56.242 123.878 55.752C124.338 55.262 124.888 54.842 125.218 54.262C125.888 53.062 125.248 51.332 123.948 50.862C123.418 50.672 122.838 50.672 122.318 50.452C121.798 50.242 121.338 49.672 121.548 49.142C121.758 48.592 122.608 48.262 122.418 47.712C122.358 47.552 122.228 47.432 122.088 47.332C121.638 46.992 121.138 46.722 120.608 46.522C120.198 46.362 119.758 46.242 119.408 45.982C118.498 45.292 118.478 43.922 117.788 43.012C117.648 42.822 117.478 42.662 117.298 42.522C117.308 42.422 117.308 42.322 117.308 42.222C117.328 41.432 117.338 40.622 117.048 39.882C116.878 39.442 116.598 39.052 116.368 38.642C116.358 38.632 116.358 38.612 116.348 38.602C117.148 38.802 118.038 38.692 118.688 38.182C119.438 37.592 119.728 36.442 119.228 35.632C119.028 35.312 118.738 35.072 118.508 34.772C117.788 33.812 117.668 32.822 116.288 32.702C115.488 32.632 114.538 32.762 114.098 33.492C112.868 31.842 110.748 30.952 108.688 31.002C106.518 31.052 104.448 32.042 102.808 33.462C102.298 33.912 101.808 34.412 101.508 35.022C101.208 35.632 101.118 36.312 101.058 36.982C100.998 37.642 100.888 38.632 101.208 39.242L101.148 39.582C100.848 39.992 101.238 40.562 101.648 40.862C104.278 42.852 108.278 42.242 110.808 44.362C111.878 45.252 112.548 46.542 112.948 47.882C113.138 48.522 113.278 49.192 113.208 49.862C113.048 51.362 111.928 52.532 111.078 53.782C110.048 55.292 109.358 57.042 109.108 58.852C108.978 59.762 108.998 60.812 109.648 61.462C110.258 62.082 111.288 62.202 111.748 62.942C112.328 63.872 111.618 65.072 111.648 66.172C111.678 67.212 112.478 68.182 113.498 68.402C114.328 68.582 115.178 68.312 116.018 68.212C116.858 68.122 117.858 68.292 118.258 69.042C118.538 69.572 118.438 70.232 118.678 70.782C119.028 71.582 120.028 71.922 120.888 71.782C121.748 71.642 122.498 71.142 123.218 70.642C123.608 70.372 124.028 70.052 124.078 69.582C124.108 69.252 123.948 68.932 123.758 68.662C123.168 67.792 122.288 66.872 122.598 65.872C122.798 65.212 123.458 64.812 123.988 64.372C124.708 63.772 125.278 62.972 125.478 62.062C125.678 61.122 125.488 60.102 124.868 59.412Z" fill="#5E625E"/>
<defs>
<linearGradient id="paint0_linear" x1="34.6422" y1="138.042" x2="69.2736" y2="139.696" gradientUnits="userSpaceOnUse">
<stop stop-color="white"/>
<stop offset="1"/>
</linearGradient>
<linearGradient id="paint1_linear" x1="34.6422" y1="138.042" x2="69.2736" y2="139.696" gradientUnits="userSpaceOnUse">
<stop/>
<stop offset="1"/>
</linearGradient>
<linearGradient id="paint2_linear" x1="96.9996" y1="139.004" x2="125.696" y2="139.338" gradientUnits="userSpaceOnUse">
<stop stop-color="white"/>
<stop offset="1"/>
</linearGradient>
<linearGradient id="paint3_linear" x1="96.9996" y1="139.004" x2="125.696" y2="139.338" gradientUnits="userSpaceOnUse">
<stop/>
<stop offset="1"/>
</linearGradient>
</defs>
</svg>
