<svg width="720" height="721" viewBox="0 0 720 721" fill="none" xmlns="http://www.w3.org/2000/svg">
<rect width="720" height="720" fill="#5E38A8"/>
<path d="M157.708 720.225H719.708V162.225H713.708L596.208 622.725L157.708 720.225Z" fill="#8360CA"/>
<path fill-rule="evenodd" clip-rule="evenodd" d="M514.804 681.76C490.297 670.415 461.177 656.935 455.605 641.888C441.135 602.806 384.493 586.315 320.816 599.111C367.327 656.842 437.918 702.097 509.643 719.725C576.003 713.901 549.877 697.995 514.804 681.76Z" fill="#8360CA"/>
<path d="M157.708 720.225L354.222 719.725C429.956 719.725 480.039 719.725 509.643 719.725C437.918 702.097 367.327 656.842 320.816 599.111C308.97 601.491 296.881 604.886 284.774 609.336C207.589 637.712 140.545 673.871 157.708 720.225Z" fill="#8360CA"/>
<path fill-rule="evenodd" clip-rule="evenodd" d="M320.816 599.111C367.327 656.842 437.918 702.097 509.643 719.725C576.003 713.901 549.877 697.995 514.804 681.76C490.297 670.415 461.177 656.935 455.605 641.888C441.135 602.806 384.493 586.315 320.816 599.111Z" fill="#8360CA"/>
<path d="M612.763 720.225C649.178 715.786 674.129 721.46 690.708 719.018C709.192 716.295 717.268 703.482 719.221 655.315C720.739 617.879 718.559 559.086 714.691 467.076C714.691 303.671 714.195 218.422 714.691 162C568.156 162 265.192 284.47 265.192 447.875C265.192 505.338 286.637 556.685 320.816 599.111C384.493 586.315 441.135 602.806 455.605 641.888C461.177 656.935 490.297 670.415 514.804 681.76C549.877 697.995 576.003 713.901 509.643 719.725C534.806 719.725 587.881 720.225 612.763 720.225Z" fill="#8360CA"/>
<path d="M690.708 719.018H719.708L719.221 655.315C717.268 703.482 709.192 716.295 690.708 719.018Z" fill="#8360CA"/>
<g clip-path="url(#clip0)">
<path d="M300.414 671.916C295.825 672.449 291.014 671.116 287.048 668.271C293.063 650.982 294.845 645.871 300.86 628.582C302.776 623.116 304.692 617.606 305.716 611.828C307.009 604.717 306.919 597.295 306.875 590.006C306.608 561.606 307.499 467.695 307.231 439.295C307.187 436.895 307.187 434.451 307.989 432.273C310.306 426.051 326.791 427.162 332.806 427.429C334.142 427.473 343.9 428.717 344.88 429.74C346.038 430.895 355.84 430.184 355.929 431.917C357.132 454.317 342.919 499.162 341.004 522.762C340.38 530.584 333.83 580.362 332.716 588.095C330.756 601.74 325.9 615.784 319.929 627.693C310.751 646.004 309.37 650.316 300.414 671.916Z" fill="#F0E5D4"/>
<path d="M355.083 324.273C360.474 326.94 364.35 331.873 368.004 336.629C376.87 348.184 385.692 359.74 394.558 371.295C397.098 374.584 399.815 378.051 403.647 379.562C408.325 381.429 413.583 380.14 418.395 378.806C428.018 376.184 426.147 375.517 435.771 372.895C436.484 372.717 437.33 372.54 437.91 372.984C438.311 373.251 438.444 373.74 438.622 374.184C439.603 377.029 441.652 383.473 439.87 385.873C438.578 387.606 436.306 388.229 434.167 388.762C417.771 392.717 412.781 394.762 395.939 396.006C393.444 396.184 391.885 394.717 387.429 392.273C385.514 391.251 383.82 389.917 382.261 388.406C372.905 379.206 364.395 369.117 356.776 358.451C353.033 353.206 349.514 347.784 346.172 342.229C343.766 338.184 339.578 332.229 340.692 327.162C342.117 321.073 350.85 322.229 355.083 324.273Z" fill="#6D8497"/>
<path d="M343.855 286.184C343.365 278.406 339.978 271.117 336.503 264.139C333.741 258.495 330.711 252.717 325.676 248.895C324.696 248.139 323.582 247.428 322.335 247.339C321.266 247.25 320.196 247.561 319.216 247.917C309.592 251.028 299.79 254.228 291.37 259.784C290.746 260.184 290.122 260.672 289.855 261.339C289.632 261.961 289.766 262.628 289.855 263.295C293.775 282.761 302.196 308.495 321.756 313.339C331.246 308.761 329.553 312.272 339.399 308.539C336.77 303.384 344.211 291.961 343.855 286.184Z" fill="#E8DBCE"/>
<path d="M382.929 689.116C381.949 688.094 380.568 687.561 379.276 687.072C374.776 685.249 370.499 682.849 366.622 679.961C361.543 679.116 356.419 678.894 351.296 679.294C349.335 682.361 348.711 686.272 349.647 689.783C349.781 690.227 349.914 690.672 350.226 690.983C350.627 691.383 351.207 691.516 351.786 691.605C361.098 693.294 370.543 694.094 379.989 694.005C381.236 694.005 382.617 693.872 383.419 692.938C384.266 691.872 383.865 690.138 382.929 689.116Z" fill="#333333"/>
<path d="M310.527 687.559C310.037 686.27 308.968 685.337 307.943 684.359C304.513 681.115 301.483 677.381 298.943 673.381C294.622 670.804 290.033 668.759 285.221 667.337C282.325 669.426 280.364 672.759 279.963 676.315C279.919 676.759 279.874 677.204 280.052 677.604C280.275 678.092 280.765 678.448 281.255 678.715C289.097 683.559 297.428 687.648 306.027 690.937C307.141 691.381 308.478 691.781 309.503 691.204C310.795 690.537 311.062 688.848 310.527 687.559Z" fill="#333333"/>
<path d="M382.082 481.296C382.127 478.985 382.082 476.674 381.993 474.407V474.363C381.637 463.651 380.166 453.029 378.83 442.363C377.983 435.785 377.048 428.94 373.706 423.385C365.82 428.896 356.82 432.229 347.597 433.385C347.553 433.563 347.508 433.74 347.419 433.963C346.884 435.296 346.572 436.718 346.35 438.185C348.087 456.896 344.345 478.185 344.345 494.318C344.345 504.451 343.498 514.451 342.295 524.363C342.562 524.318 342.785 524.318 343.053 524.274C346.617 538.896 347.107 554.496 347.553 569.829C348.622 606.318 349.691 642.805 350.761 679.339C350.761 683.072 363.993 679.739 364.884 679.516C364.929 678.761 364.973 678.005 365.062 677.25C366.399 658.45 366.399 639.25 368.048 620.45C369.562 602.94 370.142 583.963 373.751 566.807C375.221 559.829 375.31 554.051 375.399 546.94C375.488 538.229 376.558 529.607 377.761 521.029C379.454 507.785 381.815 494.629 382.082 481.296Z" fill="#F0E5D4"/>
<path d="M389.968 556.14C390.013 544.629 388.543 533.029 387.741 521.562C386.939 510.051 389.657 481.073 387.563 469.74C382.572 442.54 376.691 444.584 379.632 431.429C387.964 394.184 363.102 343.695 339.355 319.251C332.493 321.295 325.231 321.651 317.924 321.695C317.746 322.184 317.612 322.718 317.478 323.295C310.795 358.051 308.211 422.184 307.32 435.162C305.582 460.629 296.716 476.362 293.285 500.229C292.216 507.695 290.701 515.518 289.453 523.295C286.958 531.473 283.483 540.318 282.637 549.295C282.057 550.451 281.612 551.784 281.345 553.162C278.449 557.651 278.939 565.073 283.84 567.784C284.909 568.362 285.978 568.54 287.048 568.451C287.226 568.54 287.359 568.629 287.538 568.718C304.914 576.229 323.761 581.162 342.162 580.273C343.32 580.229 344.345 579.962 345.28 579.562C350.627 579.962 355.929 580.184 361.365 580.362C368.137 580.54 377.226 582.451 383.33 578.229C386.939 575.695 388.142 570.318 387.563 565.384C389.033 562.94 389.924 559.873 389.968 556.14Z" fill="#6D8497"/>
<path d="M339.934 373.74C329.686 379.473 303.087 394.362 290.879 393.029C302.954 381.073 314.226 367.295 320.018 359.784C326.701 351.118 324.652 337.295 322.647 327.384C321.355 320.94 314.136 321.162 310.75 325.118C308.656 325.34 306.74 326.584 305.582 329.162C293.998 355.651 271.899 378.54 266.642 407.607C265.929 411.562 267.666 416.895 272.345 417.651C300.949 422.229 320.731 392.362 344.256 381.651C353.746 377.295 343.632 371.651 339.934 373.74Z" fill="#738797"/>
<path d="M349.38 357.383C348.89 355.205 347.776 353.294 345.459 352.139C344.256 351.516 342.43 352.45 342.341 353.872C342.162 357.25 342.029 360.627 341.851 363.961C341.539 363.783 341.227 363.605 340.915 363.427C339.133 362.361 337.306 364.672 337.885 366.316C338.865 369.161 340.736 370.805 342.474 373.161C343.32 374.316 344.39 374.405 345.236 373.961C346.172 374.761 347.642 374.983 348.667 373.739C349.157 373.116 349.291 372.494 349.157 371.916C350.761 366.939 351.919 361.783 349.38 357.383Z" fill="#E8DBCE"/>
<path d="M375.265 209.562C372.236 210.806 369.251 212.006 366.132 212.895C364.84 213.25 365.419 215.073 366.666 214.85C369.874 214.317 373.082 213.828 376.246 213.028C378.563 212.45 377.404 208.673 375.265 209.562Z" fill="#666666"/>
<path d="M351.34 194.318C350.627 192.807 348.087 193.563 348.221 195.207C348.355 196.585 348.934 197.918 349.379 199.252C349.869 200.629 350.27 202.318 351.162 203.518C351.607 204.096 352.81 204.229 352.944 203.252C353.122 201.829 352.721 200.363 352.454 198.985C352.186 197.385 352.008 195.741 351.34 194.318Z" fill="#666666"/>
<path d="M364.216 195.828C363.102 197.206 362.345 198.806 361.543 200.361C360.83 201.739 360.028 203.117 359.894 204.717C359.805 205.472 360.785 205.917 361.365 205.561C362.523 204.806 363.236 203.65 364.038 202.539C365.063 201.028 366.266 199.561 366.978 197.872C367.647 196.184 365.553 194.228 364.216 195.828Z" fill="#666666"/>
<path d="M519.712 682.226C519.756 681.648 519.846 681.026 520.157 680.537C520.959 679.071 523.766 679.737 525.237 679.648C527.108 679.471 528.935 679.159 530.806 678.804C531.964 678.582 541.588 676.182 541.9 676.893C541.41 675.826 542.435 674.671 542.747 673.293C546.044 672.226 549.875 673.604 553.885 673.159C553.796 675.115 555.266 676.804 556.113 678.448C556.514 679.204 557.004 680.048 556.826 680.893C556.603 681.915 555.177 683.337 554.598 684.182C554.375 684.493 554.152 684.848 553.841 685.071C553.44 685.382 552.95 685.515 552.504 685.648C550.722 686.093 548.806 686.182 546.935 686.004C545.91 685.915 543.816 684.893 545.375 683.604C537.311 683.471 529.425 688.093 521.539 685.16C520.826 684.893 520.157 684.36 519.89 683.648C519.667 683.115 519.667 682.671 519.712 682.226Z" fill="#662E2A"/>
<path d="M509.865 499.295C509.865 498.006 521.226 498.628 521.761 499.828C530.85 500.05 539.939 500.318 548.984 500.54C551.033 500.584 553.261 500.717 554.865 502.006C557.048 503.784 568.81 507.251 568.721 510.051C567.474 565.34 554.553 620.362 553.261 675.649C549.518 675.649 545.82 675.649 542.078 675.649C541.989 657.96 532.187 640.715 528.801 623.337C520.959 583.117 509.286 540.318 509.865 499.295Z" fill="#333333"/>
<path d="M581.775 493.384C582.711 492.317 584.27 492.051 585.696 491.829C592.157 490.895 600.221 490.629 603.562 496.184C604.721 498.14 603.34 503.74 605.345 502.673C663.756 471.606 612.473 556.229 616.038 583.029C616.973 589.917 617.909 596.895 620.226 603.473C622.142 608.806 624.949 613.784 627.756 618.717C636.622 634.316 645.488 649.916 654.355 665.471C650.434 668.627 645.444 670.449 640.364 670.493C635.686 661.871 629.137 660.005 600.132 632.849C590.464 623.782 580.261 602.629 576.251 590.006C573.978 582.851 571.84 529.651 571.216 522.184C569.478 500.94 568.944 515.029 567.251 493.784C567.117 492.184 580.706 494.629 581.775 493.384Z" fill="#333333"/>
<path d="M677.166 194.406C676.231 190.628 674.27 186.762 675.473 183.073C676.008 183.162 676.498 183.251 677.033 183.34C677.345 184.095 677.701 184.806 678.013 185.562C678.013 183.606 678.325 181.606 678.904 179.74C679.483 177.917 680.864 175.873 682.825 176.006C684.741 176.14 685.81 178.228 686.345 180.051C688.706 188.495 687.592 197.428 686.478 206.14C683.36 206.317 680.196 206.006 677.166 205.251C678.058 201.695 678.058 197.962 677.166 194.406Z" fill="#E8DBCE"/>
<path d="M619.647 342.229C605.701 349.029 587.033 309.473 604.676 301.384C620.671 294.051 647.449 293.207 661.751 281.873C668.612 276.451 672.845 268.673 673.602 259.296C675.117 240.673 676.186 222.007 676.765 203.384C680.775 203.207 684.785 203.029 688.751 202.851C690.978 225.962 693.206 249.118 695.434 272.229C695.879 276.673 696.28 281.296 695.033 285.696C693.83 289.918 691.201 293.429 688.439 296.673C670.394 317.918 641.835 331.384 619.647 342.229Z" fill="#E8DBCE"/>
<path d="M623.078 685.915C623.256 684.138 626.286 683.56 627.667 682.804C629.449 681.826 631.143 680.715 632.791 679.56C633.816 678.849 642.281 672.271 642.905 672.804C641.969 671.96 641.791 670.982 640.276 669.871C643.083 667.382 648.786 664.849 652.529 662.671C653.331 664.626 656.048 666.893 657.563 668.138C658.276 668.715 659.167 669.338 659.346 670.226C659.568 671.338 658.811 673.338 658.588 674.449C658.499 674.849 658.454 675.293 658.232 675.649C658.009 676.138 657.563 676.449 657.162 676.804C655.558 678.004 653.732 678.938 651.86 679.56C650.836 679.915 648.296 679.826 649.232 677.871C641.256 681.249 635.464 689.204 626.375 689.782C625.529 689.827 624.638 689.604 624.058 688.982C623.747 688.626 623.524 688.182 623.39 687.693C623.167 687.16 622.989 686.538 623.078 685.915Z" fill="#662E2A"/>
<path d="M453.147 207.34C453.503 207.073 453.993 207.029 454.394 207.118C454.171 205.607 455.642 204.185 457.201 204.096C458.761 204.007 460.186 204.94 461.122 206.185C462.058 207.429 462.503 208.896 462.993 210.362C463.572 212.229 464.196 214.096 464.775 215.962C465.399 215.429 465.845 214.673 465.934 213.829C466.468 213.518 467.226 213.829 467.582 214.318C467.939 214.807 468.072 215.473 468.161 216.096C468.741 219.873 469.32 223.651 469.899 227.474C468.473 228.14 467.137 228.94 465.666 229.34C464.196 229.785 462.459 229.785 461.166 228.985C459.34 227.874 458.805 225.562 458.226 223.518C457.558 221.118 456.622 218.762 455.508 216.496C454.038 213.651 452.166 210.451 453.147 207.34Z" fill="#E8DBCE"/>
<path d="M470.121 226.449C474.131 242.671 478.542 258.805 483.354 274.849C485.76 282.894 490.839 288.938 497.745 292.449C512.136 299.738 527.552 301.249 542.612 304.76C559.23 308.627 555.889 325.56 542.522 328.094C521.092 332.183 497.121 325.56 477.651 310.271C474.711 307.96 471.815 305.338 469.988 301.871C468.117 298.271 467.582 294.138 467.136 290.183C464.686 269.516 462.235 248.849 459.829 228.183C463.171 227.605 466.646 227.027 470.121 226.449Z" fill="#E8DBCE"/>
<path d="M504.34 330.895C510.845 336.228 517.528 341.561 524.434 346.495C515.791 399.472 509.018 453.383 507.325 507.117C507.058 516.317 515.033 522.895 523.632 523.383C539.538 524.272 555.4 523.961 571.261 522.228C579.37 521.339 587.523 520.228 595.543 518.761C598.35 518.228 600.934 517.695 603.296 516.983C603.563 516.983 603.83 516.983 604.098 516.939C617.241 516.183 629.449 514.45 642.325 511.961C653.375 509.783 652.35 496.006 644.776 491.25C644.687 488.317 643.974 485.339 642.548 482.45C643.929 451.872 644.553 421.339 640.142 391.028C640.008 387.428 639.741 383.872 639.34 380.317C638.226 370.094 636.043 360.05 633.281 350.183C636.711 346.628 640.365 343.383 643.796 339.828C647.672 335.828 652.083 333.117 656.315 329.561C657.251 328.761 658.008 327.872 658.499 326.983C658.499 326.983 689.33 298.406 697.173 287.25C705.014 276.05 690.132 200.85 690.132 200.85L674.627 201.828L672.622 213.606C672.622 213.606 669.102 250.717 664.781 268.45C660.459 286.228 630.34 290.761 630.34 290.761C628.424 291.072 626.508 291.428 624.504 291.739C620.672 292.361 616.751 292.672 612.875 292.85C611.716 292.895 610.513 292.895 609.355 292.939C591.4 298.494 572.464 299.872 554.197 295.917C553.617 296.539 553.083 297.161 552.593 297.828C551.345 297.428 549.964 297.25 548.36 297.428C543.058 297.961 537.622 297.917 532.187 297.65C529.246 296.983 526.35 296.317 523.409 295.606C519.979 294.806 515.122 294.939 512.048 293.383C512.048 293.383 493.781 289.25 488.033 275.739C482.286 262.183 472.127 226.539 472.127 226.539L457.246 228.628L465.355 295.517C465.533 295.428 460.989 302.539 504.34 330.895Z" fill="#C0CCCB"/>
<path d="M526.439 347.784C524.389 350.273 522.028 352.628 520.602 355.517C519.577 357.606 518.998 359.917 518.508 362.184C515.879 374.184 514.32 386.406 512.716 398.628C509.865 420.673 507.013 442.717 504.206 464.762C502.112 480.85 500.063 497.339 503.716 513.117C504.028 514.406 504.384 515.784 505.454 516.628C506.657 517.606 508.305 517.562 509.865 517.473C533.478 516.317 557.137 515.117 580.751 513.962C595.721 513.206 610.825 512.45 625.305 508.762C632.256 506.984 639.652 503.962 642.77 497.562C644.374 494.273 644.553 490.495 644.731 486.806C645.31 474.584 645.845 462.406 646.424 450.184C647.27 431.695 648.117 413.073 645.577 394.762C643.795 382.095 640.454 369.739 637.068 357.428C636.533 355.428 635.954 353.339 634.662 351.65C633.503 350.139 631.81 349.073 630.206 347.962C614.077 337.073 601.869 320.539 596.211 301.917C595.766 300.45 595.32 298.895 594.384 297.65C591.31 293.695 585.117 295.028 580.394 296.717C580.394 303.606 574.914 310.05 568.142 311.206C560.79 312.45 554.82 307.784 551.835 301.517C548.27 294.006 543.726 296.05 541.988 304.006C538.558 319.873 537.355 334.584 526.439 347.784Z" fill="#998675"/>
<path d="M330.399 327.474C329.686 327.474 329.152 327.74 328.795 328.185C328.84 327.385 328.305 326.54 327.28 326.54C327.236 326.54 327.236 326.54 327.191 326.54C327.503 325.34 326.835 323.874 325.231 323.874C325.053 323.874 324.963 323.918 324.785 323.963C325.142 323.029 324.607 321.785 323.226 321.607C323.181 321.607 323.137 321.607 323.137 321.607C323.137 321.607 323.137 321.607 323.092 321.607C323.315 320.363 322.647 318.94 321.043 318.94C318.191 318.94 318.191 323.34 321.043 323.34C321.221 323.34 321.31 323.296 321.444 323.252C321.399 324.229 321.978 325.252 323.137 325.074C323.181 325.074 323.226 325.074 323.226 325.074C323.27 325.074 323.315 325.029 323.404 325.029C322.825 326.274 323.449 328.096 325.231 328.096C325.454 328.096 325.587 328.052 325.765 328.007C325.721 328.852 326.211 329.696 327.28 329.696C327.726 329.696 328.082 329.518 328.35 329.252C328.127 330.496 328.795 331.874 330.399 331.874C333.251 331.918 333.251 327.474 330.399 327.474Z" fill="#F0F0F0"/>
<path d="M341.137 326.718C339.89 326.718 339.311 327.652 339.266 328.585C339.043 328.54 338.865 328.452 338.642 328.452C337.617 328.452 336.994 328.94 336.593 329.607C336.236 329.029 335.657 328.629 334.766 328.629C331.781 328.629 331.781 333.252 334.766 333.252C335.657 333.252 336.236 332.852 336.593 332.274C336.994 332.94 337.617 333.429 338.642 333.429C340.424 333.429 341.182 331.874 341.004 330.54C341.048 330.54 341.093 330.585 341.137 330.585C343.677 330.585 343.677 326.718 341.137 326.718Z" fill="#F0F0F0"/>
<path d="M341.137 326.54C342.874 326.54 342.874 323.874 341.137 323.874C339.399 323.829 339.399 326.54 341.137 326.54Z" fill="#F0F0F0"/>
<path d="M339.667 319.828C338.018 320.672 338.33 323.694 340.603 323.694C343.142 323.694 343.231 319.872 340.781 319.65C342.429 318.805 342.117 315.783 339.845 315.783C337.305 315.783 337.216 319.605 339.667 319.828Z" fill="#F0F0F0"/>
<path d="M447.043 370.717C447.622 370.495 448.38 370.317 448.825 370.717C449.003 370.895 449.137 371.161 449.315 371.339C449.984 372.05 451.187 371.739 452.122 371.472C453.682 370.984 455.286 370.717 456.89 370.717C457.513 370.717 458.182 370.717 458.761 371.028C459.919 371.561 460.454 372.939 460.81 374.184C461.301 375.828 461.702 377.739 460.81 379.206C460.053 380.406 458.583 380.984 457.246 381.428C452.345 382.939 447.221 383.606 442.098 384.228C441.429 384.317 440.716 384.361 440.226 384.006C439.914 383.784 439.736 383.428 439.558 383.072C438.622 381.072 436.796 377.072 438.756 375.339C441.028 373.25 444.147 371.784 447.043 370.717Z" fill="#E8DBCE"/>
<path d="M535.082 298.006C524.701 314.406 501.399 325.562 483.087 330.095C473.998 332.362 464.419 332.317 455.686 335.917C448.424 338.895 442.498 343.562 437.464 349.517C436.974 350.095 437.775 350.895 438.266 350.317C446.464 341.206 456.533 336.228 468.563 334.45C478.409 332.984 487.721 331.517 497.033 327.784C511.736 321.828 528.622 313.117 536.954 299.073C537.622 297.917 535.84 296.85 535.082 298.006Z" fill="#F4F4F4"/>
<path d="M438.311 348.228C418.216 360.094 394.736 329.25 383.419 316.272C372.459 303.694 360.518 291.472 343.989 286.894C342.652 286.539 342.073 288.583 343.41 288.983C366.177 295.828 378.964 316.183 394.692 332.317C404.538 342.405 424.142 359.694 438.89 349.205C439.469 348.805 438.934 347.872 438.311 348.228Z" fill="#F4F4F4"/>
<path d="M366.845 302.317C364.617 299.739 361.365 298.317 359.984 295.117C358.513 291.694 357.622 287.028 356.865 283.428C354.726 273.117 351.608 263.428 347.553 253.694C347.375 253.339 347.241 252.983 347.063 252.628C349.202 247.828 348.31 241.917 342.83 238.094C341.405 237.117 339.355 236.272 336.771 235.606C334.81 234.406 331.959 233.828 329.286 234.05C329.018 234.094 328.751 234.139 328.484 234.139C308.434 231.961 277.291 236.539 278.761 252.539C278.137 253.25 277.736 254.006 277.558 254.85C277.157 257.339 277.825 258.894 279.162 259.828C278.271 261.561 277.736 263.428 277.558 265.339C276.578 266.539 275.776 267.917 275.152 269.65C272.791 276.45 274.038 283.872 276.132 290.539C278.048 296.672 281.434 302.317 281.523 308.85C281.657 316.094 276.667 317.072 270.474 318.628C258.177 321.694 251.226 328.806 251.003 342.006C250.914 348.094 252.563 354.672 256.35 359.517C260.048 364.228 266.286 370.05 271.81 372.406C274.216 373.428 276.8 373.383 279.073 372.672C289.543 374.45 300.414 372.45 307.365 363.561C308.256 362.406 309.013 361.161 309.637 359.872C312.355 357.472 314.405 354.139 315.251 349.739C317.078 340.139 310.261 332.361 301.573 331.339C300.459 329.872 299.078 328.672 297.474 327.739C302.82 323.828 307.632 320.139 309.771 313.472C314.137 299.65 306.117 284.272 295.291 275.917C294.088 274.983 294.444 274.183 293.196 273.961C293.107 273.65 293.018 273.294 292.929 272.983C298.187 271.917 296.895 264.85 294.177 260.539C295.558 258.85 297.251 257.694 299.167 256.806C301.306 256.894 303.444 257.206 304.87 257.383C308.791 257.961 312.533 258.406 316.543 258.717C321.622 259.117 326.969 260.494 332.182 260.583C332.315 260.761 332.449 260.894 332.538 261.072C332.806 261.428 333.117 261.694 333.429 261.872C335.969 267.517 337.885 273.294 339.578 279.294C340.781 283.561 341.182 287.783 341.806 292.006C339.711 293.028 338.108 295.072 337.885 298.406C337.395 305.961 338.642 314.183 342.563 320.761C343.543 322.406 345.236 323.917 345.994 325.65C346.172 326.094 346.439 326.183 346.662 326.183C346.395 326.361 345.994 326.672 345.325 327.294C342.741 329.65 340.647 331.383 339.934 335.028C336.949 351.028 357.4 354.983 366.266 344.672C375.043 334.628 375.533 312.45 366.845 302.317Z" fill="#EDEAE8"/>
<path d="M338.152 270.674C333.874 269.34 328.127 270.984 325.855 274.984C325.81 275.073 325.81 275.118 325.765 275.207C323.761 275.74 321.711 276.407 319.662 276.762C317.434 273.962 313.29 272.896 310.127 274.496C305.315 275.652 301.171 279.251 300.459 284.451C299.567 290.851 308.612 292.584 313.379 291.384C318.86 290.007 323.181 283.696 320.597 278.184C320.553 278.14 320.508 278.096 320.508 278.007C322.468 277.34 324.563 276.896 326.567 276.362C328.394 282.762 340.78 286.229 343.231 278.984C344.478 275.296 341.582 271.74 338.152 270.674ZM311.419 290.14C306.384 290.673 300.058 288.051 302.731 282.14C303.8 279.784 305.716 277.918 308.033 276.762C308.211 277.207 308.79 277.518 309.28 277.073C312.934 273.962 319.261 276.051 319.617 281.118C319.973 285.873 315.964 289.651 311.419 290.14ZM341.671 278.184C340.067 284.273 326.746 280.94 327.77 275.073V275.029C329.775 273.296 331.914 272.007 334.765 271.874C338.285 271.785 342.741 274.096 341.671 278.184Z" fill="#414141"/>
<path d="M582.221 249.16C586.008 255.294 586.855 262.76 587.478 269.96C588.28 278.894 588.904 288.049 586.186 296.627C584.181 302.938 584.939 301.116 572.152 308.76C560.033 308.716 572.107 307.738 560.033 308.716C515.835 300.094 533.924 272.316 537.8 249.827C537.934 249.072 538.067 248.316 538.602 247.738C539.181 247.116 540.028 246.894 540.874 246.716C552.236 244.227 564.043 244.849 575.627 245.472C576.874 245.516 578.122 245.605 579.236 246.138C580.528 246.76 581.464 247.96 582.221 249.16Z" fill="#E8DBCE"/>
<path d="M530.582 234.229C532.81 232.673 534.592 233.651 536.374 234.851C536.642 234.806 536.909 234.718 537.221 234.718C538.335 234.673 539.315 235.029 540.162 235.562C544.082 234.095 548.36 233.251 552.592 233.118C554.241 231.473 555.889 229.962 558.251 229.606C560.523 229.251 562.751 230.406 564.756 232.051C567.162 227.74 571.216 225.251 576.34 228.984C577.498 229.829 578.256 230.673 578.746 231.518C579.37 231.873 579.949 232.273 580.573 232.673C581.776 232.54 582.978 232.673 584.226 233.162C587.701 234.451 589.483 237.74 588.815 241.251C589.305 242.362 589.573 243.518 589.573 244.629C589.974 245.518 590.33 246.451 590.686 247.384C590.998 247.651 591.266 247.918 591.533 248.184C592.379 248.362 593.137 248.718 593.894 249.206C596.478 250.273 597.637 253.429 597.414 256.451C597.503 257.74 597.37 258.984 596.835 259.829C596.568 260.229 596.3 260.54 595.988 260.806C595.186 262.051 593.983 262.984 592.469 263.251C592.335 264.14 592.157 265.029 591.934 265.873C592.87 271.251 592.023 276.495 589.305 281.784C589.261 281.918 589.216 282.051 589.127 282.184C589.127 282.184 589.127 282.184 589.082 282.184C588.993 282.406 588.904 282.584 588.771 282.806C587.389 285.295 583.112 282.984 584.315 280.362C586.053 276.629 587.746 266.851 581.107 268.895C577.231 270.095 577.008 273.073 575.315 276.851C574.157 279.429 570.191 278.584 570.459 275.695C570.771 271.829 571.261 268.051 572.508 264.362C572.82 263.518 573.087 262.718 573.355 261.962C573.087 261.918 572.865 261.829 572.597 261.695C569.657 259.962 568.008 256.895 566.85 253.562C566.761 253.518 566.716 253.473 566.627 253.429C566.493 253.784 566.36 254.095 566.226 254.451C565.558 256.006 563.33 256.54 562.216 255.073C561.013 253.473 560.122 252.051 559.454 250.495C557.404 251.918 554.909 252.14 553.528 250.14C550.988 250.94 548.538 250.54 545.419 249.829C543.904 249.473 542.033 249.073 540.073 248.54C539.582 248.718 539.048 248.895 538.558 249.029C536.419 249.695 534.147 248.006 533.835 246.14C532.008 245.118 530.493 243.829 529.647 242.14C528.444 239.873 528.043 236.006 530.582 234.229Z" fill="#EBEBEB"/>
<path d="M454.572 399.918C454.528 399.473 453.77 399.562 453.815 400.007C455.107 412.051 456.577 424.896 453.102 436.718C449.538 448.851 438.132 447.607 430.78 440.229C425.211 434.629 422.538 426.896 421.959 419.162C420.176 394.585 436.795 373.429 438.934 349.74C439.023 348.94 437.731 348.94 437.686 349.74C437.196 359.829 432.251 371.162 428.775 380.54C425.79 388.673 422.538 396.762 420.845 405.296C418.26 418.318 419.553 433.34 430.067 442.718C436.216 448.14 447.444 452.585 452.478 443.651C459.652 430.985 456.533 413.473 454.572 399.918Z" fill="#F4F4F4"/>
<path d="M455.865 401.072C455.821 400.939 455.776 400.761 455.732 400.628C455.643 400.139 455.554 399.65 455.42 399.206C455.375 398.939 455.331 398.628 455.375 398.361C455.464 397.828 455.019 397.428 454.529 397.561C454.44 397.472 454.395 397.384 454.306 397.339C452.568 395.961 451.588 398.228 451.989 399.695C451.989 399.695 452.034 399.695 452.034 399.739C451.989 400.495 451.989 401.25 452.078 402.006C452.167 402.895 452.123 404.317 452.791 404.984C454.039 406.184 455.776 405.028 455.91 403.561C455.955 403.072 455.955 402.45 455.91 401.739C455.91 401.517 455.955 401.295 455.865 401.072Z" fill="#F4F4F4"/>
<path d="M446.954 364.627C446.598 362.272 446.241 359.694 447.132 357.65C448.157 355.294 450.518 354.494 452.657 354.139C455.107 353.694 457.603 353.516 460.098 353.605C461.167 353.65 463.662 353.65 464.553 354.405C465.845 355.516 465.756 357.65 465.934 359.561C466.825 371.161 467.984 380.805 468.251 391.427C468.296 392.894 468.251 394.583 467.405 395.561C466.87 396.183 466.112 396.405 465.4 396.539C461.479 397.383 449.627 400.227 448.959 392.627C448.157 383.25 448.335 374.005 446.954 364.627Z" fill="#3D3D3D"/>
<path d="M447.978 362.272C447.978 361.384 448.023 360.406 448.424 359.695C448.914 358.895 449.805 358.628 450.607 358.495C453.949 357.828 457.379 357.561 460.765 357.295C461.3 357.25 462.681 357.161 463.171 357.472C463.483 357.65 464.107 357.961 464.33 358.317C465.132 359.561 464.775 361.161 465.087 362.717C465.355 364.095 465.176 365.517 465.355 366.895C465.533 368.406 465.577 369.917 465.711 371.472C465.845 373.739 466.067 375.961 466.335 378.228C466.513 379.828 466.647 381.472 466.914 383.073C467.048 383.828 467.048 384.628 466.825 385.339C466.513 386.317 465.8 386.717 464.998 386.939C463.394 387.339 461.746 387.428 460.142 387.561C457.736 387.695 455.285 387.873 452.879 388.006C452.033 388.05 450.251 388.45 449.761 387.161C449.493 386.45 449.627 385.295 449.582 384.539C449.538 383.517 449.449 382.45 449.36 381.428C449.048 377.339 448.558 373.25 448.29 369.161C448.067 366.806 447.978 364.539 447.978 362.272Z" fill="white"/>
<path d="M458.36 355.605C458.092 355.561 457.78 355.605 457.513 355.605C456.845 355.65 456.221 355.739 455.553 355.783C455.196 355.827 454.706 355.916 454.662 356.094C454.617 356.183 454.751 356.316 454.884 356.361C455.463 356.627 458.716 356.539 458.85 355.916C458.85 355.783 458.627 355.65 458.36 355.605Z" fill="#5E625E"/>
<path d="M454.305 355.961C454.216 355.828 454.038 355.828 453.904 355.872C453.77 355.961 453.681 356.139 453.681 356.272C453.681 356.406 453.681 356.495 453.726 356.583C453.86 356.761 454.127 356.806 454.261 356.628C454.394 356.45 454.439 356.183 454.35 356.006L454.305 355.961Z" fill="#5E625E"/>
<path d="M457.647 390.94C457.335 391.251 457.201 391.696 457.112 392.14C457.067 392.362 457.067 392.584 457.112 392.807C457.201 393.34 457.558 393.784 458.048 394.051C458.493 394.273 459.028 394.318 459.473 394.185C459.607 394.14 459.741 394.096 459.83 394.051C459.963 393.962 460.053 393.829 460.097 393.651C460.364 393.073 460.409 392.407 460.186 391.829C459.83 390.762 458.449 390.096 457.647 390.94Z" fill="#EBEFEB"/>
<path d="M461.702 371.874C461.479 370.585 461.39 368.94 460.855 367.785C460.543 367.118 460.098 367.074 459.429 367.163C457.959 367.296 456.489 367.652 455.107 368.007C454.707 368.096 454.573 368.496 454.617 368.896C454.751 369.74 454.84 370.629 454.929 371.474C454.929 371.74 454.885 372.407 454.885 373.029C454.751 372.985 454.617 372.985 454.528 373.029C453.637 372.985 452.746 373.874 453.325 374.94C453.726 375.696 454.439 375.74 454.974 375.474C456.533 375.385 456.533 372.807 456.31 370.852C457.513 370.674 458.716 370.629 459.875 370.496C459.919 370.496 459.964 370.496 459.964 370.452C460.008 370.674 460.008 370.896 460.053 371.074C460.098 371.429 460.187 371.74 460.231 372.096C460.231 372.14 460.231 372.185 460.276 372.274C459.652 372.229 458.984 372.629 458.895 373.474C458.761 374.985 460.855 375.652 461.657 374.407C462.058 373.607 461.835 372.674 461.702 371.874ZM456.177 369.874C456.132 369.652 456.132 369.385 456.088 369.207C456.578 369.118 457.023 368.985 457.513 368.896C457.87 368.852 458.182 368.763 458.538 368.718C459.028 368.674 459.34 368.496 459.652 368.896C458.405 369.118 457.291 369.518 456.177 369.874Z" fill="#D9924E"/>
<path d="M457.246 382.14C457.068 382.095 456.889 382.273 456.845 382.451C456.8 382.495 456.756 382.54 456.756 382.584C456.756 383.384 456.845 384.184 457.068 384.984C457.112 385.206 457.424 385.206 457.558 385.073C457.87 384.762 458.226 384.495 458.582 384.229C458.894 384.051 459.162 383.873 459.384 383.562C459.518 383.384 459.473 383.162 459.251 383.073C458.672 382.629 458.003 382.362 457.246 382.14Z" fill="#828282"/>
<path d="M453.681 382.717C453.636 383.561 453.636 384.406 453.77 385.25C453.859 385.694 454.527 385.561 454.394 385.117C454.171 384.361 454.037 383.561 453.993 382.761C453.993 382.539 453.681 382.539 453.681 382.717Z" fill="#828282"/>
<path d="M452.434 382.805C452.523 383.827 452.79 384.76 453.058 385.738C453.102 385.916 453.369 385.827 453.369 385.649C453.147 384.716 453.147 383.694 453.102 382.716C453.102 382.316 452.434 382.405 452.434 382.805Z" fill="#828282"/>
<path d="M463.929 382.628C463.885 382.228 463.84 381.783 463.35 381.828C463.038 381.828 462.726 381.917 462.415 381.961C462.236 382.006 461.969 382.006 461.791 382.094C461.39 382.361 461.613 382.983 461.702 383.339C461.702 383.339 461.702 383.339 461.702 383.383C461.702 383.65 461.746 383.872 461.791 384.139C461.924 384.672 462.103 384.761 462.637 384.672C463.038 384.628 463.707 384.583 463.929 384.183C464.197 383.783 463.974 383.028 463.929 382.628Z" fill="#828282"/>
<path d="M374.73 434.006C375.443 433.918 376.201 433.873 376.914 434.095C379.765 434.984 379.855 439.473 379.409 442.806C357.666 448.851 335.121 445.429 313.201 442.006C308.745 441.295 300.548 436.362 307.765 431.74C313.201 428.229 322.112 432.229 327.815 433.029C343.319 435.206 359.092 435.518 374.73 434.006Z" fill="#8EACC4"/>
</g>
<defs>
<clipPath id="clip0">
<rect width="450" height="520" fill="white" transform="translate(251 176)"/>
</clipPath>
</defs>
</svg>
