<svg width="720" height="720" viewBox="0 0 720 720" fill="none" xmlns="http://www.w3.org/2000/svg">
<rect width="720" height="720" fill="#5E38A8"/>
<path d="M720 471.5C732.5 787.5 744.496 725.5 596 725.5C447.504 725.5 271.78 611.501 271.78 448.016C271.78 284.53 571.504 162 720 162C720 217.5 720 308.015 720 471.5Z" fill="#8360CA"/>
<path d="M464.74 642.125C482.132 688.502 726.5 725.5 362.5 725.5C279 718 271.78 725.5 165 725.5C147.608 679.123 213.406 637.947 291.623 609.557C369.841 581.167 447.348 595.749 464.74 642.125Z" fill="#8360CA"/>
<g clip-path="url(#clip0)">
<path d="M451.354 687.926C464.703 688.362 478.003 688.12 491.304 687.926C528.487 687.296 565.669 686.665 602.852 686.035C608.628 685.938 616.104 684.774 616.493 680.652C616.881 676.967 611.007 674.591 606.008 673.524C588.193 669.596 569.504 668.821 551.01 668.142C523.827 667.172 496.594 666.348 469.362 665.717C452.373 665.329 434.898 665.038 419.074 669.112C410.433 671.342 397.667 680.798 411.404 685.404C415.19 686.665 422.908 686.083 426.986 686.423C435.141 687.102 443.247 687.683 451.354 687.926Z" fill="url(#paint0_linear)"/>
<path d="M451.354 687.926C464.703 688.362 478.003 688.12 491.304 687.926C528.487 687.296 565.669 686.665 602.852 686.035C608.628 685.938 616.104 684.774 616.493 680.652C616.881 676.967 611.007 674.591 606.008 673.524C588.193 669.596 569.504 668.821 551.01 668.142C523.827 667.172 496.594 666.348 469.362 665.717C452.373 665.329 434.898 665.038 419.074 669.112C410.433 671.342 397.667 680.798 411.404 685.404C415.19 686.665 422.908 686.083 426.986 686.423C435.141 687.102 443.247 687.683 451.354 687.926Z" fill="url(#paint1_linear)"/>
<path d="M415.384 413.033C415.869 414.149 415.578 415.506 414.947 416.525C414.316 417.592 413.442 418.464 412.617 419.386C410.675 421.665 409.316 424.38 407.471 426.659C406.937 427.29 406.306 427.92 405.481 427.92C404.753 427.92 404.122 427.387 403.394 427.435C402.52 427.484 401.889 428.259 401.258 428.841C399.705 430.296 397.375 430.878 395.287 430.248C393.249 429.666 391.55 427.92 391.064 425.835C390.239 422.635 392.181 419.289 394.608 417.058C397.035 414.828 400.044 413.227 402.423 410.9C403.345 410.027 404.122 409.009 405.093 408.233C406.064 407.409 407.277 406.827 408.539 406.827C410.481 406.827 411.015 408.281 411.986 409.591C412.957 410.851 414.704 411.53 415.384 413.033Z" fill="#F9E9DE"/>
<path d="M419.802 394.752C436.937 365.464 448.344 332.83 453.198 299.274C453.732 295.735 454.17 292.098 455.674 288.849C457.179 285.6 459.995 282.739 463.538 282.109C467.81 281.381 472.032 284.194 474.265 287.879C476.45 291.564 477.032 296.026 477.226 300.341C478.391 321.968 472.518 343.692 462.033 362.7C451.548 381.66 436.548 397.953 419.462 411.288C417.763 412.597 415.87 413.955 413.734 413.712C408.977 413.179 408.2 408.427 410.287 405.711C413.297 401.784 417.18 399.262 419.802 394.752Z" fill="#965E59"/>
<path d="M479.557 662.758C483.198 661.692 486.935 660.722 490.625 659.946C492.663 659.509 494.751 659.073 496.401 657.861C498.052 656.649 499.119 654.321 498.246 652.478C502.08 651.993 505.964 651.702 509.847 651.508C510.769 651.46 511.838 651.461 512.566 652.042C513.197 652.527 513.439 653.352 513.633 654.079C515.187 659.607 516.255 665.233 516.788 670.955C516.837 671.391 516.837 671.876 516.546 672.167C516.352 672.361 516.012 672.409 515.721 672.458C502.129 674.591 488.44 675.852 474.654 676.337C470.334 676.483 464.413 676.87 467.131 670.809C469.267 666.106 474.994 664.069 479.557 662.758Z" fill="#3D322B"/>
<path d="M557.271 650.055C555.086 650.297 552.562 650.782 551.689 652.479C550.815 654.225 552.271 656.213 551.737 658.007C551.494 658.88 550.815 659.656 550.038 660.335C547.514 662.468 544.116 663.681 540.718 664.7C537.369 665.718 533.874 666.688 531.01 668.482C528.146 670.276 525.961 673.186 526.301 676.192C541.592 676.483 556.883 675.513 571.979 673.379C572.513 673.283 573.095 673.186 573.484 672.895C573.872 672.555 573.97 672.022 574.018 671.488C574.358 665.815 571.348 660.576 570.134 655.146C569.746 653.4 570.377 649.812 568.29 648.939C566.203 648.018 559.649 649.764 557.271 650.055Z" fill="#3D322B"/>
<path d="M537.66 430.829C538.922 426.223 539.893 421.325 537.757 416.961C535.33 412.015 529.408 408.669 523.583 405.857C516.253 402.365 508.341 399.213 499.749 398.68C490.235 398.098 477.274 401.589 474.653 409.396C471.012 420.355 472.372 433.739 471.158 445.085C468.391 470.155 465.139 495.273 465.382 520.44C465.527 534.551 466.74 548.661 469.75 562.578C472.226 574.07 475.915 585.417 479.604 596.764C482.76 606.511 485.963 616.257 489.119 626.004C488.876 627.264 488.73 628.622 488.779 629.398C488.924 632.889 492.856 635.799 491.934 639.145C491.643 640.163 490.963 640.987 490.478 641.957C489.992 642.878 489.701 644.091 490.235 644.964C490.818 645.933 492.128 646.224 492.807 647.097C493.535 648.067 493.293 649.376 492.905 650.491C492.517 651.607 491.983 652.722 492.128 653.886C496.497 656.601 502.031 656.165 507.176 655.68C510.283 655.389 513.34 655.098 516.447 654.807C517.272 654.71 518.195 654.613 518.826 654.08C519.845 653.207 519.797 651.558 519.311 650.298C518.778 649.037 517.952 647.921 517.613 646.612C516.836 643.46 519.214 639.727 517.321 637.108C516.884 636.478 516.205 635.993 515.816 635.314C515.04 633.956 515.574 632.307 515.671 630.804C515.865 627.846 514.506 625.034 513.147 622.415C512.953 622.028 512.758 621.64 512.37 621.397C512.273 621.349 512.127 621.3 511.982 621.3C507.71 592.254 498.439 563.402 501.691 534.357C505.623 498.716 528.195 465.888 537.66 430.829Z" fill="#662E2A"/>
<path d="M571.543 429.762C571.737 427.677 571.737 425.495 571.057 423.506C570.232 421.13 568.485 419.239 566.543 417.639C559.407 411.917 549.554 410.414 540.525 411.917C534.166 412.984 524.166 415.215 519.797 420.548C515.914 425.301 516.4 433.835 515.769 439.508C513.536 460.165 512.031 480.968 511.206 501.722C510.866 510.402 510.672 519.178 511.837 527.761C512.904 535.568 515.137 543.181 517.322 550.746C521.739 565.875 526.156 581.004 532.37 595.502C535.962 603.843 540.185 611.941 542.855 620.621C543.34 623.191 543.146 625.858 541.932 628.185C541.544 628.961 541.059 629.688 540.816 630.513C540.428 631.87 540.816 633.374 541.739 634.392C542.564 635.313 543.826 635.798 544.602 636.768C545.573 637.932 545.719 639.58 545.525 641.035C545.331 642.538 544.796 643.945 544.505 645.399C544.408 645.836 544.359 646.272 544.554 646.708C544.796 647.242 545.33 647.484 545.816 647.824C547.321 648.939 547.854 651.218 546.981 652.867C550.087 653.982 553.534 653.643 556.786 653.012C560.038 652.382 563.291 651.461 566.592 651.509C567.368 651.509 568.193 651.606 568.97 651.412C569.747 651.218 570.475 650.685 570.669 649.909C571.009 648.6 569.747 647.533 569.165 646.321C568.679 645.351 568.63 644.187 568.63 643.12C568.582 641.132 568.534 639.144 568.485 637.156C568.437 635.944 568.437 634.731 568 633.616C567.563 632.501 566.738 631.531 566.107 630.513C564.602 627.846 564.65 624.597 564.456 621.542C564.262 618.584 563.825 615.578 563.097 612.717C562.951 612.232 562.854 611.698 562.515 611.262C562.466 611.165 562.32 611.116 562.271 611.019C561.592 600.594 560.718 590.217 558.485 580.034C556.932 573.148 554.796 566.408 553.485 559.522C552.029 551.812 551.689 543.908 551.738 536.053C551.835 509.529 556.059 483.004 564.262 457.741C567.223 448.528 570.767 439.363 571.543 429.762Z" fill="#662E2A"/>
<path d="M437.034 234.878C440.529 244.77 444.801 255.196 453.927 260.966C460.577 265.185 469.315 266.348 477.081 263.972C484.848 261.645 491.401 255.874 494.411 248.746C495.819 245.352 496.498 241.764 496.935 238.175C498.489 226.344 498.1 214.367 495.867 202.729C495.09 198.656 492.226 195.504 490.479 191.77C487.955 186.436 479.849 180.666 475.577 179.356C465.626 176.253 457.082 179.017 447.908 182.217C436.258 186.291 431.84 197.104 430.287 207.578C429.025 215.724 434.316 227.216 437.034 234.878Z" fill="#F9E9DE"/>
<path d="M494.798 233.958C494.264 234.927 494.313 236.043 494.167 237.061C493.827 239.873 492.371 242.492 490.963 245.013C489.847 247.002 488.682 248.99 486.934 250.541C485.187 252.093 482.76 253.063 480.43 252.578C476.741 251.754 474.945 247.583 471.353 246.565C468.877 245.886 466.256 246.808 463.829 247.729C460.916 248.844 457.858 250.105 455.819 252.433C455.14 253.208 454.606 254.13 454.509 255.148C454.266 255.051 454.072 254.906 453.781 254.809C450.723 253.645 447.859 251.899 445.335 249.814C444.849 249.426 444.072 248.99 443.635 249.426C443.247 249.814 443.49 250.493 443.781 250.978C445.965 254.663 448.198 258.397 451.062 261.646C452.324 263.052 453.829 264.458 455.674 264.895C456.014 264.992 456.45 264.992 456.741 264.798C456.936 264.652 456.984 264.41 457.033 264.216C457.275 264.555 457.47 264.943 457.809 265.234C459.703 266.931 462.372 267.804 464.945 267.95C468.294 268.192 471.644 267.416 474.896 266.592C477.954 265.816 481.061 264.943 483.682 263.294C487.323 261.015 489.847 257.476 491.837 253.79C495.284 247.341 497.274 240.261 497.614 233.133C496.74 232.406 495.332 233.036 494.798 233.958ZM472.76 256.263C472.76 257.233 472.13 257.718 471.402 257.863C470.819 258.3 469.993 258.445 469.217 257.912C468.44 257.379 467.081 256.894 465.868 256.894C465.285 257.136 464.703 257.33 464.169 257.621C463.926 257.96 463.731 258.348 463.78 258.93C463.877 260.385 462.13 261.937 460.673 260.821C459.411 259.852 458.926 258.833 458.829 257.815C458.44 257.088 458.587 256.215 459.363 255.73C462.033 251.414 472.663 248.99 472.76 256.263Z" fill="#EAEEEF"/>
<path d="M486.886 195.068C485.672 197.541 483.44 199.481 482.42 202.051C480.77 206.075 482.42 210.682 484.507 214.513C484.992 215.434 485.575 216.355 486.449 216.84C487.759 217.568 489.458 217.18 490.672 216.258C491.885 215.337 492.663 214.028 493.342 212.67C496.109 207.53 498.536 201.469 496.497 195.989C495.575 193.419 493.73 191.286 491.983 189.201C490.818 187.794 489.507 186.388 487.711 185.903C486.595 188.522 488.39 192.013 486.886 195.068Z" fill="#EAEEEF"/>
<path d="M473.391 272.216C479.605 270.034 485.139 266.204 491.109 263.391C493.391 262.324 495.818 261.354 498.342 261.354C501.546 261.354 504.507 262.858 507.177 264.555C521.934 273.962 541.544 288.024 549.408 303.687C569.261 343.304 580.377 387.285 579.067 431.556C579.018 433.545 578.873 435.678 577.562 437.133C576.446 438.442 574.649 438.927 572.999 439.363C546.495 446.201 499.847 448.043 472.518 446.831C470.236 446.734 467.761 446.54 466.014 445.037C464.218 443.534 463.586 441.012 463.101 438.733C457.324 411.578 464.266 386.557 459.363 359.208C455.965 340.055 452.761 320.755 451.79 301.262C451.499 294.958 448.975 281.866 453.344 276.581C457.567 271.489 467.566 274.253 473.391 272.216Z" fill="#AA6A64"/>
<path d="M406.356 417.397C388.784 416.524 382.716 441.594 384.221 455.656C385.046 463.269 395.434 461.863 394.075 454.25C393.298 449.885 392.473 434.514 397.376 431.556C404.948 423.943 412.375 426.61 418.879 437.908L422.375 447.849C424.996 459.147 423.443 471.706 422.909 483.247C421.889 504.486 420.967 525.773 420.044 547.012C418.297 588.374 417.763 629.591 417.763 670.955C417.763 673.234 421.064 673.234 421.113 670.955C422.084 635.895 423.685 600.837 425.141 565.778C426.598 531.059 431.258 495.854 431.063 461.184C430.966 445.861 425.336 418.318 406.356 417.397Z" fill="#A78E41"/>
<path d="M454.897 320.899C459.314 314.256 463.1 307.226 466.304 299.952C469.508 292.581 472.081 284.532 470.722 276.628C470.479 275.318 470.139 273.961 469.168 273.039C468.1 272.021 466.547 271.827 465.091 271.633C461.207 271.148 456.887 270.76 453.732 273.039C449.606 275.997 449.315 281.913 449.461 287.005C449.8 298.254 450.334 309.456 451.013 320.657C451.159 323.857 453.586 322.839 454.897 320.899Z" fill="#965E59"/>
<path d="M506.983 295.734C518.633 301.262 532.273 302.523 544.749 299.225C545.477 296.267 543.244 293.503 541.205 291.273C535.477 285.017 529.749 278.762 524.021 272.507C519.895 267.997 515.526 263.294 509.798 261.112C503.973 258.881 497.614 259.608 491.838 261.693C489.071 262.712 485.576 264.021 483.343 265.961C480.285 268.579 480.528 268.385 482.129 272.119C486.547 282.302 497.177 291.03 506.983 295.734Z" fill="#965E59"/>
<path d="M428.199 296.703C426.985 295.975 425.723 295.2 424.364 295.006C420.918 294.424 418.199 297.188 416.064 299.709C413.2 303.055 409.025 309.068 411.064 314.256C412.083 316.826 414.51 318.669 416.84 320.269C425.724 326.379 431.257 331.131 441.063 335.544C443.198 336.514 445.431 337.435 447.664 337.338C452.13 337.096 454.945 332.925 457.032 329.143C458.392 326.767 459.751 324.003 458.925 321.288C458.44 319.736 457.276 318.427 456.159 317.214C448.15 308.777 438.102 302.667 428.199 296.703Z" fill="#4D4D4D"/>
<path d="M494.361 343.448C495.089 343.69 495.914 343.933 496.642 343.69C498.098 343.254 498.487 341.363 498.535 339.811C498.924 325.991 493.875 312.608 493.341 298.788C493.099 292.581 493.778 286.423 494.458 280.216C494.992 275.222 495.866 269.645 499.749 266.445C505.331 261.838 514.408 264.99 518.486 270.954C522.563 276.919 523.049 284.532 523.389 291.757C524.36 314.208 524.991 336.999 519.942 358.868C519.311 361.535 518.535 364.347 516.593 366.287C514.311 368.615 510.768 369.293 507.564 368.857C504.36 368.421 501.351 367.014 498.39 365.608C483.924 358.771 469.507 351.934 455.042 345.097C453.052 344.175 450.965 343.108 449.945 341.169C448.052 337.484 451.158 332.295 454.022 329.968C458.051 326.67 460.187 328.513 464.508 330.792C474.07 335.932 484.07 340.151 494.361 343.448Z" fill="#965E59"/>
<path d="M433.976 329.724C432.325 328.803 430.627 327.833 429.656 326.233C428.928 324.972 428.733 323.469 428.685 322.014C428.636 319.978 429.025 317.553 430.869 316.632C432.277 315.953 433.976 316.487 435.383 317.214C436.791 317.942 438.102 318.911 439.655 319.056C441.16 319.25 442.714 318.669 444.17 319.056C446.063 319.541 447.179 321.433 448.587 322.791C449.946 324.1 451.693 324.972 453.198 326.039C454.751 327.106 456.208 328.561 456.596 330.404C456.936 332.149 456.256 334.04 454.994 335.349C451.79 338.598 448.829 336.901 445.237 335.349C441.354 333.749 437.665 331.712 433.976 329.724Z" fill="#F9E9DE"/>
</g>
<defs>
<linearGradient id="paint0_linear" x1="405.735" y1="673.311" x2="616.372" y2="683.71" gradientUnits="userSpaceOnUse">
<stop stop-color="#4D4D4D"/>
<stop offset="1"/>
</linearGradient>
<linearGradient id="paint1_linear" x1="405.735" y1="673.311" x2="616.372" y2="683.71" gradientUnits="userSpaceOnUse">
<stop/>
<stop offset="1"/>
</linearGradient>
<clipPath id="clip0">
<rect width="233" height="514" fill="white" transform="translate(384 178)"/>
</clipPath>
</defs>
</svg>
