<svg width="720" height="720" viewBox="0 0 720 720" fill="none" xmlns="http://www.w3.org/2000/svg">
<rect width="720" height="720" fill="#5E38A8"/>
<path d="M158 720H720V162H714L596.5 622.5L158 720Z" fill="#8360CA"/>
<path fill-rule="evenodd" clip-rule="evenodd" d="M515.097 681.535C490.589 670.191 461.469 656.711 455.898 641.664C441.427 602.581 384.785 586.09 321.109 598.886C367.619 656.618 438.21 701.873 509.935 719.5C576.296 713.676 550.169 697.771 515.097 681.535Z" fill="#8360CA"/>
<path d="M158 720L354.514 719.5C430.248 719.5 480.331 719.5 509.935 719.5C438.21 701.873 367.619 656.618 321.109 598.886C309.263 601.267 297.173 604.661 285.066 609.112C207.881 637.488 140.837 673.646 158 720Z" fill="#8360CA"/>
<path fill-rule="evenodd" clip-rule="evenodd" d="M321.109 598.886C367.619 656.618 438.21 701.873 509.935 719.5C576.296 713.676 550.169 697.771 515.097 681.535C490.589 670.191 461.469 656.711 455.898 641.664C441.427 602.581 384.785 586.09 321.109 598.886Z" fill="#8360CA"/>
<path d="M613.056 720C649.471 715.562 674.421 721.235 691 718.793C709.484 716.07 717.56 703.258 719.514 655.09C721.032 617.654 718.851 558.862 714.984 466.852C714.984 303.447 714.487 218.197 714.984 161.775C568.448 161.775 265.485 284.245 265.485 447.65C265.485 505.114 286.929 556.46 321.109 598.886C384.785 586.09 441.427 602.581 455.898 641.664C461.469 656.711 490.589 670.191 515.097 681.535C550.169 697.771 576.296 713.676 509.935 719.5C535.098 719.5 588.173 720 613.056 720Z" fill="#8360CA"/>
<path d="M691 718.793H720L719.514 655.09C717.56 703.258 709.484 716.07 691 718.793Z" fill="#8360CA"/>
<g clip-path="url(#clip0)">
<path d="M625.049 690.619C631.766 690.193 638.526 689.723 645.158 688.614C645.885 688.487 646.656 688.316 647.127 687.762C648.41 686.226 646.142 684.264 644.26 683.667C633.991 680.426 623.038 680.767 612.256 681.023C573.023 682.046 533.789 682.26 494.598 681.705C489.507 681.62 462.296 680.042 461.44 686.994C460.713 693.05 490.705 691.941 495.368 692.112C523.05 693.221 550.732 693.434 578.414 692.709C593.988 692.282 609.518 691.6 625.049 690.619Z" fill="url(#paint0_linear)"/>
<path d="M625.049 690.619C631.766 690.193 638.526 689.723 645.158 688.614C645.885 688.487 646.656 688.316 647.127 687.762C648.41 686.226 646.142 684.264 644.26 683.667C633.991 680.426 623.038 680.767 612.256 681.023C573.023 682.046 533.789 682.26 494.598 681.705C489.507 681.62 462.296 680.042 461.44 686.994C460.713 693.05 490.705 691.941 495.368 692.112C523.05 693.221 550.732 693.434 578.414 692.709C593.988 692.282 609.518 691.6 625.049 690.619Z" fill="url(#paint1_linear)"/>
<path d="M446.081 681.877C447.15 681.621 448.434 681.194 448.648 680.128C448.99 678.678 447.15 677.74 445.696 677.441C437.952 675.821 429.994 676.29 422.121 676.332C404.622 676.418 387.209 674.413 369.71 673.773C355.762 673.262 341.6 673.688 327.952 676.759C323.673 677.74 313.833 678.806 312.293 683.924C310.924 688.488 314.603 690.321 318.24 690.194C323.374 690.066 328.209 688.573 333.428 688.701C340.702 688.871 347.932 689.085 355.206 689.17C369.71 689.341 384.214 689.213 398.718 688.317C414.591 687.251 430.464 685.331 446.081 681.877Z" fill="url(#paint2_linear)"/>
<path d="M446.081 681.877C447.15 681.621 448.434 681.194 448.648 680.128C448.99 678.678 447.15 677.74 445.696 677.441C437.952 675.821 429.994 676.29 422.121 676.332C404.622 676.418 387.209 674.413 369.71 673.773C355.762 673.262 341.6 673.688 327.952 676.759C323.673 677.74 313.833 678.806 312.293 683.924C310.924 688.488 314.603 690.321 318.24 690.194C323.374 690.066 328.209 688.573 333.428 688.701C340.702 688.871 347.932 689.085 355.206 689.17C369.71 689.341 384.214 689.213 398.718 688.317C414.591 687.251 430.464 685.331 446.081 681.877Z" fill="url(#paint3_linear)"/>
<path d="M565.364 447.645C565.322 446.749 565.322 445.811 564.979 445.001C564.509 443.849 563.567 442.996 562.498 442.314C558.604 439.797 553.684 439.541 549.063 439.371C531.436 438.774 513.466 438.603 496.224 442.868C490.919 444.19 481.891 445.555 479.367 451.227C476.286 458.179 477.356 468.842 477.056 476.306C476.629 487.181 476.671 498.057 477.185 508.89C477.527 515.842 478.041 522.751 478.597 529.703C480.779 558.32 482.233 586.213 486.811 614.788C488.266 623.959 488.908 633.214 489.122 642.511C489.207 646.008 491.004 668.741 488.223 670.319C488.052 670.404 487.881 670.489 487.753 670.617C486.897 671.47 486.255 672.408 485.913 673.432C485.613 674.37 485.528 675.394 484.843 676.204C484.073 677.143 482.661 677.697 481.249 678.166C477.655 679.403 473.762 680.213 469.783 680.64C468.885 680.725 467.986 680.81 467.216 681.066C464.948 681.834 464.435 683.881 464.135 685.587C464.05 686.099 464.05 686.696 464.649 686.995C464.991 687.165 465.419 687.165 465.804 687.123C477.185 686.995 482.02 686.909 493.4 686.781C496.181 686.739 499.048 686.611 501.701 686.142C502.043 686.056 502.428 685.971 502.685 685.8C502.984 685.587 503.112 685.331 503.198 685.033C504.653 681.109 504.781 676.887 504.396 672.835C504.31 671.982 504.182 671.257 503.455 670.745C509.53 621.314 513.381 571.755 519.114 522.282C519.456 522.196 519.841 522.068 520.184 521.983C525.318 520.618 530.452 519.297 535.543 517.932C538.538 517.164 541.662 516.311 544.015 514.263C545.854 512.643 547.052 510.468 548.25 508.336C554.155 497.46 560.102 486.413 563.011 474.429C565.15 465.728 565.621 456.644 565.364 447.645Z" fill="#736357"/>
<path d="M563.311 671.257C562.712 643.577 561.899 615.854 560.83 588.217C560.145 570.177 557.364 553.458 558.947 535.503C560.787 514.69 561.343 493.749 560.658 472.893C560.53 469.055 560.359 465.173 558.947 461.634C557.193 457.198 552.829 454.298 550.219 450.716C548.636 448.583 547.823 446.408 545.727 444.531C536.827 436.726 522.323 438.645 511.798 441.034C511.071 441.204 510.386 441.332 509.702 441.503C509.488 441.674 509.231 441.887 509.017 442.057C508.76 443.508 508.547 445.001 508.418 446.451C508.375 446.877 508.375 447.474 508.418 448.028C508.589 450.289 508.461 449.308 508.418 448.028C508.375 447.559 508.333 447.005 508.29 446.238C508.375 447.176 508.333 448.114 508.375 449.009C508.76 457.326 510.515 465.472 511.328 473.746C512.012 480.783 511.884 487.991 511.627 495.156C513.039 494.815 514.708 494.516 515.692 494.687C517.617 495.028 547.951 653.386 548.636 673.048C548.508 673.176 548.336 673.261 548.251 673.389C547.566 674.327 547.138 675.351 547.01 676.332C546.882 677.27 546.967 678.208 546.454 679.104C545.898 680.085 544.657 680.895 543.416 681.535C540.25 683.284 536.742 684.691 533.062 685.715C532.249 685.928 531.394 686.141 530.709 686.568C528.741 687.677 528.527 689.639 528.57 691.302C528.57 691.771 528.655 692.368 529.297 692.539C529.639 692.624 530.024 692.539 530.41 692.496C541.063 690.534 545.598 689.681 556.252 687.677C558.861 687.208 561.514 686.61 563.953 685.715C564.295 685.587 564.637 685.459 564.851 685.246C565.108 685.032 565.151 684.734 565.194 684.435C565.921 680.512 565.365 676.503 564.338 672.792C564.081 672.195 563.825 671.598 563.311 671.257Z" fill="#736357"/>
<path d="M420.196 360.596C419.17 360.511 418.399 359.743 417.8 359.018C405.264 344.134 403.51 324.685 403.125 306.389C402.954 297.603 402.997 288.817 404.323 280.117C410.527 281.226 415.019 286.045 416.944 291.163C418.87 296.281 418.742 301.783 418.87 307.157C419.255 323.662 422.25 340.039 422.892 356.545C422.977 358.336 422.25 360.767 420.196 360.596Z" fill="#E4D2BC"/>
<path d="M453.14 307.84C452.712 307.712 452.285 307.584 451.814 307.499C446.509 295.003 444.968 281.269 443.514 267.75C443.385 266.427 443.214 265.105 443.428 263.783C443.557 262.93 443.856 262.034 443.685 261.181C443.471 260.328 442.487 259.561 441.76 260.03C443 258.239 443.171 255.722 442.145 253.803C440.776 251.159 437.396 249.282 435.855 252.481C434.486 255.338 434.443 258.665 434.443 261.779C434.529 278.838 435 295.856 435.898 312.915C436.026 315.773 436.326 318.929 438.38 320.891C439.877 322.341 442.016 322.895 444.07 323.365C461.098 327.288 478.383 330.188 495.797 332.022C499.99 332.449 505.209 332.321 507.049 328.568C508.504 325.71 506.964 322.085 504.397 320.123C501.872 318.161 498.621 317.436 495.454 316.797C482.448 314.11 469.441 311.423 456.392 308.736C455.28 308.522 454.21 308.139 453.14 307.84Z" fill="#E3DACD"/>
<path d="M473.89 303.404C472.906 314.066 471.965 324.728 470.981 335.433C486.255 335.647 501.572 332.363 515.434 325.923C517.787 314.621 520.098 303.318 522.451 292.016C505.808 292.997 489.293 296.878 473.89 303.404Z" fill="#ACB18F"/>
<path d="M350.413 375.31C361.11 376.206 371.121 368.87 381.86 369.339C387.251 369.595 394.054 371.301 397.049 366.823C398.375 364.819 398.333 362.26 398.29 359.871C397.391 333.428 396.493 307.028 395.552 280.586C379.079 285.149 361.238 284.595 345.065 279.05C345.151 308.905 345.236 338.76 345.365 368.614C345.365 370.619 345.493 372.922 347.076 374.201C347.975 375.012 349.215 375.225 350.413 375.31Z" fill="#EFF3F0"/>
<path d="M397.862 678.891C393.584 672.536 389.904 665.627 388.022 658.163C387.252 655.05 386.781 651.894 386.695 648.695C386.653 647.757 386.695 646.733 387.294 646.051C387.851 645.454 388.706 645.283 389.519 645.155C394.568 644.387 400.387 643.833 404.109 647.415C405.564 648.823 406.462 650.7 407.232 652.619C411.254 662.343 412.88 673.09 411.853 683.582C410.227 686.056 406.59 686.397 403.98 685.118C401.328 683.838 399.488 681.322 397.862 678.891Z" fill="#80633D"/>
<path d="M341.172 675.265C345.451 668.911 349.13 662.001 351.013 654.538C351.783 651.424 352.254 648.268 352.339 645.07C352.382 644.131 352.339 643.108 351.74 642.425C351.184 641.828 350.328 641.658 349.515 641.53C344.467 640.762 338.648 640.207 334.926 643.79C333.471 645.197 332.573 647.074 331.803 648.993C327.781 658.717 326.155 669.465 327.182 679.957C328.808 682.431 332.444 682.772 335.054 681.492C337.664 680.213 339.504 677.696 341.172 675.265Z" fill="#80633D"/>
<path d="M329.149 397.063C334.455 358.124 341.386 318.588 337.022 280.502C340.573 277.943 345.066 276.664 349.43 276.962C350.157 304.13 350.884 331.34 351.654 358.508C359.527 358.508 367.399 358.551 375.271 358.551C375.357 358.849 375.443 359.148 375.571 359.446C380.577 359.446 385.583 359.404 390.588 359.404C391.316 332.236 392.043 305.025 392.813 277.858C397.177 277.602 401.67 278.881 405.221 281.398C400.771 320.166 411.04 358.892 414.976 397.703C418.227 429.69 421.907 443.594 420.837 475.709C419.083 528.211 412.58 599.052 410.826 651.554C410.783 652.876 339.589 650.743 331.46 650.658C332.872 650.658 325.128 557.212 324.7 550.26C322.518 513.923 319.651 475.922 321.748 439.585C322.561 425.084 327.139 411.905 329.149 397.063Z" fill="#AA6A64"/>
<path d="M347.419 236.188C347.547 233.074 347.846 230.003 348.616 226.975C351.226 216.483 362.35 201.215 375.015 205.736C377.967 206.802 380.448 208.764 382.844 210.811C385.283 212.901 387.636 215.118 389.647 217.592C393.412 222.326 396.065 228.425 396.493 234.481C396.878 240.111 395.252 246.082 393.669 251.456C391.572 258.578 388.449 266.042 382.074 269.881C373.603 274.999 361.837 271.501 355.377 263.995C348.959 256.489 347.076 246.039 347.419 236.188Z" fill="#E4D2BC"/>
<path d="M358.586 289.586C358.8 288.904 359.399 288.435 359.998 288.008C359.998 288.008 359.998 288.008 360.04 288.008C346.948 275.81 342.713 255.296 341.001 243.439C340.06 236.786 340.145 229.919 342.113 223.479C344.124 217.082 348.146 211.154 353.922 207.699C356.618 206.078 359.655 205.012 362.65 203.988C364.961 203.221 367.87 202.624 369.795 203.861C372.362 201.856 376.128 201.728 379.208 202.922C382.502 204.202 385.112 206.718 387.551 209.277C391.359 213.329 394.867 217.679 397.648 222.541C401.927 230.047 404.237 238.577 404.836 247.193C405.05 250.263 405.05 253.334 404.323 256.32C403.296 260.584 400.857 264.338 398.461 268.006C398.033 268.688 397.563 269.37 396.835 269.754C396.151 270.138 395.124 270.095 394.653 269.456C394.226 268.901 394.397 268.091 394.525 267.408C397.648 252.566 392.728 237.127 385.412 223.863C382.289 218.191 378.523 212.561 373.004 209.234C372.491 208.936 371.892 208.637 371.336 208.765C370.951 210.258 370.095 211.836 369.239 213.115C364.618 220.025 359.998 226.891 355.377 233.801C352.724 237.767 349.943 242.032 349.772 246.809C349.558 252.14 352.639 256.959 354.949 261.779C357.003 266.044 365.389 278.583 362.993 286.515C363.634 286.26 364.319 286.004 364.961 285.833C369.795 291.975 371.935 300.163 370.737 307.926C370.266 304.727 366.8 303.063 364.276 301.016C361.153 298.543 359.099 294.789 358.629 290.823C358.5 290.354 358.457 289.97 358.586 289.586Z" fill="#998675"/>
<path d="M457.076 312.617C455.493 310.655 452.498 310.867 449.974 311.209C439.791 312.659 429.565 313.64 419.339 314.109C414.077 314.365 397.092 311.123 397.819 319.227C398.718 329.633 400.728 339.955 403.766 349.978C404.793 351.428 406.889 351.428 408.644 351.3C425.586 350.02 442.7 348.868 459.728 349.295C461.397 349.337 463.365 349.039 464.136 347.589C464.649 346.651 464.478 345.499 464.307 344.433C462.852 335.093 461.397 325.795 459.943 316.455C458.702 315.175 458.188 314.024 457.076 312.617Z" fill="#666767"/>
<path d="M439.877 324.344C440.519 325.794 439.963 326.861 439.449 327.842C433.802 338.205 428.197 348.526 422.549 358.89C420.153 363.283 417.115 368.017 410.227 367.505C408.473 367.377 406.334 366.78 404.622 365.33C404.793 357.568 408.858 352.109 414.206 347.801C415.49 346.735 416.859 345.754 417.972 344.56C418.956 343.494 419.768 342.257 420.538 341.02C422.592 337.736 424.475 334.367 426.229 330.869C426.529 330.23 426.87 329.59 426.87 328.822C426.87 327.756 426.357 326.519 426.143 325.368C425.929 324.216 426.058 323.107 427.127 322.851C427.255 322.809 427.427 322.809 427.598 322.894C427.983 323.107 428.111 323.534 428.154 323.875C428.197 324.216 428.625 324.728 428.925 324.686C429.695 324.088 429.224 322.681 429.266 321.572C429.566 317.946 437.781 319.482 439.877 324.344Z" fill="#E4D2BC"/>
<path d="M338.135 278.838C332.658 286.43 331.161 296.153 330.091 305.451C328.251 321.274 327.182 337.225 326.797 353.133C326.626 361.535 326.668 370.108 329.15 378.126C329.963 380.813 331.888 383.883 334.669 383.457C337.45 383.03 338.349 379.491 338.563 376.676C340.36 355.223 342.157 333.813 343.911 312.36C344.895 300.759 345.494 287.88 338.135 278.838Z" fill="#E4D2BC"/>
<path d="M546.539 282.42C560.016 285.832 567.717 308.01 568.274 319.568C569.514 346.394 569.514 373.264 571.012 400.048C571.868 415.871 572.98 431.694 574.221 447.474C575.504 463.979 576.531 467.221 560.658 468.671C532.377 471.272 503.754 471.272 475.473 468.713C472.265 468.415 472.307 418.558 472.179 414.335C471.494 388.02 474.874 361.322 483.175 336.073C487.967 321.487 495.839 307.498 507.648 297.177C516.547 289.372 528.569 284.297 540.207 282.164C542.432 281.823 544.528 281.908 546.539 282.42Z" fill="#ACB18F"/>
<path d="M526.26 272.141C528.314 268.388 529.383 263.654 529.084 258.152C528.528 247.959 526.73 237.595 521.468 228.852C515.392 218.787 501.958 209.659 489.636 213.882C475.218 218.829 478.469 237.723 480.994 250.262C483.004 260.2 487.839 270.009 496.097 275.895C508.461 284.766 520.826 281.951 526.26 272.141Z" fill="#E3DACD"/>
<path d="M518.815 244.761C521.04 251.329 524.505 257.513 528.998 262.844C529.896 264.124 531.608 262.119 531.822 260.584C533.576 248.599 532.677 227.232 529.811 215.461C526.944 203.689 521.382 201.472 509.916 197.505C501.573 194.605 491.818 195.97 484.545 200.96C477.271 205.992 472.565 214.522 472.094 223.308C472.052 224.161 472.094 225.057 472.608 225.697C473.463 226.72 475.046 226.507 476.33 226.208C483.689 224.417 491.048 221.645 498.578 222.327C506.108 223.052 513.938 228.767 513.638 236.316C516.505 235.421 519.543 234.568 522.409 235.463C525.233 236.359 527.372 239.941 525.746 242.415C523.821 244.121 521.296 244.931 518.815 244.761Z" fill="#8C6239"/>
<path d="M508.802 375.44C513.423 365.588 516.119 354.925 518.643 344.348C522.707 327.246 526.344 310.058 529.553 292.785C530.109 289.885 530.623 286.857 529.81 284.042C528.997 281.227 526.43 278.668 523.478 278.881C508.075 308.736 498.234 341.405 494.598 374.757C494.341 377.188 494.17 379.918 495.796 381.795C497.678 383.97 501.315 383.884 503.711 382.306C506.107 380.686 507.562 378.041 508.802 375.44Z" fill="#E3DACD"/>
<path d="M506.534 369.127C513.038 364.35 519.969 360.213 527.285 356.843C527.713 356.63 528.227 356.46 528.655 356.63C529.082 356.801 529.296 357.227 529.467 357.654C530.879 360.852 531.991 364.222 532.719 367.634C533.232 370.022 533.446 372.88 531.692 374.628C530.751 375.567 529.382 375.95 528.141 376.42C522.023 378.723 517.145 383.627 510.941 385.717C506.32 387.253 501.315 387.082 496.437 386.869C495.967 386.869 495.453 386.783 495.196 386.442C495.025 386.186 494.983 385.888 494.983 385.589C494.812 383.244 494.683 380.727 495.71 378.637C496.266 377.528 497.079 376.633 497.892 375.737C501.828 371.43 501.871 372.581 506.534 369.127Z" fill="#E3DACD"/>
<path opacity="0.26" d="M340.274 365.288C340.274 361.066 335.824 361.066 335.781 365.288C335.182 458.989 335.824 552.861 339.204 646.477C339.418 651.851 345.151 651.893 344.98 646.477C342.113 552.733 340.017 459.117 340.274 365.288Z" fill="#E3E4E5"/>
<path opacity="0.26" d="M363.463 363.753C363.463 359.53 359.013 359.53 358.97 363.753C358.371 457.454 359.013 551.326 362.393 644.942C362.607 650.316 368.297 650.359 368.169 644.942C365.303 551.198 363.163 457.582 363.463 363.753Z" fill="#E3E4E5"/>
<path opacity="0.26" d="M381.946 363.753C381.946 359.53 377.496 359.53 377.454 363.753C376.855 457.454 377.496 551.326 380.876 644.942C381.09 650.316 386.823 650.359 386.652 644.942C383.786 551.198 381.646 457.582 381.946 363.753Z" fill="#E3E4E5"/>
<path opacity="0.26" d="M403.039 367.421C403.039 363.198 398.589 363.198 398.546 367.421C397.947 461.122 398.589 554.993 401.969 648.61C402.183 653.984 407.873 654.026 407.745 648.61C404.836 554.866 402.739 461.25 403.039 367.421Z" fill="#E3E4E5"/>
<path d="M383.059 327.288C381.176 327.075 378.737 327.757 377.283 329.037C375.486 330.615 374.801 333.131 374.202 335.519C373.946 334.624 373.005 333.984 372.149 334.069C371.251 334.154 370.566 335.008 370.608 335.903C370.651 337.012 371.678 337.95 371.636 339.059C371.593 339.912 370.908 340.509 370.309 341.064C360.383 349.509 349.473 356.802 339.975 365.758C337.236 368.317 336.295 371.132 334.37 374.245C332.915 376.591 330.434 379.661 332.616 382.562C334.455 385.035 338.135 384.438 340.873 383.372C362.095 374.842 374.331 352.92 385.07 332.363C386.824 329.037 385.326 327.544 383.059 327.288Z" fill="#E4D2BC"/>
</g>
<defs>
<linearGradient id="paint0_linear" x1="461.424" y1="686.968" x2="647.494" y2="686.968" gradientUnits="userSpaceOnUse">
<stop stop-color="#4D4D4D"/>
<stop offset="1"/>
</linearGradient>
<linearGradient id="paint1_linear" x1="461.424" y1="686.968" x2="647.494" y2="686.968" gradientUnits="userSpaceOnUse">
<stop/>
<stop offset="1"/>
</linearGradient>
<linearGradient id="paint2_linear" x1="311.926" y1="681.864" x2="448.68" y2="681.864" gradientUnits="userSpaceOnUse">
<stop stop-color="#4D4D4D"/>
<stop offset="1"/>
</linearGradient>
<linearGradient id="paint3_linear" x1="311.926" y1="681.864" x2="448.68" y2="681.864" gradientUnits="userSpaceOnUse">
<stop/>
<stop offset="1"/>
</linearGradient>
<clipPath id="clip0">
<rect width="338" height="499" fill="white" transform="translate(312 196)"/>
</clipPath>
</defs>
</svg>
