<svg width="720" height="721" viewBox="0 0 720 721" fill="none" xmlns="http://www.w3.org/2000/svg">
<rect y="0.000488281" width="720" height="720" fill="#5E38A8"/>
<path d="M157.708 720.225H719.708V162.225H713.708L596.208 622.725L157.708 720.225Z" fill="#8360CA"/>
<path fill-rule="evenodd" clip-rule="evenodd" d="M514.804 681.76C490.297 670.415 461.177 656.935 455.605 641.888C441.135 602.806 384.493 586.315 320.816 599.111C367.327 656.842 437.918 702.097 509.643 719.725C576.003 713.901 549.877 697.995 514.804 681.76Z" fill="#8360CA"/>
<path d="M157.708 720.225L354.222 719.725C429.956 719.725 480.039 719.725 509.643 719.725C437.918 702.097 367.327 656.842 320.816 599.111C308.97 601.491 296.881 604.886 284.774 609.336C207.589 637.712 140.545 673.871 157.708 720.225Z" fill="#8360CA"/>
<path fill-rule="evenodd" clip-rule="evenodd" d="M320.816 599.111C367.327 656.842 437.918 702.097 509.643 719.725C576.003 713.901 549.877 697.995 514.804 681.76C490.297 670.415 461.177 656.935 455.605 641.888C441.135 602.806 384.493 586.315 320.816 599.111Z" fill="#8360CA"/>
<path d="M612.763 720.225C649.178 715.786 674.129 721.46 690.708 719.018C709.192 716.295 717.268 703.482 719.221 655.315C720.739 617.879 718.559 559.086 714.691 467.076C714.691 303.671 714.195 218.422 714.691 162C568.156 162 265.192 284.47 265.192 447.875C265.192 505.338 286.637 556.685 320.816 599.111C384.493 586.315 441.135 602.806 455.605 641.888C461.177 656.935 490.297 670.415 514.804 681.76C549.877 697.995 576.003 713.901 509.643 719.725C534.806 719.725 587.881 720.225 612.763 720.225Z" fill="#8360CA"/>
<path d="M690.708 719.018H719.708L719.221 655.315C717.268 703.482 709.192 716.295 690.708 719.018Z" fill="#8360CA"/>
<path d="M615.628 698.586C622.892 698.123 630.203 697.614 637.374 696.411C638.161 696.272 638.994 696.088 639.503 695.486C640.891 693.82 638.438 691.692 636.402 691.044C625.298 687.528 613.454 687.898 601.794 688.176C559.366 689.286 516.938 689.517 474.556 688.916C469.05 688.823 439.624 687.111 438.699 694.653C437.912 701.223 470.346 700.02 475.389 700.205C505.325 701.408 535.26 701.64 565.196 700.853C582.038 700.39 598.833 699.65 615.628 698.586Z" fill="url(#paint0_linear)"/>
<path d="M615.628 698.586C622.892 698.123 630.203 697.614 637.374 696.411C638.161 696.272 638.994 696.088 639.503 695.486C640.891 693.82 638.438 691.692 636.402 691.044C625.298 687.528 613.454 687.898 601.794 688.176C559.366 689.286 516.938 689.517 474.556 688.916C469.05 688.823 439.624 687.111 438.699 694.653C437.912 701.223 470.346 700.02 475.389 700.205C505.325 701.408 535.26 701.64 565.196 700.853C582.038 700.39 598.833 699.65 615.628 698.586Z" fill="url(#paint1_linear)"/>
<path d="M422.088 689.101C423.245 688.824 424.633 688.361 424.864 687.204C425.235 685.631 423.245 684.613 421.672 684.289C413.297 682.531 404.691 683.04 396.178 683.086C377.254 683.179 358.423 681.004 339.5 680.31C324.416 679.755 309.101 680.218 294.342 683.549C289.715 684.613 279.073 685.77 277.408 691.322C275.927 696.273 279.906 698.262 283.839 698.124C289.391 697.985 294.619 696.365 300.264 696.504C308.13 696.689 315.949 696.921 323.815 697.013C339.499 697.198 355.184 697.059 370.869 696.088C388.035 694.931 405.2 692.849 422.088 689.101Z" fill="url(#paint2_linear)"/>
<path d="M422.088 689.101C423.245 688.824 424.633 688.361 424.864 687.204C425.235 685.631 423.245 684.613 421.672 684.289C413.297 682.531 404.691 683.04 396.178 683.086C377.254 683.179 358.423 681.004 339.5 680.31C324.416 679.755 309.101 680.218 294.342 683.549C289.715 684.613 279.073 685.77 277.408 691.322C275.927 696.273 279.906 698.262 283.839 698.124C289.391 697.985 294.619 696.365 300.264 696.504C308.13 696.689 315.949 696.921 323.815 697.013C339.499 697.198 355.184 697.059 370.869 696.088C388.035 694.931 405.2 692.849 422.088 689.101Z" fill="url(#paint3_linear)"/>
<path d="M551.084 434.996C551.038 434.024 551.038 433.007 550.668 432.127C550.159 430.878 549.141 429.953 547.984 429.213C543.774 426.483 538.453 426.205 533.456 426.02C514.393 425.372 494.961 425.187 476.315 429.814C470.578 431.248 460.815 432.729 458.085 438.883C454.754 446.424 455.911 457.991 455.587 466.088C455.124 477.887 455.17 489.685 455.725 501.437C456.096 508.979 456.651 516.474 457.252 524.016C459.612 555.062 461.185 585.321 466.136 616.321C467.709 626.269 468.403 636.309 468.634 646.396C468.727 650.189 470.67 674.851 467.663 676.562C467.478 676.655 467.293 676.748 467.154 676.886C466.228 677.812 465.534 678.83 465.164 679.94C464.84 680.958 464.748 682.068 464.007 682.948C463.174 683.965 461.648 684.567 460.121 685.076C456.234 686.418 452.024 687.297 447.721 687.759C446.749 687.852 445.778 687.945 444.945 688.222C442.493 689.055 441.938 691.276 441.614 693.127C441.521 693.682 441.521 694.329 442.169 694.653C442.539 694.838 443.002 694.838 443.418 694.792C455.726 694.653 460.954 694.561 473.261 694.422C476.268 694.376 479.368 694.237 482.237 693.728C482.607 693.636 483.024 693.543 483.301 693.358C483.625 693.126 483.764 692.849 483.857 692.525C485.43 688.268 485.568 683.688 485.152 679.292C485.059 678.367 484.921 677.58 484.134 677.025C490.704 623.4 494.868 569.637 501.068 515.965C501.438 515.873 501.855 515.734 502.225 515.642C507.777 514.161 513.329 512.727 518.835 511.246C522.074 510.413 525.452 509.488 527.996 507.267C529.986 505.509 531.281 503.149 532.577 500.836C538.962 489.038 545.393 477.054 548.539 464.053C550.853 454.614 551.362 444.759 551.084 434.996Z" fill="#736357"/>
<path d="M548.863 677.579C548.216 647.551 547.336 617.477 546.18 587.495C545.439 567.924 542.432 549.787 544.144 530.308C546.133 507.729 546.735 485.011 545.995 462.386C545.856 458.222 545.671 454.011 544.144 450.171C542.247 445.359 537.528 442.213 534.705 438.327C532.993 436.013 532.114 433.653 529.847 431.618C520.223 423.151 504.538 425.233 493.156 427.824C492.37 428.009 491.629 428.147 490.889 428.332C490.658 428.518 490.38 428.749 490.149 428.934C489.871 430.507 489.64 432.127 489.501 433.7C489.455 434.162 489.455 434.81 489.501 435.412C489.686 437.864 489.547 436.8 489.501 435.412C489.455 434.903 489.409 434.301 489.362 433.468C489.455 434.486 489.409 435.504 489.455 436.476C489.871 445.498 491.768 454.335 492.647 463.311C493.388 470.945 493.249 478.765 492.971 486.538C494.498 486.168 496.303 485.844 497.367 486.029C499.449 486.399 532.253 658.193 532.993 679.523C532.855 679.662 532.669 679.754 532.577 679.893C531.836 680.911 531.374 682.021 531.235 683.085C531.096 684.103 531.189 685.121 530.634 686.093C530.032 687.157 528.69 688.036 527.348 688.73C523.925 690.627 520.131 692.154 516.152 693.264C515.273 693.496 514.347 693.727 513.607 694.19C511.479 695.393 511.247 697.521 511.294 699.325C511.294 699.834 511.386 700.482 512.08 700.667C512.45 700.76 512.867 700.667 513.283 700.621C524.804 698.493 529.708 697.567 541.229 695.393C544.051 694.884 546.92 694.236 549.557 693.264C549.928 693.125 550.298 692.987 550.529 692.755C550.806 692.524 550.853 692.2 550.899 691.876C551.686 687.62 551.084 683.27 549.974 679.245C549.696 678.597 549.418 677.949 548.863 677.579Z" fill="#736357"/>
<path d="M394.096 340.561C392.986 340.468 392.153 339.636 391.505 338.849C377.948 322.702 376.051 301.603 375.635 281.754C375.45 272.223 375.496 262.692 376.93 253.253C383.639 254.456 388.497 259.684 390.58 265.236C392.662 270.788 392.523 276.757 392.662 282.587C393.078 300.493 396.317 318.26 397.011 336.166C397.103 338.109 396.317 340.746 394.096 340.561Z" fill="#E4D2BC"/>
<path d="M429.723 283.328C429.26 283.189 428.797 283.05 428.288 282.957C422.551 269.401 420.885 254.502 419.312 239.835C419.173 238.401 418.988 236.967 419.22 235.532C419.358 234.607 419.682 233.636 419.497 232.71C419.266 231.785 418.202 230.952 417.415 231.461C418.757 229.518 418.942 226.788 417.832 224.706C416.351 221.837 412.696 219.801 411.03 223.271C409.55 226.371 409.503 229.98 409.503 233.358C409.596 251.865 410.105 270.326 411.076 288.834C411.215 291.934 411.539 295.357 413.76 297.486C415.379 299.059 417.693 299.66 419.914 300.169C438.329 304.426 457.021 307.572 475.852 309.562C480.386 310.024 486.031 309.885 488.02 305.814C489.594 302.714 487.928 298.781 485.152 296.653C482.422 294.525 478.906 293.738 475.482 293.044C461.416 290.129 447.351 287.214 433.239 284.299C432.036 284.068 430.879 283.651 429.723 283.328Z" fill="#E3DACD"/>
<path d="M452.163 278.516C451.098 290.083 450.081 301.65 449.016 313.263C465.534 313.494 482.098 309.932 497.089 302.945C499.634 290.684 502.132 278.423 504.677 266.162C486.679 267.226 468.819 271.437 452.163 278.516Z" fill="#ACB18F"/>
<path d="M318.633 356.524C330.2 357.496 341.026 349.537 352.64 350.046C358.469 350.324 365.826 352.175 369.065 347.317C370.499 345.142 370.453 342.366 370.407 339.775C369.435 311.089 368.463 282.449 367.446 253.762C349.632 258.713 330.338 258.112 312.849 252.097C312.942 284.484 313.034 316.872 313.173 349.26C313.173 351.435 313.312 353.933 315.024 355.321C315.995 356.2 317.337 356.432 318.633 356.524Z" fill="#EFF3F0"/>
<path d="M369.944 685.863C365.317 678.969 361.338 671.473 359.302 663.376C358.47 659.999 357.961 656.575 357.868 653.105C357.822 652.087 357.868 650.976 358.516 650.236C359.117 649.588 360.043 649.403 360.922 649.264C366.381 648.431 372.674 647.83 376.699 651.717C378.272 653.243 379.244 655.279 380.077 657.361C384.426 667.91 386.184 679.57 385.074 690.952C383.316 693.636 379.383 694.006 376.56 692.618C373.692 691.23 371.702 688.5 369.944 685.863Z" fill="#80633D"/>
<path d="M308.639 681.929C313.265 675.035 317.244 667.539 319.28 659.443C320.113 656.065 320.622 652.641 320.715 649.171C320.761 648.153 320.715 647.043 320.067 646.302C319.465 645.655 318.54 645.47 317.661 645.331C312.201 644.498 305.909 643.896 301.883 647.783C300.31 649.31 299.339 651.346 298.506 653.428C294.157 663.977 292.398 675.636 293.509 687.018C295.267 689.702 299.2 690.072 302.022 688.684C304.845 687.296 306.834 684.566 308.639 681.929Z" fill="#80633D"/>
<path d="M295.637 380.121C301.374 337.878 308.87 294.987 304.15 253.67C307.991 250.893 312.849 249.506 317.568 249.829C318.355 279.302 319.141 308.821 319.974 338.294C328.488 338.294 337.001 338.341 345.514 338.341C345.607 338.664 345.699 338.988 345.838 339.312C351.252 339.312 356.665 339.266 362.078 339.266C362.865 309.793 363.651 280.274 364.484 250.801C369.204 250.523 374.062 251.911 377.902 254.641C373.09 296.699 384.194 338.711 388.451 380.815C391.968 415.516 395.947 430.599 394.79 465.439C392.893 522.395 385.86 599.247 383.963 656.203C383.917 657.637 306.927 655.324 298.136 655.232C299.663 655.232 291.288 553.858 290.825 546.316C288.466 506.895 285.366 465.671 287.633 426.25C288.512 410.519 293.463 396.222 295.637 380.121Z" fill="#AA6A64"/>
<path d="M315.394 205.599C315.533 202.221 315.856 198.89 316.689 195.605C319.512 184.223 331.541 167.659 345.237 172.563C348.429 173.72 351.113 175.848 353.704 178.069C356.341 180.336 358.886 182.742 361.061 185.426C365.132 190.561 368.001 197.178 368.463 203.748C368.88 209.855 367.122 216.333 365.41 222.163C363.143 229.889 359.765 237.986 352.871 242.15C343.71 247.703 330.986 243.909 324 235.765C317.059 227.622 315.024 216.287 315.394 205.599Z" fill="#E4D2BC"/>
<path d="M327.47 263.526C327.701 262.786 328.349 262.277 328.997 261.815C328.997 261.815 328.997 261.815 329.043 261.815C314.885 248.582 310.304 226.327 308.454 213.464C307.436 206.246 307.528 198.797 309.656 191.811C311.831 184.871 316.18 178.439 322.427 174.691C325.341 172.933 328.626 171.777 331.865 170.666C334.364 169.833 337.51 169.186 339.592 170.528C342.368 168.353 346.44 168.214 349.771 169.509C353.334 170.898 356.156 173.628 358.793 176.404C362.911 180.799 366.705 185.518 369.713 190.793C374.339 198.936 376.838 208.19 377.486 217.536C377.717 220.867 377.717 224.199 376.93 227.437C375.82 232.064 373.183 236.136 370.592 240.115C370.129 240.855 369.62 241.596 368.834 242.012C368.093 242.428 366.983 242.382 366.474 241.688C366.011 241.087 366.196 240.207 366.335 239.467C369.713 223.366 364.392 206.617 356.48 192.227C353.102 186.074 349.031 179.966 343.062 176.357C342.507 176.033 341.859 175.709 341.258 175.848C340.841 177.468 339.916 179.18 338.991 180.568C333.994 188.063 328.997 195.512 324 203.008C321.131 207.311 318.124 211.938 317.938 217.12C317.707 222.903 321.038 228.132 323.537 233.36C325.758 237.987 334.826 251.589 332.235 260.195C332.929 259.918 333.67 259.64 334.364 259.455C339.592 266.117 341.905 275.001 340.61 283.422C340.101 279.952 336.353 278.147 333.623 275.926C330.246 273.243 328.025 269.171 327.516 264.868C327.377 264.36 327.331 263.943 327.47 263.526Z" fill="#998675"/>
<path d="M433.979 288.511C432.267 286.382 429.028 286.613 426.299 286.984C415.287 288.557 404.229 289.621 393.17 290.13C387.479 290.407 369.111 286.891 369.898 295.682C370.869 306.972 373.044 318.169 376.329 329.042C377.439 330.615 379.707 330.615 381.604 330.476C399.926 329.088 418.433 327.838 436.848 328.301C438.652 328.347 440.781 328.024 441.613 326.451C442.169 325.433 441.983 324.183 441.798 323.027C440.225 312.894 438.652 302.807 437.079 292.675C435.737 291.286 435.182 290.037 433.979 288.511Z" fill="#666767"/>
<path d="M415.38 301.235C416.074 302.808 415.472 303.964 414.917 305.029C408.809 316.272 402.748 327.469 396.641 338.712C394.05 343.477 390.765 348.613 383.316 348.058C381.419 347.919 379.105 347.271 377.254 345.698C377.439 337.277 381.835 331.355 387.618 326.682C389.006 325.525 390.487 324.461 391.69 323.166C392.754 322.009 393.633 320.667 394.466 319.325C396.687 315.763 398.723 312.107 400.62 308.313C400.944 307.619 401.314 306.926 401.314 306.093C401.314 304.936 400.759 303.594 400.527 302.345C400.296 301.096 400.435 299.893 401.591 299.615C401.73 299.569 401.915 299.569 402.101 299.661C402.517 299.893 402.656 300.356 402.702 300.726C402.748 301.096 403.211 301.651 403.535 301.605C404.368 300.957 403.859 299.43 403.905 298.227C404.229 294.294 413.112 295.96 415.38 301.235Z" fill="#E4D2BC"/>
<path d="M305.354 251.866C299.431 260.101 297.812 270.651 296.655 280.737C294.666 297.903 293.509 315.207 293.092 332.465C292.907 341.58 292.954 350.88 295.637 359.578C296.516 362.493 298.598 365.824 301.606 365.361C304.613 364.899 305.585 361.059 305.816 358.005C307.76 334.732 309.703 311.505 311.6 288.232C312.664 275.648 313.312 261.675 305.354 251.866Z" fill="#E4D2BC"/>
<path d="M530.726 255.752C545.301 259.453 553.629 283.513 554.23 296.051C555.572 325.154 555.572 354.303 557.191 383.359C558.117 400.525 559.32 417.69 560.662 434.81C562.05 452.715 563.16 456.232 545.995 457.805C515.411 460.627 484.458 460.627 453.874 457.851C450.404 457.527 450.451 403.44 450.312 398.859C449.572 370.312 453.227 341.348 462.203 313.957C467.385 298.133 475.898 282.957 488.668 271.761C498.292 263.293 511.293 257.787 523.878 255.474C526.284 255.104 528.552 255.196 530.726 255.752Z" fill="#ACB18F"/>
<path d="M508.795 244.601C511.016 240.529 512.173 235.393 511.849 229.425C511.247 218.367 509.304 207.123 503.613 197.638C497.043 186.719 482.515 176.818 469.19 181.398C453.597 186.765 457.113 207.262 459.843 220.865C462.018 231.646 467.246 242.287 476.176 248.672C489.547 258.296 502.919 255.242 508.795 244.601Z" fill="#E3DACD"/>
<path d="M500.744 214.898C503.15 222.023 506.898 228.732 511.756 234.516C512.728 235.904 514.579 233.729 514.81 232.064C516.707 219.062 515.735 195.882 512.635 183.112C509.535 170.342 503.52 167.936 491.121 163.633C482.098 160.487 471.549 161.967 463.684 167.381C455.818 172.84 450.728 182.094 450.219 191.625C450.173 192.551 450.219 193.522 450.775 194.216C451.7 195.327 453.412 195.095 454.8 194.771C462.758 192.828 470.716 189.821 478.859 190.561C487.003 191.348 495.47 197.547 495.146 205.737C498.246 204.765 501.531 203.84 504.631 204.812C507.685 205.783 509.998 209.67 508.24 212.353C506.158 214.204 503.428 215.083 500.744 214.898Z" fill="#8C6239"/>
<path d="M489.917 356.663C494.914 345.975 497.829 334.408 500.559 322.933C504.954 304.38 508.887 285.734 512.357 266.995C512.959 263.849 513.514 260.564 512.635 257.51C511.756 254.456 508.98 251.68 505.787 251.911C489.131 284.299 478.489 319.741 474.556 355.923C474.279 358.56 474.093 361.521 475.852 363.557C477.887 365.916 481.82 365.824 484.411 364.112C487.002 362.354 488.576 359.485 489.917 356.663Z" fill="#E3DACD"/>
<path d="M487.465 349.816C494.498 344.634 501.993 340.146 509.905 336.49C510.368 336.259 510.923 336.074 511.386 336.259C511.848 336.444 512.08 336.907 512.265 337.37C513.792 340.84 514.994 344.495 515.781 348.196C516.336 350.787 516.568 353.887 514.671 355.784C513.653 356.802 512.172 357.219 510.831 357.728C504.214 360.226 498.94 365.547 492.231 367.814C487.234 369.48 481.82 369.294 476.546 369.063C476.037 369.063 475.482 368.971 475.204 368.601C475.019 368.323 474.973 367.999 474.973 367.675C474.788 365.13 474.649 362.401 475.759 360.133C476.361 358.93 477.24 357.959 478.119 356.987C482.376 352.314 482.422 353.563 487.465 349.816Z" fill="#E3DACD"/>
<path opacity="0.26" d="M307.667 345.651C307.667 341.07 302.855 341.07 302.809 345.651C302.161 447.302 302.855 549.138 306.51 650.697C306.742 656.527 312.942 656.573 312.757 650.697C309.657 549 307.389 447.441 307.667 345.651Z" fill="#E3E4E5"/>
<path opacity="0.26" d="M332.744 343.986C332.744 339.405 327.932 339.405 327.886 343.986C327.238 445.637 327.933 547.473 331.588 649.032C331.819 654.862 337.973 654.908 337.834 649.032C334.734 547.335 332.421 445.776 332.744 343.986Z" fill="#E3E4E5"/>
<path opacity="0.26" d="M352.732 343.986C352.732 339.405 347.92 339.405 347.874 343.986C347.226 445.637 347.92 547.473 351.575 649.032C351.807 654.862 358.007 654.908 357.822 649.032C354.722 547.335 352.408 445.776 352.732 343.986Z" fill="#E3E4E5"/>
<path opacity="0.26" d="M375.543 347.964C375.543 343.384 370.731 343.384 370.684 347.964C370.037 449.616 370.731 551.452 374.386 653.011C374.617 658.84 380.771 658.887 380.632 653.011C377.486 551.313 375.219 449.754 375.543 347.964Z" fill="#E3E4E5"/>
<path d="M353.935 304.427C351.899 304.196 349.262 304.936 347.689 306.324C345.746 308.036 345.005 310.766 344.358 313.357C344.08 312.385 343.062 311.691 342.137 311.784C341.165 311.876 340.425 312.802 340.471 313.773C340.517 314.976 341.628 315.994 341.582 317.197C341.535 318.123 340.795 318.77 340.147 319.372C329.413 328.533 317.615 336.445 307.343 346.161C304.382 348.937 303.364 351.991 301.282 355.368C299.709 357.913 297.025 361.244 299.385 364.391C301.375 367.074 305.354 366.426 308.315 365.27C331.264 356.016 344.497 332.234 356.11 309.933C358.007 306.324 356.387 304.705 353.935 304.427Z" fill="#E4D2BC"/>
<defs>
<linearGradient id="paint0_linear" x1="438.681" y1="694.627" x2="639.9" y2="694.627" gradientUnits="userSpaceOnUse">
<stop stop-color="#4D4D4D"/>
<stop offset="1"/>
</linearGradient>
<linearGradient id="paint1_linear" x1="438.681" y1="694.627" x2="639.9" y2="694.627" gradientUnits="userSpaceOnUse">
<stop/>
<stop offset="1"/>
</linearGradient>
<linearGradient id="paint2_linear" x1="277.012" y1="689.086" x2="424.899" y2="689.086" gradientUnits="userSpaceOnUse">
<stop stop-color="#4D4D4D"/>
<stop offset="1"/>
</linearGradient>
<linearGradient id="paint3_linear" x1="277.012" y1="689.086" x2="424.899" y2="689.086" gradientUnits="userSpaceOnUse">
<stop/>
<stop offset="1"/>
</linearGradient>
</defs>
</svg>
