<svg width="162" height="162" viewBox="0 0 162 162" fill="none" xmlns="http://www.w3.org/2000/svg">
<circle cx="81" cy="81" r="81" fill="#E0DDFF"/>
<path d="M94.8755 137.16C97.6255 137.25 100.365 137.2 103.105 137.16C110.765 137.03 118.425 136.9 126.085 136.77C127.275 136.75 128.816 136.51 128.896 135.66C128.976 134.9 127.765 134.41 126.735 134.19C123.065 133.38 119.216 133.22 115.406 133.08C109.806 132.88 104.195 132.71 98.5854 132.58C95.0854 132.5 91.4855 132.44 88.2255 133.28C86.4455 133.74 83.8155 135.69 86.6455 136.64C87.4255 136.9 89.0155 136.78 89.8555 136.85C91.5355 136.99 93.2055 137.11 94.8755 137.16Z" fill="url(#paint0_linear)"/>
<path d="M94.8755 137.16C97.6255 137.25 100.365 137.2 103.105 137.16C110.765 137.03 118.425 136.9 126.085 136.77C127.275 136.75 128.816 136.51 128.896 135.66C128.976 134.9 127.765 134.41 126.735 134.19C123.065 133.38 119.216 133.22 115.406 133.08C109.806 132.88 104.195 132.71 98.5854 132.58C95.0854 132.5 91.4855 132.44 88.2255 133.28C86.4455 133.74 83.8155 135.69 86.6455 136.64C87.4255 136.9 89.0155 136.78 89.8555 136.85C91.5355 136.99 93.2055 137.11 94.8755 137.16Z" fill="url(#paint1_linear)"/>
<path d="M87.4653 80.4697C87.5653 80.6997 87.5053 80.9797 87.3753 81.1897C87.2453 81.4097 87.0653 81.5897 86.8953 81.7797C86.4953 82.2497 86.2153 82.8097 85.8353 83.2797C85.7253 83.4097 85.5952 83.5397 85.4252 83.5397C85.2752 83.5397 85.1453 83.4297 84.9953 83.4397C84.8153 83.4497 84.6853 83.6097 84.5553 83.7297C84.2353 84.0297 83.7553 84.1497 83.3253 84.0197C82.9053 83.8997 82.5553 83.5397 82.4553 83.1097C82.2853 82.4497 82.6853 81.7597 83.1853 81.2997C83.6853 80.8397 84.3052 80.5097 84.7952 80.0297C84.9852 79.8497 85.1453 79.6397 85.3453 79.4797C85.5453 79.3097 85.7953 79.1897 86.0553 79.1897C86.4553 79.1897 86.5653 79.4897 86.7653 79.7597C86.9653 80.0197 87.3253 80.1597 87.4653 80.4697Z" fill="#F9E9DE"/>
<path d="M88.3754 76.6998C91.9054 70.6598 94.2554 63.9298 95.2554 57.0098C95.3654 56.2798 95.4555 55.5298 95.7655 54.8598C96.0755 54.1898 96.6555 53.5998 97.3855 53.4698C98.2655 53.3198 99.1354 53.8998 99.5954 54.6598C100.045 55.4198 100.165 56.3398 100.205 57.2298C100.445 61.6898 99.2354 66.1698 97.0754 70.0898C94.9154 73.9998 91.8254 77.3598 88.3054 80.1098C87.9554 80.3798 87.5654 80.6598 87.1254 80.6098C86.1454 80.4998 85.9854 79.5198 86.4154 78.9598C87.0354 78.1498 87.8354 77.6298 88.3754 76.6998Z" fill="#965E59"/>
<path d="M100.686 131.97C101.436 131.75 102.206 131.55 102.966 131.39C103.386 131.3 103.816 131.21 104.156 130.96C104.496 130.71 104.716 130.23 104.536 129.85C105.326 129.75 106.126 129.69 106.926 129.65C107.116 129.64 107.336 129.64 107.486 129.76C107.616 129.86 107.666 130.03 107.706 130.18C108.026 131.32 108.246 132.48 108.356 133.66C108.366 133.75 108.366 133.85 108.306 133.91C108.266 133.95 108.196 133.96 108.136 133.97C105.336 134.41 102.516 134.67 99.6756 134.77C98.7856 134.8 97.5657 134.88 98.1257 133.63C98.5657 132.66 99.7456 132.24 100.686 131.97Z" fill="#3D322B"/>
<path d="M116.695 129.35C116.245 129.4 115.725 129.5 115.545 129.85C115.365 130.21 115.665 130.62 115.555 130.99C115.505 131.17 115.365 131.33 115.205 131.47C114.685 131.91 113.985 132.16 113.285 132.37C112.595 132.58 111.875 132.78 111.285 133.15C110.695 133.52 110.245 134.12 110.315 134.74C113.465 134.8 116.615 134.6 119.725 134.16C119.835 134.14 119.955 134.12 120.035 134.06C120.115 133.99 120.135 133.88 120.145 133.77C120.215 132.6 119.595 131.52 119.345 130.4C119.265 130.04 119.395 129.3 118.965 129.12C118.535 128.93 117.185 129.29 116.695 129.35Z" fill="#3D322B"/>
<path d="M112.655 84.1397C112.915 83.1897 113.115 82.1797 112.675 81.2797C112.175 80.2597 110.955 79.5698 109.755 78.9898C108.245 78.2698 106.615 77.6198 104.845 77.5098C102.885 77.3898 100.215 78.1097 99.6752 79.7197C98.9252 81.9797 99.2053 84.7397 98.9553 87.0797C98.3853 92.2497 97.7153 97.4298 97.7653 102.62C97.7953 105.53 98.0452 108.44 98.6652 111.31C99.1752 113.68 99.9353 116.02 100.695 118.36C101.345 120.37 102.005 122.38 102.655 124.39C102.605 124.65 102.575 124.93 102.585 125.09C102.615 125.81 103.425 126.41 103.235 127.1C103.175 127.31 103.035 127.48 102.935 127.68C102.835 127.87 102.775 128.12 102.885 128.3C103.005 128.5 103.275 128.56 103.415 128.74C103.565 128.94 103.515 129.21 103.435 129.44C103.355 129.67 103.245 129.9 103.275 130.14C104.175 130.7 105.315 130.61 106.375 130.51C107.015 130.45 107.645 130.39 108.285 130.33C108.455 130.31 108.645 130.29 108.775 130.18C108.985 130 108.975 129.66 108.875 129.4C108.765 129.14 108.595 128.91 108.525 128.64C108.365 127.99 108.855 127.22 108.465 126.68C108.375 126.55 108.235 126.45 108.155 126.31C107.995 126.03 108.105 125.69 108.125 125.38C108.165 124.77 107.885 124.19 107.605 123.65C107.565 123.57 107.525 123.49 107.445 123.44C107.425 123.43 107.395 123.42 107.365 123.42C106.485 117.43 104.575 111.48 105.245 105.49C106.055 98.1398 110.705 91.3697 112.655 84.1397Z" fill="#662E2A"/>
<path d="M119.635 83.9198C119.675 83.4898 119.675 83.0398 119.535 82.6298C119.365 82.1398 119.005 81.7498 118.605 81.4198C117.135 80.2398 115.105 79.9298 113.245 80.2398C111.935 80.4598 109.875 80.9198 108.975 82.0198C108.175 82.9998 108.275 84.7598 108.145 85.9298C107.685 90.1898 107.375 94.4798 107.205 98.7598C107.135 100.55 107.095 102.36 107.335 104.13C107.555 105.74 108.015 107.31 108.465 108.87C109.375 111.99 110.285 115.11 111.565 118.1C112.305 119.82 113.175 121.49 113.725 123.28C113.825 123.81 113.785 124.36 113.535 124.84C113.455 125 113.355 125.15 113.305 125.32C113.225 125.6 113.305 125.91 113.495 126.12C113.665 126.31 113.925 126.41 114.085 126.61C114.285 126.85 114.315 127.19 114.275 127.49C114.235 127.8 114.125 128.09 114.065 128.39C114.045 128.48 114.035 128.57 114.075 128.66C114.125 128.77 114.235 128.82 114.335 128.89C114.645 129.12 114.755 129.59 114.575 129.93C115.215 130.16 115.925 130.09 116.595 129.96C117.265 129.83 117.935 129.64 118.615 129.65C118.775 129.65 118.945 129.67 119.105 129.63C119.265 129.59 119.415 129.48 119.455 129.32C119.525 129.05 119.265 128.83 119.145 128.58C119.045 128.38 119.035 128.14 119.035 127.92C119.025 127.51 119.015 127.1 119.005 126.69C118.995 126.44 118.995 126.19 118.905 125.96C118.815 125.73 118.645 125.53 118.515 125.32C118.205 124.77 118.215 124.1 118.175 123.47C118.135 122.86 118.045 122.24 117.895 121.65C117.865 121.55 117.845 121.44 117.775 121.35C117.765 121.33 117.735 121.32 117.725 121.3C117.585 119.15 117.405 117.01 116.945 114.91C116.625 113.49 116.185 112.1 115.915 110.68C115.615 109.09 115.545 107.46 115.555 105.84C115.575 100.37 116.445 94.8998 118.135 89.6898C118.745 87.7898 119.475 85.8998 119.635 83.9198Z" fill="#662E2A"/>
<path d="M91.9255 43.7297C92.6455 45.7697 93.5256 47.9197 95.4056 49.1097C96.7756 49.9797 98.5755 50.2197 100.176 49.7297C101.776 49.2497 103.126 48.0597 103.746 46.5897C104.036 45.8897 104.176 45.1497 104.266 44.4097C104.586 41.9697 104.506 39.4997 104.046 37.0997C103.886 36.2597 103.296 35.6097 102.936 34.8397C102.416 33.7397 100.746 32.5497 99.8656 32.2797C97.8156 31.6397 96.0555 32.2097 94.1655 32.8697C91.7655 33.7097 90.8555 35.9397 90.5355 38.0997C90.2755 39.7797 91.3655 42.1497 91.9255 43.7297Z" fill="#F9E9DE"/>
<path d="M103.825 43.5398C103.715 43.7398 103.725 43.9698 103.695 44.1798C103.625 44.7598 103.325 45.2998 103.035 45.8198C102.805 46.2298 102.565 46.6398 102.205 46.9598C101.845 47.2798 101.345 47.4798 100.865 47.3798C100.105 47.2098 99.7355 46.3498 98.9955 46.1398C98.4855 45.9998 97.9454 46.1898 97.4454 46.3798C96.8454 46.6098 96.2154 46.8698 95.7954 47.3498C95.6554 47.5098 95.5455 47.6998 95.5255 47.9098C95.4755 47.8898 95.4355 47.8598 95.3755 47.8398C94.7455 47.5998 94.1555 47.2398 93.6355 46.8098C93.5355 46.7298 93.3754 46.6398 93.2854 46.7298C93.2054 46.8098 93.2554 46.9498 93.3154 47.0498C93.7654 47.8098 94.2254 48.5798 94.8154 49.2498C95.0754 49.5398 95.3855 49.8298 95.7655 49.9198C95.8355 49.9398 95.9254 49.9398 95.9854 49.8998C96.0254 49.8698 96.0354 49.8198 96.0454 49.7798C96.0954 49.8498 96.1354 49.9298 96.2054 49.9898C96.5954 50.3398 97.1454 50.5198 97.6754 50.5498C98.3654 50.5998 99.0554 50.4398 99.7254 50.2698C100.355 50.1098 100.995 49.9298 101.535 49.5898C102.285 49.1198 102.805 48.3898 103.215 47.6298C103.925 46.2998 104.335 44.8398 104.405 43.3698C104.225 43.2198 103.935 43.3498 103.825 43.5398ZM99.2854 48.1398C99.2854 48.3398 99.1555 48.4398 99.0055 48.4698C98.8855 48.5598 98.7154 48.5898 98.5554 48.4798C98.3954 48.3698 98.1155 48.2698 97.8655 48.2698C97.7455 48.3198 97.6255 48.3598 97.5155 48.4198C97.4655 48.4898 97.4254 48.5698 97.4354 48.6898C97.4554 48.9898 97.0954 49.3098 96.7954 49.0798C96.5354 48.8798 96.4354 48.6698 96.4154 48.4598C96.3354 48.3098 96.3655 48.1298 96.5255 48.0298C97.0755 47.1398 99.2654 46.6398 99.2854 48.1398Z" fill="#EAEEEF"/>
<path d="M102.195 35.5198C101.945 36.0298 101.485 36.4298 101.275 36.9598C100.935 37.7898 101.275 38.7398 101.705 39.5298C101.805 39.7198 101.925 39.9098 102.105 40.0098C102.375 40.1598 102.725 40.0798 102.975 39.8898C103.225 39.6998 103.385 39.4298 103.525 39.1498C104.095 38.0898 104.595 36.8398 104.175 35.7098C103.985 35.1798 103.605 34.7398 103.245 34.3098C103.005 34.0198 102.735 33.7298 102.365 33.6298C102.135 34.1698 102.505 34.8898 102.195 35.5198Z" fill="#EAEEEF"/>
<path d="M99.4154 51.4297C100.695 50.9797 101.835 50.1897 103.065 49.6097C103.535 49.3897 104.035 49.1897 104.555 49.1897C105.215 49.1897 105.825 49.4997 106.375 49.8497C109.415 51.7897 113.455 54.6897 115.075 57.9197C119.165 66.0897 121.455 75.1597 121.185 84.2897C121.175 84.6997 121.145 85.1397 120.875 85.4397C120.645 85.7097 120.275 85.8097 119.935 85.8997C114.475 87.3097 104.865 87.6897 99.2354 87.4397C98.7654 87.4197 98.2555 87.3797 97.8955 87.0697C97.5255 86.7597 97.3954 86.2397 97.2954 85.7697C96.1054 80.1697 97.5355 75.0097 96.5255 69.3697C95.8255 65.4197 95.1654 61.4397 94.9654 57.4197C94.9054 56.1197 94.3854 53.4197 95.2854 52.3297C96.1554 51.2797 98.2154 51.8497 99.4154 51.4297Z" fill="#AA6A64"/>
<path d="M85.6055 81.3698C81.9855 81.1898 80.7354 86.3598 81.0454 89.2598C81.2154 90.8298 83.3555 90.5398 83.0755 88.9698C82.9155 88.0698 82.7455 84.8998 83.7555 84.2898C85.3155 82.7198 86.8454 83.2698 88.1854 85.5998L88.9055 87.6498C89.4455 89.9798 89.1255 92.5698 89.0155 94.9498C88.8055 99.3298 88.6154 103.72 88.4254 108.1C88.0654 116.63 87.9555 125.13 87.9555 133.66C87.9555 134.13 88.6355 134.13 88.6455 133.66C88.8455 126.43 89.1755 119.2 89.4755 111.97C89.7755 104.81 90.7355 97.5498 90.6955 90.3998C90.6755 87.2398 89.5155 81.5598 85.6055 81.3698Z" fill="#A78E41"/>
<path d="M95.6054 61.4698C96.5154 60.0998 97.2954 58.6498 97.9554 57.1498C98.6154 55.6298 99.1455 53.9698 98.8655 52.3398C98.8155 52.0698 98.7454 51.7898 98.5454 51.5998C98.3254 51.3898 98.0054 51.3498 97.7054 51.3098C96.9054 51.2098 96.0155 51.1298 95.3655 51.5998C94.5155 52.2098 94.4555 53.4298 94.4855 54.4798C94.5555 56.7998 94.6654 59.1098 94.8054 61.4198C94.8354 62.0798 95.3354 61.8698 95.6054 61.4698Z" fill="#965E59"/>
<path d="M106.336 56.2797C108.736 57.4197 111.546 57.6797 114.116 56.9997C114.266 56.3897 113.806 55.8197 113.386 55.3597C112.206 54.0697 111.026 52.7797 109.846 51.4897C108.996 50.5597 108.095 49.5897 106.915 49.1397C105.715 48.6797 104.406 48.8297 103.216 49.2597C102.646 49.4697 101.926 49.7397 101.466 50.1397C100.836 50.6797 100.886 50.6397 101.216 51.4097C102.126 53.5097 104.316 55.3097 106.336 56.2797Z" fill="#965E59"/>
<path d="M90.1054 56.4797C89.8554 56.3297 89.5953 56.1697 89.3153 56.1297C88.6053 56.0097 88.0454 56.5797 87.6054 57.0997C87.0154 57.7897 86.1554 59.0297 86.5754 60.0997C86.7854 60.6297 87.2854 61.0097 87.7654 61.3397C89.5954 62.5997 90.7354 63.5797 92.7554 64.4897C93.1954 64.6897 93.6554 64.8797 94.1154 64.8597C95.0354 64.8097 95.6153 63.9497 96.0453 63.1697C96.3253 62.6797 96.6053 62.1097 96.4353 61.5497C96.3353 61.2297 96.0954 60.9597 95.8654 60.7097C94.2154 58.9697 92.1454 57.7097 90.1054 56.4797Z" fill="#4D4D4D"/>
<path d="M103.735 66.1197C103.885 66.1697 104.055 66.2197 104.205 66.1697C104.505 66.0797 104.585 65.6897 104.595 65.3697C104.675 62.5197 103.635 59.7597 103.525 56.9097C103.475 55.6297 103.615 54.3597 103.755 53.0797C103.865 52.0497 104.045 50.8997 104.845 50.2397C105.995 49.2897 107.865 49.9397 108.705 51.1697C109.545 52.3997 109.645 53.9697 109.715 55.4597C109.915 60.0897 110.045 64.7897 109.005 69.2997C108.875 69.8497 108.715 70.4297 108.315 70.8297C107.845 71.3097 107.115 71.4497 106.455 71.3597C105.795 71.2697 105.175 70.9797 104.565 70.6897C101.585 69.2797 98.6153 67.8697 95.6353 66.4597C95.2253 66.2697 94.7953 66.0497 94.5853 65.6497C94.1953 64.8897 94.8352 63.8197 95.4252 63.3397C96.2552 62.6597 96.6953 63.0397 97.5853 63.5097C99.5553 64.5697 101.615 65.4397 103.735 66.1197Z" fill="#965E59"/>
<path d="M91.2954 63.2898C90.9554 63.0998 90.6055 62.8998 90.4055 62.5698C90.2555 62.3098 90.2154 61.9998 90.2054 61.6998C90.1954 61.2798 90.2755 60.7798 90.6555 60.5898C90.9455 60.4498 91.2954 60.5598 91.5854 60.7098C91.8754 60.8598 92.1454 61.0598 92.4654 61.0898C92.7754 61.1298 93.0955 61.0098 93.3955 61.0898C93.7855 61.1898 94.0154 61.5798 94.3054 61.8598C94.5854 62.1298 94.9454 62.3098 95.2554 62.5298C95.5754 62.7498 95.8754 63.0498 95.9554 63.4298C96.0254 63.7898 95.8854 64.1797 95.6254 64.4497C94.9654 65.1197 94.3554 64.7697 93.6154 64.4497C92.8154 64.1197 92.0554 63.6998 91.2954 63.2898Z" fill="#F9E9DE"/>
<path d="M72.2761 133.992C70.4661 133.982 68.6461 133.872 66.8361 133.762C61.7861 133.452 56.7362 133.142 51.6762 132.832C50.8862 132.782 49.8762 132.562 49.8462 131.912C49.8162 131.332 50.6262 130.992 51.3062 130.852C53.7462 130.332 56.2961 130.322 58.8161 130.322C62.5161 130.322 66.2262 130.352 69.9262 130.402C72.2362 130.432 74.6162 130.492 76.7462 131.222C77.9062 131.622 79.5961 133.182 77.6961 133.822C77.1761 134.002 76.1261 133.862 75.5661 133.892C74.4861 133.962 73.3761 134.002 72.2761 133.992Z" fill="url(#paint2_linear)"/>
<path opacity="0.22" d="M72.2761 133.992C70.4661 133.982 68.6461 133.872 66.8361 133.762C61.7861 133.452 56.7362 133.142 51.6762 132.832C50.8862 132.782 49.8762 132.562 49.8462 131.912C49.8162 131.332 50.6262 130.992 51.3062 130.852C53.7462 130.332 56.2961 130.322 58.8161 130.322C62.5161 130.322 66.2262 130.352 69.9262 130.402C72.2362 130.432 74.6162 130.492 76.7462 131.222C77.9062 131.622 79.5961 133.182 77.6961 133.822C77.1761 134.002 76.1261 133.862 75.5661 133.892C74.4861 133.962 73.3761 134.002 72.2761 133.992Z" fill="url(#paint3_linear)"/>
<path d="M66.0961 48.962C66.1561 48.592 66.4361 48.302 66.7161 48.042C66.8561 47.912 67.0061 47.772 67.1561 47.652C67.9461 47.032 68.9761 46.7219 69.9861 46.8119C70.2761 46.8419 70.5761 46.902 70.7861 47.092C70.9561 47.252 71.0561 47.472 71.0961 47.702C71.1061 47.752 71.1161 47.812 71.0961 47.862C71.0561 48.052 70.8261 48.122 70.6361 48.152C70.4361 48.182 70.2261 48.222 70.0661 48.342C69.9061 48.462 69.8061 48.702 69.9061 48.872C69.9561 48.952 70.0361 49.012 70.0561 49.102C70.0861 49.252 69.9361 49.382 69.7861 49.432C69.2361 49.612 68.6361 49.322 68.0761 49.442C67.9061 49.482 67.7361 49.552 67.5661 49.602C67.3961 49.642 67.2061 49.662 67.0461 49.572C66.8861 49.552 66.7161 49.522 66.5561 49.482C66.3961 49.442 66.2161 49.382 66.1361 49.242C66.0861 49.162 66.0761 49.062 66.0961 48.962Z" fill="#EADDD0"/>
<path d="M75.1861 42.542C73.8761 42.352 72.5462 42.152 71.2162 42.212C70.9562 42.222 70.6762 42.252 70.4862 42.422C70.3062 42.582 70.2461 42.832 70.1861 43.072C68.8261 48.912 67.4762 54.752 66.1162 60.592C66.0962 60.692 66.0662 60.792 66.0862 60.892C66.1262 61.122 66.3562 61.252 66.5562 61.352C69.9562 63.002 73.8762 63.072 77.6462 63.102C77.9762 63.102 78.3262 63.102 78.5862 62.912C78.8762 62.712 78.9862 62.352 79.0862 62.012C80.6262 56.502 80.9862 50.722 82.2762 45.142C82.3662 44.752 82.4662 44.332 82.3362 43.942C82.0562 43.102 80.0961 43.262 79.3761 43.162C77.9861 42.962 76.5861 42.752 75.1861 42.542Z" fill="#545454"/>
<path d="M75.1162 43.292C73.9062 43.112 72.6762 42.932 71.4562 42.962C71.2162 42.972 70.9562 42.992 70.7862 43.142C70.6262 43.282 70.5662 43.492 70.5162 43.702C69.3262 48.762 68.1361 53.822 66.9461 58.892C66.9261 58.972 66.9062 59.062 66.9262 59.152C66.9662 59.352 67.1762 59.472 67.3662 59.562C70.5162 61.032 74.1362 61.132 77.6162 61.202C77.9162 61.212 78.2362 61.212 78.4862 61.052C78.7462 60.882 78.8561 60.562 78.9361 60.272C80.2961 55.492 80.5762 50.482 81.7062 45.642C81.7862 45.302 81.8662 44.942 81.7462 44.602C81.4762 43.862 79.6762 43.992 79.0162 43.892C77.7062 43.682 76.4062 43.482 75.1162 43.292Z" fill="#F7F7F7"/>
<path d="M72.8761 62.012C72.8461 62.062 72.7961 62.102 72.7561 62.132C72.6461 62.202 72.5261 62.242 72.3961 62.232C72.2661 62.222 72.1461 62.172 72.0661 62.082C71.8161 61.792 71.9162 61.292 72.3462 61.262C72.6662 61.242 73.0661 61.702 72.8761 62.012Z" fill="#F7F7F7"/>
<path d="M59.2662 56.672C60.2762 55.422 60.9662 53.942 61.9962 52.712C63.3862 51.052 64.8662 49.862 65.7862 47.902C66.2162 48.572 67.6562 49.242 68.0862 49.912C66.4162 52.182 64.7462 54.092 64.0462 57.212C63.7162 58.652 62.1562 60.802 61.4062 62.082C61.0062 62.762 60.4662 63.352 59.8962 63.902C58.6662 65.092 57.2062 66.132 55.5262 66.432C52.9762 66.882 50.4862 65.202 50.5362 62.472C50.5862 60.022 53.9062 60.252 55.5862 59.492C57.0162 58.852 58.2962 57.882 59.2662 56.672Z" fill="#E0C74E"/>
<path d="M54.5963 46.562C53.7963 46.892 53.0263 47.102 52.4663 47.112C51.8063 47.122 51.1963 46.792 50.6163 46.482C49.4263 45.832 48.1763 45.112 47.5663 43.902C47.2163 43.192 47.1264 42.382 47.0564 41.592C46.8864 39.602 46.8063 37.612 46.8263 35.612C46.8363 34.592 46.8863 33.502 47.4563 32.652C48.4063 31.212 50.3763 30.962 52.1063 30.862C53.8063 30.762 55.6063 30.682 57.1163 31.482C58.6863 32.322 58.3263 33.562 58.4463 35.102C58.5963 37.032 58.6863 38.972 58.7063 40.902C58.7163 42.002 58.6763 43.162 58.1063 44.102C57.5563 44.992 56.0363 45.972 54.5963 46.562Z" fill="#EADDD0"/>
<path d="M44.7163 108.582C44.9963 101.062 44.4462 93.402 44.5062 85.832C44.3362 83.212 44.6263 80.5421 45.3563 78.0721C45.4063 77.9221 45.4463 77.762 45.5363 77.642C45.8163 77.282 46.2863 77.472 46.6563 77.662C50.1863 79.522 54.3663 79.0921 57.5963 76.4821C58.2363 77.7121 58.4162 79.232 58.5662 80.692C58.8162 83.052 59.0863 85.4121 59.1563 87.7921V87.802C59.1663 88.312 59.1763 88.822 59.1663 89.332C59.1163 92.292 58.6663 95.2021 58.3063 98.1221C58.0763 100.022 57.8663 101.942 57.8463 103.862C57.8263 105.442 57.9963 106.882 57.7163 108.422C57.0263 112.222 57.0163 116.362 56.7263 120.252C56.4063 124.412 56.0963 128.572 55.8363 132.742C55.8263 132.912 55.8163 133.072 55.8063 133.242C55.6363 133.302 53.1163 134.032 53.1163 133.202C52.9263 125.112 52.7363 117.022 52.5463 108.932C52.4663 105.532 52.6762 94.032 52.0062 90.782C51.7262 90.822 51.4463 90.852 51.1663 90.892C49.6163 101.592 47.7562 120.342 46.2062 131.042C46.0662 131.982 45.9063 133.002 45.4163 133.612C44.9263 134.222 44.0163 134.042 43.8663 133.112C44.3563 124.932 44.4163 116.762 44.7163 108.582Z" fill="#4D4D4D"/>
<path d="M52.0162 133.172C52.0462 133.082 52.0662 132.982 52.0962 132.892C52.4062 131.672 52.5662 130.412 52.5662 129.152C52.5662 128.582 52.5362 128.002 52.6662 127.442C53.3962 127.452 55.4462 127.322 56.1762 127.332C56.2362 127.332 56.3062 127.332 56.3562 127.372C56.4062 127.412 56.4262 127.492 56.4362 127.552C56.7562 129.292 55.6762 131.202 56.0662 132.932C56.2262 133.622 56.8662 133.872 57.4562 134.222C57.9662 134.532 58.9762 135.282 59.5862 135.282C59.9362 135.422 60.3062 135.562 60.5662 135.842C60.8262 136.122 60.9262 136.582 60.6862 136.882C60.4762 137.142 60.0962 137.162 59.7662 137.172C57.2262 137.192 54.6762 136.972 52.1762 136.512C52.0262 136.482 51.8662 136.452 51.7562 136.342C51.6662 136.252 51.6262 136.132 51.5962 136.022C51.3062 134.912 51.7262 134.132 52.0162 133.172Z" fill="#BE9F3E"/>
<path d="M42.7361 133.822C42.8161 133.552 42.9961 133.322 43.0861 133.062C43.1861 132.792 43.1361 132.452 43.1361 132.162C43.1361 130.842 43.1361 129.532 43.1361 128.212C43.1361 127.812 43.1761 127.342 43.5161 127.142C43.7461 127.002 44.0461 127.042 44.3061 127.092C45.0761 127.222 45.8561 127.362 46.6261 127.492C46.8261 127.532 47.0561 127.572 47.1661 127.742C47.2761 127.912 47.2461 128.132 47.2061 128.332C46.9761 129.602 46.8861 130.892 46.9261 132.172C46.9361 132.542 46.9661 132.912 46.9261 133.282C47.8161 134.042 48.7961 134.702 49.8561 135.212C50.1661 135.362 50.4861 135.512 50.7061 135.772C50.9261 136.042 50.9861 136.462 50.7461 136.712C50.5361 136.932 50.1961 136.932 49.9061 136.912C47.6261 136.772 45.3461 136.412 43.1361 135.842C43.0061 135.812 42.8661 135.772 42.7761 135.662C42.7061 135.582 42.6761 135.472 42.6561 135.362C42.5461 134.862 42.5761 134.322 42.7361 133.822Z" fill="#BE9F3E"/>
<path d="M54.6061 49.3021C54.2761 49.1921 53.946 49.0621 53.626 48.9421C51.996 48.3121 50.3661 47.6821 48.7461 47.0621C48.5061 46.9721 48.2461 46.8721 47.9961 46.9221C47.7961 46.9621 47.6361 47.0821 47.4761 47.2121C44.4261 49.6621 43.596 53.6521 42.756 57.2821C39.786 70.1121 38.836 83.3621 39.946 96.4621C47.216 97.7121 54.556 98.5321 61.936 98.9121C61.526 98.8921 60.6961 89.9221 60.5961 89.0421C60.0461 83.8621 59.756 78.6421 59.816 73.4321C59.876 68.2021 59.6061 62.9821 59.2361 57.7621C59.0861 55.6521 58.9161 53.5421 58.7261 51.4321C58.6561 50.6021 56.2661 49.7521 55.6661 49.6221C55.2961 49.5221 54.9461 49.4121 54.6061 49.3021Z" fill="#FCEE9F"/>
<path d="M70.9762 55.772C71.6862 54.862 72.3061 53.892 72.9361 52.912C73.1661 52.542 73.3762 52.062 73.1262 51.702C72.9762 51.492 72.6862 51.402 72.4262 51.432C72.1662 51.462 71.9262 51.592 71.7062 51.742C71.3862 51.962 71.1062 52.222 70.8262 52.502C69.5962 53.742 69.0562 55.602 68.5862 57.282C68.2362 58.542 68.1662 59.932 67.3862 60.982C67.5762 61.102 67.7662 61.222 67.9562 61.342C67.9962 61.372 68.0562 61.402 68.1062 61.382C68.1562 61.372 68.1862 61.312 68.2162 61.262C68.6562 60.362 69.0262 59.452 69.5462 58.582C70.0662 57.692 70.3462 56.602 70.9762 55.772Z" fill="#EDEDED"/>
<path d="M65.4164 61.782C65.3164 61.782 65.2063 61.782 65.1263 61.722C65.0163 61.652 64.9864 61.502 64.9664 61.372C64.6764 59.612 64.8564 57.802 65.0964 56.032C65.4964 55.962 65.9063 56.012 66.3163 56.062C67.4163 56.202 68.5164 56.342 69.6164 56.482C70.2664 56.562 70.9164 56.652 71.5164 56.892C71.2264 58.682 70.9364 60.472 70.6564 62.262C70.6364 62.382 65.8464 61.792 65.4164 61.782Z" fill="#E2E2E2"/>
<path d="M72.4564 49.982C72.6564 50.362 73.0064 50.632 73.3464 50.892C73.6264 51.102 73.9164 51.322 74.2664 51.362C74.8664 51.422 75.3664 50.922 75.7664 50.462C76.3664 49.772 76.9865 49.042 77.1765 48.152C77.3565 47.342 77.1365 46.462 76.6065 45.822C76.0765 45.192 75.2465 44.812 74.4165 44.842C73.4265 44.882 72.1864 45.312 72.1964 46.462C72.1964 46.982 72.2864 47.492 72.2664 48.012C72.2464 48.662 72.1464 49.392 72.4564 49.982Z" fill="#EDDCD1"/>
<path d="M72.1663 45.442C71.7763 45.972 71.5763 46.612 71.4063 47.252C71.3863 47.312 71.3763 47.372 71.3963 47.422C71.4363 47.512 71.5563 47.532 71.6563 47.532C72.6863 47.552 73.7263 47.582 74.7563 47.602C75.1063 47.612 75.5163 47.652 75.6863 47.962C75.7763 48.132 75.7664 48.332 75.7464 48.522C75.6864 48.972 75.5663 49.412 75.3863 49.832C75.7163 49.552 75.9163 49.132 76.0363 48.712C76.1063 48.472 76.2364 48.162 76.4864 48.182C76.7364 48.202 76.8163 48.552 76.6963 48.772C76.5863 48.992 76.3663 49.142 76.2263 49.352C76.1163 49.512 76.0663 49.702 76.0063 49.882C75.8463 50.402 75.6364 50.912 75.3064 51.342C74.9764 51.772 74.5164 52.122 73.9864 52.242C74.4164 52.162 74.8463 52.082 75.2763 52.002C75.7263 51.922 76.1863 51.832 76.6363 51.742C76.9563 51.682 77.2864 51.612 77.5564 51.422C77.7464 51.302 77.8963 51.132 78.0263 50.942C78.6663 50.032 78.7563 48.832 78.6563 47.722C78.5763 46.852 78.3863 45.942 77.7763 45.312C77.0763 44.582 75.9863 44.392 74.9763 44.282C73.9363 44.182 72.7963 44.562 72.1663 45.442Z" fill="#EDDDB2"/>
<path d="M75.3764 64.762C74.9464 63.392 74.8865 61.8919 75.3565 60.5319C75.7065 59.5119 76.3564 58.532 76.2764 57.452C76.2364 56.892 76.0064 56.3619 75.8164 55.832C75.3864 54.622 75.1764 53.332 75.2064 52.052C75.2064 51.982 75.2065 51.9119 75.1765 51.8619C75.1065 51.7519 74.9365 51.772 74.7965 51.792C74.3265 51.872 73.8365 51.7919 73.4065 51.5819C73.1665 51.4619 73.1265 51.3519 72.9165 51.5319C72.7465 51.6919 72.6165 51.982 72.4965 52.182C71.9365 53.062 71.4164 53.982 71.1264 54.982C70.9864 55.482 70.8964 56.0119 70.6464 56.4719C70.4364 56.8519 70.1365 57.162 69.8665 57.492C68.8965 58.722 68.4964 60.3019 67.6864 61.6419C67.5564 61.8619 67.4164 62.072 67.3364 62.322C67.2564 62.562 67.2565 62.8419 67.4065 63.0619C67.5065 63.2119 67.6664 63.312 67.8264 63.402C68.0564 63.542 68.2864 63.6719 68.5064 63.8119C68.8264 64.0019 69.1365 64.1919 69.4765 64.332C69.8965 64.502 70.3364 64.602 70.7764 64.692C71.5864 64.872 72.3964 65.0419 73.2064 65.2219C73.6664 65.3219 74.1265 65.422 74.5965 65.482C74.9165 65.522 75.3265 65.4819 75.4065 65.1719C75.4665 65.0419 75.4164 64.902 75.3764 64.762Z" fill="#F2F2F2"/>
<path d="M73.4264 62.562C72.9664 64.572 72.3663 66.592 70.9163 68.282C71.3763 68.002 72.2364 68.212 72.8064 68.532C73.3864 68.842 73.8663 69.262 74.5263 69.472C75.0963 69.652 75.7363 69.662 76.2063 69.482C77.1063 69.142 77.1563 68.292 77.1263 67.562C76.9763 63.842 76.7063 60.112 76.9063 56.442C76.9463 55.722 76.9963 54.972 76.5863 54.242C76.3463 53.812 75.9563 53.402 75.9063 52.972C75.8863 52.752 75.9563 52.542 75.8863 52.322C75.8163 52.102 74.9863 51.702 74.6563 51.682C74.0163 52.152 74.7663 53.032 74.7263 53.702C74.6763 54.422 74.6164 55.142 74.5464 55.862C74.3964 57.322 74.1863 58.782 73.9163 60.222C73.7663 61.002 73.6064 61.782 73.4264 62.562Z" fill="#ACB18F"/>
<path d="M69.6862 64.012C69.5862 65.192 69.5462 66.422 68.8362 67.442C68.7562 67.552 68.6762 67.662 68.5262 67.722C68.1462 67.902 67.5662 67.752 67.0662 67.632C65.8962 67.362 66.0362 67.072 64.9062 67.182C65.4862 65.702 66.0562 64.222 66.6362 62.742C67.3062 61.032 67.9762 59.302 69.1762 57.772C70.8462 55.632 71.4263 53.752 72.8663 51.522C72.9563 51.372 73.7862 51.602 74.0462 51.572C74.2362 51.832 73.6862 52.352 73.5362 52.592C73.2962 52.972 73.0762 53.362 72.8562 53.742C72.4262 54.522 72.0362 55.3119 71.6862 56.1119C70.9862 57.7319 70.4562 59.392 70.1062 61.092C69.9162 62.062 69.7762 63.032 69.6862 64.012Z" fill="#ACB18F"/>
<path d="M71.9065 61.3519C71.7765 61.3319 71.6365 61.3219 71.5465 61.4119C71.4965 61.4619 71.4765 61.5419 71.4065 61.5719C71.3665 61.5919 71.3164 61.5819 71.2664 61.5819C71.0664 61.5819 70.8865 61.7219 70.8365 61.9119C70.7865 62.1019 70.8865 62.3219 71.0565 62.4119C71.2565 62.5219 71.4964 62.4619 71.7064 62.4019C72.1064 62.2819 72.4865 62.1319 72.8565 61.9519C72.8965 61.9319 72.9365 61.9119 72.9665 61.8719C73.0965 61.6919 73.0164 61.3619 72.8164 61.3019C72.5764 61.2319 72.1765 61.3919 71.9065 61.3519Z" fill="#EDDCD1"/>
<path d="M73.3963 60.9519C74.2763 60.4819 74.9863 59.7419 75.5263 58.9119C75.6863 58.6619 75.8363 58.4019 75.9363 58.1219C76.0563 57.7819 76.0963 57.4119 76.1463 57.0519C76.2063 56.5619 76.2563 56.0619 76.1963 55.5819C76.1463 55.2619 76.0463 54.9419 75.9863 54.6219C75.8963 54.1319 75.8963 53.6319 75.9063 53.1319C75.9063 52.9919 75.9063 52.8419 75.9663 52.7119C76.0263 52.5819 76.1463 52.4719 76.2963 52.4719C76.4563 52.4819 76.5663 52.6119 76.6563 52.7419C77.4763 53.9019 77.7363 55.3619 77.6963 56.7819C77.6663 57.7819 77.4763 58.8119 76.9063 59.6319C76.6663 59.9719 76.3663 60.2619 76.0563 60.5319C75.1463 61.3219 74.0663 61.9819 72.8663 62.1019C72.8263 62.1019 72.7763 62.1119 72.7463 62.0819C72.7163 62.0619 72.7063 62.0219 72.7063 61.9819C72.6663 61.7919 72.5363 61.4919 72.6663 61.3119C72.7663 61.1419 73.2163 61.0419 73.3963 60.9519Z" fill="#EDEDED"/>
<path d="M69.1262 62.182C69.2362 61.772 69.3562 61.362 69.5662 60.982C69.8362 60.492 70.2662 60.102 70.7462 59.822C71.0462 59.642 71.4062 59.502 71.7462 59.592C72.0462 59.682 72.2662 59.952 72.3662 60.242C72.4662 60.542 72.4462 60.862 72.3962 61.172C72.1762 62.462 70.8862 64.552 69.3362 64.212C69.0662 64.152 68.7662 63.992 68.7362 63.712C68.7262 63.612 68.7562 63.512 68.7762 63.412C68.8962 63.012 69.0162 62.602 69.1262 62.182Z" fill="#EADDD0"/>
<path d="M53.8862 67.882C54.6362 69.672 55.6762 71.642 57.5662 72.112C58.7962 72.412 60.0862 71.972 61.2562 71.462C63.5862 70.442 65.7962 69.152 67.8162 67.612C69.0962 66.632 70.4362 65.202 70.0462 63.642C69.9862 63.402 69.8762 63.162 69.6662 63.022C69.1762 62.702 68.5662 63.152 68.1362 63.542C66.0362 65.462 63.3862 66.792 60.5862 67.332C60.2362 67.402 59.8662 67.452 59.5262 67.372C58.6162 67.162 58.1662 66.152 57.8762 65.262C56.6962 61.742 55.6862 58.172 54.8462 54.562C54.6862 53.862 54.5262 53.152 54.1162 52.562C53.4862 51.652 52.2562 51.192 51.1762 51.462C47.6662 52.352 49.7562 56.522 50.4562 58.692C51.4762 61.792 52.6162 64.862 53.8862 67.882Z" fill="#E0C74E"/>
<path d="M35.686 56.412C36.246 55.782 37.1561 55.382 37.3561 54.552C37.5061 53.902 37.1261 53.242 36.6761 52.752C36.2161 52.262 35.666 51.842 35.336 51.262C34.666 50.062 35.3061 48.332 36.6061 47.862C37.1361 47.672 37.7161 47.672 38.2361 47.452C38.7561 47.242 39.216 46.672 39.006 46.142C38.796 45.592 37.946 45.262 38.136 44.712C38.196 44.552 38.326 44.432 38.466 44.332C38.916 43.992 39.416 43.722 39.946 43.522C40.356 43.362 40.796 43.242 41.146 42.982C42.056 42.292 42.076 40.922 42.766 40.012C42.906 39.822 43.076 39.662 43.256 39.522C43.246 39.422 43.2461 39.322 43.2461 39.222C43.2261 38.432 43.216 37.622 43.506 36.882C43.676 36.442 43.956 36.052 44.186 35.642C44.196 35.632 44.196 35.612 44.206 35.602C43.406 35.802 42.5161 35.692 41.8661 35.182C41.1161 34.592 40.826 33.442 41.326 32.632C41.526 32.312 41.8161 32.072 42.0461 31.772C42.7661 30.812 42.886 29.822 44.266 29.702C45.066 29.632 46.016 29.762 46.456 30.492C47.686 28.842 49.8061 27.952 51.8661 28.002C54.0361 28.052 56.1061 29.042 57.7461 30.462C58.2561 30.912 58.7461 31.412 59.0461 32.022C59.3461 32.632 59.4361 33.312 59.4961 33.982C59.5561 34.642 59.666 35.632 59.346 36.242L59.406 36.582C59.706 36.992 59.316 37.562 58.906 37.862C56.276 39.852 52.2761 39.242 49.7461 41.362C48.6761 42.252 48.0061 43.542 47.6061 44.882C47.4161 45.522 47.276 46.192 47.346 46.862C47.506 48.362 48.6261 49.532 49.4761 50.782C50.5061 52.292 51.196 54.042 51.446 55.852C51.576 56.762 51.556 57.812 50.906 58.462C50.296 59.082 49.2661 59.202 48.8061 59.942C48.2261 60.872 48.936 62.072 48.906 63.172C48.876 64.212 48.0761 65.182 47.0561 65.402C46.2261 65.582 45.376 65.312 44.536 65.212C43.696 65.122 42.6961 65.292 42.2961 66.042C42.0161 66.572 42.116 67.232 41.876 67.782C41.526 68.582 40.5261 68.922 39.6661 68.782C38.8061 68.642 38.056 68.142 37.336 67.642C36.946 67.372 36.5261 67.052 36.4761 66.582C36.4461 66.252 36.6061 65.932 36.7961 65.662C37.3861 64.792 38.266 63.872 37.956 62.872C37.756 62.212 37.096 61.812 36.566 61.372C35.846 60.772 35.276 59.972 35.076 59.062C34.876 58.122 35.066 57.102 35.686 56.412Z" fill="#5E625E"/>
<defs>
<linearGradient id="paint0_linear" x1="85.4776" y1="134.146" x2="128.871" y2="136.286" gradientUnits="userSpaceOnUse">
<stop stop-color="#4D4D4D"/>
<stop offset="1"/>
</linearGradient>
<linearGradient id="paint1_linear" x1="85.4776" y1="134.146" x2="128.871" y2="136.286" gradientUnits="userSpaceOnUse">
<stop/>
<stop offset="1"/>
</linearGradient>
<linearGradient id="paint2_linear" x1="78.5544" y1="132.004" x2="49.8584" y2="132.338" gradientUnits="userSpaceOnUse">
<stop stop-color="white"/>
<stop offset="1"/>
</linearGradient>
<linearGradient id="paint3_linear" x1="78.5544" y1="132.004" x2="49.8584" y2="132.338" gradientUnits="userSpaceOnUse">
<stop/>
<stop offset="1"/>
</linearGradient>
</defs>
</svg>
