<svg width="720" height="720" viewBox="0 0 720 720" fill="none" xmlns="http://www.w3.org/2000/svg">
<rect width="720" height="720" fill="#5E38A8"/>
<path d="M157.708 720.225H719.708V162.225H713.708L596.208 622.725L157.708 720.225Z" fill="#8360CA"/>
<path fill-rule="evenodd" clip-rule="evenodd" d="M514.804 681.76C490.297 670.415 461.177 656.935 455.605 641.888C441.135 602.806 384.493 586.315 320.816 599.111C367.327 656.842 437.918 702.097 509.643 719.725C576.003 713.901 549.877 697.995 514.804 681.76Z" fill="#8360CA"/>
<path d="M157.708 720.225L354.222 719.725C429.956 719.725 480.039 719.725 509.643 719.725C437.918 702.097 367.327 656.842 320.816 599.111C308.97 601.491 296.881 604.886 284.774 609.336C207.589 637.712 140.545 673.871 157.708 720.225Z" fill="#8360CA"/>
<path fill-rule="evenodd" clip-rule="evenodd" d="M320.816 599.111C367.327 656.842 437.918 702.097 509.643 719.725C576.003 713.901 549.877 697.995 514.804 681.76C490.297 670.415 461.177 656.935 455.605 641.888C441.135 602.806 384.493 586.315 320.816 599.111Z" fill="#8360CA"/>
<path d="M612.763 720.225C649.178 715.786 674.129 721.46 690.708 719.018C709.192 716.295 717.268 703.482 719.221 655.315C720.739 617.879 718.559 559.086 714.691 467.076C714.691 303.671 714.195 218.422 714.691 162C568.156 162 265.192 284.47 265.192 447.875C265.192 505.338 286.637 556.685 320.816 599.111C384.493 586.315 441.135 602.806 455.605 641.888C461.177 656.935 490.297 670.415 514.804 681.76C549.877 697.995 576.003 713.901 509.643 719.725C534.806 719.725 587.881 720.225 612.763 720.225Z" fill="#8360CA"/>
<path d="M690.708 719.018H719.708L719.221 655.315C717.268 703.482 709.192 716.295 690.708 719.018Z" fill="#8360CA"/>
<path d="M490.578 711.755C503.923 712.192 517.221 711.949 530.518 711.755C567.692 711.124 604.866 710.493 642.04 709.863C647.815 709.765 655.289 708.601 655.678 704.476C656.066 700.787 650.193 698.41 645.195 697.342C627.384 693.411 608.7 692.634 590.21 691.955C563.033 690.984 535.808 690.159 508.582 689.528C491.597 689.14 474.126 688.849 458.305 692.926C449.667 695.158 436.903 704.621 450.637 709.232C454.423 710.493 462.139 709.911 466.215 710.251C474.368 710.93 482.473 711.513 490.578 711.755Z" fill="url(#paint0_linear)"/>
<path d="M490.578 711.755C503.923 712.192 517.221 711.949 530.518 711.755C567.692 711.124 604.866 710.493 642.04 709.863C647.815 709.765 655.289 708.601 655.678 704.476C656.066 700.787 650.193 698.41 645.195 697.342C627.384 693.411 608.7 692.634 590.21 691.955C563.033 690.984 535.808 690.159 508.582 689.528C491.597 689.14 474.126 688.849 458.305 692.926C449.667 695.158 436.903 704.621 450.637 709.232C454.423 710.493 462.139 709.911 466.215 710.251C474.368 710.93 482.473 711.513 490.578 711.755Z" fill="url(#paint1_linear)"/>
<path d="M454.616 436.638C455.102 437.755 454.811 439.114 454.18 440.133C453.549 441.2 452.676 442.074 451.85 442.996C449.909 445.277 448.55 447.995 446.706 450.275C446.172 450.906 445.541 451.537 444.716 451.537C443.988 451.537 443.358 451.004 442.63 451.052C441.756 451.101 441.125 451.877 440.494 452.459C438.941 453.915 436.612 454.498 434.525 453.867C432.487 453.284 430.788 451.537 430.303 449.451C429.478 446.248 431.419 442.899 433.845 440.667C436.272 438.434 439.281 436.833 441.659 434.503C442.581 433.63 443.357 432.611 444.328 431.834C445.299 431.009 446.512 430.427 447.774 430.427C449.715 430.427 450.249 431.883 451.22 433.193C452.19 434.455 453.937 435.134 454.616 436.638Z" fill="#F9E9DE"/>
<path d="M459.033 418.34C476.164 389.028 487.569 356.367 492.422 322.784C492.956 319.242 493.392 315.602 494.897 312.35C496.401 309.099 499.216 306.235 502.759 305.605C507.029 304.877 511.251 307.691 513.484 311.38C515.667 315.068 516.25 319.533 516.444 323.852C517.609 345.496 511.736 367.238 501.254 386.262C490.771 405.237 475.775 421.543 458.693 434.889C456.994 436.199 455.102 437.558 452.967 437.316C448.211 436.782 447.434 432.026 449.521 429.308C452.529 425.377 456.412 422.853 459.033 418.34Z" fill="#965E59"/>
<path d="M518.774 686.567C522.413 685.499 526.15 684.529 529.839 683.752C531.877 683.315 533.964 682.879 535.614 681.665C537.264 680.452 538.331 678.123 537.458 676.279C541.291 675.793 545.174 675.502 549.056 675.308C549.978 675.259 551.046 675.26 551.774 675.842C552.405 676.327 552.648 677.152 552.842 677.88C554.395 683.413 555.463 689.042 555.996 694.769C556.045 695.205 556.045 695.691 555.754 695.982C555.559 696.176 555.22 696.224 554.929 696.273C541.34 698.408 527.655 699.67 513.872 700.155C509.553 700.301 503.632 700.689 506.35 694.623C508.485 689.916 514.212 687.877 518.774 686.567Z" fill="#3D322B"/>
<path d="M596.47 673.853C594.286 674.096 591.763 674.581 590.889 676.279C590.015 678.027 591.471 680.016 590.938 681.812C590.695 682.685 590.016 683.462 589.239 684.141C586.716 686.277 583.318 687.49 579.921 688.509C576.573 689.528 573.078 690.499 570.215 692.294C567.352 694.09 565.168 697.002 565.508 700.011C580.795 700.302 596.082 699.331 611.175 697.196C611.709 697.099 612.291 697.002 612.679 696.711C613.067 696.371 613.165 695.837 613.213 695.303C613.553 689.625 610.544 684.384 609.331 678.949C608.942 677.201 609.573 673.61 607.487 672.737C605.4 671.815 598.848 673.562 596.47 673.853Z" fill="#3D322B"/>
<path d="M576.864 454.449C578.126 449.838 579.096 444.937 576.961 440.569C574.534 435.619 568.614 432.27 562.79 429.456C555.462 425.961 547.552 422.807 538.962 422.273C529.45 421.691 516.492 425.185 513.871 432.998C510.232 443.966 511.591 457.36 510.377 468.716C507.611 493.807 504.36 518.945 504.603 544.133C504.748 558.255 505.961 572.377 508.97 586.305C511.445 597.807 515.133 609.163 518.822 620.519C521.976 630.274 525.18 640.028 528.334 649.783C528.091 651.044 527.945 652.403 527.994 653.18C528.14 656.674 532.071 659.586 531.149 662.934C530.857 663.954 530.178 664.779 529.692 665.749C529.207 666.671 528.916 667.885 529.45 668.758C530.032 669.729 531.342 670.02 532.022 670.893C532.75 671.864 532.507 673.174 532.119 674.291C531.731 675.407 531.197 676.523 531.343 677.688C535.711 680.405 541.243 679.969 546.387 679.483C549.493 679.192 552.55 678.901 555.656 678.61C556.481 678.513 557.404 678.416 558.034 677.882C559.054 677.008 559.005 675.358 558.52 674.096C557.986 672.835 557.161 671.718 556.821 670.408C556.045 667.254 558.422 663.517 556.53 660.896C556.093 660.265 555.414 659.78 555.026 659.101C554.249 657.742 554.783 656.092 554.88 654.587C555.074 651.627 553.715 648.812 552.356 646.191C552.162 645.803 551.968 645.415 551.58 645.173C551.483 645.124 551.337 645.075 551.192 645.075C546.921 616.006 537.652 587.13 540.903 558.061C544.834 522.391 567.401 489.536 576.864 454.449Z" fill="#662E2A"/>
<path d="M610.738 453.379C610.932 451.292 610.932 449.108 610.252 447.118C609.427 444.74 607.681 442.848 605.739 441.246C598.606 435.52 588.754 434.015 579.727 435.52C573.37 436.587 563.373 438.82 559.005 444.158C555.122 448.914 555.608 457.455 554.977 463.133C552.745 483.807 551.24 504.627 550.415 525.398C550.075 534.085 549.881 542.869 551.046 551.458C552.113 559.272 554.346 566.891 556.53 574.462C560.946 589.603 565.362 604.744 571.574 619.255C575.165 627.602 579.388 635.707 582.057 644.394C582.542 646.966 582.348 649.635 581.134 651.964C580.746 652.741 580.261 653.469 580.018 654.294C579.63 655.653 580.019 657.157 580.941 658.176C581.766 659.098 583.027 659.584 583.804 660.554C584.774 661.719 584.92 663.369 584.726 664.825C584.532 666.329 583.998 667.737 583.707 669.192C583.61 669.629 583.561 670.066 583.755 670.503C583.998 671.037 584.532 671.279 585.017 671.619C586.521 672.735 587.055 675.016 586.182 676.666C589.288 677.783 592.733 677.443 595.985 676.812C599.236 676.181 602.488 675.259 605.788 675.307C606.565 675.307 607.389 675.405 608.166 675.21C608.942 675.016 609.67 674.483 609.864 673.706C610.204 672.396 608.943 671.328 608.36 670.115C607.875 669.144 607.826 667.979 607.826 666.912C607.777 664.922 607.729 662.932 607.681 660.943C607.632 659.729 607.632 658.516 607.196 657.4C606.759 656.283 605.934 655.313 605.303 654.294C603.798 651.625 603.847 648.373 603.652 645.316C603.458 642.355 603.022 639.346 602.294 636.483C602.148 635.998 602.051 635.464 601.712 635.027C601.663 634.93 601.517 634.882 601.469 634.785C600.789 624.351 599.916 613.965 597.683 603.774C596.13 596.883 593.995 590.137 592.685 583.246C591.229 575.529 590.889 567.619 590.938 559.757C591.035 533.211 595.257 506.665 603.459 481.381C606.419 472.16 609.962 462.988 610.738 453.379Z" fill="#662E2A"/>
<path d="M476.261 258.337C479.755 268.237 484.026 278.671 493.15 284.447C499.799 288.669 508.533 289.833 516.298 287.455C524.063 285.126 530.615 279.351 533.624 272.217C535.031 268.82 535.711 265.229 536.148 261.637C537.701 249.796 537.312 237.809 535.079 226.162C534.303 222.085 531.44 218.931 529.693 215.194C527.169 209.855 519.065 204.08 514.794 202.77C504.845 199.664 496.304 202.431 487.132 205.634C475.484 209.71 471.068 220.532 469.515 231.015C468.253 239.168 473.543 250.669 476.261 258.337Z" fill="#F9E9DE"/>
<path d="M534.012 257.414C533.478 258.385 533.526 259.501 533.381 260.52C533.041 263.335 531.585 265.955 530.178 268.479C529.061 270.469 527.897 272.459 526.15 274.011C524.403 275.564 521.976 276.535 519.647 276.05C515.959 275.225 514.163 271.051 510.572 270.032C508.097 269.353 505.476 270.275 503.049 271.197C500.138 272.313 497.08 273.575 495.042 275.904C494.362 276.681 493.829 277.603 493.732 278.622C493.489 278.525 493.295 278.379 493.004 278.282C489.947 277.117 487.083 275.37 484.56 273.283C484.074 272.895 483.297 272.458 482.861 272.895C482.472 273.283 482.715 273.963 483.006 274.448C485.19 278.137 487.423 281.873 490.286 285.125C491.548 286.532 493.053 287.94 494.897 288.376C495.236 288.473 495.673 288.473 495.964 288.279C496.158 288.134 496.207 287.891 496.255 287.697C496.498 288.037 496.692 288.425 497.032 288.716C498.924 290.415 501.593 291.288 504.166 291.434C507.514 291.676 510.863 290.9 514.114 290.075C517.172 289.298 520.278 288.425 522.898 286.775C526.538 284.494 529.062 280.951 531.051 277.263C534.497 270.808 536.487 263.723 536.827 256.589C535.953 255.861 534.546 256.492 534.012 257.414ZM511.979 279.738C511.979 280.709 511.348 281.194 510.62 281.339C510.038 281.776 509.213 281.922 508.436 281.388C507.66 280.854 506.301 280.369 505.088 280.369C504.506 280.612 503.923 280.806 503.389 281.097C503.147 281.437 502.952 281.825 503.001 282.407C503.098 283.863 501.351 285.416 499.895 284.3C498.633 283.329 498.148 282.31 498.051 281.291C497.662 280.563 497.809 279.689 498.585 279.204C501.254 274.885 511.882 272.458 511.979 279.738Z" fill="#EAEEEF"/>
<path d="M526.101 218.495C524.888 220.97 522.656 222.911 521.637 225.483C519.987 229.511 521.637 234.121 523.723 237.955C524.209 238.877 524.791 239.799 525.665 240.285C526.975 241.013 528.673 240.624 529.887 239.702C531.1 238.78 531.877 237.47 532.556 236.111C535.322 230.967 537.748 224.901 535.71 219.417C534.788 216.845 532.944 214.709 531.197 212.622C530.032 211.215 528.722 209.808 526.926 209.322C525.81 211.943 527.606 215.437 526.101 218.495Z" fill="#EAEEEF"/>
<path d="M512.61 295.707C518.822 293.523 524.354 289.689 530.323 286.874C532.604 285.807 535.031 284.836 537.554 284.836C540.757 284.836 543.718 286.34 546.387 288.039C561.14 297.454 580.746 311.528 588.608 327.203C608.457 366.852 619.57 410.869 618.26 455.177C618.212 457.167 618.066 459.302 616.756 460.758C615.64 462.068 613.844 462.554 612.194 462.99C585.696 469.833 539.059 471.677 511.736 470.464C509.456 470.367 506.981 470.173 505.234 468.669C503.438 467.164 502.807 464.64 502.321 462.359C496.546 435.182 503.487 410.141 498.585 382.77C495.188 363.601 491.985 344.285 491.014 324.776C490.723 318.467 488.199 305.364 492.567 300.074C496.789 294.979 506.786 297.745 512.61 295.707Z" fill="#AA6A64"/>
<path d="M445.59 441.006C428.022 440.132 421.956 465.222 423.46 479.296C424.285 486.915 434.671 485.508 433.312 477.888C432.535 473.521 431.711 458.137 436.612 455.176C444.183 447.557 451.608 450.226 458.111 461.534L461.605 471.482C464.226 482.79 462.673 495.359 462.139 506.909C461.12 528.166 460.197 549.471 459.275 570.727C457.528 612.123 456.995 653.374 456.995 694.77C456.995 697.051 460.295 697.051 460.343 694.77C461.314 659.683 462.915 624.595 464.371 589.508C465.827 554.76 470.486 519.527 470.292 484.828C470.195 469.493 464.565 441.928 445.59 441.006Z" fill="#A78E41"/>
<path d="M494.12 344.431C498.536 337.782 502.322 330.745 505.525 323.466C508.728 316.089 511.3 308.033 509.941 300.123C509.698 298.812 509.358 297.454 508.388 296.532C507.32 295.512 505.767 295.318 504.311 295.124C500.429 294.639 496.11 294.251 492.955 296.532C488.83 299.492 488.539 305.413 488.685 310.508C489.024 321.767 489.558 332.978 490.237 344.188C490.383 347.391 492.81 346.372 494.12 344.431Z" fill="#965E59"/>
<path d="M546.193 319.242C557.84 324.775 571.477 326.036 583.949 322.736C584.677 319.776 582.445 317.01 580.407 314.777C574.68 308.517 568.953 302.257 563.227 295.996C559.102 291.483 554.734 286.776 549.007 284.592C543.184 282.359 536.826 283.087 531.051 285.174C528.285 286.193 524.791 287.503 522.559 289.445C519.501 292.065 519.744 291.871 521.345 295.608C525.761 305.799 536.39 314.535 546.193 319.242Z" fill="#965E59"/>
<path d="M467.429 320.215C466.216 319.487 464.954 318.71 463.595 318.516C460.149 317.934 457.432 320.7 455.296 323.223C452.433 326.572 448.259 332.59 450.298 337.783C451.317 340.355 453.744 342.199 456.073 343.8C464.954 349.915 470.486 354.671 480.29 359.087C482.425 360.058 484.657 360.98 486.89 360.883C491.354 360.64 494.169 356.467 496.256 352.681C497.614 350.303 498.973 347.537 498.148 344.819C497.663 343.266 496.499 341.956 495.382 340.743C487.375 332.299 477.329 326.184 467.429 320.215Z" fill="#4D4D4D"/>
<path d="M533.575 366.996C534.303 367.239 535.128 367.481 535.856 367.239C537.312 366.802 537.7 364.909 537.749 363.356C538.137 349.525 533.09 336.131 532.556 322.3C532.313 316.088 532.993 309.925 533.672 303.713C534.206 298.714 535.079 293.133 538.962 289.93C544.543 285.32 553.618 288.474 557.694 294.443C561.771 300.413 562.256 308.032 562.596 315.263C563.567 337.732 564.198 360.542 559.151 382.429C558.52 385.098 557.743 387.912 555.802 389.854C553.521 392.183 549.978 392.863 546.775 392.426C543.572 391.989 540.563 390.582 537.603 389.174C523.141 382.332 508.728 375.489 494.266 368.646C492.276 367.724 490.189 366.656 489.17 364.715C487.277 361.027 490.383 355.834 493.246 353.505C497.274 350.204 499.41 352.049 503.729 354.33C513.289 359.474 523.287 363.696 533.575 366.996Z" fill="#965E59"/>
<path d="M473.203 353.263C471.553 352.341 469.855 351.37 468.885 349.769C468.157 348.507 467.962 347.002 467.914 345.547C467.865 343.508 468.254 341.082 470.098 340.16C471.505 339.48 473.203 340.014 474.611 340.742C476.018 341.47 477.328 342.441 478.881 342.586C480.386 342.78 481.939 342.198 483.395 342.586C485.288 343.071 486.403 344.964 487.811 346.323C489.17 347.633 490.917 348.507 492.422 349.574C493.975 350.642 495.43 352.098 495.818 353.942C496.158 355.689 495.479 357.582 494.217 358.892C491.014 362.144 488.054 360.445 484.463 358.892C480.58 357.291 476.891 355.253 473.203 353.263Z" fill="#F9E9DE"/>
<path d="M380.903 696.38C372.119 696.332 363.286 695.798 354.502 695.264C329.994 693.76 305.487 692.255 280.93 690.751C277.097 690.508 272.195 689.441 272.049 686.286C271.904 683.471 275.835 681.821 279.135 681.142C290.976 678.618 303.351 678.57 315.581 678.57C333.537 678.57 351.542 678.715 369.498 678.958C380.709 679.104 392.259 679.395 402.596 682.938C408.225 684.879 416.427 692.449 407.206 695.555C404.682 696.429 399.587 695.75 396.869 695.895C391.628 696.235 386.241 696.429 380.903 696.38Z" fill="url(#paint2_linear)"/>
<path opacity="0.22" d="M380.903 696.38C372.119 696.332 363.286 695.798 354.502 695.264C329.994 693.76 305.487 692.255 280.93 690.751C277.097 690.508 272.195 689.441 272.049 686.286C271.904 683.471 275.835 681.821 279.135 681.142C290.976 678.618 303.351 678.57 315.581 678.57C333.537 678.57 351.542 678.715 369.498 678.958C380.709 679.104 392.259 679.395 402.596 682.938C408.225 684.879 416.427 692.449 407.206 695.555C404.682 696.429 399.587 695.75 396.869 695.895C391.628 696.235 386.241 696.429 380.903 696.38Z" fill="url(#paint3_linear)"/>
<path d="M350.911 283.73C351.202 281.934 352.561 280.527 353.919 279.265C354.599 278.634 355.327 277.955 356.055 277.373C359.889 274.364 364.887 272.859 369.789 273.296C371.196 273.442 372.652 273.733 373.671 274.655C374.496 275.431 374.982 276.499 375.176 277.615C375.224 277.858 375.273 278.149 375.176 278.392C374.982 279.314 373.865 279.654 372.943 279.799C371.973 279.945 370.953 280.139 370.177 280.721C369.4 281.304 368.915 282.468 369.401 283.293C369.643 283.682 370.032 283.973 370.129 284.409C370.274 285.137 369.546 285.768 368.818 286.011C366.149 286.885 363.237 285.477 360.519 286.059C359.694 286.254 358.869 286.593 358.044 286.836C357.219 287.03 356.297 287.127 355.521 286.69C354.744 286.593 353.92 286.448 353.143 286.254C352.367 286.06 351.493 285.768 351.105 285.089C350.862 284.701 350.813 284.215 350.911 283.73Z" fill="#EADDD0"/>
<path d="M395.025 252.573C388.667 251.651 382.213 250.68 375.758 250.971C374.497 251.02 373.138 251.165 372.216 251.99C371.342 252.767 371.051 253.98 370.76 255.145C364.159 283.486 357.608 311.828 351.008 340.17C350.911 340.655 350.765 341.14 350.862 341.625C351.056 342.742 352.173 343.373 353.143 343.858C369.644 351.865 388.667 352.205 406.963 352.351C408.565 352.351 410.263 352.351 411.525 351.429C412.932 350.458 413.466 348.711 413.952 347.061C421.425 320.321 423.172 292.27 429.433 265.19C429.869 263.298 430.355 261.259 429.724 259.367C428.365 255.29 418.853 256.067 415.359 255.581C408.613 254.611 401.819 253.592 395.025 252.573Z" fill="#545454"/>
<path d="M394.685 256.211C388.813 255.337 382.844 254.464 376.923 254.609C375.758 254.658 374.497 254.755 373.672 255.483C372.895 256.162 372.604 257.181 372.361 258.201C366.586 282.757 360.811 307.313 355.036 331.918C354.939 332.306 354.842 332.743 354.939 333.18C355.133 334.15 356.152 334.733 357.074 335.169C372.361 342.303 389.929 342.789 406.818 343.128C408.274 343.177 409.827 343.177 411.04 342.4C412.302 341.575 412.835 340.022 413.224 338.615C419.824 315.418 421.183 291.104 426.666 267.615C427.055 265.965 427.443 264.218 426.861 262.568C425.55 258.977 416.815 259.608 413.612 259.123C407.254 258.103 400.946 257.133 394.685 256.211Z" fill="#F7F7F7"/>
<path d="M383.814 347.06C383.669 347.302 383.426 347.497 383.232 347.642C382.698 347.982 382.116 348.176 381.485 348.127C380.854 348.079 380.271 347.836 379.883 347.399C378.67 345.992 379.155 343.566 381.242 343.42C382.795 343.323 384.736 345.555 383.814 347.06Z" fill="#F7F7F7"/>
<path d="M317.765 321.145C322.666 315.079 326.015 307.897 331.014 301.927C337.76 293.871 344.942 288.096 349.407 278.584C351.494 281.836 358.482 285.087 360.569 288.339C352.464 299.355 344.36 308.625 340.963 323.766C339.361 330.754 331.79 341.188 328.15 347.4C326.209 350.7 323.589 353.564 320.822 356.233C314.853 362.008 307.768 367.055 299.615 368.511C287.239 370.695 275.155 362.542 275.398 349.293C275.641 337.403 291.753 338.519 299.906 334.831C306.846 331.725 313.057 327.018 317.765 321.145Z" fill="#E0C74E"/>
<path d="M295.101 272.081C291.219 273.683 287.482 274.702 284.764 274.75C281.561 274.799 278.601 273.197 275.786 271.693C270.011 268.538 263.945 265.044 260.984 259.172C259.286 255.726 258.849 251.796 258.51 247.962C257.685 238.304 257.296 228.647 257.393 218.941C257.442 213.99 257.684 208.701 260.451 204.576C265.061 197.587 274.622 196.374 283.017 195.889C291.267 195.403 300.003 195.015 307.331 198.898C314.95 202.974 313.203 208.992 313.785 216.466C314.513 225.832 314.95 235.247 315.047 244.613C315.096 249.951 314.902 255.581 312.135 260.143C309.466 264.462 302.09 269.218 295.101 272.081Z" fill="#EADDD0"/>
<path d="M247.154 573.066C248.513 536.571 245.843 499.397 246.134 462.66C245.309 449.945 246.717 436.987 250.26 425C250.502 424.273 250.696 423.496 251.133 422.914C252.492 421.167 254.773 422.089 256.569 423.011C273.7 432.037 293.985 429.951 309.661 417.284C312.767 423.253 313.64 430.63 314.368 437.715C315.581 449.168 316.892 460.622 317.231 472.172V472.22C317.28 474.695 317.328 477.17 317.28 479.645C317.037 494.01 314.854 508.133 313.106 522.304C311.99 531.524 310.971 540.842 310.874 550.16C310.777 557.828 311.602 564.816 310.243 572.29C306.894 590.731 306.846 610.823 305.439 629.701C303.886 649.889 302.381 670.078 301.119 690.315C301.071 691.14 301.022 691.917 300.974 692.742C300.149 693.033 287.919 696.576 287.919 692.548C286.997 653.287 286.075 614.026 285.153 574.765C284.765 558.264 285.784 502.455 282.532 486.682C281.173 486.876 279.815 487.022 278.456 487.216C270.934 539.143 261.907 630.138 254.385 682.065C253.705 686.627 252.929 691.577 250.551 694.537C248.173 697.498 243.757 696.624 243.029 692.111C245.407 652.413 245.698 612.764 247.154 573.066Z" fill="#4D4D4D"/>
<path d="M282.581 692.402C282.726 691.966 282.823 691.48 282.969 691.044C284.473 685.123 285.25 679.008 285.25 672.893C285.25 670.127 285.104 667.312 285.735 664.595C289.278 664.643 299.227 664.012 302.769 664.061C303.06 664.061 303.4 664.061 303.643 664.255C303.885 664.449 303.982 664.837 304.031 665.128C305.584 673.573 300.343 682.842 302.235 691.238C303.012 694.586 306.118 695.799 308.981 697.498C311.456 699.002 316.358 702.642 319.318 702.642C321.017 703.322 322.812 704.001 324.074 705.36C325.336 706.719 325.821 708.951 324.656 710.407C323.637 711.669 321.793 711.766 320.191 711.814C307.865 711.912 295.49 710.844 283.357 708.611C282.629 708.466 281.853 708.32 281.319 707.786C280.882 707.35 280.688 706.767 280.542 706.234C279.135 700.847 281.173 697.061 282.581 692.402Z" fill="#BE9F3E"/>
<path d="M237.544 695.557C237.932 694.247 238.806 693.131 239.242 691.869C239.728 690.559 239.485 688.909 239.485 687.501C239.485 681.095 239.485 674.738 239.485 668.332C239.485 666.391 239.679 664.11 241.329 663.139C242.445 662.46 243.901 662.654 245.163 662.897C248.9 663.527 252.685 664.207 256.422 664.838C257.393 665.032 258.509 665.226 259.043 666.051C259.577 666.876 259.431 667.944 259.237 668.914C258.121 675.078 257.684 681.338 257.878 687.55C257.927 689.346 258.072 691.141 257.878 692.937C262.197 696.625 266.953 699.828 272.097 702.303C273.602 703.031 275.155 703.759 276.222 705.021C277.29 706.331 277.581 708.369 276.417 709.583C275.398 710.65 273.747 710.65 272.34 710.553C261.275 709.874 250.21 708.127 239.485 705.36C238.854 705.215 238.175 705.021 237.738 704.487C237.398 704.099 237.253 703.565 237.156 703.031C236.622 700.605 236.767 697.984 237.544 695.557Z" fill="#BE9F3E"/>
<path d="M295.15 285.379C293.548 284.845 291.947 284.214 290.394 283.632C282.483 280.575 274.573 277.517 266.711 274.508C265.546 274.072 264.285 273.586 263.071 273.829C262.101 274.023 261.324 274.606 260.548 275.236C245.746 287.126 241.718 306.49 237.641 324.106C223.228 386.371 218.617 450.673 224.004 514.248C259.286 520.314 294.907 524.293 330.722 526.138C328.732 526.041 324.705 482.509 324.219 478.238C321.55 453.1 320.143 427.767 320.434 402.483C320.725 377.101 319.415 351.769 317.619 326.436C316.891 316.196 316.066 305.956 315.144 295.716C314.804 291.688 303.206 287.563 300.294 286.932C298.498 286.447 296.8 285.913 295.15 285.379Z" fill="#FCEE9F"/>
<path d="M374.594 316.78C378.04 312.364 381.048 307.656 384.106 302.9C385.222 301.105 386.241 298.775 385.028 297.028C384.3 296.009 382.893 295.572 381.631 295.718C380.369 295.863 379.204 296.494 378.137 297.222C376.584 298.29 375.225 299.552 373.866 300.91C367.897 306.928 365.276 315.955 362.995 324.108C361.297 330.223 360.957 336.968 357.171 342.064C358.094 342.646 359.016 343.229 359.938 343.811C360.132 343.957 360.423 344.102 360.666 344.005C360.908 343.957 361.054 343.666 361.2 343.423C363.335 339.055 365.131 334.639 367.654 330.417C370.178 326.098 371.537 320.808 374.594 316.78Z" fill="#EDEDED"/>
<path d="M347.611 345.945C347.125 345.945 346.591 345.945 346.203 345.654C345.669 345.314 345.524 344.586 345.427 343.955C344.02 335.414 344.893 326.63 346.058 318.04C347.999 317.701 349.989 317.943 351.978 318.186C357.317 318.865 362.655 319.545 367.994 320.224C371.148 320.612 374.302 321.049 377.214 322.214C375.807 330.901 374.399 339.588 373.041 348.275C372.944 348.857 349.698 345.994 347.611 345.945Z" fill="#E2E2E2"/>
<path d="M381.776 288.681C382.747 290.525 384.445 291.835 386.096 293.097C387.454 294.116 388.862 295.184 390.56 295.378C393.472 295.669 395.899 293.243 397.84 291.011C400.752 287.662 403.761 284.119 404.683 279.8C405.556 275.869 404.489 271.598 401.916 268.492C399.344 265.435 395.316 263.591 391.288 263.737C386.484 263.931 380.466 266.017 380.514 271.598C380.514 274.122 380.951 276.597 380.854 279.121C380.757 282.275 380.272 285.818 381.776 288.681Z" fill="#EDDCD1"/>
<path d="M380.369 266.647C378.476 269.219 377.506 272.325 376.681 275.431C376.584 275.722 376.535 276.013 376.632 276.256C376.826 276.693 377.409 276.79 377.894 276.79C382.893 276.887 387.94 277.033 392.938 277.13C394.637 277.178 396.626 277.372 397.452 278.877C397.888 279.702 397.84 280.672 397.743 281.594C397.452 283.778 396.869 285.914 395.996 287.952C397.597 286.593 398.568 284.555 399.15 282.517C399.49 281.352 400.121 279.847 401.334 279.944C402.547 280.042 402.935 281.74 402.353 282.808C401.819 283.875 400.752 284.603 400.072 285.622C399.538 286.399 399.296 287.321 399.005 288.195C398.228 290.718 397.209 293.193 395.608 295.28C394.006 297.367 391.774 299.065 389.202 299.648C391.288 299.259 393.375 298.871 395.462 298.483C397.646 298.095 399.878 297.658 402.062 297.221C403.615 296.93 405.217 296.59 406.527 295.668C407.449 295.086 408.177 294.261 408.808 293.339C411.914 288.923 412.35 283.099 411.865 277.712C411.477 273.49 410.555 269.074 407.594 266.016C404.197 262.474 398.908 261.551 394.006 261.018C388.959 260.532 383.426 262.376 380.369 266.647Z" fill="#EDDDB2"/>
<path d="M395.947 360.409C393.86 353.761 393.569 346.481 395.85 339.881C397.549 334.931 400.703 330.175 400.315 324.934C400.121 322.216 399.004 319.644 398.082 317.072C395.996 311.2 394.977 304.939 395.122 298.727C395.122 298.388 395.122 298.048 394.977 297.805C394.637 297.272 393.812 297.369 393.132 297.466C390.852 297.854 388.474 297.466 386.387 296.447C385.222 295.864 385.028 295.33 384.009 296.204C383.184 296.98 382.553 298.388 381.971 299.358C379.253 303.629 376.729 308.094 375.322 312.947C374.642 315.373 374.206 317.945 372.992 320.178C371.973 322.022 370.517 323.526 369.207 325.128C364.5 331.097 362.558 338.765 358.627 345.268C357.996 346.336 357.317 347.355 356.929 348.568C356.541 349.733 356.541 351.092 357.269 352.159C357.754 352.887 358.53 353.373 359.307 353.809C360.423 354.489 361.539 355.12 362.607 355.799C364.16 356.721 365.664 357.643 367.314 358.323C369.353 359.148 371.488 359.633 373.623 360.07C377.554 360.943 381.485 361.768 385.416 362.642C387.648 363.127 389.881 363.612 392.162 363.904C393.715 364.098 395.705 363.904 396.093 362.399C396.384 361.768 396.141 361.089 395.947 360.409Z" fill="#F2F2F2"/>
<path d="M386.484 349.731C384.251 359.486 381.34 369.289 374.303 377.49C376.535 376.131 380.709 377.151 383.475 378.704C386.29 380.208 388.619 382.246 391.822 383.265C394.588 384.139 397.694 384.188 399.975 383.314C404.343 381.664 404.585 377.539 404.44 373.996C403.712 355.943 402.402 337.841 403.372 320.031C403.566 316.536 403.809 312.897 401.819 309.354C400.655 307.267 398.762 305.277 398.519 303.191C398.422 302.123 398.762 301.104 398.422 300.036C398.082 298.968 394.054 297.027 392.453 296.93C389.347 299.211 392.987 303.482 392.793 306.733C392.55 310.227 392.259 313.722 391.919 317.216C391.191 324.301 390.172 331.387 388.862 338.375C388.134 342.16 387.357 345.946 386.484 349.731Z" fill="#ACB18F"/>
<path d="M368.333 356.769C367.848 362.496 367.654 368.465 364.209 373.415C363.82 373.949 363.432 374.483 362.704 374.774C360.86 375.647 358.045 374.92 355.619 374.337C349.941 373.027 350.62 371.619 345.136 372.153C347.951 364.971 350.717 357.788 353.532 350.606C356.783 342.307 360.035 333.911 365.859 326.486C373.963 316.101 376.778 306.977 383.766 296.155C384.203 295.427 388.231 296.543 389.493 296.398C390.415 297.659 387.746 300.183 387.018 301.348C385.853 303.192 384.785 305.085 383.718 306.929C381.631 310.714 379.738 314.548 378.04 318.43C374.642 326.292 372.071 334.348 370.372 342.598C369.45 347.306 368.77 352.013 368.333 356.769Z" fill="#ACB18F"/>
<path d="M379.108 343.859C378.477 343.762 377.797 343.714 377.361 344.15C377.118 344.393 377.021 344.781 376.681 344.927C376.487 345.024 376.244 344.975 376.002 344.975C375.031 344.975 374.157 345.655 373.915 346.577C373.672 347.499 374.158 348.567 374.983 349.003C375.953 349.537 377.118 349.246 378.137 348.955C380.078 348.372 381.922 347.644 383.718 346.771C383.912 346.674 384.106 346.577 384.252 346.383C384.883 345.509 384.494 343.908 383.524 343.616C382.359 343.277 380.418 344.053 379.108 343.859Z" fill="#EDDCD1"/>
<path d="M386.338 341.917C390.609 339.636 394.054 336.045 396.675 332.017C397.452 330.804 398.179 329.542 398.665 328.183C399.247 326.533 399.441 324.738 399.684 322.991C399.975 320.613 400.218 318.186 399.927 315.857C399.684 314.304 399.199 312.751 398.908 311.198C398.471 308.82 398.471 306.393 398.519 303.967C398.519 303.287 398.519 302.559 398.81 301.928C399.102 301.298 399.684 300.764 400.412 300.764C401.188 300.812 401.722 301.443 402.159 302.074C406.138 307.704 407.4 314.789 407.206 321.68C407.06 326.533 406.138 331.532 403.372 335.511C402.208 337.161 400.752 338.569 399.247 339.879C394.831 343.713 389.59 346.916 383.766 347.498C383.572 347.498 383.329 347.547 383.184 347.401C383.038 347.304 382.99 347.11 382.99 346.916C382.795 345.994 382.165 344.538 382.795 343.664C383.281 342.839 385.465 342.354 386.338 341.917Z" fill="#EDEDED"/>
<path d="M365.616 347.887C366.149 345.897 366.732 343.907 367.751 342.063C369.061 339.685 371.148 337.792 373.478 336.433C374.934 335.56 376.681 334.88 378.331 335.317C379.787 335.754 380.854 337.064 381.34 338.472C381.825 339.928 381.728 341.481 381.485 342.985C380.417 349.245 374.157 359.388 366.635 357.738C365.324 357.447 363.869 356.671 363.723 355.312C363.675 354.826 363.82 354.341 363.917 353.856C364.499 351.915 365.082 349.925 365.616 347.887Z" fill="#EADDD0"/>
<path d="M291.656 375.548C295.295 384.235 300.343 393.795 309.515 396.076C315.484 397.532 321.744 395.397 327.422 392.922C338.73 387.972 349.455 381.711 359.258 374.238C365.47 369.482 371.973 362.542 370.081 354.971C369.789 353.806 369.256 352.642 368.236 351.962C365.858 350.409 362.898 352.593 360.811 354.486C350.62 363.804 337.759 370.258 324.171 372.879C322.472 373.218 320.677 373.461 319.027 373.073C314.611 372.054 312.427 367.152 311.019 362.833C305.293 345.75 300.391 328.425 296.315 310.906C295.538 307.509 294.762 304.063 292.772 301.2C289.715 296.783 283.745 294.551 278.504 295.861C261.47 300.181 271.613 320.418 275.01 330.949C279.96 345.993 285.492 360.892 291.656 375.548Z" fill="#E0C74E"/>
<path d="M203.33 319.884C206.048 316.827 210.465 314.885 211.435 310.857C212.163 307.703 210.319 304.5 208.135 302.122C205.903 299.744 203.234 297.706 201.632 294.891C198.381 289.067 201.487 280.672 207.795 278.391C210.368 277.469 213.182 277.469 215.706 276.401C218.229 275.382 220.462 272.616 219.443 270.044C218.423 267.374 214.298 265.773 215.22 263.104C215.512 262.327 216.143 261.745 216.822 261.26C219.006 259.61 221.432 258.299 224.004 257.329C225.994 256.552 228.13 255.97 229.828 254.708C234.244 251.359 234.341 244.711 237.69 240.295C238.369 239.372 239.194 238.596 240.068 237.917C240.019 237.431 240.02 236.946 240.02 236.461C239.923 232.627 239.874 228.696 241.281 225.105C242.106 222.969 243.465 221.077 244.581 219.087C244.63 219.038 244.63 218.941 244.678 218.893C240.796 219.863 236.477 219.329 233.322 216.854C229.683 213.991 228.275 208.41 230.702 204.479C231.672 202.926 233.08 201.762 234.196 200.306C237.69 195.647 238.272 190.842 244.969 190.26C248.852 189.92 253.462 190.551 255.598 194.094C261.567 186.086 271.855 181.767 281.853 182.01C292.384 182.252 302.429 187.057 310.388 193.948C312.863 196.132 315.241 198.559 316.697 201.519C318.153 204.479 318.59 207.779 318.881 211.031C319.172 214.234 319.706 219.038 318.153 221.999L318.444 223.649C319.9 225.638 318.008 228.405 316.018 229.86C303.254 239.518 283.842 236.558 271.564 246.846C266.372 251.165 263.12 257.426 261.179 263.929C260.257 267.035 259.577 270.286 259.917 273.538C260.693 280.817 266.129 286.495 270.254 292.562C275.252 299.89 278.601 308.382 279.814 317.166C280.445 321.583 280.348 326.678 277.194 329.833C274.233 332.842 269.235 333.424 267.002 337.015C264.188 341.529 267.633 347.352 267.488 352.69C267.342 357.738 263.46 362.445 258.51 363.513C254.482 364.386 250.356 363.076 246.28 362.591C242.203 362.154 237.35 362.979 235.409 366.619C234.05 369.191 234.535 372.394 233.371 375.063C231.672 378.945 226.819 380.595 222.646 379.916C218.472 379.236 214.832 376.81 211.338 374.383C209.445 373.073 207.407 371.52 207.165 369.239C207.019 367.638 207.795 366.085 208.718 364.775C211.581 360.552 215.851 356.088 214.347 351.235C213.376 348.032 210.173 346.09 207.601 343.955C204.107 341.043 201.341 337.161 200.37 332.745C199.4 328.183 200.322 323.233 203.33 319.884Z" fill="#5E625E"/>
<defs>
<linearGradient id="paint0_linear" x1="444.97" y1="697.128" x2="655.557" y2="707.515" gradientUnits="userSpaceOnUse">
<stop stop-color="#4D4D4D"/>
<stop offset="1"/>
</linearGradient>
<linearGradient id="paint1_linear" x1="444.97" y1="697.128" x2="655.557" y2="707.515" gradientUnits="userSpaceOnUse">
<stop/>
<stop offset="1"/>
</linearGradient>
<linearGradient id="paint2_linear" x1="411.371" y1="686.731" x2="272.109" y2="688.353" gradientUnits="userSpaceOnUse">
<stop stop-color="white"/>
<stop offset="1"/>
</linearGradient>
<linearGradient id="paint3_linear" x1="411.371" y1="686.731" x2="272.109" y2="688.353" gradientUnits="userSpaceOnUse">
<stop/>
<stop offset="1"/>
</linearGradient>
</defs>
</svg>
