<svg width="162" height="162" viewBox="0 0 162 162" fill="none" xmlns="http://www.w3.org/2000/svg">
<path d="M122.168 143.973C123.738 143.873 125.318 143.763 126.868 143.503C127.038 143.473 127.218 143.433 127.328 143.303C127.628 142.943 127.098 142.483 126.658 142.343C124.258 141.583 121.698 141.663 119.178 141.723C110.008 141.963 100.838 142.013 91.6783 141.883C90.4883 141.863 84.1283 141.493 83.9283 143.123C83.7583 144.543 90.7683 144.283 91.8583 144.323C98.3283 144.583 104.798 144.633 111.268 144.463C114.908 144.363 118.538 144.203 122.168 143.973Z" fill="url(#paint0_linear)"/>
<circle cx="81" cy="81" r="81" fill="#E0DDFF"/>
<path d="M122.168 143.973C123.738 143.873 125.318 143.763 126.868 143.503C127.038 143.473 127.218 143.433 127.328 143.303C127.628 142.943 127.098 142.483 126.658 142.343C124.258 141.583 121.698 141.663 119.178 141.723C110.008 141.963 100.838 142.013 91.6783 141.883C90.4883 141.863 84.1283 141.493 83.9283 143.123C83.7583 144.543 90.7683 144.283 91.8583 144.323C98.3283 144.583 104.798 144.633 111.268 144.463C114.908 144.363 118.538 144.203 122.168 143.973Z" fill="url(#paint1_linear)"/>
<path d="M80.3384 141.923C80.5884 141.863 80.8884 141.763 80.9384 141.513C81.0184 141.173 80.5884 140.953 80.2484 140.883C78.4384 140.503 76.5784 140.613 74.7384 140.623C70.6484 140.643 66.5784 140.173 62.4884 140.023C59.2284 139.903 55.9184 140.003 52.7284 140.723C51.7284 140.953 49.4284 141.203 49.0684 142.403C48.7484 143.473 49.6084 143.903 50.4584 143.873C51.6584 143.843 52.7884 143.493 54.0084 143.523C55.7084 143.563 57.3984 143.613 59.0984 143.633C62.4884 143.673 65.8784 143.643 69.2684 143.433C72.9784 143.183 76.6884 142.733 80.3384 141.923Z" fill="url(#paint2_linear)"/>
<path d="M80.3384 141.923C80.5884 141.863 80.8884 141.763 80.9384 141.513C81.0184 141.173 80.5884 140.953 80.2484 140.883C78.4384 140.503 76.5784 140.613 74.7384 140.623C70.6484 140.643 66.5784 140.173 62.4884 140.023C59.2284 139.903 55.9184 140.003 52.7284 140.723C51.7284 140.953 49.4284 141.203 49.0684 142.403C48.7484 143.473 49.6084 143.903 50.4584 143.873C51.6584 143.843 52.7884 143.493 54.0084 143.523C55.7084 143.563 57.3984 143.613 59.0984 143.633C62.4884 143.673 65.8784 143.643 69.2684 143.433C72.9784 143.183 76.6884 142.733 80.3384 141.923Z" fill="url(#paint3_linear)"/>
<path d="M108.218 87.0029C108.208 86.7929 108.208 86.5729 108.128 86.3829C108.018 86.1129 107.798 85.9129 107.548 85.7529C106.638 85.1629 105.488 85.1029 104.408 85.0629C100.288 84.9229 96.0883 84.8829 92.0583 85.8829C90.8183 86.1929 88.7083 86.5129 88.1183 87.8429C87.3983 89.4729 87.6483 91.973 87.5783 93.723C87.4783 96.273 87.4883 98.823 87.6083 101.363C87.6883 102.993 87.8083 104.613 87.9383 106.243C88.4483 112.953 88.7883 119.493 89.8583 126.193C90.1983 128.343 90.3483 130.513 90.3983 132.693C90.4183 133.513 90.8383 138.843 90.1883 139.213C90.1483 139.233 90.1083 139.253 90.0783 139.283C89.8783 139.483 89.7283 139.703 89.6483 139.943C89.5783 140.163 89.5583 140.403 89.3983 140.593C89.2183 140.813 88.8883 140.943 88.5583 141.053C87.7183 141.343 86.8083 141.533 85.8783 141.633C85.6683 141.653 85.4583 141.673 85.2783 141.733C84.7483 141.913 84.6283 142.393 84.5583 142.793C84.5383 142.913 84.5383 143.053 84.6783 143.123C84.7583 143.163 84.8583 143.163 84.9483 143.153C87.6083 143.123 88.7383 143.103 91.3983 143.073C92.0483 143.063 92.7183 143.033 93.3383 142.923C93.4183 142.903 93.5083 142.883 93.5683 142.843C93.6383 142.793 93.6683 142.733 93.6883 142.663C94.0283 141.743 94.0583 140.753 93.9683 139.803C93.9483 139.603 93.9183 139.433 93.7483 139.313C95.1683 127.723 96.0683 116.103 97.4083 104.503C97.4883 104.483 97.5783 104.453 97.6583 104.433C98.8583 104.113 100.058 103.803 101.248 103.483C101.948 103.303 102.678 103.103 103.228 102.623C103.658 102.243 103.938 101.733 104.218 101.233C105.598 98.683 106.988 96.0929 107.668 93.2829C108.168 91.2429 108.278 89.1129 108.218 87.0029Z" fill="#736357"/>
<path d="M107.738 139.433C107.598 132.943 107.408 126.443 107.158 119.963C106.998 115.733 106.348 111.813 106.718 107.603C107.148 102.723 107.278 97.813 107.118 92.923C107.088 92.023 107.048 91.1129 106.718 90.2829C106.308 89.2429 105.288 88.563 104.678 87.723C104.308 87.223 104.118 86.7129 103.628 86.2729C101.548 84.4429 98.1584 84.8929 95.6984 85.4529C95.5284 85.4929 95.3684 85.5229 95.2084 85.5629C95.1584 85.6029 95.0984 85.6529 95.0484 85.6929C94.9884 86.0329 94.9384 86.383 94.9084 86.723C94.8984 86.823 94.8984 86.9629 94.9084 87.0929C94.9484 87.6229 94.9184 87.3929 94.9084 87.0929C94.8984 86.9829 94.8884 86.853 94.8784 86.673C94.8984 86.893 94.8884 87.1129 94.8984 87.3229C94.9884 89.2729 95.3984 91.1829 95.5884 93.1229C95.7484 94.7729 95.7184 96.4629 95.6584 98.1429C95.9884 98.0629 96.3784 97.9929 96.6084 98.0329C97.0584 98.1129 104.148 135.243 104.308 139.853C104.278 139.883 104.238 139.903 104.218 139.933C104.058 140.153 103.958 140.393 103.928 140.623C103.898 140.843 103.918 141.063 103.798 141.273C103.668 141.503 103.378 141.693 103.088 141.843C102.348 142.253 101.528 142.583 100.668 142.823C100.478 142.873 100.278 142.923 100.118 143.023C99.6584 143.283 99.6084 143.743 99.6184 144.133C99.6184 144.243 99.6384 144.383 99.7884 144.423C99.8684 144.443 99.9584 144.423 100.048 144.413C102.538 143.953 103.598 143.753 106.088 143.283C106.698 143.173 107.318 143.033 107.888 142.823C107.968 142.793 108.048 142.763 108.098 142.713C108.158 142.663 108.168 142.593 108.178 142.523C108.348 141.603 108.218 140.663 107.978 139.793C107.918 139.653 107.858 139.513 107.738 139.433Z" fill="#736357"/>
<path d="M74.2885 66.5929C74.0485 66.5729 73.8685 66.3929 73.7285 66.2229C70.7985 62.7329 70.3885 58.1729 70.2985 53.8829C70.2585 51.8229 70.2685 49.7629 70.5785 47.7229C72.0285 47.9829 73.0784 49.1129 73.5284 50.3129C73.9784 51.5129 73.9485 52.8029 73.9785 54.0629C74.0685 57.9329 74.7685 61.7729 74.9185 65.6429C74.9385 66.0629 74.7685 66.6329 74.2885 66.5929Z" fill="#E4D2BC"/>
<path d="M81.9884 54.2229C81.8884 54.1929 81.7884 54.1629 81.6784 54.1429C80.4384 51.2129 80.0784 47.9929 79.7384 44.8229C79.7084 44.5129 79.6684 44.2029 79.7184 43.8929C79.7484 43.6929 79.8184 43.4829 79.7784 43.2829C79.7284 43.0829 79.4984 42.9029 79.3284 43.0129C79.6184 42.5929 79.6584 42.0029 79.4184 41.5529C79.0984 40.9329 78.3084 40.4929 77.9484 41.2429C77.6284 41.9129 77.6184 42.6929 77.6184 43.4229C77.6384 47.4229 77.7484 51.4129 77.9584 55.4129C77.9884 56.0829 78.0584 56.8229 78.5384 57.2829C78.8884 57.6229 79.3884 57.7529 79.8684 57.8629C83.8484 58.7829 87.8884 59.4629 91.9584 59.8929C92.9384 59.9929 94.1584 59.9629 94.5884 59.0829C94.9284 58.4129 94.5684 57.5629 93.9684 57.1029C93.3784 56.6429 92.6184 56.4729 91.8784 56.3229C88.8384 55.6929 85.7984 55.0629 82.7484 54.4329C82.4884 54.3829 82.2384 54.2929 81.9884 54.2229Z" fill="#E3DACD"/>
<path d="M86.8382 53.1829C86.6082 55.6829 86.3882 58.1829 86.1582 60.6929C89.7282 60.7429 93.3082 59.973 96.5482 58.463C97.0982 55.813 97.6382 53.1629 98.1882 50.5129C94.2982 50.7429 90.4382 51.6529 86.8382 53.1829Z" fill="#ACB18F"/>
<path d="M57.9783 70.0429C60.4783 70.2529 62.8183 68.5329 65.3283 68.6429C66.5883 68.7029 68.1783 69.1029 68.8783 68.0529C69.1883 67.5829 69.1783 66.9829 69.1683 66.4229C68.9583 60.2229 68.7483 54.0329 68.5283 47.8329C64.6783 48.9029 60.5083 48.7729 56.7283 47.4729C56.7483 54.4729 56.7683 61.4729 56.7983 68.4729C56.7983 68.9429 56.8283 69.4829 57.1983 69.7829C57.4083 69.9729 57.6983 70.0229 57.9783 70.0429Z" fill="#EFF3F0"/>
<path d="M69.0684 141.223C68.0684 139.733 67.2084 138.113 66.7684 136.363C66.5884 135.633 66.4784 134.893 66.4584 134.143C66.4484 133.923 66.4584 133.683 66.5984 133.523C66.7284 133.383 66.9284 133.343 67.1184 133.313C68.2984 133.133 69.6584 133.003 70.5284 133.843C70.8684 134.173 71.0784 134.613 71.2584 135.063C72.1984 137.343 72.5784 139.863 72.3384 142.323C71.9584 142.903 71.1084 142.983 70.4984 142.683C69.8784 142.383 69.4484 141.793 69.0684 141.223Z" fill="#80633D"/>
<path d="M55.8184 140.373C56.8184 138.883 57.6784 137.263 58.1184 135.513C58.2984 134.783 58.4084 134.043 58.4284 133.293C58.4384 133.073 58.4284 132.833 58.2884 132.673C58.1584 132.533 57.9584 132.493 57.7684 132.463C56.5884 132.283 55.2284 132.153 54.3584 132.993C54.0184 133.323 53.8084 133.763 53.6284 134.213C52.6884 136.493 52.3084 139.013 52.5484 141.473C52.9284 142.053 53.7784 142.133 54.3884 141.833C54.9984 141.533 55.4284 140.943 55.8184 140.373Z" fill="#80633D"/>
<path d="M53.0083 75.1429C54.2483 66.0129 55.8683 56.7429 54.8483 47.8129C55.6783 47.2129 56.7283 46.9129 57.7483 46.9829C57.9183 53.3529 58.0883 59.7329 58.2683 66.1029C60.1083 66.1029 61.9483 66.1129 63.7883 66.1129C63.8083 66.1829 63.8283 66.2529 63.8583 66.3229C65.0283 66.3229 66.1983 66.3129 67.3683 66.3129C67.5383 59.9429 67.7083 53.5629 67.8883 47.1929C68.9083 47.1329 69.9583 47.4329 70.7883 48.0229C69.7483 57.1129 72.1483 66.1929 73.0683 75.2929C73.8283 82.7929 74.6883 86.0529 74.4383 93.5829C74.0283 105.893 72.5083 122.503 72.0983 134.813C72.0883 135.123 55.4483 134.623 53.5483 134.603C53.8783 134.603 52.0683 112.693 51.9683 111.063C51.4583 102.543 50.7883 93.6329 51.2783 85.1129C51.4683 81.7129 52.5383 78.6229 53.0083 75.1429Z" fill="#AA6A64"/>
<path d="M57.2783 37.4228C57.3083 36.6928 57.3783 35.9728 57.5583 35.2628C58.1683 32.8028 60.7683 29.2228 63.7283 30.2828C64.4183 30.5328 64.9983 30.9928 65.5583 31.4728C66.1283 31.9628 66.6783 32.4828 67.1483 33.0628C68.0283 34.1728 68.6483 35.6028 68.7483 37.0228C68.8383 38.3428 68.4583 39.7428 68.0883 41.0028C67.5983 42.6728 66.8683 44.4228 65.3783 45.3228C63.3983 46.5228 60.6483 45.7028 59.1383 43.9428C57.6383 42.1828 57.1983 39.7328 57.2783 37.4228Z" fill="#E4D2BC"/>
<path d="M59.8884 49.943C59.9384 49.783 60.0784 49.673 60.2184 49.573C60.2184 49.573 60.2184 49.573 60.2284 49.573C57.1684 46.713 56.1784 41.903 55.7784 39.123C55.5584 37.563 55.5784 35.953 56.0384 34.443C56.5084 32.943 57.4484 31.553 58.7984 30.743C59.4284 30.363 60.1384 30.113 60.8384 29.873C61.3784 29.693 62.0584 29.553 62.5084 29.843C63.1084 29.373 63.9884 29.343 64.7084 29.623C65.4784 29.923 66.0884 30.513 66.6584 31.113C67.5484 32.063 68.3684 33.083 69.0184 34.223C70.0184 35.983 70.5584 37.983 70.6984 40.003C70.7484 40.723 70.7484 41.443 70.5784 42.143C70.3384 43.143 69.7684 44.023 69.2084 44.883C69.1084 45.043 68.9984 45.203 68.8284 45.293C68.6684 45.383 68.4284 45.373 68.3184 45.223C68.2184 45.093 68.2584 44.903 68.2884 44.743C69.0184 41.263 67.8684 37.643 66.1584 34.533C65.4284 33.203 64.5484 31.883 63.2584 31.103C63.1384 31.033 62.9984 30.963 62.8684 30.993C62.7784 31.343 62.5784 31.713 62.3784 32.013C61.2984 33.633 60.2184 35.243 59.1384 36.863C58.5184 37.793 57.8684 38.793 57.8284 39.913C57.7784 41.163 58.4984 42.293 59.0384 43.423C59.5184 44.423 61.4784 47.363 60.9184 49.223C61.0684 49.163 61.2284 49.103 61.3784 49.063C62.5084 50.503 63.0084 52.423 62.7284 54.243C62.6184 53.493 61.8084 53.103 61.2184 52.623C60.4884 52.043 60.0084 51.163 59.8984 50.233C59.8684 50.123 59.8584 50.033 59.8884 49.943Z" fill="#998675"/>
<path d="M82.9083 55.3429C82.5383 54.8829 81.8383 54.9328 81.2483 55.0128C78.8683 55.3528 76.4782 55.5828 74.0882 55.6928C72.8582 55.7528 68.8883 54.9928 69.0583 56.8928C69.2683 59.3328 69.7383 61.7529 70.4483 64.1029C70.6883 64.4429 71.1783 64.4429 71.5883 64.4129C75.5483 64.1129 79.5482 63.8428 83.5282 63.9428C83.9182 63.9528 84.3783 63.8829 84.5583 63.5429C84.6783 63.3229 84.6383 63.0529 84.5983 62.8029C84.2583 60.6129 83.9183 58.4328 83.5783 56.2428C83.2883 55.9428 83.1683 55.6729 82.9083 55.3429Z" fill="#666767"/>
<path d="M78.8885 58.0928C79.0385 58.4328 78.9084 58.6829 78.7884 58.9129C77.4684 61.3429 76.1584 63.7628 74.8384 66.1928C74.2784 67.2228 73.5684 68.3328 71.9584 68.2128C71.5484 68.1828 71.0484 68.0428 70.6484 67.7028C70.6884 65.8828 71.6384 64.6028 72.8884 63.5928C73.1884 63.3428 73.5085 63.1128 73.7685 62.8328C73.9985 62.5828 74.1884 62.2928 74.3684 62.0028C74.8484 61.2328 75.2885 60.4428 75.6985 59.6228C75.7685 59.4728 75.8484 59.3228 75.8484 59.1428C75.8484 58.8928 75.7284 58.6028 75.6784 58.3328C75.6284 58.0628 75.6584 57.8028 75.9084 57.7428C75.9384 57.7328 75.9785 57.7328 76.0185 57.7528C76.1085 57.8028 76.1384 57.9029 76.1484 57.9829C76.1584 58.0629 76.2585 58.1829 76.3285 58.1729C76.5085 58.0329 76.3984 57.7028 76.4084 57.4428C76.4784 56.5928 78.3985 56.9528 78.8885 58.0928Z" fill="#E4D2BC"/>
<path d="M55.1084 47.4229C53.8284 49.2029 53.4784 51.4828 53.2284 53.6628C52.7984 57.3728 52.5484 61.1128 52.4584 64.8428C52.4184 66.8128 52.4284 68.8228 53.0084 70.7028C53.1984 71.3328 53.6484 72.0528 54.2984 71.9528C54.9484 71.8528 55.1584 71.0229 55.2084 70.3629C55.6284 65.3329 56.0484 60.3128 56.4584 55.2828C56.6884 52.5628 56.8284 49.5429 55.1084 47.4229Z" fill="#E4D2BC"/>
<path d="M103.818 48.2628C106.968 49.0628 108.768 54.2628 108.898 56.9728C109.188 63.2628 109.188 69.5628 109.538 75.8428C109.738 79.5528 109.998 83.2628 110.288 86.9628C110.588 90.8328 110.828 91.5928 107.118 91.9328C100.508 92.5428 93.8183 92.5428 87.2083 91.9428C86.4583 91.8728 86.4683 80.1828 86.4383 79.1928C86.2783 73.0228 87.0683 66.7628 89.0083 60.8428C90.1283 57.4228 91.9683 54.1428 94.7283 51.7228C96.8083 49.8928 99.6183 48.7028 102.338 48.2028C102.858 48.1228 103.348 48.1428 103.818 48.2628Z" fill="#ACB18F"/>
<path d="M99.0785 45.853C99.5585 44.973 99.8085 43.8629 99.7385 42.5729C99.6085 40.1829 99.1884 37.7529 97.9584 35.7029C96.5384 33.3429 93.3985 31.2029 90.5185 32.1929C87.1485 33.3529 87.9085 37.783 88.4985 40.723C88.9685 43.053 90.0985 45.353 92.0285 46.733C94.9185 48.813 97.8085 48.153 99.0785 45.853Z" fill="#E3DACD"/>
<path d="M97.3384 39.4329C97.8584 40.9729 98.6684 42.4229 99.7184 43.6729C99.9284 43.9729 100.328 43.5029 100.378 43.1429C100.788 40.3329 100.578 35.3229 99.9084 32.5629C99.2384 29.8029 97.9385 29.2829 95.2585 28.3529C93.3085 27.6729 91.0285 27.9929 89.3285 29.1629C87.6285 30.3429 86.5285 32.3429 86.4185 34.4029C86.4085 34.6029 86.4185 34.8129 86.5385 34.9629C86.7385 35.2029 87.1084 35.1529 87.4084 35.0829C89.1284 34.6629 90.8485 34.0129 92.6085 34.1729C94.3685 34.3429 96.1985 35.6829 96.1285 37.4529C96.7985 37.2429 97.5085 37.0429 98.1785 37.2529C98.8385 37.4629 99.3384 38.3029 98.9584 38.8829C98.5084 39.2829 97.9184 39.4729 97.3384 39.4329Z" fill="#8C6239"/>
<path d="M94.9982 70.0729C96.0782 67.7629 96.7082 65.2629 97.2982 62.7829C98.2482 58.7729 99.0982 54.7429 99.8482 50.6929C99.9782 50.0129 100.098 49.3029 99.9082 48.6429C99.7182 47.9829 99.1182 47.3829 98.4282 47.4329C94.8282 54.4329 92.5282 62.0929 91.6782 69.9129C91.6182 70.4829 91.5782 71.1229 91.9582 71.5629C92.3982 72.0729 93.2482 72.0529 93.8082 71.6828C94.3682 71.3029 94.7082 70.6829 94.9982 70.0729Z" fill="#E3DACD"/>
<path d="M94.4681 68.5928C95.9881 67.4728 97.6081 66.5028 99.3181 65.7128C99.4181 65.6628 99.5382 65.6228 99.6382 65.6628C99.7382 65.7028 99.7882 65.8028 99.8282 65.9028C100.158 66.6528 100.418 67.4428 100.588 68.2428C100.708 68.8028 100.758 69.4728 100.348 69.8828C100.128 70.1028 99.8082 70.1928 99.5182 70.3028C98.0882 70.8428 96.9481 71.9928 95.4981 72.4828C94.4181 72.8428 93.2481 72.8028 92.1081 72.7528C91.9981 72.7528 91.8781 72.7328 91.8181 72.6528C91.7781 72.5928 91.7682 72.5228 91.7682 72.4528C91.7282 71.9028 91.6981 71.3128 91.9381 70.8228C92.0681 70.5628 92.2582 70.3528 92.4482 70.1428C93.3682 69.1328 93.3781 69.4028 94.4681 68.5928Z" fill="#E3DACD"/>
<path opacity="0.26" d="M55.6083 67.6929C55.6083 66.7029 54.5683 66.7029 54.5583 67.6929C54.4183 89.6629 54.5683 111.673 55.3583 133.623C55.4083 134.883 56.7483 134.893 56.7083 133.623C56.0383 111.643 55.5483 89.6929 55.6083 67.6929Z" fill="#E3E4E5"/>
<path opacity="0.26" d="M61.0283 67.3328C61.0283 66.3428 59.9882 66.3428 59.9782 67.3328C59.8382 89.3028 59.9883 111.313 60.7783 133.263C60.8283 134.523 62.1583 134.533 62.1283 133.263C61.4583 111.283 60.9583 89.3328 61.0283 67.3328Z" fill="#E3E4E5"/>
<path opacity="0.26" d="M65.3483 67.3328C65.3483 66.3428 64.3083 66.3428 64.2983 67.3328C64.1583 89.3028 64.3083 111.313 65.0983 133.263C65.1483 134.523 66.4883 134.533 66.4483 133.263C65.7783 111.283 65.2783 89.3328 65.3483 67.3328Z" fill="#E3E4E5"/>
<path opacity="0.26" d="M70.2783 68.1929C70.2783 67.2029 69.2382 67.2029 69.2282 68.1929C69.0882 90.1629 69.2383 112.173 70.0283 134.123C70.0783 135.383 71.4083 135.393 71.3783 134.123C70.6983 112.143 70.2083 90.1929 70.2783 68.1929Z" fill="#E3E4E5"/>
<path d="M65.6084 58.783C65.1684 58.733 64.5984 58.893 64.2584 59.193C63.8384 59.563 63.6784 60.153 63.5384 60.713C63.4784 60.503 63.2585 60.3529 63.0585 60.3729C62.8485 60.3929 62.6884 60.593 62.6984 60.803C62.7084 61.063 62.9485 61.283 62.9385 61.543C62.9285 61.743 62.7685 61.883 62.6285 62.013C60.3085 63.993 57.7584 65.703 55.5384 67.803C54.8984 68.403 54.6784 69.063 54.2284 69.793C53.8884 70.343 53.3084 71.0629 53.8184 71.7429C54.2484 72.3229 55.1085 72.1829 55.7485 71.9329C60.7085 69.9329 63.5684 64.793 66.0784 59.973C66.4884 59.193 66.1384 58.843 65.6084 58.783Z" fill="#E4D2BC"/>
<defs>
<linearGradient id="paint0_linear" x1="83.9245" y1="143.117" x2="127.414" y2="143.117" gradientUnits="userSpaceOnUse">
<stop stop-color="#4D4D4D"/>
<stop offset="1"/>
</linearGradient>
<linearGradient id="paint1_linear" x1="83.9245" y1="143.117" x2="127.414" y2="143.117" gradientUnits="userSpaceOnUse">
<stop/>
<stop offset="1"/>
</linearGradient>
<linearGradient id="paint2_linear" x1="48.9828" y1="141.92" x2="80.9459" y2="141.92" gradientUnits="userSpaceOnUse">
<stop stop-color="#4D4D4D"/>
<stop offset="1"/>
</linearGradient>
<linearGradient id="paint3_linear" x1="48.9828" y1="141.92" x2="80.9459" y2="141.92" gradientUnits="userSpaceOnUse">
<stop/>
<stop offset="1"/>
</linearGradient>
</defs>
</svg>
