<svg width="162" height="162" viewBox="0 0 162 162" fill="none" xmlns="http://www.w3.org/2000/svg">
<circle cx="81" cy="81" r="81" fill="#E0DDFF"/>
<path d="M41.0908 134.581C40.0608 134.701 38.9808 134.401 38.0908 133.761C39.4408 129.871 39.8408 128.721 41.1908 124.831C41.6208 123.601 42.0508 122.361 42.2808 121.061C42.5708 119.461 42.5508 117.791 42.5408 116.151C42.4808 109.761 42.6808 88.6314 42.6208 82.2414C42.6108 81.7014 42.6108 81.1514 42.7908 80.6614C43.3108 79.2614 47.0108 79.5114 48.3608 79.5714C48.6608 79.5814 50.8508 79.8614 51.0708 80.0914C51.3308 80.3514 53.5308 80.1914 53.5508 80.5814C53.8208 85.6214 50.6308 95.7114 50.2008 101.021C50.0608 102.781 48.5908 113.981 48.3408 115.721C47.9008 118.791 46.8108 121.951 45.4708 124.631C43.4108 128.751 43.1008 129.721 41.0908 134.581Z" fill="#F0E5D4"/>
<path d="M53.3608 56.3615C54.5708 56.9615 55.4408 58.0715 56.2608 59.1415C58.2508 61.7415 60.2308 64.3415 62.2208 66.9415C62.7908 67.6815 63.4008 68.4615 64.2608 68.8015C65.3108 69.2215 66.4908 68.9315 67.5708 68.6315C69.7308 68.0415 69.3108 67.8915 71.4708 67.3015C71.6308 67.2615 71.8208 67.2215 71.9508 67.3215C72.0408 67.3815 72.0708 67.4915 72.1108 67.5915C72.3308 68.2315 72.7908 69.6815 72.3908 70.2215C72.1008 70.6115 71.5908 70.7515 71.1108 70.8715C67.4308 71.7615 66.3108 72.2215 62.5308 72.5015C61.9708 72.5415 61.6208 72.2115 60.6208 71.6615C60.1908 71.4315 59.8108 71.1315 59.4608 70.7915C57.3608 68.7215 55.4508 66.4515 53.7408 64.0515C52.9008 62.8715 52.1108 61.6515 51.3608 60.4015C50.8208 59.4915 49.8808 58.1515 50.1308 57.0115C50.4508 55.6415 52.4108 55.9015 53.3608 56.3615Z" fill="#6D8497"/>
<path d="M50.8407 47.7913C50.7307 46.0413 49.9707 44.4013 49.1907 42.8313C48.5707 41.5613 47.8907 40.2613 46.7607 39.4013C46.5407 39.2313 46.2907 39.0713 46.0107 39.0513C45.7707 39.0313 45.5307 39.1013 45.3107 39.1813C43.1507 39.8813 40.9507 40.6013 39.0607 41.8513C38.9207 41.9413 38.7807 42.0513 38.7207 42.2013C38.6707 42.3413 38.7007 42.4913 38.7207 42.6413C39.6007 47.0213 41.4907 52.8113 45.8807 53.9013C48.0107 52.8713 47.6307 53.6613 49.8407 52.8213C49.2507 51.6613 50.9207 49.0913 50.8407 47.7913Z" fill="#E8DBCE"/>
<path d="M59.6108 138.451C59.3908 138.221 59.0808 138.101 58.7908 137.991C57.7808 137.581 56.8208 137.041 55.9508 136.391C54.8108 136.201 53.6608 136.151 52.5108 136.241C52.0708 136.931 51.9308 137.811 52.1408 138.601C52.1708 138.701 52.2008 138.801 52.2708 138.871C52.3608 138.961 52.4908 138.991 52.6208 139.011C54.7108 139.391 56.8308 139.571 58.9508 139.551C59.2308 139.551 59.5408 139.521 59.7208 139.311C59.9108 139.071 59.8208 138.681 59.6108 138.451Z" fill="#333333"/>
<path d="M43.3606 138.101C43.2506 137.811 43.0106 137.601 42.7806 137.381C42.0106 136.651 41.3306 135.811 40.7606 134.911C39.7906 134.331 38.7606 133.871 37.6806 133.551C37.0306 134.021 36.5906 134.771 36.5006 135.571C36.4906 135.671 36.4806 135.771 36.5206 135.861C36.5706 135.971 36.6806 136.051 36.7906 136.111C38.5506 137.201 40.4206 138.121 42.3506 138.861C42.6006 138.961 42.9006 139.051 43.1306 138.921C43.4206 138.771 43.4806 138.391 43.3606 138.101Z" fill="#333333"/>
<path d="M59.4207 91.6914C59.4307 91.1714 59.4207 90.6514 59.4007 90.1414V90.1314C59.3207 87.7214 58.9907 85.3314 58.6907 82.9314C58.5007 81.4514 58.2907 79.9114 57.5407 78.6614C55.7707 79.9014 53.7507 80.6514 51.6807 80.9114C51.6707 80.9514 51.6607 80.9914 51.6407 81.0414C51.5207 81.3414 51.4507 81.6614 51.4007 81.9914C51.7907 86.2014 50.9507 90.9914 50.9507 94.6214C50.9507 96.9014 50.7607 99.1514 50.4907 101.381C50.5507 101.371 50.6007 101.371 50.6607 101.361C51.4607 104.651 51.5707 108.161 51.6707 111.611C51.9107 119.821 52.1507 128.031 52.3907 136.251C52.3907 137.091 55.3607 136.341 55.5607 136.291C55.5707 136.121 55.5807 135.951 55.6007 135.781C55.9007 131.551 55.9007 127.231 56.2707 123.001C56.6107 119.061 56.7407 114.791 57.5507 110.931C57.8807 109.361 57.9007 108.061 57.9207 106.461C57.9407 104.501 58.1807 102.561 58.4507 100.631C58.8307 97.6514 59.3607 94.6914 59.4207 91.6914Z" fill="#F0E5D4"/>
<path d="M61.1907 108.531C61.2007 105.941 60.8707 103.331 60.6907 100.751C60.5107 98.1614 61.1207 91.6414 60.6507 89.0914C59.5307 82.9714 58.2107 83.4314 58.8707 80.4714C60.7407 72.0914 55.1607 60.7314 49.8307 55.2314C48.2907 55.6914 46.6607 55.7714 45.0207 55.7814C44.9807 55.8914 44.9507 56.0114 44.9207 56.1414C43.4207 63.9614 42.8407 78.3914 42.6407 81.3114C42.2507 87.0414 40.2607 90.5814 39.4907 95.9514C39.2507 97.6314 38.9107 99.3914 38.6307 101.141C38.0707 102.981 37.2907 104.971 37.1007 106.991C36.9707 107.251 36.8707 107.551 36.8107 107.861C36.1607 108.871 36.2707 110.541 37.3707 111.151C37.6107 111.281 37.8507 111.321 38.0907 111.301C38.1307 111.321 38.1607 111.341 38.2007 111.361C42.1007 113.051 46.3307 114.161 50.4607 113.961C50.7207 113.951 50.9507 113.891 51.1607 113.801C52.3607 113.891 53.5507 113.941 54.7707 113.981C56.2907 114.021 58.3307 114.451 59.7007 113.501C60.5107 112.931 60.7807 111.721 60.6507 110.611C60.9807 110.061 61.1807 109.371 61.1907 108.531Z" fill="#6D8497"/>
<path d="M49.9607 67.4915C47.6607 68.7815 41.6907 72.1315 38.9507 71.8315C41.6607 69.1415 44.1907 66.0415 45.4907 64.3515C46.9907 62.4015 46.5307 59.2915 46.0807 57.0615C45.7907 55.6115 44.1706 55.6615 43.4106 56.5515C42.9406 56.6015 42.5106 56.8815 42.2506 57.4615C39.6506 63.4215 34.6907 68.5715 33.5107 75.1115C33.3507 76.0015 33.7407 77.2015 34.7907 77.3715C41.2107 78.4015 45.6507 71.6815 50.9307 69.2715C53.0607 68.2915 50.7907 67.0215 49.9607 67.4915Z" fill="#738797"/>
<path d="M52.0808 63.8113C51.9708 63.3213 51.7208 62.8913 51.2008 62.6313C50.9308 62.4913 50.5209 62.7013 50.5009 63.0213C50.4609 63.7813 50.4309 64.5413 50.3909 65.2913C50.3209 65.2513 50.2509 65.2113 50.1809 65.1713C49.7809 64.9313 49.3709 65.4513 49.5009 65.8213C49.7209 66.4613 50.1408 66.8313 50.5308 67.3613C50.7208 67.6213 50.9608 67.6413 51.1508 67.5413C51.3608 67.7213 51.6908 67.7713 51.9208 67.4913C52.0308 67.3513 52.0608 67.2113 52.0308 67.0813C52.3908 65.9613 52.6508 64.8013 52.0808 63.8113Z" fill="#E8DBCE"/>
<path d="M57.8907 30.5513C57.2107 30.8313 56.5407 31.1013 55.8407 31.3013C55.5507 31.3813 55.6807 31.7913 55.9607 31.7413C56.6807 31.6213 57.4007 31.5113 58.1107 31.3313C58.6307 31.2013 58.3707 30.3513 57.8907 30.5513Z" fill="#666666"/>
<path d="M52.5207 27.1214C52.3607 26.7814 51.7907 26.9514 51.8207 27.3214C51.8507 27.6314 51.9807 27.9314 52.0807 28.2314C52.1907 28.5414 52.2807 28.9214 52.4807 29.1914C52.5807 29.3214 52.8507 29.3514 52.8807 29.1314C52.9207 28.8114 52.8307 28.4814 52.7707 28.1714C52.7107 27.8114 52.6707 27.4414 52.5207 27.1214Z" fill="#666666"/>
<path d="M55.4107 27.4613C55.1607 27.7713 54.9907 28.1313 54.8107 28.4813C54.6507 28.7913 54.4707 29.1013 54.4407 29.4613C54.4207 29.6313 54.6407 29.7313 54.7707 29.6513C55.0307 29.4813 55.1907 29.2213 55.3707 28.9713C55.6007 28.6313 55.8707 28.3013 56.0307 27.9213C56.1807 27.5413 55.7107 27.1013 55.4107 27.4613Z" fill="#666666"/>
<path d="M90.3109 136.901C90.3209 136.771 90.3409 136.631 90.4109 136.521C90.5909 136.191 91.2209 136.341 91.5509 136.321C91.9709 136.281 92.3809 136.211 92.8009 136.131C93.0609 136.081 95.2209 135.541 95.2909 135.701C95.1809 135.461 95.4109 135.201 95.4809 134.891C96.2209 134.651 97.0809 134.961 97.9809 134.861C97.9609 135.301 98.2909 135.681 98.4809 136.051C98.5709 136.221 98.6809 136.411 98.6409 136.601C98.5909 136.831 98.2709 137.151 98.1409 137.341C98.0909 137.411 98.0409 137.491 97.9709 137.541C97.8809 137.611 97.7709 137.641 97.6709 137.671C97.2709 137.771 96.8409 137.791 96.4209 137.751C96.1909 137.731 95.7209 137.501 96.0709 137.211C94.2609 137.181 92.4909 138.221 90.7209 137.561C90.5609 137.501 90.4109 137.381 90.3509 137.221C90.3009 137.101 90.3009 137.001 90.3109 136.901Z" fill="#662E2A"/>
<path d="M88.1008 95.7415C88.1008 95.4515 90.6508 95.5914 90.7708 95.8614C92.8108 95.9114 94.8508 95.9715 96.8808 96.0215C97.3408 96.0315 97.8408 96.0614 98.2008 96.3514C98.6908 96.7514 101.331 97.5315 101.311 98.1615C101.031 110.601 98.1308 122.981 97.8408 135.421C97.0008 135.421 96.1708 135.421 95.3308 135.421C95.3108 131.441 93.1108 127.561 92.3508 123.651C90.5908 114.601 87.9708 104.971 88.1008 95.7415Z" fill="#333333"/>
<path d="M104.241 94.4114C104.451 94.1714 104.801 94.1114 105.121 94.0614C106.571 93.8514 108.381 93.7914 109.131 95.0414C109.391 95.4814 109.081 96.7414 109.531 96.5014C122.641 89.5114 111.131 108.551 111.931 114.581C112.141 116.131 112.351 117.701 112.871 119.181C113.301 120.381 113.931 121.501 114.561 122.611C116.551 126.121 118.541 129.631 120.531 133.131C119.651 133.841 118.531 134.251 117.391 134.261C116.341 132.321 114.871 131.901 108.361 125.791C106.191 123.751 103.901 118.991 103.001 116.151C102.491 114.541 102.011 102.571 101.871 100.891C101.481 96.1114 101.361 99.2814 100.981 94.5014C100.951 94.1414 104.001 94.6914 104.241 94.4114Z" fill="#333333"/>
<path d="M125.651 27.1414C125.441 26.2914 125.001 25.4214 125.271 24.5914C125.391 24.6114 125.501 24.6314 125.621 24.6514C125.691 24.8214 125.771 24.9814 125.841 25.1514C125.841 24.7114 125.911 24.2614 126.041 23.8414C126.171 23.4314 126.481 22.9714 126.921 23.0014C127.351 23.0314 127.591 23.5014 127.711 23.9114C128.241 25.8114 127.991 27.8214 127.741 29.7814C127.041 29.8214 126.331 29.7514 125.651 29.5814C125.851 28.7814 125.851 27.9414 125.651 27.1414Z" fill="#E8DBCE"/>
<path d="M112.741 60.4015C109.611 61.9315 105.421 53.0315 109.381 51.2115C112.971 49.5615 118.981 49.3715 122.191 46.8215C123.731 45.6015 124.681 43.8515 124.851 41.7415C125.191 37.5515 125.431 33.3515 125.561 29.1615C126.461 29.1215 127.361 29.0815 128.251 29.0415C128.751 34.2415 129.251 39.4515 129.751 44.6515C129.851 45.6515 129.941 46.6915 129.661 47.6815C129.391 48.6315 128.801 49.4215 128.181 50.1515C124.131 54.9315 117.721 57.9615 112.741 60.4015Z" fill="#E8DBCE"/>
<path d="M113.511 137.731C113.551 137.331 114.231 137.201 114.541 137.031C114.941 136.811 115.321 136.561 115.691 136.301C115.921 136.141 117.821 134.661 117.961 134.781C117.751 134.591 117.711 134.371 117.371 134.121C118.001 133.561 119.281 132.991 120.121 132.501C120.301 132.941 120.911 133.451 121.251 133.731C121.411 133.861 121.611 134.001 121.651 134.201C121.701 134.451 121.531 134.901 121.481 135.151C121.461 135.241 121.451 135.341 121.401 135.421C121.351 135.531 121.251 135.601 121.161 135.681C120.801 135.951 120.391 136.161 119.971 136.301C119.741 136.381 119.171 136.361 119.381 135.921C117.591 136.681 116.291 138.471 114.251 138.601C114.061 138.611 113.861 138.561 113.731 138.421C113.661 138.341 113.611 138.241 113.581 138.131C113.531 138.011 113.491 137.871 113.511 137.731Z" fill="#662E2A"/>
<path d="M75.3707 30.0514C75.4507 29.9914 75.5607 29.9814 75.6507 30.0014C75.6007 29.6614 75.9307 29.3414 76.2807 29.3214C76.6307 29.3014 76.9507 29.5114 77.1607 29.7914C77.3707 30.0714 77.4707 30.4014 77.5807 30.7314C77.7107 31.1514 77.8507 31.5714 77.9807 31.9914C78.1207 31.8714 78.2207 31.7014 78.2407 31.5114C78.3607 31.4414 78.5307 31.5114 78.6107 31.6214C78.6907 31.7314 78.7207 31.8814 78.7407 32.0214C78.8707 32.8714 79.0007 33.7214 79.1307 34.5814C78.8107 34.7314 78.5107 34.9114 78.1807 35.0014C77.8507 35.1014 77.4607 35.1014 77.1707 34.9214C76.7607 34.6714 76.6407 34.1514 76.5107 33.6914C76.3607 33.1514 76.1507 32.6214 75.9007 32.1114C75.5707 31.4714 75.1507 30.7514 75.3707 30.0514Z" fill="#E8DBCE"/>
<path d="M79.1806 34.3513C80.0806 38.0013 81.0706 41.6313 82.1506 45.2413C82.6906 47.0513 83.8306 48.4113 85.3806 49.2013C88.6106 50.8413 92.0706 51.1813 95.4506 51.9713C99.1806 52.8413 98.4306 56.6513 95.4306 57.2213C90.6206 58.1413 85.2406 56.6513 80.8706 53.2113C80.2106 52.6913 79.5606 52.1013 79.1506 51.3213C78.7306 50.5113 78.6106 49.5813 78.5106 48.6913C77.9606 44.0413 77.4106 39.3913 76.8706 34.7413C77.6206 34.6113 78.4006 34.4813 79.1806 34.3513Z" fill="#E8DBCE"/>
<path d="M86.8608 57.8513C88.3208 59.0513 89.8208 60.2513 91.3708 61.3613C89.4308 73.2813 87.9108 85.4113 87.5308 97.5013C87.4708 99.5713 89.2608 101.051 91.1908 101.161C94.7608 101.361 98.3208 101.291 101.881 100.901C103.701 100.701 105.531 100.451 107.331 100.121C107.961 100.001 108.541 99.8813 109.071 99.7213C109.131 99.7213 109.191 99.7213 109.251 99.7113C112.201 99.5413 114.941 99.1513 117.831 98.5913C120.311 98.1013 120.081 95.0013 118.381 93.9313C118.361 93.2713 118.201 92.6013 117.881 91.9513C118.191 85.0713 118.331 78.2013 117.341 71.3813C117.311 70.5713 117.251 69.7713 117.161 68.9713C116.911 66.6713 116.421 64.4113 115.801 62.1913C116.571 61.3913 117.391 60.6613 118.161 59.8613C119.031 58.9613 120.021 58.3513 120.971 57.5513C121.181 57.3713 121.351 57.1713 121.461 56.9713C121.461 56.9713 128.381 50.5413 130.141 48.0313C131.901 45.5113 128.561 28.5913 128.561 28.5913L125.081 28.8113L124.631 31.4613C124.631 31.4613 123.841 39.8113 122.871 43.8013C121.901 47.8013 115.141 48.8213 115.141 48.8213C114.711 48.8913 114.281 48.9713 113.831 49.0413C112.971 49.1813 112.091 49.2513 111.221 49.2913C110.961 49.3013 110.691 49.3013 110.431 49.3113C106.401 50.5613 102.151 50.8713 98.0508 49.9813C97.9208 50.1213 97.8008 50.2613 97.6908 50.4113C97.4108 50.3213 97.1008 50.2813 96.7408 50.3213C95.5508 50.4413 94.3308 50.4313 93.1108 50.3713C92.4508 50.2213 91.8008 50.0713 91.1408 49.9113C90.3708 49.7313 89.2808 49.7613 88.5908 49.4113C88.5908 49.4113 84.4908 48.4813 83.2008 45.4413C81.9108 42.3913 79.6308 34.3713 79.6308 34.3713L76.2908 34.8413L78.1108 49.8913C78.1508 49.8713 77.1308 51.4713 86.8608 57.8513Z" fill="#C0CCCB"/>
<path d="M91.8207 61.6514C91.3607 62.2114 90.8307 62.7414 90.5107 63.3914C90.2807 63.8614 90.1507 64.3814 90.0407 64.8914C89.4507 67.5914 89.1007 70.3414 88.7407 73.0914C88.1007 78.0514 87.4607 83.0114 86.8307 87.9714C86.3607 91.5914 85.9007 95.3014 86.7207 98.8514C86.7907 99.1414 86.8707 99.4514 87.1107 99.6414C87.3807 99.8614 87.7507 99.8514 88.1007 99.8314C93.4007 99.5714 98.7107 99.3014 104.011 99.0414C107.371 98.8714 110.761 98.7014 114.011 97.8714C115.571 97.4714 117.231 96.7914 117.931 95.3514C118.291 94.6114 118.331 93.7614 118.371 92.9314C118.501 90.1814 118.621 87.4414 118.751 84.6914C118.941 80.5314 119.131 76.3414 118.561 72.2214C118.161 69.3714 117.411 66.5914 116.651 63.8214C116.531 63.3714 116.401 62.9014 116.111 62.5214C115.851 62.1814 115.471 61.9414 115.111 61.6914C111.491 59.2414 108.751 55.5214 107.481 51.3314C107.381 51.0014 107.281 50.6514 107.071 50.3714C106.381 49.4814 104.991 49.7814 103.931 50.1614C103.931 51.7114 102.701 53.1614 101.181 53.4214C99.5307 53.7014 98.1907 52.6514 97.5207 51.2414C96.7207 49.5514 95.7007 50.0114 95.3107 51.8014C94.5407 55.3714 94.2707 58.6814 91.8207 61.6514Z" fill="#998675"/>
<path d="M47.8207 57.0814C47.6607 57.0814 47.5407 57.1414 47.4607 57.2414C47.4707 57.0614 47.3507 56.8714 47.1207 56.8714C47.1107 56.8714 47.1107 56.8714 47.1007 56.8714C47.1707 56.6014 47.0207 56.2714 46.6607 56.2714C46.6207 56.2714 46.6007 56.2814 46.5607 56.2914C46.6407 56.0814 46.5207 55.8014 46.2107 55.7614C46.2007 55.7614 46.1907 55.7614 46.1907 55.7614C46.1907 55.7614 46.1907 55.7614 46.1807 55.7614C46.2307 55.4814 46.0807 55.1614 45.7207 55.1614C45.0807 55.1614 45.0807 56.1514 45.7207 56.1514C45.7607 56.1514 45.7807 56.1414 45.8107 56.1314C45.8007 56.3514 45.9307 56.5814 46.1907 56.5414C46.2007 56.5414 46.2107 56.5414 46.2107 56.5414C46.2207 56.5414 46.2307 56.5314 46.2507 56.5314C46.1207 56.8114 46.2607 57.2214 46.6607 57.2214C46.7107 57.2214 46.7407 57.2114 46.7807 57.2014C46.7707 57.3914 46.8807 57.5814 47.1207 57.5814C47.2207 57.5814 47.3007 57.5414 47.3607 57.4814C47.3107 57.7614 47.4607 58.0714 47.8207 58.0714C48.4607 58.0814 48.4607 57.0814 47.8207 57.0814Z" fill="#F0F0F0"/>
<path d="M50.2308 56.9114C49.9508 56.9114 49.8208 57.1214 49.8108 57.3314C49.7608 57.3214 49.7208 57.3014 49.6708 57.3014C49.4408 57.3014 49.3008 57.4114 49.2108 57.5614C49.1308 57.4314 49.0008 57.3414 48.8008 57.3414C48.1308 57.3414 48.1308 58.3814 48.8008 58.3814C49.0008 58.3814 49.1308 58.2914 49.2108 58.1614C49.3008 58.3114 49.4408 58.4214 49.6708 58.4214C50.0708 58.4214 50.2408 58.0714 50.2008 57.7714C50.2108 57.7714 50.2208 57.7814 50.2308 57.7814C50.8008 57.7814 50.8008 56.9114 50.2308 56.9114Z" fill="#F0F0F0"/>
<path d="M50.2307 56.8714C50.6207 56.8714 50.6207 56.2714 50.2307 56.2714C49.8407 56.2614 49.8407 56.8714 50.2307 56.8714Z" fill="#F0F0F0"/>
<path d="M49.9008 55.3614C49.5308 55.5514 49.6008 56.2314 50.1108 56.2314C50.6808 56.2314 50.7008 55.3714 50.1508 55.3214C50.5208 55.1314 50.4508 54.4514 49.9408 54.4514C49.3708 54.4514 49.3508 55.3114 49.9008 55.3614Z" fill="#F0F0F0"/>
<path d="M74.0008 66.8113C74.1308 66.7613 74.3008 66.7213 74.4008 66.8113C74.4408 66.8513 74.4708 66.9113 74.5108 66.9513C74.6608 67.1113 74.9308 67.0413 75.1408 66.9813C75.4908 66.8713 75.8508 66.8113 76.2108 66.8113C76.3508 66.8113 76.5008 66.8113 76.6308 66.8813C76.8908 67.0013 77.0108 67.3113 77.0908 67.5913C77.2008 67.9613 77.2908 68.3913 77.0908 68.7213C76.9208 68.9913 76.5908 69.1213 76.2908 69.2213C75.1908 69.5613 74.0408 69.7113 72.8908 69.8513C72.7408 69.8713 72.5808 69.8813 72.4708 69.8013C72.4008 69.7513 72.3608 69.6713 72.3208 69.5913C72.1108 69.1413 71.7008 68.2413 72.1408 67.8513C72.6508 67.3813 73.3508 67.0513 74.0008 66.8113Z" fill="#E8DBCE"/>
<path d="M93.7607 50.4513C91.4307 54.1413 86.2007 56.6513 82.0907 57.6713C80.0507 58.1813 77.9007 58.1713 75.9407 58.9813C74.3107 59.6513 72.9807 60.7013 71.8507 62.0413C71.7407 62.1713 71.9207 62.3513 72.0307 62.2213C73.8707 60.1713 76.1307 59.0513 78.8307 58.6513C81.0407 58.3213 83.1307 57.9913 85.2207 57.1513C88.5207 55.8113 92.3107 53.8513 94.1807 50.6913C94.3307 50.4313 93.9307 50.1913 93.7607 50.4513Z" fill="#F4F4F4"/>
<path d="M72.0408 61.7514C67.5308 64.4214 62.2608 57.4814 59.7208 54.5614C57.2608 51.7314 54.5808 48.9814 50.8708 47.9514C50.5708 47.8714 50.4408 48.3314 50.7408 48.4214C55.8508 49.9614 58.7208 54.5414 62.2508 58.1714C64.4608 60.4414 68.8608 64.3314 72.1708 61.9714C72.3008 61.8814 72.1808 61.6714 72.0408 61.7514Z" fill="#F4F4F4"/>
<path d="M56.0008 51.4214C55.5008 50.8414 54.7708 50.5214 54.4608 49.8014C54.1308 49.0314 53.9308 47.9814 53.7608 47.1714C53.2808 44.8514 52.5808 42.6714 51.6708 40.4814C51.6308 40.4014 51.6008 40.3214 51.5608 40.2414C52.0408 39.1614 51.8408 37.8314 50.6108 36.9714C50.2908 36.7514 49.8308 36.5614 49.2508 36.4114C48.8108 36.1414 48.1708 36.0114 47.5708 36.0614C47.5108 36.0714 47.4508 36.0814 47.3908 36.0814C42.8908 35.5914 35.9008 36.6214 36.2308 40.2214C36.0908 40.3814 36.0008 40.5514 35.9608 40.7414C35.8708 41.3014 36.0208 41.6514 36.3208 41.8614C36.1208 42.2514 36.0008 42.6714 35.9608 43.1014C35.7408 43.3714 35.5608 43.6814 35.4208 44.0714C34.8908 45.6014 35.1708 47.2714 35.6408 48.7714C36.0708 50.1514 36.8308 51.4214 36.8508 52.8914C36.8808 54.5214 35.7608 54.7414 34.3708 55.0914C31.6108 55.7814 30.0508 57.3814 30.0008 60.3514C29.9808 61.7214 30.3508 63.2014 31.2008 64.2914C32.0308 65.3514 33.4308 66.6614 34.6708 67.1914C35.2108 67.4214 35.7908 67.4114 36.3008 67.2514C38.6508 67.6514 41.0908 67.2014 42.6508 65.2014C42.8508 64.9414 43.0208 64.6614 43.1608 64.3714C43.7708 63.8314 44.2308 63.0814 44.4208 62.0914C44.8308 59.9314 43.3008 58.1814 41.3508 57.9514C41.1008 57.6214 40.7908 57.3514 40.4308 57.1414C41.6308 56.2614 42.7108 55.4314 43.1908 53.9314C44.1708 50.8214 42.3708 47.3614 39.9408 45.4814C39.6708 45.2714 39.7508 45.0914 39.4708 45.0414C39.4508 44.9714 39.4308 44.8914 39.4108 44.8214C40.5908 44.5814 40.3008 42.9914 39.6908 42.0214C40.0008 41.6414 40.3808 41.3814 40.8108 41.1814C41.2908 41.2014 41.7708 41.2714 42.0908 41.3114C42.9708 41.4414 43.8108 41.5414 44.7108 41.6114C45.8508 41.7014 47.0508 42.0114 48.2208 42.0314C48.2508 42.0714 48.2808 42.1014 48.3008 42.1414C48.3608 42.2214 48.4308 42.2814 48.5008 42.3214C49.0708 43.5914 49.5008 44.8914 49.8808 46.2414C50.1508 47.2014 50.2408 48.1514 50.3808 49.1014C49.9108 49.3314 49.5508 49.7914 49.5008 50.5414C49.3908 52.2414 49.6708 54.0914 50.5508 55.5714C50.7708 55.9414 51.1508 56.2814 51.3208 56.6714C51.3608 56.7714 51.4208 56.7914 51.4708 56.7914C51.4108 56.8314 51.3208 56.9014 51.1708 57.0414C50.5908 57.5714 50.1208 57.9614 49.9608 58.7814C49.2908 62.3814 53.8808 63.2714 55.8708 60.9514C57.8408 58.6914 57.9508 53.7014 56.0008 51.4214Z" fill="#EDEAE8"/>
<path d="M49.5607 44.3014C48.6007 44.0014 47.3107 44.3713 46.8007 45.2713C46.7907 45.2913 46.7907 45.3014 46.7807 45.3214C46.3307 45.4414 45.8707 45.5913 45.4107 45.6713C44.9107 45.0413 43.9807 44.8014 43.2707 45.1614C42.1907 45.4214 41.2607 46.2313 41.1007 47.4013C40.9007 48.8413 42.9307 49.2313 44.0007 48.9613C45.2307 48.6514 46.2007 47.2313 45.6207 45.9913C45.6107 45.9813 45.6007 45.9713 45.6007 45.9513C46.0407 45.8013 46.5107 45.7013 46.9607 45.5813C47.3707 47.0213 50.1507 47.8013 50.7007 46.1713C50.9807 45.3413 50.3307 44.5414 49.5607 44.3014ZM43.5607 48.6813C42.4307 48.8013 41.0107 48.2113 41.6107 46.8813C41.8507 46.3513 42.2807 45.9313 42.8007 45.6713C42.8407 45.7713 42.9707 45.8413 43.0807 45.7413C43.9007 45.0413 45.3207 45.5113 45.4007 46.6513C45.4807 47.7213 44.5807 48.5713 43.5607 48.6813ZM50.3507 45.9913C49.9907 47.3613 47.0007 46.6113 47.2307 45.2913V45.2813C47.6807 44.8913 48.1607 44.6014 48.8007 44.5714C49.5907 44.5514 50.5907 45.0713 50.3507 45.9913Z" fill="#414141"/>
<path d="M104.341 39.4613C105.191 40.8413 105.381 42.5213 105.521 44.1413C105.701 46.1513 105.841 48.2113 105.231 50.1413C104.781 51.5613 104.951 51.1513 102.081 52.8713C99.3607 52.8613 102.071 52.6413 99.3607 52.8613C89.4407 50.9213 93.5007 44.6713 94.3707 39.6113C94.4007 39.4413 94.4307 39.2713 94.5507 39.1413C94.6807 39.0013 94.8707 38.9513 95.0607 38.9113C97.6107 38.3513 100.261 38.4913 102.861 38.6313C103.141 38.6413 103.421 38.6613 103.671 38.7813C103.961 38.9213 104.171 39.1913 104.341 39.4613Z" fill="#E8DBCE"/>
<path d="M92.7507 36.1014C93.2507 35.7514 93.6507 35.9714 94.0507 36.2414C94.1107 36.2314 94.1707 36.2114 94.2407 36.2114C94.4907 36.2014 94.7107 36.2814 94.9007 36.4014C95.7807 36.0714 96.7407 35.8814 97.6907 35.8514C98.0607 35.4814 98.4307 35.1414 98.9607 35.0614C99.4707 34.9814 99.9707 35.2414 100.421 35.6114C100.961 34.6414 101.871 34.0814 103.021 34.9214C103.281 35.1114 103.451 35.3014 103.561 35.4914C103.701 35.5714 103.831 35.6614 103.971 35.7514C104.241 35.7214 104.511 35.7514 104.791 35.8614C105.571 36.1514 105.971 36.8914 105.821 37.6814C105.931 37.9314 105.991 38.1914 105.991 38.4414C106.081 38.6414 106.161 38.8514 106.241 39.0614C106.311 39.1214 106.371 39.1814 106.431 39.2414C106.621 39.2814 106.791 39.3614 106.961 39.4714C107.541 39.7114 107.801 40.4214 107.751 41.1014C107.771 41.3914 107.741 41.6714 107.621 41.8614C107.561 41.9514 107.501 42.0214 107.431 42.0814C107.251 42.3614 106.981 42.5714 106.641 42.6314C106.611 42.8314 106.571 43.0314 106.521 43.2214C106.731 44.4314 106.541 45.6114 105.931 46.8014C105.921 46.8314 105.911 46.8614 105.891 46.8914C105.891 46.8914 105.891 46.8914 105.881 46.8914C105.861 46.9414 105.841 46.9814 105.811 47.0314C105.501 47.5914 104.541 47.0714 104.811 46.4814C105.201 45.6414 105.581 43.4414 104.091 43.9014C103.221 44.1714 103.171 44.8414 102.791 45.6914C102.531 46.2714 101.641 46.0814 101.701 45.4314C101.771 44.5614 101.881 43.7114 102.161 42.8814C102.231 42.6914 102.291 42.5114 102.351 42.3414C102.291 42.3314 102.241 42.3114 102.181 42.2814C101.521 41.8914 101.151 41.2014 100.891 40.4514C100.871 40.4414 100.861 40.4314 100.841 40.4214C100.811 40.5014 100.781 40.5714 100.751 40.6514C100.601 41.0014 100.101 41.1214 99.8507 40.7914C99.5807 40.4314 99.3807 40.1114 99.2307 39.7614C98.7707 40.0814 98.2107 40.1314 97.9007 39.6814C97.3307 39.8614 96.7807 39.7714 96.0807 39.6114C95.7407 39.5314 95.3207 39.4414 94.8807 39.3214C94.7707 39.3614 94.6507 39.4014 94.5407 39.4314C94.0607 39.5814 93.5507 39.2014 93.4807 38.7814C93.0707 38.5514 92.7307 38.2614 92.5407 37.8814C92.2707 37.3714 92.1807 36.5014 92.7507 36.1014Z" fill="#EBEBEB"/>
<path d="M75.6907 73.3813C75.6807 73.2813 75.5107 73.3013 75.5207 73.4013C75.8107 76.1113 76.1407 79.0013 75.3607 81.6613C74.5607 84.3913 72.0007 84.1113 70.3507 82.4513C69.1007 81.1913 68.5007 79.4513 68.3707 77.7113C67.9707 72.1813 71.7007 67.4213 72.1807 62.0913C72.2007 61.9113 71.9107 61.9113 71.9007 62.0913C71.7907 64.3613 70.6807 66.9113 69.9007 69.0213C69.2307 70.8513 68.5007 72.6713 68.1207 74.5913C67.5407 77.5213 67.8307 80.9013 70.1907 83.0113C71.5707 84.2313 74.0907 85.2313 75.2207 83.2213C76.8307 80.3713 76.1307 76.4313 75.6907 73.3813Z" fill="#F4F4F4"/>
<path d="M75.9809 73.6413C75.9709 73.6113 75.9609 73.5713 75.9509 73.5413C75.9309 73.4313 75.9109 73.3213 75.8809 73.2213C75.8709 73.1613 75.8609 73.0913 75.8709 73.0313C75.8909 72.9113 75.7909 72.8213 75.6809 72.8513C75.6609 72.8313 75.6509 72.8113 75.6309 72.8013C75.2409 72.4913 75.0209 73.0013 75.1109 73.3313C75.1109 73.3313 75.1209 73.3313 75.1209 73.3413C75.1109 73.5113 75.1109 73.6813 75.1309 73.8513C75.1509 74.0513 75.1409 74.3713 75.2909 74.5213C75.5709 74.7913 75.9609 74.5313 75.9909 74.2013C76.0009 74.0913 76.0009 73.9513 75.9909 73.7913C75.9909 73.7413 76.0009 73.6913 75.9809 73.6413Z" fill="#F4F4F4"/>
<path d="M73.9808 65.4413C73.9008 64.9113 73.8208 64.3313 74.0208 63.8713C74.2508 63.3413 74.7808 63.1613 75.2608 63.0813C75.8108 62.9813 76.3708 62.9413 76.9308 62.9613C77.1708 62.9713 77.7308 62.9713 77.9308 63.1413C78.2208 63.3913 78.2008 63.8713 78.2408 64.3013C78.4408 66.9113 78.7008 69.0813 78.7608 71.4713C78.7708 71.8013 78.7608 72.1813 78.5708 72.4013C78.4508 72.5413 78.2808 72.5913 78.1208 72.6213C77.2408 72.8113 74.5808 73.4513 74.4308 71.7413C74.2508 69.6313 74.2908 67.5513 73.9808 65.4413Z" fill="#3D3D3D"/>
<path d="M74.2107 64.9113C74.2107 64.7113 74.2207 64.4913 74.3107 64.3313C74.4207 64.1513 74.6207 64.0913 74.8007 64.0613C75.5507 63.9113 76.3207 63.8513 77.0807 63.7913C77.2007 63.7813 77.5107 63.7613 77.6207 63.8313C77.6907 63.8713 77.8307 63.9413 77.8807 64.0213C78.0607 64.3013 77.9807 64.6613 78.0507 65.0113C78.1107 65.3213 78.0707 65.6413 78.1107 65.9513C78.1507 66.2913 78.1607 66.6313 78.1907 66.9813C78.2207 67.4913 78.2707 67.9913 78.3307 68.5013C78.3707 68.8613 78.4007 69.2313 78.4607 69.5913C78.4907 69.7613 78.4907 69.9413 78.4407 70.1013C78.3707 70.3213 78.2107 70.4113 78.0307 70.4613C77.6707 70.5513 77.3007 70.5713 76.9407 70.6013C76.4007 70.6313 75.8507 70.6713 75.3107 70.7013C75.1207 70.7113 74.7207 70.8013 74.6107 70.5113C74.5507 70.3513 74.5807 70.0913 74.5707 69.9213C74.5607 69.6913 74.5407 69.4513 74.5207 69.2213C74.4507 68.3013 74.3407 67.3813 74.2807 66.4613C74.2307 65.9313 74.2107 65.4213 74.2107 64.9113Z" fill="white"/>
<path d="M76.5407 63.4112C76.4807 63.4012 76.4107 63.4112 76.3507 63.4112C76.2007 63.4212 76.0607 63.4412 75.9107 63.4512C75.8307 63.4612 75.7207 63.4812 75.7107 63.5212C75.7007 63.5412 75.7307 63.5712 75.7607 63.5812C75.8907 63.6412 76.6207 63.6212 76.6507 63.4812C76.6507 63.4512 76.6007 63.4212 76.5407 63.4112Z" fill="#5E625E"/>
<path d="M75.6307 63.4911C75.6107 63.4611 75.5707 63.4611 75.5407 63.4711C75.5107 63.4911 75.4907 63.5311 75.4907 63.5611C75.4907 63.5911 75.4907 63.6111 75.5007 63.6311C75.5307 63.6711 75.5907 63.6811 75.6207 63.6411C75.6507 63.6011 75.6607 63.5411 75.6407 63.5011L75.6307 63.4911Z" fill="#5E625E"/>
<path d="M76.3807 71.3613C76.3107 71.4313 76.2807 71.5313 76.2607 71.6313C76.2507 71.6813 76.2507 71.7313 76.2607 71.7813C76.2807 71.9013 76.3607 72.0013 76.4707 72.0613C76.5707 72.1113 76.6907 72.1213 76.7907 72.0913C76.8207 72.0813 76.8507 72.0713 76.8707 72.0613C76.9007 72.0413 76.9207 72.0113 76.9307 71.9713C76.9907 71.8413 77.0007 71.6913 76.9507 71.5613C76.8707 71.3213 76.5607 71.1713 76.3807 71.3613Z" fill="#EBEFEB"/>
<path d="M77.2908 67.0714C77.2408 66.7814 77.2208 66.4114 77.1008 66.1514C77.0308 66.0014 76.9308 65.9914 76.7808 66.0114C76.4508 66.0414 76.1208 66.1214 75.8108 66.2014C75.7208 66.2214 75.6908 66.3114 75.7008 66.4014C75.7308 66.5914 75.7508 66.7914 75.7708 66.9814C75.7708 67.0414 75.7608 67.1914 75.7608 67.3314C75.7308 67.3214 75.7008 67.3214 75.6808 67.3314C75.4808 67.3214 75.2808 67.5214 75.4108 67.7614C75.5008 67.9314 75.6608 67.9414 75.7808 67.8814C76.1308 67.8614 76.1308 67.2814 76.0808 66.8414C76.3508 66.8014 76.6208 66.7914 76.8808 66.7614C76.8908 66.7614 76.9008 66.7614 76.9008 66.7514C76.9108 66.8014 76.9108 66.8514 76.9208 66.8914C76.9308 66.9714 76.9508 67.0414 76.9608 67.1214C76.9608 67.1314 76.9608 67.1414 76.9708 67.1614C76.8308 67.1514 76.6808 67.2414 76.6608 67.4314C76.6308 67.7714 77.1008 67.9214 77.2808 67.6414C77.3708 67.4614 77.3208 67.2514 77.2908 67.0714ZM76.0508 66.6214C76.0408 66.5714 76.0408 66.5114 76.0308 66.4714C76.1408 66.4514 76.2408 66.4214 76.3508 66.4014C76.4308 66.3914 76.5008 66.3714 76.5808 66.3614C76.6908 66.3514 76.7608 66.3114 76.8308 66.4014C76.5508 66.4514 76.3008 66.5414 76.0508 66.6214Z" fill="#D9924E"/>
<path d="M76.2907 69.3812C76.2507 69.3712 76.2107 69.4112 76.2007 69.4512C76.1907 69.4612 76.1807 69.4712 76.1807 69.4812C76.1807 69.6612 76.2007 69.8412 76.2507 70.0212C76.2607 70.0712 76.3307 70.0712 76.3607 70.0412C76.4307 69.9712 76.5107 69.9112 76.5907 69.8512C76.6607 69.8112 76.7207 69.7712 76.7707 69.7012C76.8007 69.6612 76.7907 69.6112 76.7407 69.5912C76.6107 69.4912 76.4607 69.4312 76.2907 69.3812Z" fill="#828282"/>
<path d="M75.4906 69.5113C75.4806 69.7013 75.4806 69.8913 75.5106 70.0813C75.5306 70.1813 75.6806 70.1513 75.6506 70.0513C75.6006 69.8813 75.5706 69.7013 75.5606 69.5213C75.5606 69.4713 75.4906 69.4713 75.4906 69.5113Z" fill="#828282"/>
<path d="M75.2107 69.5312C75.2307 69.7612 75.2907 69.9712 75.3507 70.1912C75.3607 70.2312 75.4207 70.2112 75.4207 70.1712C75.3707 69.9612 75.3707 69.7312 75.3607 69.5112C75.3607 69.4212 75.2107 69.4412 75.2107 69.5312Z" fill="#828282"/>
<path d="M77.7908 69.4912C77.7808 69.4012 77.7708 69.3012 77.6608 69.3112C77.5908 69.3112 77.5208 69.3312 77.4508 69.3412C77.4108 69.3512 77.3508 69.3512 77.3108 69.3712C77.2208 69.4312 77.2708 69.5712 77.2908 69.6512C77.2908 69.6512 77.2908 69.6512 77.2908 69.6612C77.2908 69.7212 77.3008 69.7712 77.3108 69.8312C77.3408 69.9512 77.3808 69.9712 77.5008 69.9512C77.5908 69.9412 77.7408 69.9312 77.7908 69.8412C77.8508 69.7512 77.8008 69.5812 77.7908 69.4912Z" fill="#828282"/>
<path d="M57.7706 81.0515C57.9306 81.0315 58.1006 81.0215 58.2606 81.0715C58.9006 81.2715 58.9207 82.2815 58.8207 83.0315C53.9407 84.3915 48.8806 83.6215 43.9606 82.8515C42.9606 82.6915 41.1207 81.5815 42.7407 80.5415C43.9607 79.7515 45.9607 80.6515 47.2407 80.8315C50.7206 81.3215 54.2606 81.3915 57.7706 81.0515Z" fill="#8EACC4"/>
</svg>
