<svg width="44" height="44" viewBox="0 0 44 44" fill="none" xmlns="http://www.w3.org/2000/svg">
<path d="M22 0C9.834 0 0 9.834 0 22C0 34.166 9.834 44 22 44C27.8348 44 33.4305 41.6822 37.5564 37.5564C41.6822 33.4305 44 27.8348 44 22C44 9.834 34.1 0 22 0ZM22 39.6C17.3322 39.6 12.8556 37.7457 9.55492 34.4451C6.25428 31.1444 4.4 26.6678 4.4 22C4.4 17.3322 6.25428 12.8556 9.55492 9.55492C12.8556 6.25428 17.3322 4.4 22 4.4C26.6678 4.4 31.1444 6.25428 34.4451 9.55492C37.7457 12.8556 39.6 17.3322 39.6 22C39.6 26.6678 37.7457 31.1444 34.4451 34.4451C31.1444 37.7457 26.6678 39.6 22 39.6ZM31.196 12.672L28.864 15.004L26.532 12.672L24.2 15.004L26.532 17.336L24.2 19.668L26.532 22L28.864 19.668L31.196 22L33.528 19.668L31.196 17.336L33.528 15.004L31.196 12.672ZM12.804 22L15.136 19.668L17.468 22L19.8 19.668L17.468 17.336L19.8 15.004L17.468 12.672L15.136 15.004L12.804 12.672L10.472 15.004L12.804 17.336L10.472 19.668L12.804 22ZM22 26.4C16.874 26.4 12.518 29.612 10.758 34.1H33.242C31.482 29.612 27.126 26.4 22 26.4Z" fill="url(#paint0_linear)"/>
<defs>
<linearGradient id="paint0_linear" x1="1.48538e-06" y1="-2.75" x2="54.1212" y2="36.8841" gradientUnits="userSpaceOnUse">
<stop stop-color="#8360CA"/>
<stop offset="1" stop-color="#A173FF"/>
</linearGradient>
</defs>
</svg>
