<svg width="45" height="45" viewBox="0 0 45 45" fill="none" xmlns="http://www.w3.org/2000/svg">
<path d="M22.0833 44.1667C9.88671 44.1667 0 34.28 0 22.0833C0 9.88671 9.88671 0 22.0833 0C34.28 0 44.1667 9.88671 44.1667 22.0833C44.1667 34.28 34.28 44.1667 22.0833 44.1667ZM22.0833 39.75C26.7688 39.75 31.2624 37.8887 34.5756 34.5756C37.8887 31.2624 39.75 26.7688 39.75 22.0833C39.75 17.3978 37.8887 12.9043 34.5756 9.59111C31.2624 6.27797 26.7688 4.41667 22.0833 4.41667C17.3978 4.41667 12.9043 6.27797 9.59111 9.59111C6.27797 12.9043 4.41667 17.3978 4.41667 22.0833C4.41667 26.7688 6.27797 31.2624 9.59111 34.5756C12.9043 37.8887 17.3978 39.75 22.0833 39.75ZM11.0417 33.125C11.0417 30.1966 12.205 27.3881 14.2757 25.3174C16.3464 23.2467 19.1549 22.0833 22.0833 22.0833C25.0118 22.0833 27.8203 23.2467 29.891 25.3174C31.9617 27.3881 33.125 30.1966 33.125 33.125H28.7083C28.7083 31.3679 28.0103 29.6828 26.7679 28.4404C25.5255 27.198 23.8404 26.5 22.0833 26.5C20.3263 26.5 18.6412 27.198 17.3988 28.4404C16.1563 29.6828 15.4583 31.3679 15.4583 33.125H11.0417ZM13.25 19.875C12.3715 19.875 11.5289 19.526 10.9077 18.9048C10.2865 18.2836 9.9375 17.441 9.9375 16.5625C9.9375 15.684 10.2865 14.8414 10.9077 14.2202C11.5289 13.599 12.3715 13.25 13.25 13.25C14.1285 13.25 14.9711 13.599 15.5923 14.2202C16.2135 14.8414 16.5625 15.684 16.5625 16.5625C16.5625 17.441 16.2135 18.2836 15.5923 18.9048C14.9711 19.526 14.1285 19.875 13.25 19.875ZM30.9167 19.875C30.0381 19.875 29.1956 19.526 28.5744 18.9048C27.9532 18.2836 27.6042 17.441 27.6042 16.5625C27.6042 15.684 27.9532 14.8414 28.5744 14.2202C29.1956 13.599 30.0381 13.25 30.9167 13.25C31.7952 13.25 32.6377 13.599 33.259 14.2202C33.8802 14.8414 34.2292 15.684 34.2292 16.5625C34.2292 17.441 33.8802 18.2836 33.259 18.9048C32.6377 19.526 31.7952 19.875 30.9167 19.875Z" fill="url(#paint0_linear)"/>
<defs>
<linearGradient id="paint0_linear" x1="1.49101e-06" y1="-2.76042" x2="54.3262" y2="37.0238" gradientUnits="userSpaceOnUse">
<stop stop-color="#8360CA"/>
<stop offset="1" stop-color="#A173FF"/>
</linearGradient>
</defs>
</svg>
